G04 #@! TF.GenerationSoftware,KiCad,Pcbnew,9.0.2-2.fc42*
G04 #@! TF.CreationDate,2025-07-20T15:46:27-07:00*
G04 #@! TF.ProjectId,rezq_rev3,72657a71-5f72-4657-9633-2e6b69636164,rev?*
G04 #@! TF.SameCoordinates,Original*
G04 #@! TF.FileFunction,Copper,L2,Bot*
G04 #@! TF.FilePolarity,Positive*
%FSLAX46Y46*%
G04 Gerber Fmt 4.6, Leading zero omitted, Abs format (unit mm)*
G04 Created by KiCad (PCBNEW 9.0.2-2.fc42) date 2025-07-20 15:46:27*
%MOMM*%
%LPD*%
G01*
G04 APERTURE LIST*
G04 Aperture macros list*
%AMRotRect*
0 Rectangle, with rotation*
0 The origin of the aperture is its center*
0 $1 length*
0 $2 width*
0 $3 Rotation angle, in degrees counterclockwise*
0 Add horizontal line*
21,1,$1,$2,0,0,$3*%
G04 Aperture macros list end*
G04 #@! TA.AperFunction,ComponentPad*
%ADD10R,1.700000X1.700000*%
G04 #@! TD*
G04 #@! TA.AperFunction,ComponentPad*
%ADD11C,3.000000*%
G04 #@! TD*
G04 #@! TA.AperFunction,ComponentPad*
%ADD12O,1.700000X1.700000*%
G04 #@! TD*
G04 #@! TA.AperFunction,ComponentPad*
%ADD13RotRect,1.800000X1.800000X135.000000*%
G04 #@! TD*
G04 #@! TA.AperFunction,ComponentPad*
%ADD14C,1.800000*%
G04 #@! TD*
G04 #@! TA.AperFunction,ComponentPad*
%ADD15RotRect,1.800000X1.800000X225.000000*%
G04 #@! TD*
G04 #@! TA.AperFunction,ComponentPad*
%ADD16R,1.800000X1.800000*%
G04 #@! TD*
G04 #@! TA.AperFunction,ComponentPad*
%ADD17R,1.600000X1.600000*%
G04 #@! TD*
G04 #@! TA.AperFunction,ComponentPad*
%ADD18C,1.600000*%
G04 #@! TD*
G04 #@! TA.AperFunction,ComponentPad*
%ADD19O,1.600000X1.600000*%
G04 #@! TD*
G04 #@! TA.AperFunction,ViaPad*
%ADD20C,0.800000*%
G04 #@! TD*
G04 #@! TA.AperFunction,ViaPad*
%ADD21C,0.420000*%
G04 #@! TD*
G04 #@! TA.AperFunction,ViaPad*
%ADD22C,1.600000*%
G04 #@! TD*
G04 #@! TA.AperFunction,Conductor*
%ADD23C,2.000000*%
G04 #@! TD*
G04 #@! TA.AperFunction,Conductor*
%ADD24C,1.500000*%
G04 #@! TD*
G04 #@! TA.AperFunction,Conductor*
%ADD25C,1.000000*%
G04 #@! TD*
G04 #@! TA.AperFunction,Conductor*
%ADD26C,0.500000*%
G04 #@! TD*
G04 #@! TA.AperFunction,Conductor*
%ADD27C,0.300000*%
G04 #@! TD*
G04 #@! TA.AperFunction,Conductor*
%ADD28C,0.250000*%
G04 #@! TD*
G04 APERTURE END LIST*
D10*
X195700000Y-186420000D03*
D11*
X161438000Y-185554000D03*
X161438000Y-180728000D03*
X161438000Y-175902000D03*
D10*
X155088000Y-184750000D03*
D12*
X155088000Y-182210000D03*
D13*
X213360000Y-110363000D03*
D14*
X211563949Y-108566949D03*
D15*
X184183000Y-112290000D03*
D14*
X182386949Y-114086051D03*
D10*
X155140000Y-177850000D03*
X191860000Y-186420000D03*
D16*
X158233600Y-118307200D03*
D14*
X155693600Y-118307200D03*
D10*
X179000000Y-164000000D03*
D17*
X186203000Y-183736621D03*
D18*
X186203000Y-186236621D03*
D17*
X190627000Y-161671000D03*
D19*
X193167000Y-161671000D03*
X195707000Y-161671000D03*
X198247000Y-161671000D03*
X200787000Y-161671000D03*
X203327000Y-161671000D03*
X205867000Y-161671000D03*
X208407000Y-161671000D03*
X208407000Y-154051000D03*
X205867000Y-154051000D03*
X203327000Y-154051000D03*
X200787000Y-154051000D03*
X198247000Y-154051000D03*
X195707000Y-154051000D03*
X193167000Y-154051000D03*
X190627000Y-154051000D03*
D17*
X169998000Y-172194000D03*
D18*
X169998000Y-169694000D03*
D16*
X243323600Y-118307200D03*
D14*
X240783600Y-118307200D03*
D15*
X187775102Y-108697897D03*
D14*
X185979051Y-110493948D03*
D10*
X155803600Y-172186600D03*
D12*
X155803600Y-169646600D03*
X155803600Y-167106600D03*
X155803600Y-164566600D03*
X155803600Y-162026600D03*
D10*
X183300000Y-129130000D03*
D16*
X238243600Y-118307200D03*
D14*
X235703600Y-118307200D03*
D13*
X216875888Y-113878889D03*
D14*
X215079837Y-112082838D03*
D16*
X163313600Y-118307200D03*
D14*
X160773600Y-118307200D03*
D10*
X160430000Y-160120000D03*
D20*
X178630000Y-107010000D03*
X230500000Y-111000000D03*
X164360000Y-109590000D03*
X196000000Y-109750000D03*
X202717400Y-131495800D03*
X223774000Y-184912000D03*
X189382400Y-181660800D03*
X182372000Y-143256000D03*
X194056000Y-168402000D03*
X173750000Y-109250000D03*
X184170000Y-133330000D03*
X200250000Y-186944000D03*
X220750000Y-106470000D03*
X200660000Y-169164000D03*
X236750000Y-181000000D03*
X218008200Y-138226800D03*
X191050000Y-125140000D03*
X209600800Y-137896600D03*
X226250000Y-108250000D03*
X209600800Y-134645400D03*
X190703200Y-182829200D03*
X166497000Y-174117000D03*
X231250000Y-169250000D03*
X204250000Y-109750000D03*
X216250000Y-142500000D03*
X170000000Y-109250000D03*
X204216000Y-172466000D03*
X193000000Y-142250000D03*
X191262000Y-179324000D03*
X200183000Y-106161625D03*
X188163200Y-143408400D03*
X163753800Y-182473600D03*
X157530800Y-174980600D03*
X170688000Y-161544000D03*
X206298800Y-131419600D03*
X234610000Y-108440000D03*
X226568000Y-185928000D03*
X180710000Y-133380000D03*
X173609000Y-117983000D03*
X228250000Y-159500000D03*
X209000000Y-142500000D03*
X228250000Y-162500000D03*
X175971200Y-177165000D03*
X194640200Y-178130200D03*
X182570000Y-126570000D03*
X225729800Y-143256000D03*
X154240000Y-110410000D03*
X245010000Y-114690000D03*
X198069200Y-169367200D03*
X202750000Y-142500000D03*
X223240600Y-128041400D03*
X192630000Y-125140000D03*
X236750000Y-176500000D03*
X178409600Y-127152400D03*
X199898000Y-173736000D03*
X209550000Y-131419600D03*
X206298800Y-134645400D03*
X217932000Y-128930400D03*
X228346000Y-143205200D03*
X188330000Y-133460000D03*
X228250000Y-165750000D03*
X179247800Y-142214600D03*
X174244000Y-170688000D03*
X225000000Y-114750000D03*
X200250000Y-184750000D03*
X197317075Y-166817075D03*
X190538500Y-151638000D03*
X185420000Y-170694000D03*
X185420000Y-166370000D03*
X222039157Y-182789157D03*
X211153750Y-172153750D03*
X222758000Y-186436000D03*
X224336432Y-180663568D03*
X213750000Y-173500000D03*
X168175000Y-157675000D03*
X203250000Y-181000000D03*
X224282000Y-188682200D03*
X234000000Y-122437500D03*
X230632000Y-147574000D03*
X231140000Y-125476000D03*
D21*
X224250000Y-183250000D03*
D20*
X200250000Y-189000000D03*
D21*
X220500000Y-176500000D03*
X213500000Y-176000000D03*
X225000000Y-184500000D03*
D22*
X161450000Y-165975000D03*
X192786000Y-175500000D03*
D20*
X217750000Y-161500000D03*
X217970000Y-170500000D03*
X161750000Y-163750000D03*
D21*
X221555500Y-173305500D03*
D20*
X212750000Y-151500000D03*
D21*
X214875000Y-169375000D03*
X213500000Y-158500000D03*
X214500000Y-159500000D03*
X215250000Y-170000000D03*
X191135000Y-163195000D03*
X210393701Y-183106299D03*
X210250000Y-184000000D03*
X192024000Y-164715000D03*
D20*
X215070000Y-182500000D03*
X224000000Y-157000000D03*
X215079837Y-128579837D03*
D21*
X214535000Y-181739292D03*
D20*
X212034997Y-182500000D03*
X225930000Y-162653258D03*
X221250000Y-156500000D03*
X212965000Y-182500000D03*
X225430000Y-155375000D03*
X225250000Y-126500000D03*
X219820000Y-179195894D03*
X235750000Y-127250000D03*
X223110000Y-159179167D03*
X217726876Y-181523124D03*
X189250000Y-123750000D03*
X221000000Y-157750000D03*
X213500000Y-125220000D03*
X222285000Y-166250000D03*
X175750000Y-122500000D03*
X223247315Y-154500000D03*
X220715771Y-151968456D03*
X217756447Y-182452657D03*
D21*
X230000000Y-170250000D03*
X228250000Y-167250000D03*
X210963943Y-182889672D03*
D22*
X181000000Y-170694000D03*
D20*
X239250000Y-177000000D03*
X242915002Y-181250000D03*
D21*
X217750000Y-177315687D03*
X218000000Y-176750000D03*
X212750000Y-178250000D03*
X210837500Y-179500000D03*
X217302973Y-174947027D03*
X217306742Y-175693258D03*
X208500000Y-175250000D03*
X209500000Y-181000000D03*
D23*
X188697000Y-155981000D02*
X190627000Y-154051000D01*
X160773600Y-119827200D02*
X171903400Y-130957000D01*
X197317075Y-166817075D02*
X192978899Y-166817075D01*
X192595824Y-166434000D02*
X191446274Y-166434000D01*
X160773600Y-118307200D02*
X160773600Y-119827200D01*
X171903400Y-130957000D02*
X173357771Y-130957000D01*
X192978899Y-166817075D02*
X192595824Y-166434000D01*
X190538500Y-148137729D02*
X190538500Y-151638000D01*
X191446274Y-166434000D02*
X188697000Y-163684726D01*
X188697000Y-163684726D02*
X188697000Y-155981000D01*
X190538500Y-151341553D02*
X190538500Y-151638000D01*
X173357771Y-130957000D02*
X190538500Y-148137729D01*
X185420000Y-170694000D02*
X185420000Y-166624000D01*
D24*
X224164746Y-180663568D02*
X222039157Y-182789157D01*
X222039157Y-185717157D02*
X222039157Y-182789157D01*
D25*
X211153750Y-172153750D02*
X212500000Y-173500000D01*
D24*
X224336432Y-180663568D02*
X224164746Y-180663568D01*
X222758000Y-186436000D02*
X222039157Y-185717157D01*
D25*
X212500000Y-173500000D02*
X213750000Y-173500000D01*
D23*
X191713549Y-168564000D02*
X203250000Y-180100451D01*
X168175000Y-157675000D02*
X179675000Y-157675000D01*
X203250000Y-180100451D02*
X203250000Y-181000000D01*
X179675000Y-157675000D02*
X190564000Y-168564000D01*
X190564000Y-168564000D02*
X191713549Y-168564000D01*
X216875888Y-113878889D02*
X217512284Y-113242493D01*
X184669000Y-112776000D02*
X184183000Y-112290000D01*
D24*
X227257606Y-188682200D02*
X232530000Y-183409806D01*
X231140000Y-125297500D02*
X234000000Y-122437500D01*
D23*
X174167200Y-115747200D02*
X159712206Y-115747200D01*
X217512284Y-113242493D02*
X217512284Y-111644430D01*
D24*
X232530000Y-158616000D02*
X230632000Y-156718000D01*
D23*
X212404803Y-106536949D02*
X210234911Y-106536949D01*
X210234911Y-106536949D02*
X203995860Y-112776000D01*
X184819396Y-112926396D02*
X184819396Y-114524458D01*
X174742000Y-116322000D02*
X174167200Y-115747200D01*
X217512284Y-111644430D02*
X212404803Y-106536949D01*
X184183000Y-112290000D02*
X184819396Y-112926396D01*
D24*
X230632000Y-156718000D02*
X230632000Y-147574000D01*
D23*
X159712206Y-115747200D02*
X158213600Y-117245806D01*
X203995860Y-112776000D02*
X184669000Y-112776000D01*
D24*
X232530000Y-183409806D02*
X232530000Y-158616000D01*
D23*
X184819396Y-114524458D02*
X183021854Y-116322000D01*
D24*
X224282000Y-188682200D02*
X227257606Y-188682200D01*
X231140000Y-125476000D02*
X231140000Y-125297500D01*
D23*
X183021854Y-116322000D02*
X174742000Y-116322000D01*
X158213600Y-117245806D02*
X158213600Y-118306194D01*
D26*
X200250000Y-189000000D02*
X222250000Y-189000000D01*
X225000000Y-186250000D02*
X225000000Y-184500000D01*
D27*
X220200000Y-176200000D02*
X220500000Y-176500000D01*
X224250000Y-183250000D02*
X224250000Y-183750000D01*
X217577818Y-176200000D02*
X220200000Y-176200000D01*
X213500000Y-176000000D02*
X213743258Y-176243258D01*
X213743258Y-176243258D02*
X217534560Y-176243258D01*
D26*
X222250000Y-189000000D02*
X225000000Y-186250000D01*
D27*
X224250000Y-183750000D02*
X225000000Y-184500000D01*
X217534560Y-176243258D02*
X217577818Y-176200000D01*
D23*
X183163306Y-175895000D02*
X173158306Y-165890000D01*
X192230000Y-175895000D02*
X183163306Y-175895000D01*
X173158306Y-165890000D02*
X161535000Y-165890000D01*
X192625000Y-175500000D02*
X192230000Y-175895000D01*
D28*
X217750000Y-170250000D02*
X217970000Y-170470000D01*
X217750000Y-161500000D02*
X217750000Y-170250000D01*
X217970000Y-170470000D02*
X217970000Y-170500000D01*
D26*
X221555500Y-173305500D02*
X221505000Y-173255000D01*
X221505000Y-160255000D02*
X212750000Y-151500000D01*
X161700200Y-163750000D02*
X155803600Y-169646600D01*
X221505000Y-173255000D02*
X221505000Y-160255000D01*
X161750000Y-163750000D02*
X161700200Y-163750000D01*
D28*
X214875000Y-169375000D02*
X213975000Y-168475000D01*
X213975000Y-158975000D02*
X213500000Y-158500000D01*
X213975000Y-168475000D02*
X213975000Y-158975000D01*
X215250000Y-170000000D02*
X215400000Y-169850000D01*
X215400000Y-169850000D02*
X215400000Y-160400000D01*
X215400000Y-160400000D02*
X214500000Y-159500000D01*
X192000000Y-164060000D02*
X197810000Y-164060000D01*
X202500000Y-174750000D02*
X210393701Y-182643701D01*
X197810000Y-164060000D02*
X202500000Y-168750000D01*
X202500000Y-168750000D02*
X202500000Y-174750000D01*
X210393701Y-182643701D02*
X210393701Y-183106299D01*
X191135000Y-163195000D02*
X192000000Y-164060000D01*
X193190000Y-165250000D02*
X198250000Y-165250000D01*
X198250000Y-165250000D02*
X202120000Y-169120000D01*
X193040000Y-165100000D02*
X192655000Y-164715000D01*
X209868701Y-183618701D02*
X210250000Y-184000000D01*
X202120000Y-174907402D02*
X209868701Y-182656103D01*
X193040000Y-165100000D02*
X193190000Y-165250000D01*
X209868701Y-182656103D02*
X209868701Y-183618701D01*
X192655000Y-164715000D02*
X192024000Y-164715000D01*
X202120000Y-169120000D02*
X202120000Y-174907402D01*
D27*
X236750000Y-127211666D02*
X236750000Y-119353600D01*
X224750000Y-177051896D02*
X224750000Y-166500000D01*
X224750000Y-166500000D02*
X224750000Y-151164011D01*
X231394000Y-144520011D02*
X231394000Y-128270000D01*
X216132657Y-183562657D02*
X218239239Y-183562657D01*
X231664000Y-128000000D02*
X235961666Y-128000000D01*
X218239239Y-183562657D02*
X224750000Y-177051896D01*
X215070000Y-182500000D02*
X216132657Y-183562657D01*
X236750000Y-119353600D02*
X235703600Y-118307200D01*
X224750000Y-151164011D02*
X231394000Y-144520011D01*
X235961666Y-128000000D02*
X236750000Y-127211666D01*
X231394000Y-128270000D02*
X231664000Y-128000000D01*
X215250000Y-128750000D02*
X215079837Y-128579837D01*
X224000000Y-157000000D02*
X224290000Y-157290000D01*
X217474781Y-183132657D02*
X216081416Y-181739292D01*
X224290000Y-157290000D02*
X224290000Y-176903784D01*
X215079837Y-112082838D02*
X215079837Y-128579837D01*
X216081416Y-181739292D02*
X214535000Y-181739292D01*
X224290000Y-176903784D02*
X218061127Y-183132657D01*
X218061127Y-183132657D02*
X217474781Y-183132657D01*
X218595463Y-184422657D02*
X225750000Y-177268120D01*
X159493600Y-117776000D02*
X159493600Y-119407200D01*
X221395771Y-156354229D02*
X221395771Y-151686791D01*
X173614866Y-117027200D02*
X160242400Y-117027200D01*
X160242400Y-117027200D02*
X159493600Y-117776000D01*
X225750000Y-177268120D02*
X225750000Y-162833258D01*
X221395771Y-151686791D02*
X187310980Y-117602000D01*
X159493600Y-119407200D02*
X159266800Y-119634000D01*
X221250000Y-156500000D02*
X221395771Y-156354229D01*
X212034997Y-182500000D02*
X212034997Y-182531663D01*
X225750000Y-162833258D02*
X225930000Y-162653258D01*
X156972000Y-119585600D02*
X155693600Y-118307200D01*
X174189666Y-117602000D02*
X173614866Y-117027200D01*
X159266800Y-119634000D02*
X156972000Y-119634000D01*
X187310980Y-117602000D02*
X174189666Y-117602000D01*
X213925991Y-184422657D02*
X218595463Y-184422657D01*
X212034997Y-182531663D02*
X213925991Y-184422657D01*
X156972000Y-119634000D02*
X156972000Y-119585600D01*
X204471666Y-110490000D02*
X204930000Y-110031666D01*
X225430000Y-155375000D02*
X225250000Y-155555000D01*
X182386949Y-114086051D02*
X182386949Y-112253051D01*
X185420000Y-109220000D02*
X186628433Y-109220000D01*
X212852000Y-105156000D02*
X225250000Y-117554000D01*
X204978000Y-109982000D02*
X204978000Y-109983666D01*
X225250000Y-155555000D02*
X225250000Y-177160008D01*
X187898433Y-110490000D02*
X204471666Y-110490000D01*
X214457657Y-183992657D02*
X212965000Y-182500000D01*
X204930000Y-110031666D02*
X204930000Y-110030000D01*
X182386949Y-112253051D02*
X185420000Y-109220000D01*
X225250000Y-117554000D02*
X225250000Y-126500000D01*
X204930000Y-110030000D02*
X204978000Y-109982000D01*
X204978000Y-109982000D02*
X209804000Y-105156000D01*
X186628433Y-109220000D02*
X187898433Y-110490000D01*
X218417351Y-183992657D02*
X214457657Y-183992657D01*
X209804000Y-105156000D02*
X212852000Y-105156000D01*
X225250000Y-177160008D02*
X218417351Y-183992657D01*
X222715000Y-159785000D02*
X222430000Y-159500000D01*
X225888600Y-127361400D02*
X225500000Y-127750000D01*
X235750000Y-127250000D02*
X226000000Y-127250000D01*
X222965000Y-176357756D02*
X222965000Y-165968334D01*
X222965000Y-165968334D02*
X222715000Y-165718334D01*
X226000000Y-127250000D02*
X225500000Y-127750000D01*
X222430000Y-130820000D02*
X225500000Y-127750000D01*
X222715000Y-165718334D02*
X222715000Y-159785000D01*
X220126862Y-179195894D02*
X222965000Y-176357756D01*
X219820000Y-179195894D02*
X220126862Y-179195894D01*
X222430000Y-159500000D02*
X222430000Y-130820000D01*
X223430000Y-176547560D02*
X218454436Y-181523124D01*
X218454436Y-181523124D02*
X217726876Y-181523124D01*
X189250000Y-123750000D02*
X189250000Y-126000000D01*
X189250000Y-126000000D02*
X221000000Y-157750000D01*
X223430000Y-159499167D02*
X223430000Y-176547560D01*
X223110000Y-159179167D02*
X223430000Y-159499167D01*
X213500000Y-129535000D02*
X213500000Y-128250000D01*
X222000000Y-138035000D02*
X213500000Y-129535000D01*
X222285000Y-160285466D02*
X222285000Y-166250000D01*
X222000000Y-138035000D02*
X222000000Y-160000466D01*
X213500000Y-125220000D02*
X213500000Y-128250000D01*
X222000000Y-160000466D02*
X222285000Y-160285466D01*
X191250000Y-122500000D02*
X220750000Y-152000000D01*
X218133015Y-182452657D02*
X217756447Y-182452657D01*
X223860000Y-158967501D02*
X223860000Y-176725672D01*
X223860000Y-176725672D02*
X218133015Y-182452657D01*
X223247315Y-154500000D02*
X223247315Y-158354816D01*
X223247315Y-158354816D02*
X223860000Y-158967501D01*
X175750000Y-122500000D02*
X191250000Y-122500000D01*
X230000000Y-169000000D02*
X230000000Y-170250000D01*
X228250000Y-167250000D02*
X230000000Y-169000000D01*
D23*
X184071000Y-173765000D02*
X181000000Y-170694000D01*
D27*
X210963943Y-182889672D02*
X210963943Y-185036057D01*
D23*
X198333947Y-179660200D02*
X198333947Y-178196672D01*
X193507275Y-173370000D02*
X191742726Y-173370000D01*
X210250000Y-185750000D02*
X204423747Y-185750000D01*
X191347726Y-173765000D02*
X184071000Y-173765000D01*
X198333947Y-178196672D02*
X193507275Y-173370000D01*
X191742726Y-173370000D02*
X191347726Y-173765000D01*
D27*
X210963943Y-185036057D02*
X210250000Y-185750000D01*
D23*
X204423747Y-185750000D02*
X198333947Y-179660200D01*
D28*
X242915002Y-181250000D02*
X242915002Y-181165002D01*
X242915002Y-181165002D02*
X239250000Y-177500000D01*
X239250000Y-177500000D02*
X239250000Y-177000000D01*
D23*
X161438000Y-175902000D02*
X159490000Y-177850000D01*
X159490000Y-177850000D02*
X155140000Y-177850000D01*
D28*
X198742463Y-163250000D02*
X193254004Y-163250000D01*
X212808150Y-177315687D02*
X198742463Y-163250000D01*
X217750000Y-177315687D02*
X212808150Y-177315687D01*
X192112000Y-162107996D02*
X192112000Y-155106000D01*
X193254004Y-163250000D02*
X192112000Y-162107996D01*
X192112000Y-155106000D02*
X193167000Y-154051000D01*
X194222000Y-162726000D02*
X193167000Y-161671000D01*
X213500000Y-176750000D02*
X199476000Y-162726000D01*
X218000000Y-176750000D02*
X213500000Y-176750000D01*
X199476000Y-162726000D02*
X194222000Y-162726000D01*
X212750000Y-178250000D02*
X213000000Y-178000000D01*
X221025000Y-176282537D02*
X221000000Y-176257537D01*
X220750000Y-178000000D02*
X221025000Y-177725000D01*
X221000000Y-160500000D02*
X214551000Y-154051000D01*
X213000000Y-178000000D02*
X220750000Y-178000000D01*
X221025000Y-177725000D02*
X221025000Y-176282537D01*
X221000000Y-176257537D02*
X221000000Y-160500000D01*
X214551000Y-154051000D02*
X208407000Y-154051000D01*
D27*
X210837500Y-176309682D02*
X198182818Y-163655000D01*
X192611000Y-163655000D02*
X190627000Y-161671000D01*
X210837500Y-179500000D02*
X210837500Y-176309682D01*
X198182818Y-163655000D02*
X192611000Y-163655000D01*
D28*
X215975000Y-156225000D02*
X214856000Y-155106000D01*
X214856000Y-155106000D02*
X206922000Y-155106000D01*
X217302973Y-174947027D02*
X215975000Y-173619054D01*
X206922000Y-155106000D02*
X205867000Y-154051000D01*
X215975000Y-173619054D02*
X215975000Y-156225000D01*
X205867000Y-164253516D02*
X205867000Y-161671000D01*
X217306742Y-175693258D02*
X205867000Y-164253516D01*
D27*
X208500000Y-175250000D02*
X208500000Y-180000000D01*
X208500000Y-180000000D02*
X209500000Y-181000000D01*
G04 #@! TA.AperFunction,Conductor*
G36*
X201871909Y-100659274D02*
G01*
X201873858Y-100659307D01*
X204171608Y-100717394D01*
X204173696Y-100717464D01*
X206470186Y-100814260D01*
X206472273Y-100814366D01*
X208766702Y-100949834D01*
X208768773Y-100949973D01*
X211060777Y-101124094D01*
X211062719Y-101124259D01*
X213351497Y-101336977D01*
X213353387Y-101337169D01*
X215638253Y-101588420D01*
X215640207Y-101588651D01*
X217920462Y-101878357D01*
X217922467Y-101878629D01*
X220072363Y-102188665D01*
X220197399Y-102206697D01*
X220199467Y-102207012D01*
X222468707Y-102573389D01*
X222470605Y-102573712D01*
X224733340Y-102978269D01*
X224735217Y-102978621D01*
X226990771Y-103421236D01*
X226992783Y-103421648D01*
X229240594Y-103902213D01*
X229242455Y-103902627D01*
X231481952Y-104421019D01*
X231483810Y-104421466D01*
X233714104Y-104977481D01*
X233716022Y-104977976D01*
X235936691Y-105571505D01*
X235938647Y-105572045D01*
X236502360Y-105732936D01*
X238148857Y-106202866D01*
X238150861Y-106203456D01*
X240350155Y-106871434D01*
X240352149Y-106872058D01*
X242537901Y-107576360D01*
X242543746Y-107578406D01*
X242919919Y-107720786D01*
X242929406Y-107724837D01*
X243290549Y-107897160D01*
X243299660Y-107901983D01*
X243645197Y-108103783D01*
X243653885Y-108109356D01*
X243938697Y-108309250D01*
X243981402Y-108339222D01*
X243989606Y-108345506D01*
X244168009Y-108494358D01*
X244296842Y-108601850D01*
X244304495Y-108608797D01*
X244589302Y-108889823D01*
X244596351Y-108897383D01*
X244856774Y-109201163D01*
X244863168Y-109209283D01*
X245097392Y-109533702D01*
X245103087Y-109542327D01*
X245309468Y-109885106D01*
X245314426Y-109894175D01*
X245491552Y-110252968D01*
X245495737Y-110262418D01*
X245585692Y-110490816D01*
X245642362Y-110634700D01*
X245645746Y-110644467D01*
X245760863Y-111027687D01*
X245763421Y-111037701D01*
X245846221Y-111429167D01*
X245847936Y-111439359D01*
X245897847Y-111836351D01*
X245898708Y-111846651D01*
X245915492Y-112249010D01*
X245915600Y-112254178D01*
X245915600Y-123384493D01*
X245915482Y-123389902D01*
X245897097Y-123810991D01*
X245896154Y-123821767D01*
X245841493Y-124236957D01*
X245839615Y-124247610D01*
X245748974Y-124656467D01*
X245746174Y-124666917D01*
X245620243Y-125066317D01*
X245616543Y-125076482D01*
X245456283Y-125463385D01*
X245451711Y-125473189D01*
X245258344Y-125844642D01*
X245252936Y-125854010D01*
X245027920Y-126207214D01*
X245021715Y-126216075D01*
X244766779Y-126548315D01*
X244759825Y-126556602D01*
X244476904Y-126865355D01*
X244469255Y-126873004D01*
X244160502Y-127155925D01*
X244152215Y-127162879D01*
X243819975Y-127417815D01*
X243811114Y-127424020D01*
X243457910Y-127649036D01*
X243448542Y-127654444D01*
X243077089Y-127847811D01*
X243067285Y-127852383D01*
X242680382Y-128012643D01*
X242670217Y-128016343D01*
X242270817Y-128142274D01*
X242260367Y-128145074D01*
X241851510Y-128235715D01*
X241840857Y-128237593D01*
X241425667Y-128292254D01*
X241414891Y-128293197D01*
X240993803Y-128311582D01*
X240988394Y-128311700D01*
X236445010Y-128311700D01*
X236377971Y-128292015D01*
X236332216Y-128239211D01*
X236322272Y-128170053D01*
X236351297Y-128106497D01*
X236357329Y-128100019D01*
X236677348Y-127780000D01*
X237030470Y-127426878D01*
X237076614Y-127346954D01*
X237090228Y-127296144D01*
X237100500Y-127257810D01*
X237100500Y-119513355D01*
X237120185Y-119446316D01*
X237172989Y-119400561D01*
X237242147Y-119390617D01*
X237253386Y-119393701D01*
X237253390Y-119393685D01*
X237323847Y-119407699D01*
X237323850Y-119407700D01*
X237323852Y-119407700D01*
X239163350Y-119407700D01*
X239163351Y-119407699D01*
X239178168Y-119404752D01*
X239221829Y-119396068D01*
X239221829Y-119396067D01*
X239221831Y-119396067D01*
X239288152Y-119351752D01*
X239332467Y-119285431D01*
X239332467Y-119285429D01*
X239332468Y-119285429D01*
X239344099Y-119226952D01*
X239344100Y-119226950D01*
X239344100Y-118220589D01*
X239683100Y-118220589D01*
X239683100Y-118393811D01*
X239710198Y-118564901D01*
X239763727Y-118729645D01*
X239842368Y-118883988D01*
X239944186Y-119024128D01*
X240066672Y-119146614D01*
X240206812Y-119248432D01*
X240361155Y-119327073D01*
X240525899Y-119380602D01*
X240696989Y-119407700D01*
X240696990Y-119407700D01*
X240870210Y-119407700D01*
X240870211Y-119407700D01*
X241041301Y-119380602D01*
X241206045Y-119327073D01*
X241360388Y-119248432D01*
X241500528Y-119146614D01*
X241623014Y-119024128D01*
X241724832Y-118883988D01*
X241803473Y-118729645D01*
X241857002Y-118564901D01*
X241884100Y-118393811D01*
X241884100Y-118220589D01*
X241857002Y-118049499D01*
X241803473Y-117884755D01*
X241724832Y-117730412D01*
X241623014Y-117590272D01*
X241500528Y-117467786D01*
X241389951Y-117387447D01*
X242223100Y-117387447D01*
X242223100Y-119226952D01*
X242234731Y-119285429D01*
X242234732Y-119285430D01*
X242279047Y-119351752D01*
X242345369Y-119396067D01*
X242345370Y-119396068D01*
X242403847Y-119407699D01*
X242403850Y-119407700D01*
X242403852Y-119407700D01*
X244243350Y-119407700D01*
X244243351Y-119407699D01*
X244258168Y-119404752D01*
X244301829Y-119396068D01*
X244301829Y-119396067D01*
X244301831Y-119396067D01*
X244368152Y-119351752D01*
X244412467Y-119285431D01*
X244412467Y-119285429D01*
X244412468Y-119285429D01*
X244424099Y-119226952D01*
X244424100Y-119226950D01*
X244424100Y-117387449D01*
X244424099Y-117387447D01*
X244412468Y-117328970D01*
X244412467Y-117328969D01*
X244368152Y-117262647D01*
X244301830Y-117218332D01*
X244301829Y-117218331D01*
X244243352Y-117206700D01*
X244243348Y-117206700D01*
X242403852Y-117206700D01*
X242403847Y-117206700D01*
X242345370Y-117218331D01*
X242345369Y-117218332D01*
X242279047Y-117262647D01*
X242234732Y-117328969D01*
X242234731Y-117328970D01*
X242223100Y-117387447D01*
X241389951Y-117387447D01*
X241360388Y-117365968D01*
X241206045Y-117287327D01*
X241041301Y-117233798D01*
X241041299Y-117233797D01*
X241041298Y-117233797D01*
X240909871Y-117212981D01*
X240870211Y-117206700D01*
X240696989Y-117206700D01*
X240657328Y-117212981D01*
X240525902Y-117233797D01*
X240361152Y-117287328D01*
X240206811Y-117365968D01*
X240170939Y-117392031D01*
X240066672Y-117467786D01*
X240066670Y-117467788D01*
X240066669Y-117467788D01*
X239944188Y-117590269D01*
X239944188Y-117590270D01*
X239944186Y-117590272D01*
X239900459Y-117650456D01*
X239842368Y-117730411D01*
X239763728Y-117884752D01*
X239710197Y-118049502D01*
X239684346Y-118212719D01*
X239683100Y-118220589D01*
X239344100Y-118220589D01*
X239344100Y-117387449D01*
X239344099Y-117387447D01*
X239332468Y-117328970D01*
X239332467Y-117328969D01*
X239288152Y-117262647D01*
X239221830Y-117218332D01*
X239221829Y-117218331D01*
X239163352Y-117206700D01*
X239163348Y-117206700D01*
X237323852Y-117206700D01*
X237323847Y-117206700D01*
X237265370Y-117218331D01*
X237265369Y-117218332D01*
X237199047Y-117262647D01*
X237154732Y-117328969D01*
X237154731Y-117328970D01*
X237143100Y-117387447D01*
X237143100Y-118951656D01*
X237123415Y-119018695D01*
X237070611Y-119064450D01*
X237001453Y-119074394D01*
X236937897Y-119045369D01*
X236931419Y-119039337D01*
X236752252Y-118860170D01*
X236718767Y-118798847D01*
X236722002Y-118734171D01*
X236723473Y-118729645D01*
X236777002Y-118564901D01*
X236804100Y-118393811D01*
X236804100Y-118220589D01*
X236777002Y-118049499D01*
X236723473Y-117884755D01*
X236644832Y-117730412D01*
X236543014Y-117590272D01*
X236420528Y-117467786D01*
X236280388Y-117365968D01*
X236126045Y-117287327D01*
X235961301Y-117233798D01*
X235961299Y-117233797D01*
X235961298Y-117233797D01*
X235829871Y-117212981D01*
X235790211Y-117206700D01*
X235616989Y-117206700D01*
X235577328Y-117212981D01*
X235445902Y-117233797D01*
X235281152Y-117287328D01*
X235126811Y-117365968D01*
X235090939Y-117392031D01*
X234986672Y-117467786D01*
X234986670Y-117467788D01*
X234986669Y-117467788D01*
X234864188Y-117590269D01*
X234864188Y-117590270D01*
X234864186Y-117590272D01*
X234820459Y-117650456D01*
X234762368Y-117730411D01*
X234683728Y-117884752D01*
X234630197Y-118049502D01*
X234604346Y-118212719D01*
X234603100Y-118220589D01*
X234603100Y-118393811D01*
X234630198Y-118564901D01*
X234683727Y-118729645D01*
X234762368Y-118883988D01*
X234864186Y-119024128D01*
X234986672Y-119146614D01*
X235126812Y-119248432D01*
X235281155Y-119327073D01*
X235445899Y-119380602D01*
X235616989Y-119407700D01*
X235616990Y-119407700D01*
X235790210Y-119407700D01*
X235790211Y-119407700D01*
X235961301Y-119380602D01*
X236126045Y-119327073D01*
X236126047Y-119327071D01*
X236130571Y-119325602D01*
X236145783Y-119325167D01*
X236160043Y-119319849D01*
X236179998Y-119324190D01*
X236200412Y-119323607D01*
X236214498Y-119331695D01*
X236228316Y-119334701D01*
X236256570Y-119355852D01*
X236363181Y-119462463D01*
X236396666Y-119523786D01*
X236399500Y-119550144D01*
X236399500Y-126750902D01*
X236379815Y-126817941D01*
X236327011Y-126863696D01*
X236257853Y-126873640D01*
X236194297Y-126844615D01*
X236187819Y-126838583D01*
X236118717Y-126769481D01*
X236118709Y-126769475D01*
X235981790Y-126690426D01*
X235981786Y-126690424D01*
X235981784Y-126690423D01*
X235829057Y-126649500D01*
X235670943Y-126649500D01*
X235518216Y-126690423D01*
X235518209Y-126690426D01*
X235381290Y-126769475D01*
X235381282Y-126769481D01*
X235287583Y-126863181D01*
X235226260Y-126896666D01*
X235199902Y-126899500D01*
X226046144Y-126899500D01*
X225953856Y-126899500D01*
X225953854Y-126899500D01*
X225945800Y-126900561D01*
X225945540Y-126898591D01*
X225886433Y-126897177D01*
X225828576Y-126858006D01*
X225801081Y-126793774D01*
X225808505Y-126739911D01*
X225807473Y-126739635D01*
X225809577Y-126731783D01*
X225850500Y-126579057D01*
X225850500Y-126420943D01*
X225809577Y-126268216D01*
X225778976Y-126215213D01*
X225730524Y-126131290D01*
X225730518Y-126131282D01*
X225636819Y-126037583D01*
X225603334Y-125976260D01*
X225600500Y-125949902D01*
X225600500Y-125203884D01*
X230189500Y-125203884D01*
X230189500Y-125206737D01*
X230189500Y-125569620D01*
X230226025Y-125753243D01*
X230226027Y-125753251D01*
X230297676Y-125926228D01*
X230297681Y-125926237D01*
X230401697Y-126081907D01*
X230401700Y-126081911D01*
X230534088Y-126214299D01*
X230534092Y-126214302D01*
X230689762Y-126318318D01*
X230689768Y-126318321D01*
X230689769Y-126318322D01*
X230862749Y-126389973D01*
X231018447Y-126420943D01*
X231046379Y-126426499D01*
X231046383Y-126426500D01*
X231046384Y-126426500D01*
X231233617Y-126426500D01*
X231233618Y-126426499D01*
X231417251Y-126389973D01*
X231590231Y-126318322D01*
X231745908Y-126214302D01*
X231878302Y-126081908D01*
X231982322Y-125926231D01*
X232053973Y-125753251D01*
X232053975Y-125753237D01*
X232055741Y-125747421D01*
X232058270Y-125748188D01*
X232085303Y-125696435D01*
X232086852Y-125694856D01*
X234738302Y-123043408D01*
X234842323Y-122887730D01*
X234913973Y-122714750D01*
X234950500Y-122531117D01*
X234950500Y-122343883D01*
X234950500Y-122343880D01*
X234950499Y-122343878D01*
X234913975Y-122160257D01*
X234913972Y-122160248D01*
X234909389Y-122149184D01*
X234842323Y-121987269D01*
X234842321Y-121987267D01*
X234842321Y-121987265D01*
X234738302Y-121831591D01*
X234738299Y-121831587D01*
X234605912Y-121699200D01*
X234605908Y-121699197D01*
X234450234Y-121595178D01*
X234450231Y-121595177D01*
X234277251Y-121523527D01*
X234277242Y-121523524D01*
X234093620Y-121487000D01*
X234093617Y-121487000D01*
X233906383Y-121487000D01*
X233906380Y-121487000D01*
X233722757Y-121523524D01*
X233722748Y-121523527D01*
X233549776Y-121595173D01*
X233549763Y-121595180D01*
X233394092Y-121699197D01*
X233394088Y-121699200D01*
X230401700Y-124691588D01*
X230401697Y-124691592D01*
X230297680Y-124847263D01*
X230297673Y-124847275D01*
X230269033Y-124916421D01*
X230269033Y-124916424D01*
X230232431Y-125004789D01*
X230232430Y-125004791D01*
X230226029Y-125020242D01*
X230226025Y-125020255D01*
X230191030Y-125196188D01*
X230191026Y-125196212D01*
X230190395Y-125199387D01*
X230189500Y-125203884D01*
X225600500Y-125203884D01*
X225600500Y-117507858D01*
X225600500Y-117507856D01*
X225576614Y-117418712D01*
X225573904Y-117414019D01*
X225558567Y-117387453D01*
X225558565Y-117387451D01*
X225558563Y-117387447D01*
X225530470Y-117338788D01*
X213067212Y-104875530D01*
X213067211Y-104875529D01*
X213067208Y-104875527D01*
X212987290Y-104829387D01*
X212987289Y-104829386D01*
X212987288Y-104829386D01*
X212898144Y-104805500D01*
X209757856Y-104805500D01*
X209668712Y-104829386D01*
X209668709Y-104829387D01*
X209588791Y-104875527D01*
X209588786Y-104875531D01*
X204649526Y-109814791D01*
X204648972Y-109815514D01*
X204638290Y-109827692D01*
X204362801Y-110103182D01*
X204301481Y-110136666D01*
X204275122Y-110139500D01*
X188189203Y-110139500D01*
X188122164Y-110119815D01*
X188076409Y-110067011D01*
X188066465Y-109997853D01*
X188095490Y-109934297D01*
X188101522Y-109927819D01*
X189203628Y-108825713D01*
X189203633Y-108825708D01*
X189236761Y-108776128D01*
X189252322Y-108697897D01*
X189252322Y-108697895D01*
X189252322Y-108697894D01*
X189236761Y-108619666D01*
X189236761Y-108619665D01*
X189220139Y-108594790D01*
X189203633Y-108570086D01*
X189203631Y-108570084D01*
X189203628Y-108570080D01*
X187902918Y-107269370D01*
X187902914Y-107269367D01*
X187853332Y-107236237D01*
X187775104Y-107220677D01*
X187775100Y-107220677D01*
X187696871Y-107236237D01*
X187696870Y-107236237D01*
X187647289Y-107269367D01*
X187647285Y-107269370D01*
X186346575Y-108570080D01*
X186346572Y-108570084D01*
X186313442Y-108619665D01*
X186313442Y-108619666D01*
X186297882Y-108697894D01*
X186297882Y-108697895D01*
X186297882Y-108697897D01*
X186301593Y-108716557D01*
X186302539Y-108721310D01*
X186296310Y-108790902D01*
X186253446Y-108846079D01*
X186187556Y-108869322D01*
X186180921Y-108869500D01*
X185373856Y-108869500D01*
X185284712Y-108893386D01*
X185284709Y-108893387D01*
X185204791Y-108939527D01*
X185204786Y-108939531D01*
X182106480Y-112037837D01*
X182106476Y-112037842D01*
X182060336Y-112117760D01*
X182060335Y-112117763D01*
X182036449Y-112206907D01*
X182036449Y-112953532D01*
X182016764Y-113020571D01*
X181968744Y-113064017D01*
X181810160Y-113144819D01*
X181730205Y-113202910D01*
X181670021Y-113246637D01*
X181670019Y-113246639D01*
X181670018Y-113246639D01*
X181547537Y-113369120D01*
X181547537Y-113369121D01*
X181547535Y-113369123D01*
X181511982Y-113418057D01*
X181445717Y-113509262D01*
X181367077Y-113663603D01*
X181313546Y-113828353D01*
X181294764Y-113946940D01*
X181286449Y-113999440D01*
X181286449Y-114172662D01*
X181291967Y-114207503D01*
X181312908Y-114339721D01*
X181313547Y-114343752D01*
X181367076Y-114508496D01*
X181445717Y-114662839D01*
X181547535Y-114802979D01*
X181547537Y-114802981D01*
X181654375Y-114909819D01*
X181687860Y-114971142D01*
X181682876Y-115040834D01*
X181641004Y-115096767D01*
X181575540Y-115121184D01*
X181566694Y-115121500D01*
X175290626Y-115121500D01*
X175223587Y-115101815D01*
X175202945Y-115085181D01*
X174949276Y-114831512D01*
X174949274Y-114831510D01*
X174796399Y-114720440D01*
X174628036Y-114634654D01*
X174448318Y-114576259D01*
X174261686Y-114546700D01*
X174261681Y-114546700D01*
X159806688Y-114546700D01*
X159617725Y-114546700D01*
X159617720Y-114546700D01*
X159431087Y-114576259D01*
X159251369Y-114634654D01*
X159083006Y-114720440D01*
X158995785Y-114783810D01*
X158930133Y-114831510D01*
X158930131Y-114831512D01*
X158930130Y-114831512D01*
X157297908Y-116463733D01*
X157297906Y-116463735D01*
X157256511Y-116520712D01*
X157250292Y-116529273D01*
X157218566Y-116572940D01*
X157186840Y-116616606D01*
X157101054Y-116784969D01*
X157042659Y-116964687D01*
X157013100Y-117151319D01*
X157013100Y-118027732D01*
X156993415Y-118094771D01*
X156940611Y-118140526D01*
X156871453Y-118150470D01*
X156807897Y-118121445D01*
X156770123Y-118062667D01*
X156768221Y-118054219D01*
X156768140Y-118054239D01*
X156767002Y-118049502D01*
X156767002Y-118049499D01*
X156713473Y-117884755D01*
X156634832Y-117730412D01*
X156533014Y-117590272D01*
X156410528Y-117467786D01*
X156270388Y-117365968D01*
X156116045Y-117287327D01*
X155951301Y-117233798D01*
X155951299Y-117233797D01*
X155951298Y-117233797D01*
X155819871Y-117212981D01*
X155780211Y-117206700D01*
X155606989Y-117206700D01*
X155567328Y-117212981D01*
X155435902Y-117233797D01*
X155271152Y-117287328D01*
X155116811Y-117365968D01*
X155080939Y-117392031D01*
X154976672Y-117467786D01*
X154976670Y-117467788D01*
X154976669Y-117467788D01*
X154854188Y-117590269D01*
X154854188Y-117590270D01*
X154854186Y-117590272D01*
X154810459Y-117650456D01*
X154752368Y-117730411D01*
X154673728Y-117884752D01*
X154620197Y-118049502D01*
X154594346Y-118212719D01*
X154593100Y-118220589D01*
X154593100Y-118393811D01*
X154620198Y-118564901D01*
X154673727Y-118729645D01*
X154752368Y-118883988D01*
X154854186Y-119024128D01*
X154976672Y-119146614D01*
X155116812Y-119248432D01*
X155271155Y-119327073D01*
X155435899Y-119380602D01*
X155606989Y-119407700D01*
X155606990Y-119407700D01*
X155780210Y-119407700D01*
X155780211Y-119407700D01*
X155951301Y-119380602D01*
X156116045Y-119327073D01*
X156116047Y-119327071D01*
X156120571Y-119325602D01*
X156190412Y-119323607D01*
X156246570Y-119355852D01*
X156617607Y-119726889D01*
X156641259Y-119762286D01*
X156641323Y-119762250D01*
X156641882Y-119763219D01*
X156644487Y-119767117D01*
X156645385Y-119769286D01*
X156645386Y-119769288D01*
X156691531Y-119849212D01*
X156756788Y-119914469D01*
X156756791Y-119914470D01*
X156756794Y-119914473D01*
X156836706Y-119960611D01*
X156836707Y-119960611D01*
X156836712Y-119960614D01*
X156925856Y-119984500D01*
X156925858Y-119984500D01*
X159312942Y-119984500D01*
X159312944Y-119984500D01*
X159402088Y-119960614D01*
X159408172Y-119957101D01*
X159476069Y-119940628D01*
X159542097Y-119963479D01*
X159585288Y-120018399D01*
X159592645Y-120045089D01*
X159602660Y-120108319D01*
X159661054Y-120288036D01*
X159746840Y-120456399D01*
X159857910Y-120609274D01*
X171121326Y-131872690D01*
X171274201Y-131983760D01*
X171356780Y-132025835D01*
X171442567Y-132069547D01*
X171458303Y-132074660D01*
X171515978Y-132114098D01*
X171543175Y-132178457D01*
X171531260Y-132247303D01*
X171507665Y-132280271D01*
X171363445Y-132424491D01*
X171239220Y-132595471D01*
X171143270Y-132783781D01*
X171143269Y-132783784D01*
X171077962Y-132984782D01*
X171044900Y-133193527D01*
X171044900Y-133404872D01*
X171077962Y-133613617D01*
X171143269Y-133814615D01*
X171143270Y-133814618D01*
X171239220Y-134002928D01*
X171363446Y-134173910D01*
X171512890Y-134323354D01*
X171683872Y-134447580D01*
X171776232Y-134494639D01*
X171872181Y-134543529D01*
X171872184Y-134543530D01*
X171972683Y-134576183D01*
X172073184Y-134608838D01*
X172281927Y-134641900D01*
X172281928Y-134641900D01*
X172493272Y-134641900D01*
X172493273Y-134641900D01*
X172702016Y-134608838D01*
X172903018Y-134543529D01*
X173091328Y-134447580D01*
X173262310Y-134323354D01*
X173411754Y-134173910D01*
X173535980Y-134002928D01*
X173631929Y-133814618D01*
X173697238Y-133613616D01*
X173730300Y-133404873D01*
X173730300Y-133326655D01*
X173749985Y-133259616D01*
X173802789Y-133213861D01*
X173871947Y-133203917D01*
X173935503Y-133232942D01*
X173941981Y-133238974D01*
X189301681Y-148598674D01*
X189335166Y-148659997D01*
X189338000Y-148686355D01*
X189338000Y-151732486D01*
X189367559Y-151919118D01*
X189425954Y-152098836D01*
X189511740Y-152267199D01*
X189622810Y-152420073D01*
X189756427Y-152553690D01*
X189909301Y-152664760D01*
X190077668Y-152750547D01*
X190077676Y-152750549D01*
X190081385Y-152752086D01*
X190135794Y-152795920D01*
X190157867Y-152862211D01*
X190140597Y-152929913D01*
X190090243Y-152977137D01*
X189997802Y-153024238D01*
X189844923Y-153135312D01*
X187781308Y-155198927D01*
X187781304Y-155198932D01*
X187686910Y-155328856D01*
X187686910Y-155328857D01*
X187670240Y-155351800D01*
X187584454Y-155520163D01*
X187526059Y-155699881D01*
X187496500Y-155886513D01*
X187496500Y-163499374D01*
X187476815Y-163566413D01*
X187424011Y-163612168D01*
X187354853Y-163622112D01*
X187291297Y-163593087D01*
X187284819Y-163587055D01*
X180457076Y-156759312D01*
X180457074Y-156759310D01*
X180304199Y-156648240D01*
X180298916Y-156645548D01*
X180135836Y-156562454D01*
X179956118Y-156504059D01*
X179769486Y-156474500D01*
X179769481Y-156474500D01*
X168080519Y-156474500D01*
X168080514Y-156474500D01*
X167893881Y-156504059D01*
X167714163Y-156562454D01*
X167545800Y-156648240D01*
X167480811Y-156695458D01*
X167392927Y-156759310D01*
X167392925Y-156759312D01*
X167392924Y-156759312D01*
X167259312Y-156892924D01*
X167259312Y-156892925D01*
X167259310Y-156892927D01*
X167238176Y-156922016D01*
X167148240Y-157045800D01*
X167062454Y-157214163D01*
X167004059Y-157393881D01*
X166974500Y-157580513D01*
X166974500Y-157769486D01*
X167004059Y-157956118D01*
X167062454Y-158135836D01*
X167121621Y-158251957D01*
X167148240Y-158304199D01*
X167259310Y-158457073D01*
X167392927Y-158590690D01*
X167545801Y-158701760D01*
X167625347Y-158742290D01*
X167714163Y-158787545D01*
X167714165Y-158787545D01*
X167714168Y-158787547D01*
X167810497Y-158818846D01*
X167893881Y-158845940D01*
X168080514Y-158875500D01*
X168080519Y-158875500D01*
X179126374Y-158875500D01*
X179193413Y-158895185D01*
X179214055Y-158911819D01*
X185514055Y-165211819D01*
X185547540Y-165273142D01*
X185542556Y-165342834D01*
X185500684Y-165398767D01*
X185435220Y-165423184D01*
X185426374Y-165423500D01*
X185325514Y-165423500D01*
X185138881Y-165453059D01*
X184959163Y-165511454D01*
X184790800Y-165597240D01*
X184723503Y-165646135D01*
X184637927Y-165708310D01*
X184637925Y-165708312D01*
X184637924Y-165708312D01*
X184504312Y-165841924D01*
X184504312Y-165841925D01*
X184504310Y-165841927D01*
X184463009Y-165898773D01*
X184393240Y-165994800D01*
X184307454Y-166163163D01*
X184249059Y-166342881D01*
X184219500Y-166529513D01*
X184219500Y-170788486D01*
X184249059Y-170975118D01*
X184307454Y-171154836D01*
X184390006Y-171316852D01*
X184393240Y-171323199D01*
X184504310Y-171476073D01*
X184637927Y-171609690D01*
X184790801Y-171720760D01*
X184870347Y-171761290D01*
X184959163Y-171806545D01*
X184959165Y-171806545D01*
X184959168Y-171806547D01*
X185006549Y-171821942D01*
X185138881Y-171864940D01*
X185325514Y-171894500D01*
X185325519Y-171894500D01*
X185514486Y-171894500D01*
X185701118Y-171864940D01*
X185880832Y-171806547D01*
X186049199Y-171720760D01*
X186202073Y-171609690D01*
X186335690Y-171476073D01*
X186446760Y-171323199D01*
X186532547Y-171154832D01*
X186590940Y-170975118D01*
X186607792Y-170868717D01*
X186620500Y-170788486D01*
X186620500Y-166617626D01*
X186640185Y-166550587D01*
X186692989Y-166504832D01*
X186762147Y-166494888D01*
X186825703Y-166523913D01*
X186832181Y-166529945D01*
X189781926Y-169479690D01*
X189869249Y-169543134D01*
X189934801Y-169590761D01*
X190051337Y-169650138D01*
X190051339Y-169650139D01*
X190103161Y-169676544D01*
X190103164Y-169676544D01*
X190103168Y-169676547D01*
X190227291Y-169716877D01*
X190282881Y-169734940D01*
X190469514Y-169764500D01*
X190469519Y-169764500D01*
X191164923Y-169764500D01*
X191231962Y-169784185D01*
X191252604Y-169800819D01*
X193409604Y-171957819D01*
X193443089Y-172019142D01*
X193438105Y-172088834D01*
X193396233Y-172144767D01*
X193330769Y-172169184D01*
X193321923Y-172169500D01*
X191648240Y-172169500D01*
X191461607Y-172199059D01*
X191281889Y-172257454D01*
X191113526Y-172343240D01*
X190960649Y-172454312D01*
X190886781Y-172528181D01*
X190825458Y-172561666D01*
X190799100Y-172564500D01*
X184619625Y-172564500D01*
X184552586Y-172544815D01*
X184531944Y-172528181D01*
X183158599Y-171154836D01*
X181782074Y-169778310D01*
X181629199Y-169667240D01*
X181460836Y-169581454D01*
X181281118Y-169523059D01*
X181094486Y-169493500D01*
X181094481Y-169493500D01*
X180905519Y-169493500D01*
X180905514Y-169493500D01*
X180718881Y-169523059D01*
X180539163Y-169581454D01*
X180370800Y-169667240D01*
X180217923Y-169778312D01*
X180084312Y-169911923D01*
X179973240Y-170064800D01*
X179887454Y-170233163D01*
X179829059Y-170412881D01*
X179805587Y-170561081D01*
X179775658Y-170624216D01*
X179716346Y-170661147D01*
X179646483Y-170660149D01*
X179595433Y-170629364D01*
X176809904Y-167843835D01*
X173940380Y-164974310D01*
X173787505Y-164863240D01*
X173619142Y-164777454D01*
X173439424Y-164719059D01*
X173252792Y-164689500D01*
X173252787Y-164689500D01*
X161697166Y-164689500D01*
X161675920Y-164683261D01*
X161653832Y-164681682D01*
X161643048Y-164673609D01*
X161630127Y-164669815D01*
X161615627Y-164653081D01*
X161597899Y-164639810D01*
X161593191Y-164627189D01*
X161584372Y-164617011D01*
X161581220Y-164595093D01*
X161573482Y-164574346D01*
X161576344Y-164561185D01*
X161574428Y-164547853D01*
X161583627Y-164527709D01*
X161588334Y-164506073D01*
X161601602Y-164488347D01*
X161603453Y-164484297D01*
X161609485Y-164477819D01*
X161700485Y-164386819D01*
X161761808Y-164353334D01*
X161788166Y-164350500D01*
X161829055Y-164350500D01*
X161829057Y-164350500D01*
X161981784Y-164309577D01*
X162118716Y-164230520D01*
X162230520Y-164118716D01*
X162309577Y-163981784D01*
X162350500Y-163829057D01*
X162350500Y-163670943D01*
X162309577Y-163518216D01*
X162268492Y-163447054D01*
X162230524Y-163381290D01*
X162230518Y-163381282D01*
X162118717Y-163269481D01*
X162118709Y-163269475D01*
X162009181Y-163206239D01*
X162009178Y-163206239D01*
X161981784Y-163190423D01*
X161970733Y-163187462D01*
X161829057Y-163149500D01*
X161670943Y-163149500D01*
X161518216Y-163190423D01*
X161518209Y-163190426D01*
X161381290Y-163269475D01*
X161381282Y-163269481D01*
X161269481Y-163381282D01*
X161269475Y-163381290D01*
X161190426Y-163518209D01*
X161190421Y-163518220D01*
X161160787Y-163628814D01*
X161128694Y-163684400D01*
X156212442Y-168600653D01*
X156151119Y-168634138D01*
X156100570Y-168634589D01*
X155907069Y-168596100D01*
X155907065Y-168596100D01*
X155700135Y-168596100D01*
X155700130Y-168596100D01*
X155497187Y-168636468D01*
X155497179Y-168636470D01*
X155306003Y-168715658D01*
X155133942Y-168830624D01*
X154987624Y-168976942D01*
X154872658Y-169149003D01*
X154793470Y-169340179D01*
X154793468Y-169340187D01*
X154753100Y-169543130D01*
X154753100Y-169750069D01*
X154793468Y-169953012D01*
X154793470Y-169953020D01*
X154850852Y-170091553D01*
X154872659Y-170144198D01*
X154882184Y-170158453D01*
X154987624Y-170316257D01*
X155133942Y-170462575D01*
X155133945Y-170462577D01*
X155306002Y-170577541D01*
X155497180Y-170656730D01*
X155700130Y-170697099D01*
X155700134Y-170697100D01*
X155700135Y-170697100D01*
X155907066Y-170697100D01*
X155907067Y-170697099D01*
X156110020Y-170656730D01*
X156301198Y-170577541D01*
X156473255Y-170462577D01*
X156619577Y-170316255D01*
X156734541Y-170144198D01*
X156813730Y-169953020D01*
X156854100Y-169750065D01*
X156854100Y-169591682D01*
X168698000Y-169591682D01*
X168698000Y-169796317D01*
X168730009Y-169998417D01*
X168793244Y-170193031D01*
X168886141Y-170375350D01*
X168886147Y-170375359D01*
X168918523Y-170419921D01*
X168918524Y-170419922D01*
X169598000Y-169740446D01*
X169598000Y-169746661D01*
X169625259Y-169848394D01*
X169677920Y-169939606D01*
X169752394Y-170014080D01*
X169843606Y-170066741D01*
X169945339Y-170094000D01*
X169951553Y-170094000D01*
X169272076Y-170773474D01*
X169316650Y-170805859D01*
X169498968Y-170898755D01*
X169661510Y-170951569D01*
X169719185Y-170991007D01*
X169746383Y-171055366D01*
X169734468Y-171124212D01*
X169687224Y-171175688D01*
X169623191Y-171193500D01*
X169178247Y-171193500D01*
X169119770Y-171205131D01*
X169119769Y-171205132D01*
X169053447Y-171249447D01*
X169009132Y-171315769D01*
X169009131Y-171315770D01*
X168997500Y-171374247D01*
X168997500Y-173013752D01*
X169009131Y-173072229D01*
X169009132Y-173072230D01*
X169053447Y-173138552D01*
X169119769Y-173182867D01*
X169119770Y-173182868D01*
X169178247Y-173194499D01*
X169178250Y-173194500D01*
X169178252Y-173194500D01*
X170817750Y-173194500D01*
X170817751Y-173194499D01*
X170832568Y-173191552D01*
X170876229Y-173182868D01*
X170876229Y-173182867D01*
X170876231Y-173182867D01*
X170942552Y-173138552D01*
X170986867Y-173072231D01*
X170986867Y-173072229D01*
X170986868Y-173072229D01*
X170998499Y-173013752D01*
X170998500Y-173013750D01*
X170998500Y-171374249D01*
X170998499Y-171374247D01*
X170986868Y-171315770D01*
X170986867Y-171315769D01*
X170942552Y-171249447D01*
X170876230Y-171205132D01*
X170876229Y-171205131D01*
X170817752Y-171193500D01*
X170817748Y-171193500D01*
X170372809Y-171193500D01*
X170305770Y-171173815D01*
X170260015Y-171121011D01*
X170250071Y-171051853D01*
X170279096Y-170988297D01*
X170334490Y-170951569D01*
X170497031Y-170898755D01*
X170679349Y-170805859D01*
X170723921Y-170773474D01*
X170044447Y-170094000D01*
X170050661Y-170094000D01*
X170152394Y-170066741D01*
X170243606Y-170014080D01*
X170318080Y-169939606D01*
X170370741Y-169848394D01*
X170398000Y-169746661D01*
X170398000Y-169740448D01*
X171077474Y-170419922D01*
X171077474Y-170419921D01*
X171109859Y-170375349D01*
X171202755Y-170193031D01*
X171265990Y-169998417D01*
X171298000Y-169796317D01*
X171298000Y-169591682D01*
X171265990Y-169389582D01*
X171202755Y-169194968D01*
X171109859Y-169012650D01*
X171077474Y-168968077D01*
X171077474Y-168968076D01*
X170398000Y-169647551D01*
X170398000Y-169641339D01*
X170370741Y-169539606D01*
X170318080Y-169448394D01*
X170243606Y-169373920D01*
X170152394Y-169321259D01*
X170050661Y-169294000D01*
X170044446Y-169294000D01*
X170723922Y-168614524D01*
X170723921Y-168614523D01*
X170679359Y-168582147D01*
X170679350Y-168582141D01*
X170497031Y-168489244D01*
X170302417Y-168426009D01*
X170100317Y-168394000D01*
X169895683Y-168394000D01*
X169693582Y-168426009D01*
X169498968Y-168489244D01*
X169316644Y-168582143D01*
X169272077Y-168614523D01*
X169272077Y-168614524D01*
X169951554Y-169294000D01*
X169945339Y-169294000D01*
X169843606Y-169321259D01*
X169752394Y-169373920D01*
X169677920Y-169448394D01*
X169625259Y-169539606D01*
X169598000Y-169641339D01*
X169598000Y-169647553D01*
X168918524Y-168968077D01*
X168918523Y-168968077D01*
X168886143Y-169012644D01*
X168793244Y-169194968D01*
X168730009Y-169389582D01*
X168698000Y-169591682D01*
X156854100Y-169591682D01*
X156854100Y-169543135D01*
X156815609Y-169349627D01*
X156821836Y-169280037D01*
X156849543Y-169237758D01*
X160130740Y-165956562D01*
X160192061Y-165923079D01*
X160261753Y-165928063D01*
X160317686Y-165969935D01*
X160340892Y-166024846D01*
X160364060Y-166171119D01*
X160422454Y-166350836D01*
X160495853Y-166494888D01*
X160508240Y-166519199D01*
X160619310Y-166672073D01*
X160752927Y-166805690D01*
X160905801Y-166916760D01*
X160961212Y-166944993D01*
X161074163Y-167002545D01*
X161074165Y-167002545D01*
X161074168Y-167002547D01*
X161170497Y-167033846D01*
X161253881Y-167060940D01*
X161440514Y-167090500D01*
X161440519Y-167090500D01*
X172609680Y-167090500D01*
X172676719Y-167110185D01*
X172697361Y-167126819D01*
X177519960Y-171949417D01*
X182247616Y-176677073D01*
X182381233Y-176810690D01*
X182534107Y-176921760D01*
X182613653Y-176962290D01*
X182702469Y-177007545D01*
X182702471Y-177007545D01*
X182702474Y-177007547D01*
X182780022Y-177032744D01*
X182882187Y-177065940D01*
X183068820Y-177095500D01*
X183068825Y-177095500D01*
X192324486Y-177095500D01*
X192511118Y-177065940D01*
X192690832Y-177007547D01*
X192859199Y-176921760D01*
X193012074Y-176810690D01*
X193540690Y-176282074D01*
X193651760Y-176129199D01*
X193737547Y-175960832D01*
X193795940Y-175781118D01*
X193815936Y-175654863D01*
X193845865Y-175591728D01*
X193905176Y-175554796D01*
X193975038Y-175555794D01*
X194026090Y-175586579D01*
X197097128Y-178657617D01*
X197130613Y-178718940D01*
X197133447Y-178745298D01*
X197133447Y-179754686D01*
X197163006Y-179941318D01*
X197221401Y-180121036D01*
X197307187Y-180289399D01*
X197418257Y-180442274D01*
X203641674Y-186665690D01*
X203794548Y-186776760D01*
X203874094Y-186817290D01*
X203962910Y-186862545D01*
X203962912Y-186862545D01*
X203962915Y-186862547D01*
X204059244Y-186893846D01*
X204142628Y-186920940D01*
X204329261Y-186950500D01*
X204329266Y-186950500D01*
X210344486Y-186950500D01*
X210531118Y-186920940D01*
X210540228Y-186917980D01*
X210710832Y-186862547D01*
X210879199Y-186776760D01*
X211032073Y-186665690D01*
X211165690Y-186532073D01*
X211276760Y-186379199D01*
X211362547Y-186210832D01*
X211420940Y-186031118D01*
X211428122Y-185985770D01*
X211450500Y-185844484D01*
X211450500Y-185655513D01*
X211420940Y-185468881D01*
X211392428Y-185381131D01*
X211362547Y-185289168D01*
X211362544Y-185289164D01*
X211362544Y-185289161D01*
X211316287Y-185198378D01*
X211303390Y-185129708D01*
X211306995Y-185109996D01*
X211314443Y-185082201D01*
X211314443Y-183136813D01*
X211321390Y-183095890D01*
X211325231Y-183084901D01*
X211346468Y-183048119D01*
X211373952Y-182945544D01*
X211375471Y-182941202D01*
X211393239Y-182916414D01*
X211409113Y-182890372D01*
X211413401Y-182888288D01*
X211416178Y-182884415D01*
X211444526Y-182873168D01*
X211471960Y-182859842D01*
X211476693Y-182860407D01*
X211481124Y-182858650D01*
X211511051Y-182864515D01*
X211541336Y-182868136D01*
X211546150Y-182871394D01*
X211549689Y-182872088D01*
X211555709Y-182877864D01*
X211580205Y-182894444D01*
X211666281Y-182980520D01*
X211666283Y-182980521D01*
X211666287Y-182980524D01*
X211783367Y-183048119D01*
X211803213Y-183059577D01*
X211955940Y-183100500D01*
X212056790Y-183100500D01*
X212123829Y-183120185D01*
X212144471Y-183136819D01*
X212947943Y-183940290D01*
X213645522Y-184637869D01*
X213710779Y-184703126D01*
X213710782Y-184703127D01*
X213710785Y-184703130D01*
X213790697Y-184749268D01*
X213790698Y-184749268D01*
X213790703Y-184749271D01*
X213879847Y-184773157D01*
X213879849Y-184773157D01*
X218641605Y-184773157D01*
X218641607Y-184773157D01*
X218730751Y-184749271D01*
X218771944Y-184725488D01*
X218810675Y-184703127D01*
X220876976Y-182636824D01*
X220938299Y-182603340D01*
X221007991Y-182608324D01*
X221063924Y-182650196D01*
X221088341Y-182715660D01*
X221088657Y-182724506D01*
X221088657Y-185623540D01*
X221088657Y-185810774D01*
X221095362Y-185844481D01*
X221125184Y-185994408D01*
X221140390Y-186031118D01*
X221143941Y-186039692D01*
X221143943Y-186039698D01*
X221196830Y-186167380D01*
X221196837Y-186167393D01*
X221300854Y-186323064D01*
X221300857Y-186323068D01*
X222152088Y-187174299D01*
X222152092Y-187174302D01*
X222307763Y-187278319D01*
X222307776Y-187278326D01*
X222437505Y-187332060D01*
X222480750Y-187349973D01*
X222480752Y-187349973D01*
X222480757Y-187349975D01*
X222664379Y-187386499D01*
X222664383Y-187386500D01*
X222664384Y-187386500D01*
X222851618Y-187386500D01*
X222851618Y-187386499D01*
X222918536Y-187373189D01*
X222988128Y-187379416D01*
X223043305Y-187422279D01*
X223066550Y-187488169D01*
X223050482Y-187556166D01*
X223030409Y-187582487D01*
X222099716Y-188513181D01*
X222038393Y-188546666D01*
X222012035Y-188549500D01*
X200699931Y-188549500D01*
X200632892Y-188529815D01*
X200624443Y-188523875D01*
X200618709Y-188519475D01*
X200481790Y-188440426D01*
X200481786Y-188440424D01*
X200481784Y-188440423D01*
X200329057Y-188399500D01*
X200170943Y-188399500D01*
X200018216Y-188440423D01*
X200018209Y-188440426D01*
X199881290Y-188519475D01*
X199881282Y-188519481D01*
X199769481Y-188631282D01*
X199769475Y-188631290D01*
X199690426Y-188768209D01*
X199690423Y-188768216D01*
X199649500Y-188920943D01*
X199649500Y-189079057D01*
X199669030Y-189151942D01*
X199690423Y-189231783D01*
X199690426Y-189231790D01*
X199769475Y-189368709D01*
X199769479Y-189368714D01*
X199769480Y-189368716D01*
X199881284Y-189480520D01*
X199881286Y-189480521D01*
X199881290Y-189480524D01*
X199957498Y-189524522D01*
X200018216Y-189559577D01*
X200170943Y-189600500D01*
X200170945Y-189600500D01*
X200329055Y-189600500D01*
X200329057Y-189600500D01*
X200481784Y-189559577D01*
X200618716Y-189480520D01*
X200618721Y-189480514D01*
X200624443Y-189476125D01*
X200689612Y-189450930D01*
X200699931Y-189450500D01*
X222309308Y-189450500D01*
X222309309Y-189450500D01*
X222399673Y-189426286D01*
X222423887Y-189419799D01*
X222526614Y-189360489D01*
X223130924Y-188756177D01*
X223192247Y-188722693D01*
X223261938Y-188727677D01*
X223317872Y-188769548D01*
X223340222Y-188819668D01*
X223368025Y-188959443D01*
X223368027Y-188959451D01*
X223439676Y-189132428D01*
X223439681Y-189132437D01*
X223543697Y-189288107D01*
X223543700Y-189288111D01*
X223676088Y-189420499D01*
X223676092Y-189420502D01*
X223831762Y-189524518D01*
X223831766Y-189524520D01*
X223831769Y-189524522D01*
X223912382Y-189557913D01*
X223949140Y-189573139D01*
X224003543Y-189616980D01*
X224025608Y-189683274D01*
X224008329Y-189750974D01*
X223957191Y-189798584D01*
X223901687Y-189811700D01*
X213535956Y-189811700D01*
X213535555Y-189811699D01*
X213355140Y-189811115D01*
X212978459Y-189844855D01*
X212688792Y-189898180D01*
X212606532Y-189913324D01*
X212606529Y-189913324D01*
X212606518Y-189913327D01*
X212242547Y-190015934D01*
X212242539Y-190015937D01*
X211889615Y-190151810D01*
X211889611Y-190151812D01*
X211550784Y-190319777D01*
X211228961Y-190518395D01*
X211228951Y-190518403D01*
X210926917Y-190745953D01*
X210926909Y-190745960D01*
X210802705Y-190858966D01*
X210802670Y-190858994D01*
X207255280Y-194087649D01*
X207250960Y-194091402D01*
X206978837Y-194317022D01*
X206969702Y-194323910D01*
X206680291Y-194521884D01*
X206670573Y-194527893D01*
X206418075Y-194668351D01*
X206364137Y-194698356D01*
X206353893Y-194703450D01*
X206033058Y-194844939D01*
X206022388Y-194849068D01*
X205689867Y-194960387D01*
X205678862Y-194963514D01*
X205337518Y-195043707D01*
X205326284Y-195045805D01*
X205028617Y-195087281D01*
X204978982Y-195094198D01*
X204967590Y-195095252D01*
X204614289Y-195111568D01*
X204608569Y-195111700D01*
X194535964Y-195111700D01*
X194530257Y-195111569D01*
X194177934Y-195095335D01*
X194166568Y-195094285D01*
X193820081Y-195046120D01*
X193808860Y-195044030D01*
X193468262Y-194964207D01*
X193457280Y-194961094D01*
X193125469Y-194850292D01*
X193114821Y-194846182D01*
X192794593Y-194705333D01*
X192784367Y-194700261D01*
X192478465Y-194530572D01*
X192468749Y-194524582D01*
X192332572Y-194431711D01*
X192179723Y-194327470D01*
X192170613Y-194320621D01*
X191898863Y-194096051D01*
X191894388Y-194092170D01*
X189684173Y-192080545D01*
X189588769Y-191993713D01*
X194284800Y-191993713D01*
X194284800Y-192206286D01*
X194318053Y-192416239D01*
X194383744Y-192618414D01*
X194480251Y-192807820D01*
X194605190Y-192979786D01*
X194755513Y-193130109D01*
X194927479Y-193255048D01*
X194927481Y-193255049D01*
X194927484Y-193255051D01*
X195116888Y-193351557D01*
X195319057Y-193417246D01*
X195529013Y-193450500D01*
X195529014Y-193450500D01*
X195741586Y-193450500D01*
X195741587Y-193450500D01*
X195951543Y-193417246D01*
X196153712Y-193351557D01*
X196343116Y-193255051D01*
X196365089Y-193239086D01*
X196515086Y-193130109D01*
X196515088Y-193130106D01*
X196515092Y-193130104D01*
X196665404Y-192979792D01*
X196665406Y-192979788D01*
X196665409Y-192979786D01*
X196790348Y-192807820D01*
X196790347Y-192807820D01*
X196790351Y-192807816D01*
X196886857Y-192618412D01*
X196952546Y-192416243D01*
X196985800Y-192206287D01*
X196985800Y-191993713D01*
X202158800Y-191993713D01*
X202158800Y-192206286D01*
X202192053Y-192416239D01*
X202257744Y-192618414D01*
X202354251Y-192807820D01*
X202479190Y-192979786D01*
X202629513Y-193130109D01*
X202801479Y-193255048D01*
X202801481Y-193255049D01*
X202801484Y-193255051D01*
X202990888Y-193351557D01*
X203193057Y-193417246D01*
X203403013Y-193450500D01*
X203403014Y-193450500D01*
X203615586Y-193450500D01*
X203615587Y-193450500D01*
X203825543Y-193417246D01*
X204027712Y-193351557D01*
X204217116Y-193255051D01*
X204239089Y-193239086D01*
X204389086Y-193130109D01*
X204389088Y-193130106D01*
X204389092Y-193130104D01*
X204539404Y-192979792D01*
X204539406Y-192979788D01*
X204539409Y-192979786D01*
X204664348Y-192807820D01*
X204664347Y-192807820D01*
X204664351Y-192807816D01*
X204760857Y-192618412D01*
X204826546Y-192416243D01*
X204859800Y-192206287D01*
X204859800Y-191993713D01*
X204826546Y-191783757D01*
X204760857Y-191581588D01*
X204664351Y-191392184D01*
X204664349Y-191392181D01*
X204664348Y-191392179D01*
X204539409Y-191220213D01*
X204389086Y-191069890D01*
X204217120Y-190944951D01*
X204027714Y-190848444D01*
X204027713Y-190848443D01*
X204027712Y-190848443D01*
X203825543Y-190782754D01*
X203825541Y-190782753D01*
X203825540Y-190782753D01*
X203642243Y-190753722D01*
X203615587Y-190749500D01*
X203403013Y-190749500D01*
X203376357Y-190753722D01*
X203193060Y-190782753D01*
X202990885Y-190848444D01*
X202801479Y-190944951D01*
X202629513Y-191069890D01*
X202479190Y-191220213D01*
X202354251Y-191392179D01*
X202257744Y-191581585D01*
X202192053Y-191783760D01*
X202158800Y-191993713D01*
X196985800Y-191993713D01*
X196952546Y-191783757D01*
X196886857Y-191581588D01*
X196790351Y-191392184D01*
X196790349Y-191392181D01*
X196790348Y-191392179D01*
X196665409Y-191220213D01*
X196515086Y-191069890D01*
X196343120Y-190944951D01*
X196153714Y-190848444D01*
X196153713Y-190848443D01*
X196153712Y-190848443D01*
X195951543Y-190782754D01*
X195951541Y-190782753D01*
X195951540Y-190782753D01*
X195768243Y-190753722D01*
X195741587Y-190749500D01*
X195529013Y-190749500D01*
X195502357Y-190753722D01*
X195319060Y-190782753D01*
X195116885Y-190848444D01*
X194927479Y-190944951D01*
X194755513Y-191069890D01*
X194605190Y-191220213D01*
X194480251Y-191392179D01*
X194383744Y-191581585D01*
X194318053Y-191783760D01*
X194284800Y-191993713D01*
X189588769Y-191993713D01*
X188338514Y-190855794D01*
X188338461Y-190855754D01*
X188218414Y-190746479D01*
X188218410Y-190746476D01*
X188217724Y-190745959D01*
X188073280Y-190637037D01*
X187917849Y-190519830D01*
X187735897Y-190407320D01*
X187597684Y-190321856D01*
X187260634Y-190154233D01*
X187260629Y-190154231D01*
X187260621Y-190154227D01*
X186909581Y-190018394D01*
X186909574Y-190018391D01*
X186909570Y-190018390D01*
X186909566Y-190018389D01*
X186909555Y-190018385D01*
X186547495Y-189915486D01*
X186547467Y-189915479D01*
X186282174Y-189865942D01*
X186177444Y-189846386D01*
X186052501Y-189834821D01*
X185802617Y-189811691D01*
X185802615Y-189811691D01*
X185614400Y-189811700D01*
X158156306Y-189811700D01*
X158150897Y-189811582D01*
X157729808Y-189793197D01*
X157719032Y-189792254D01*
X157303842Y-189737593D01*
X157293189Y-189735715D01*
X156899989Y-189648545D01*
X156884329Y-189645073D01*
X156873886Y-189642275D01*
X156474480Y-189516342D01*
X156464317Y-189512643D01*
X156376154Y-189476125D01*
X156240171Y-189419799D01*
X156077414Y-189352383D01*
X156067610Y-189347811D01*
X155696157Y-189154444D01*
X155686789Y-189149036D01*
X155333585Y-188924020D01*
X155324724Y-188917815D01*
X154992484Y-188662879D01*
X154984197Y-188655925D01*
X154675444Y-188373004D01*
X154667795Y-188365355D01*
X154384874Y-188056602D01*
X154377920Y-188048315D01*
X154122984Y-187716075D01*
X154116779Y-187707214D01*
X153891763Y-187354010D01*
X153886355Y-187344642D01*
X153851833Y-187278326D01*
X153692985Y-186973182D01*
X153688416Y-186963385D01*
X153528150Y-186576467D01*
X153524461Y-186566332D01*
X153398519Y-186166898D01*
X153395730Y-186156486D01*
X153305081Y-185747597D01*
X153303208Y-185736971D01*
X153248543Y-185321747D01*
X153247603Y-185311010D01*
X153229218Y-184889901D01*
X153229100Y-184884493D01*
X153229100Y-181960000D01*
X153760769Y-181960000D01*
X154654988Y-181960000D01*
X154622075Y-182017007D01*
X154588000Y-182144174D01*
X154588000Y-182275826D01*
X154622075Y-182402993D01*
X154654988Y-182460000D01*
X153760769Y-182460000D01*
X153771242Y-182526126D01*
X153771242Y-182526129D01*
X153836904Y-182728217D01*
X153933379Y-182917557D01*
X154058272Y-183089459D01*
X154058276Y-183089464D01*
X154208535Y-183239723D01*
X154208540Y-183239727D01*
X154380442Y-183364620D01*
X154574121Y-183463306D01*
X154573603Y-183464321D01*
X154623808Y-183504779D01*
X154645873Y-183571073D01*
X154628594Y-183638772D01*
X154577458Y-183686383D01*
X154521952Y-183699500D01*
X154218247Y-183699500D01*
X154159770Y-183711131D01*
X154159769Y-183711132D01*
X154093447Y-183755447D01*
X154049132Y-183821769D01*
X154049131Y-183821770D01*
X154037500Y-183880247D01*
X154037500Y-185619752D01*
X154049131Y-185678229D01*
X154049132Y-185678230D01*
X154093447Y-185744552D01*
X154159769Y-185788867D01*
X154159770Y-185788868D01*
X154218247Y-185800499D01*
X154218250Y-185800500D01*
X154218252Y-185800500D01*
X155957750Y-185800500D01*
X155957751Y-185800499D01*
X155972568Y-185797552D01*
X156016229Y-185788868D01*
X156016229Y-185788867D01*
X156016231Y-185788867D01*
X156082552Y-185744552D01*
X156126867Y-185678231D01*
X156126867Y-185678229D01*
X156126868Y-185678229D01*
X156138499Y-185619752D01*
X156138500Y-185619750D01*
X156138500Y-185442549D01*
X159737500Y-185442549D01*
X159737500Y-185665450D01*
X159737501Y-185665466D01*
X159766594Y-185886452D01*
X159766595Y-185886457D01*
X159766596Y-185886463D01*
X159795520Y-185994408D01*
X159824290Y-186101780D01*
X159824293Y-186101790D01*
X159901955Y-186289282D01*
X159909595Y-186307726D01*
X160021052Y-186500774D01*
X160021057Y-186500780D01*
X160021058Y-186500782D01*
X160156751Y-186677622D01*
X160156757Y-186677629D01*
X160314370Y-186835242D01*
X160314377Y-186835248D01*
X160349954Y-186862547D01*
X160491226Y-186970948D01*
X160684274Y-187082405D01*
X160770807Y-187118248D01*
X160890204Y-187167704D01*
X160890219Y-187167710D01*
X161105537Y-187225404D01*
X161326543Y-187254500D01*
X161326550Y-187254500D01*
X161549450Y-187254500D01*
X161549457Y-187254500D01*
X161770463Y-187225404D01*
X161985781Y-187167710D01*
X161985793Y-187167704D01*
X161985796Y-187167704D01*
X161996529Y-187163257D01*
X162018216Y-187154275D01*
X162018217Y-187154275D01*
X162105193Y-187118248D01*
X162191726Y-187082405D01*
X162384774Y-186970948D01*
X162561624Y-186835247D01*
X162719247Y-186677624D01*
X162854948Y-186500774D01*
X162966405Y-186307726D01*
X163038239Y-186134303D01*
X184903000Y-186134303D01*
X184903000Y-186338938D01*
X184935009Y-186541038D01*
X184998244Y-186735652D01*
X185091141Y-186917971D01*
X185091147Y-186917980D01*
X185123523Y-186962542D01*
X185123524Y-186962543D01*
X185803000Y-186283067D01*
X185803000Y-186289282D01*
X185830259Y-186391015D01*
X185882920Y-186482227D01*
X185957394Y-186556701D01*
X186048606Y-186609362D01*
X186150339Y-186636621D01*
X186156553Y-186636621D01*
X185477076Y-187316095D01*
X185521650Y-187348480D01*
X185703968Y-187441376D01*
X185898582Y-187504611D01*
X186100683Y-187536621D01*
X186305317Y-187536621D01*
X186507417Y-187504611D01*
X186702031Y-187441376D01*
X186884349Y-187348480D01*
X186928921Y-187316095D01*
X186249447Y-186636621D01*
X186255661Y-186636621D01*
X186357394Y-186609362D01*
X186448606Y-186556701D01*
X186523080Y-186482227D01*
X186575741Y-186391015D01*
X186603000Y-186289282D01*
X186603000Y-186283069D01*
X187282474Y-186962543D01*
X187282474Y-186962542D01*
X187314859Y-186917970D01*
X187407755Y-186735652D01*
X187470990Y-186541038D01*
X187503000Y-186338938D01*
X187503000Y-186134303D01*
X187470990Y-185932203D01*
X187407754Y-185737586D01*
X187337883Y-185600456D01*
X187337882Y-185600455D01*
X187314859Y-185555271D01*
X187311209Y-185550247D01*
X190809500Y-185550247D01*
X190809500Y-187289752D01*
X190821131Y-187348229D01*
X190821132Y-187348230D01*
X190865447Y-187414552D01*
X190931769Y-187458867D01*
X190931770Y-187458868D01*
X190990247Y-187470499D01*
X190990250Y-187470500D01*
X190990252Y-187470500D01*
X192729750Y-187470500D01*
X192729751Y-187470499D01*
X192744568Y-187467552D01*
X192788229Y-187458868D01*
X192788229Y-187458867D01*
X192788231Y-187458867D01*
X192854552Y-187414552D01*
X192898867Y-187348231D01*
X192898867Y-187348229D01*
X192898868Y-187348229D01*
X192910499Y-187289752D01*
X192910500Y-187289750D01*
X192910500Y-185550249D01*
X192910499Y-185550247D01*
X194649500Y-185550247D01*
X194649500Y-187289752D01*
X194661131Y-187348229D01*
X194661132Y-187348230D01*
X194705447Y-187414552D01*
X194771769Y-187458867D01*
X194771770Y-187458868D01*
X194830247Y-187470499D01*
X194830250Y-187470500D01*
X194830252Y-187470500D01*
X196569750Y-187470500D01*
X196569751Y-187470499D01*
X196584568Y-187467552D01*
X196628229Y-187458868D01*
X196628229Y-187458867D01*
X196628231Y-187458867D01*
X196694552Y-187414552D01*
X196738867Y-187348231D01*
X196738867Y-187348229D01*
X196738868Y-187348229D01*
X196750499Y-187289752D01*
X196750500Y-187289750D01*
X196750500Y-185550249D01*
X196750499Y-185550247D01*
X196738868Y-185491770D01*
X196738867Y-185491769D01*
X196694552Y-185425447D01*
X196628230Y-185381132D01*
X196628229Y-185381131D01*
X196569752Y-185369500D01*
X196569748Y-185369500D01*
X194830252Y-185369500D01*
X194830247Y-185369500D01*
X194771770Y-185381131D01*
X194771769Y-185381132D01*
X194705447Y-185425447D01*
X194661132Y-185491769D01*
X194661131Y-185491770D01*
X194649500Y-185550247D01*
X192910499Y-185550247D01*
X192898868Y-185491770D01*
X192898867Y-185491769D01*
X192854552Y-185425447D01*
X192788230Y-185381132D01*
X192788229Y-185381131D01*
X192729752Y-185369500D01*
X192729748Y-185369500D01*
X190990252Y-185369500D01*
X190990247Y-185369500D01*
X190931770Y-185381131D01*
X190931769Y-185381132D01*
X190865447Y-185425447D01*
X190821132Y-185491769D01*
X190821131Y-185491770D01*
X190809500Y-185550247D01*
X187311209Y-185550247D01*
X187282474Y-185510698D01*
X187282474Y-185510697D01*
X186603000Y-186190172D01*
X186603000Y-186183960D01*
X186575741Y-186082227D01*
X186523080Y-185991015D01*
X186448606Y-185916541D01*
X186357394Y-185863880D01*
X186255661Y-185836621D01*
X186249446Y-185836621D01*
X186928922Y-185157145D01*
X186928921Y-185157144D01*
X186884359Y-185124768D01*
X186884350Y-185124762D01*
X186702031Y-185031865D01*
X186539490Y-184979052D01*
X186481815Y-184939614D01*
X186454617Y-184875255D01*
X186466532Y-184806409D01*
X186513776Y-184754933D01*
X186577809Y-184737121D01*
X187022750Y-184737121D01*
X187022751Y-184737120D01*
X187037568Y-184734173D01*
X187081229Y-184725489D01*
X187081229Y-184725488D01*
X187081231Y-184725488D01*
X187147552Y-184681173D01*
X187191867Y-184614852D01*
X187191867Y-184614850D01*
X187191868Y-184614850D01*
X187203499Y-184556373D01*
X187203500Y-184556371D01*
X187203500Y-182916870D01*
X187203499Y-182916868D01*
X187191868Y-182858391D01*
X187191867Y-182858390D01*
X187147552Y-182792068D01*
X187081230Y-182747753D01*
X187081229Y-182747752D01*
X187022752Y-182736121D01*
X187022748Y-182736121D01*
X185383252Y-182736121D01*
X185383247Y-182736121D01*
X185324770Y-182747752D01*
X185324769Y-182747753D01*
X185258447Y-182792068D01*
X185214132Y-182858390D01*
X185214131Y-182858391D01*
X185202500Y-182916868D01*
X185202500Y-184556373D01*
X185214131Y-184614850D01*
X185214132Y-184614851D01*
X185258447Y-184681173D01*
X185324769Y-184725488D01*
X185324770Y-184725489D01*
X185383247Y-184737120D01*
X185383250Y-184737121D01*
X185828191Y-184737121D01*
X185895230Y-184756806D01*
X185940985Y-184809610D01*
X185950929Y-184878768D01*
X185921904Y-184942324D01*
X185866510Y-184979052D01*
X185703968Y-185031865D01*
X185521644Y-185124764D01*
X185477077Y-185157144D01*
X185477077Y-185157145D01*
X186156554Y-185836621D01*
X186150339Y-185836621D01*
X186048606Y-185863880D01*
X185957394Y-185916541D01*
X185882920Y-185991015D01*
X185830259Y-186082227D01*
X185803000Y-186183960D01*
X185803000Y-186190174D01*
X185123524Y-185510698D01*
X185123523Y-185510698D01*
X185091143Y-185555265D01*
X184998244Y-185737589D01*
X184935009Y-185932203D01*
X184903000Y-186134303D01*
X163038239Y-186134303D01*
X163051710Y-186101781D01*
X163109404Y-185886463D01*
X163138500Y-185665457D01*
X163138500Y-185442543D01*
X163109404Y-185221537D01*
X163051710Y-185006219D01*
X162966405Y-184800274D01*
X162854948Y-184607226D01*
X162795549Y-184529815D01*
X162719248Y-184430377D01*
X162719242Y-184430370D01*
X162561629Y-184272757D01*
X162561622Y-184272751D01*
X162384782Y-184137058D01*
X162384780Y-184137057D01*
X162384774Y-184137052D01*
X162191726Y-184025595D01*
X162191722Y-184025593D01*
X161985790Y-183940293D01*
X161985783Y-183940291D01*
X161985781Y-183940290D01*
X161770463Y-183882596D01*
X161770457Y-183882595D01*
X161770452Y-183882594D01*
X161549466Y-183853501D01*
X161549463Y-183853500D01*
X161549457Y-183853500D01*
X161326543Y-183853500D01*
X161326537Y-183853500D01*
X161326533Y-183853501D01*
X161105547Y-183882594D01*
X161105540Y-183882595D01*
X161105537Y-183882596D01*
X160890219Y-183940290D01*
X160890209Y-183940293D01*
X160684277Y-184025593D01*
X160684273Y-184025595D01*
X160491226Y-184137052D01*
X160491217Y-184137058D01*
X160314377Y-184272751D01*
X160314370Y-184272757D01*
X160156757Y-184430370D01*
X160156751Y-184430377D01*
X160021058Y-184607217D01*
X160021052Y-184607226D01*
X159909595Y-184800273D01*
X159909593Y-184800277D01*
X159824293Y-185006209D01*
X159824290Y-185006219D01*
X159772802Y-185198378D01*
X159766597Y-185221534D01*
X159766594Y-185221547D01*
X159737501Y-185442533D01*
X159737500Y-185442549D01*
X156138500Y-185442549D01*
X156138500Y-183880249D01*
X156138499Y-183880247D01*
X156126868Y-183821770D01*
X156126867Y-183821769D01*
X156082552Y-183755447D01*
X156016230Y-183711132D01*
X156016229Y-183711131D01*
X155957752Y-183699500D01*
X155957748Y-183699500D01*
X155654048Y-183699500D01*
X155587009Y-183679815D01*
X155541254Y-183627011D01*
X155531310Y-183557853D01*
X155560335Y-183494297D01*
X155602264Y-183464061D01*
X155601879Y-183463306D01*
X155795557Y-183364620D01*
X155967459Y-183239727D01*
X155967464Y-183239723D01*
X156117723Y-183089464D01*
X156117727Y-183089459D01*
X156242620Y-182917557D01*
X156274758Y-182854486D01*
X156339095Y-182728217D01*
X156404757Y-182526129D01*
X156404757Y-182526126D01*
X156415231Y-182460000D01*
X155521012Y-182460000D01*
X155553925Y-182402993D01*
X155588000Y-182275826D01*
X155588000Y-182144174D01*
X155553925Y-182017007D01*
X155521012Y-181960000D01*
X156415231Y-181960000D01*
X156404757Y-181893873D01*
X156404757Y-181893870D01*
X156339095Y-181691782D01*
X156242620Y-181502442D01*
X156117727Y-181330540D01*
X156117723Y-181330535D01*
X155967464Y-181180276D01*
X155967459Y-181180272D01*
X155795557Y-181055379D01*
X155606215Y-180958903D01*
X155404124Y-180893241D01*
X155338000Y-180882768D01*
X155338000Y-181776988D01*
X155280993Y-181744075D01*
X155153826Y-181710000D01*
X155022174Y-181710000D01*
X154895007Y-181744075D01*
X154838000Y-181776988D01*
X154838000Y-180882768D01*
X154837999Y-180882768D01*
X154771875Y-180893241D01*
X154569784Y-180958903D01*
X154380442Y-181055379D01*
X154208540Y-181180272D01*
X154208535Y-181180276D01*
X154058276Y-181330535D01*
X154058272Y-181330540D01*
X153933379Y-181502442D01*
X153836904Y-181691782D01*
X153771242Y-181893870D01*
X153771242Y-181893873D01*
X153760769Y-181960000D01*
X153229100Y-181960000D01*
X153229100Y-180616549D01*
X159737500Y-180616549D01*
X159737500Y-180839450D01*
X159737501Y-180839466D01*
X159766594Y-181060452D01*
X159766595Y-181060457D01*
X159766596Y-181060463D01*
X159824290Y-181275780D01*
X159824293Y-181275790D01*
X159900108Y-181458823D01*
X159909595Y-181481726D01*
X160021052Y-181674774D01*
X160021057Y-181674780D01*
X160021058Y-181674782D01*
X160156751Y-181851622D01*
X160156757Y-181851629D01*
X160314370Y-182009242D01*
X160314377Y-182009248D01*
X160411720Y-182083941D01*
X160491226Y-182144948D01*
X160684274Y-182256405D01*
X160723730Y-182272748D01*
X160864152Y-182330913D01*
X160890219Y-182341710D01*
X161105537Y-182399404D01*
X161326543Y-182428500D01*
X161326550Y-182428500D01*
X161549450Y-182428500D01*
X161549457Y-182428500D01*
X161770463Y-182399404D01*
X161985781Y-182341710D01*
X162191726Y-182256405D01*
X162384774Y-182144948D01*
X162561624Y-182009247D01*
X162719247Y-181851624D01*
X162854948Y-181674774D01*
X162966405Y-181481726D01*
X163051710Y-181275781D01*
X163109404Y-181060463D01*
X163138500Y-180839457D01*
X163138500Y-180616543D01*
X163109404Y-180395537D01*
X163051710Y-180180219D01*
X162966405Y-179974274D01*
X162854948Y-179781226D01*
X162760737Y-179658447D01*
X162719248Y-179604377D01*
X162719242Y-179604370D01*
X162561629Y-179446757D01*
X162561622Y-179446751D01*
X162384782Y-179311058D01*
X162384780Y-179311057D01*
X162384774Y-179311052D01*
X162191726Y-179199595D01*
X162191722Y-179199593D01*
X161985790Y-179114293D01*
X161985783Y-179114291D01*
X161985781Y-179114290D01*
X161770463Y-179056596D01*
X161770457Y-179056595D01*
X161770452Y-179056594D01*
X161549466Y-179027501D01*
X161549463Y-179027500D01*
X161549457Y-179027500D01*
X161326543Y-179027500D01*
X161326537Y-179027500D01*
X161326533Y-179027501D01*
X161105547Y-179056594D01*
X161105540Y-179056595D01*
X161105537Y-179056596D01*
X160900355Y-179111574D01*
X160890219Y-179114290D01*
X160890209Y-179114293D01*
X160684277Y-179199593D01*
X160684273Y-179199595D01*
X160491226Y-179311052D01*
X160491217Y-179311058D01*
X160314377Y-179446751D01*
X160314370Y-179446757D01*
X160156757Y-179604370D01*
X160156751Y-179604377D01*
X160021058Y-179781217D01*
X160021052Y-179781226D01*
X159909595Y-179974273D01*
X159909593Y-179974277D01*
X159824293Y-180180209D01*
X159824290Y-180180219D01*
X159769067Y-180386317D01*
X159766597Y-180395534D01*
X159766594Y-180395547D01*
X159737501Y-180616533D01*
X159737500Y-180616549D01*
X153229100Y-180616549D01*
X153229100Y-177755513D01*
X153939500Y-177755513D01*
X153939500Y-177944486D01*
X153969059Y-178131118D01*
X154027454Y-178310836D01*
X154075985Y-178406081D01*
X154089500Y-178462376D01*
X154089500Y-178719752D01*
X154101131Y-178778229D01*
X154101132Y-178778230D01*
X154145447Y-178844552D01*
X154211769Y-178888867D01*
X154211770Y-178888868D01*
X154270247Y-178900499D01*
X154270250Y-178900500D01*
X154270252Y-178900500D01*
X154527624Y-178900500D01*
X154583919Y-178914015D01*
X154679163Y-178962545D01*
X154679165Y-178962545D01*
X154679168Y-178962547D01*
X154775497Y-178993846D01*
X154858881Y-179020940D01*
X155045514Y-179050500D01*
X155045519Y-179050500D01*
X159584486Y-179050500D01*
X159771118Y-179020940D01*
X159950832Y-178962547D01*
X160119199Y-178876760D01*
X160272074Y-178765690D01*
X161398945Y-177638819D01*
X161460268Y-177605334D01*
X161486626Y-177602500D01*
X161549450Y-177602500D01*
X161549457Y-177602500D01*
X161770463Y-177573404D01*
X161985781Y-177515710D01*
X162191726Y-177430405D01*
X162384774Y-177318948D01*
X162561624Y-177183247D01*
X162719247Y-177025624D01*
X162854948Y-176848774D01*
X162966405Y-176655726D01*
X163051710Y-176449781D01*
X163109404Y-176234463D01*
X163138500Y-176013457D01*
X163138500Y-175790543D01*
X163109404Y-175569537D01*
X163051710Y-175354219D01*
X163030926Y-175304043D01*
X162987449Y-175199080D01*
X162966405Y-175148274D01*
X162854948Y-174955226D01*
X162787617Y-174867478D01*
X162719248Y-174778377D01*
X162719242Y-174778370D01*
X162561629Y-174620757D01*
X162561622Y-174620751D01*
X162384782Y-174485058D01*
X162384780Y-174485057D01*
X162384774Y-174485052D01*
X162191726Y-174373595D01*
X162191722Y-174373593D01*
X161985790Y-174288293D01*
X161985783Y-174288291D01*
X161985781Y-174288290D01*
X161770463Y-174230596D01*
X161770457Y-174230595D01*
X161770452Y-174230594D01*
X161549466Y-174201501D01*
X161549463Y-174201500D01*
X161549457Y-174201500D01*
X161326543Y-174201500D01*
X161326537Y-174201500D01*
X161326533Y-174201501D01*
X161105547Y-174230594D01*
X161105540Y-174230595D01*
X161105537Y-174230596D01*
X160890219Y-174288290D01*
X160890209Y-174288293D01*
X160684277Y-174373593D01*
X160684273Y-174373595D01*
X160491226Y-174485052D01*
X160491217Y-174485058D01*
X160314377Y-174620751D01*
X160314370Y-174620757D01*
X160156757Y-174778370D01*
X160156751Y-174778377D01*
X160021058Y-174955217D01*
X160021052Y-174955226D01*
X159909595Y-175148273D01*
X159909593Y-175148277D01*
X159824293Y-175354209D01*
X159824290Y-175354219D01*
X159770279Y-175555794D01*
X159766597Y-175569534D01*
X159766594Y-175569547D01*
X159737501Y-175790533D01*
X159737500Y-175790549D01*
X159737500Y-175853374D01*
X159717815Y-175920413D01*
X159701181Y-175941055D01*
X159029055Y-176613181D01*
X158967732Y-176646666D01*
X158941374Y-176649500D01*
X155045514Y-176649500D01*
X154858881Y-176679059D01*
X154679163Y-176737454D01*
X154583919Y-176785985D01*
X154527624Y-176799500D01*
X154270247Y-176799500D01*
X154211770Y-176811131D01*
X154211769Y-176811132D01*
X154145447Y-176855447D01*
X154101132Y-176921769D01*
X154101131Y-176921770D01*
X154089500Y-176980247D01*
X154089500Y-177237623D01*
X154075985Y-177293918D01*
X154027454Y-177389163D01*
X153969059Y-177568881D01*
X153939500Y-177755513D01*
X153229100Y-177755513D01*
X153229100Y-171316847D01*
X154753100Y-171316847D01*
X154753100Y-173056352D01*
X154764731Y-173114829D01*
X154764732Y-173114830D01*
X154809047Y-173181152D01*
X154875369Y-173225467D01*
X154875370Y-173225468D01*
X154933847Y-173237099D01*
X154933850Y-173237100D01*
X154933852Y-173237100D01*
X156673350Y-173237100D01*
X156673351Y-173237099D01*
X156688168Y-173234152D01*
X156731829Y-173225468D01*
X156731829Y-173225467D01*
X156731831Y-173225467D01*
X156798152Y-173181152D01*
X156842467Y-173114831D01*
X156842467Y-173114829D01*
X156842468Y-173114829D01*
X156854099Y-173056352D01*
X156854100Y-173056350D01*
X156854100Y-171316849D01*
X156854099Y-171316847D01*
X156842468Y-171258370D01*
X156842467Y-171258369D01*
X156798152Y-171192047D01*
X156731830Y-171147732D01*
X156731829Y-171147731D01*
X156673352Y-171136100D01*
X156673348Y-171136100D01*
X154933852Y-171136100D01*
X154933847Y-171136100D01*
X154875370Y-171147731D01*
X154875369Y-171147732D01*
X154809047Y-171192047D01*
X154764732Y-171258369D01*
X154764731Y-171258370D01*
X154753100Y-171316847D01*
X153229100Y-171316847D01*
X153229100Y-164316600D01*
X154476369Y-164316600D01*
X155370588Y-164316600D01*
X155337675Y-164373607D01*
X155303600Y-164500774D01*
X155303600Y-164632426D01*
X155337675Y-164759593D01*
X155370588Y-164816600D01*
X154476369Y-164816600D01*
X154486842Y-164882726D01*
X154486842Y-164882729D01*
X154552504Y-165084817D01*
X154648979Y-165274157D01*
X154773872Y-165446059D01*
X154773876Y-165446064D01*
X154924135Y-165596323D01*
X154924140Y-165596327D01*
X155096042Y-165721220D01*
X155285382Y-165817695D01*
X155461573Y-165874943D01*
X155519248Y-165914380D01*
X155546447Y-165978739D01*
X155534532Y-166047585D01*
X155487288Y-166099061D01*
X155470708Y-166107435D01*
X155306003Y-166175657D01*
X155133942Y-166290624D01*
X154987624Y-166436942D01*
X154872658Y-166609003D01*
X154793470Y-166800179D01*
X154793468Y-166800187D01*
X154753100Y-167003130D01*
X154753100Y-167210069D01*
X154793468Y-167413012D01*
X154793470Y-167413020D01*
X154870567Y-167599149D01*
X154872659Y-167604198D01*
X154902663Y-167649102D01*
X154987624Y-167776257D01*
X155133942Y-167922575D01*
X155133945Y-167922577D01*
X155306002Y-168037541D01*
X155497180Y-168116730D01*
X155700130Y-168157099D01*
X155700134Y-168157100D01*
X155700135Y-168157100D01*
X155907066Y-168157100D01*
X155907067Y-168157099D01*
X156110020Y-168116730D01*
X156301198Y-168037541D01*
X156473255Y-167922577D01*
X156619577Y-167776255D01*
X156734541Y-167604198D01*
X156813730Y-167413020D01*
X156854100Y-167210065D01*
X156854100Y-167003135D01*
X156813730Y-166800180D01*
X156734541Y-166609002D01*
X156619577Y-166436945D01*
X156619575Y-166436942D01*
X156473257Y-166290624D01*
X156319482Y-166187876D01*
X156301198Y-166175659D01*
X156301193Y-166175657D01*
X156239491Y-166150099D01*
X156136490Y-166107434D01*
X156082088Y-166063594D01*
X156060023Y-165997300D01*
X156077302Y-165929601D01*
X156128439Y-165881990D01*
X156145626Y-165874943D01*
X156321817Y-165817695D01*
X156511157Y-165721220D01*
X156683059Y-165596327D01*
X156683064Y-165596323D01*
X156833323Y-165446064D01*
X156833327Y-165446059D01*
X156958220Y-165274157D01*
X157054695Y-165084817D01*
X157120357Y-164882729D01*
X157120357Y-164882726D01*
X157130831Y-164816600D01*
X156236612Y-164816600D01*
X156269525Y-164759593D01*
X156303600Y-164632426D01*
X156303600Y-164500774D01*
X156269525Y-164373607D01*
X156236612Y-164316600D01*
X157130831Y-164316600D01*
X157120357Y-164250473D01*
X157120357Y-164250470D01*
X157054695Y-164048382D01*
X156958220Y-163859042D01*
X156833327Y-163687140D01*
X156833323Y-163687135D01*
X156683064Y-163536876D01*
X156683059Y-163536872D01*
X156511157Y-163411979D01*
X156321816Y-163315504D01*
X156145626Y-163258256D01*
X156087950Y-163218818D01*
X156060752Y-163154460D01*
X156069804Y-163102155D01*
X177650000Y-163102155D01*
X177650000Y-163750000D01*
X178566988Y-163750000D01*
X178534075Y-163807007D01*
X178500000Y-163934174D01*
X178500000Y-164065826D01*
X178534075Y-164192993D01*
X178566988Y-164250000D01*
X177650000Y-164250000D01*
X177650000Y-164897844D01*
X177656401Y-164957372D01*
X177656403Y-164957379D01*
X177706645Y-165092086D01*
X177706649Y-165092093D01*
X177792809Y-165207187D01*
X177792812Y-165207190D01*
X177907906Y-165293350D01*
X177907913Y-165293354D01*
X178042620Y-165343596D01*
X178042627Y-165343598D01*
X178102155Y-165349999D01*
X178102172Y-165350000D01*
X178750000Y-165350000D01*
X178750000Y-164433012D01*
X178807007Y-164465925D01*
X178934174Y-164500000D01*
X179065826Y-164500000D01*
X179192993Y-164465925D01*
X179250000Y-164433012D01*
X179250000Y-165350000D01*
X179897828Y-165350000D01*
X179897844Y-165349999D01*
X179957372Y-165343598D01*
X179957379Y-165343596D01*
X180092086Y-165293354D01*
X180092093Y-165293350D01*
X180207187Y-165207190D01*
X180207190Y-165207187D01*
X180293350Y-165092093D01*
X180293354Y-165092086D01*
X180343596Y-164957379D01*
X180343598Y-164957372D01*
X180349999Y-164897844D01*
X180350000Y-164897827D01*
X180350000Y-164250000D01*
X179433012Y-164250000D01*
X179465925Y-164192993D01*
X179500000Y-164065826D01*
X179500000Y-163934174D01*
X179465925Y-163807007D01*
X179433012Y-163750000D01*
X180350000Y-163750000D01*
X180350000Y-163102172D01*
X180349999Y-163102155D01*
X180343598Y-163042627D01*
X180343596Y-163042620D01*
X180293354Y-162907913D01*
X180293350Y-162907906D01*
X180207190Y-162792812D01*
X180207187Y-162792809D01*
X180092093Y-162706649D01*
X180092086Y-162706645D01*
X179957379Y-162656403D01*
X179957372Y-162656401D01*
X179897844Y-162650000D01*
X179250000Y-162650000D01*
X179250000Y-163566988D01*
X179192993Y-163534075D01*
X179065826Y-163500000D01*
X178934174Y-163500000D01*
X178807007Y-163534075D01*
X178750000Y-163566988D01*
X178750000Y-162650000D01*
X178102155Y-162650000D01*
X178042627Y-162656401D01*
X178042620Y-162656403D01*
X177907913Y-162706645D01*
X177907906Y-162706649D01*
X177792812Y-162792809D01*
X177792809Y-162792812D01*
X177706649Y-162907906D01*
X177706645Y-162907913D01*
X177656403Y-163042620D01*
X177656401Y-163042627D01*
X177650000Y-163102155D01*
X156069804Y-163102155D01*
X156072667Y-163085613D01*
X156119911Y-163034138D01*
X156136482Y-163025768D01*
X156301198Y-162957541D01*
X156473255Y-162842577D01*
X156619577Y-162696255D01*
X156734541Y-162524198D01*
X156813730Y-162333020D01*
X156854100Y-162130065D01*
X156854100Y-161923135D01*
X156813730Y-161720180D01*
X156734541Y-161529002D01*
X156619577Y-161356945D01*
X156619575Y-161356942D01*
X156473257Y-161210624D01*
X156349947Y-161128232D01*
X156301198Y-161095659D01*
X156257066Y-161077379D01*
X156110020Y-161016470D01*
X156110012Y-161016468D01*
X155907069Y-160976100D01*
X155907065Y-160976100D01*
X155700135Y-160976100D01*
X155700130Y-160976100D01*
X155497187Y-161016468D01*
X155497179Y-161016470D01*
X155306003Y-161095658D01*
X155133942Y-161210624D01*
X154987624Y-161356942D01*
X154872658Y-161529003D01*
X154793470Y-161720179D01*
X154793468Y-161720187D01*
X154753100Y-161923130D01*
X154753100Y-162130069D01*
X154793468Y-162333012D01*
X154793470Y-162333020D01*
X154872658Y-162524196D01*
X154987624Y-162696257D01*
X155133942Y-162842575D01*
X155306005Y-162957543D01*
X155408643Y-163000056D01*
X155470708Y-163025764D01*
X155525111Y-163069605D01*
X155547176Y-163135899D01*
X155529897Y-163203598D01*
X155478760Y-163251209D01*
X155461574Y-163258256D01*
X155285381Y-163315505D01*
X155096042Y-163411979D01*
X154924140Y-163536872D01*
X154924135Y-163536876D01*
X154773876Y-163687135D01*
X154773872Y-163687140D01*
X154648979Y-163859042D01*
X154552504Y-164048382D01*
X154486842Y-164250470D01*
X154486842Y-164250473D01*
X154476369Y-164316600D01*
X153229100Y-164316600D01*
X153229100Y-161389906D01*
X153229218Y-161384498D01*
X153236745Y-161212093D01*
X153247603Y-160963387D01*
X153248543Y-160952654D01*
X153303209Y-160537424D01*
X153305080Y-160526809D01*
X153395731Y-160117907D01*
X153398518Y-160107507D01*
X153524463Y-159708060D01*
X153528147Y-159697939D01*
X153688422Y-159310999D01*
X153692980Y-159301225D01*
X153734141Y-159222155D01*
X159080000Y-159222155D01*
X159080000Y-159870000D01*
X159996988Y-159870000D01*
X159964075Y-159927007D01*
X159930000Y-160054174D01*
X159930000Y-160185826D01*
X159964075Y-160312993D01*
X159996988Y-160370000D01*
X159080000Y-160370000D01*
X159080000Y-161017844D01*
X159086401Y-161077372D01*
X159086403Y-161077379D01*
X159136645Y-161212086D01*
X159136649Y-161212093D01*
X159222809Y-161327187D01*
X159222812Y-161327190D01*
X159337906Y-161413350D01*
X159337913Y-161413354D01*
X159472620Y-161463596D01*
X159472627Y-161463598D01*
X159532155Y-161469999D01*
X159532172Y-161470000D01*
X160180000Y-161470000D01*
X160180000Y-160553012D01*
X160237007Y-160585925D01*
X160364174Y-160620000D01*
X160495826Y-160620000D01*
X160622993Y-160585925D01*
X160680000Y-160553012D01*
X160680000Y-161470000D01*
X161327828Y-161470000D01*
X161327844Y-161469999D01*
X161387372Y-161463598D01*
X161387379Y-161463596D01*
X161522086Y-161413354D01*
X161522093Y-161413350D01*
X161637187Y-161327190D01*
X161637190Y-161327187D01*
X161723350Y-161212093D01*
X161723354Y-161212086D01*
X161773596Y-161077379D01*
X161773598Y-161077372D01*
X161779999Y-161017844D01*
X161780000Y-161017827D01*
X161780000Y-160370000D01*
X160863012Y-160370000D01*
X160895925Y-160312993D01*
X160930000Y-160185826D01*
X160930000Y-160054174D01*
X160895925Y-159927007D01*
X160863012Y-159870000D01*
X161780000Y-159870000D01*
X161780000Y-159222172D01*
X161779999Y-159222155D01*
X161773598Y-159162627D01*
X161773596Y-159162620D01*
X161723354Y-159027913D01*
X161723350Y-159027906D01*
X161637190Y-158912812D01*
X161637187Y-158912809D01*
X161522093Y-158826649D01*
X161522086Y-158826645D01*
X161387379Y-158776403D01*
X161387372Y-158776401D01*
X161327844Y-158770000D01*
X160680000Y-158770000D01*
X160680000Y-159686988D01*
X160622993Y-159654075D01*
X160495826Y-159620000D01*
X160364174Y-159620000D01*
X160237007Y-159654075D01*
X160180000Y-159686988D01*
X160180000Y-158770000D01*
X159532155Y-158770000D01*
X159472627Y-158776401D01*
X159472620Y-158776403D01*
X159337913Y-158826645D01*
X159337906Y-158826649D01*
X159222812Y-158912809D01*
X159222809Y-158912812D01*
X159136649Y-159027906D01*
X159136645Y-159027913D01*
X159086403Y-159162620D01*
X159086401Y-159162627D01*
X159080000Y-159222155D01*
X153734141Y-159222155D01*
X153886361Y-158929745D01*
X153891756Y-158920400D01*
X154116786Y-158567174D01*
X154122976Y-158558334D01*
X154377927Y-158226075D01*
X154384865Y-158217806D01*
X154667805Y-157909033D01*
X154675433Y-157901405D01*
X154984206Y-157618465D01*
X154992475Y-157611527D01*
X155324734Y-157356576D01*
X155333574Y-157350386D01*
X155686800Y-157125356D01*
X155696145Y-157119961D01*
X156067625Y-156926580D01*
X156077399Y-156922022D01*
X156464339Y-156761747D01*
X156474460Y-156758063D01*
X156873907Y-156632118D01*
X156884307Y-156629331D01*
X157293205Y-156538681D01*
X157303824Y-156536809D01*
X157719054Y-156482143D01*
X157729787Y-156481203D01*
X158137994Y-156463381D01*
X158150898Y-156462818D01*
X158156306Y-156462700D01*
X166968616Y-156462700D01*
X166968618Y-156462700D01*
X166996367Y-156451206D01*
X167017606Y-156429967D01*
X167029100Y-156402218D01*
X167029100Y-151193527D01*
X171044900Y-151193527D01*
X171044900Y-151404873D01*
X171048579Y-151428100D01*
X171077962Y-151613617D01*
X171143269Y-151814615D01*
X171143270Y-151814618D01*
X171239220Y-152002928D01*
X171363446Y-152173910D01*
X171512890Y-152323354D01*
X171683872Y-152447580D01*
X171776232Y-152494639D01*
X171872181Y-152543529D01*
X171872184Y-152543530D01*
X171950436Y-152568955D01*
X172073184Y-152608838D01*
X172281927Y-152641900D01*
X172281928Y-152641900D01*
X172493272Y-152641900D01*
X172493273Y-152641900D01*
X172702016Y-152608838D01*
X172903018Y-152543529D01*
X173091328Y-152447580D01*
X173262310Y-152323354D01*
X173411754Y-152173910D01*
X173535980Y-152002928D01*
X173631929Y-151814618D01*
X173697238Y-151613616D01*
X173730300Y-151404873D01*
X173730300Y-151193527D01*
X173697238Y-150984784D01*
X173631929Y-150783782D01*
X173631929Y-150783781D01*
X173535979Y-150595471D01*
X173411754Y-150424490D01*
X173262310Y-150275046D01*
X173091328Y-150150820D01*
X172903018Y-150054870D01*
X172903015Y-150054869D01*
X172702017Y-149989562D01*
X172597644Y-149973031D01*
X172493273Y-149956500D01*
X172281927Y-149956500D01*
X172212346Y-149967520D01*
X172073182Y-149989562D01*
X171872184Y-150054869D01*
X171872181Y-150054870D01*
X171683871Y-150150820D01*
X171586320Y-150221695D01*
X171512890Y-150275046D01*
X171512888Y-150275048D01*
X171512887Y-150275048D01*
X171363448Y-150424487D01*
X171363448Y-150424488D01*
X171363446Y-150424490D01*
X171310095Y-150497920D01*
X171239220Y-150595471D01*
X171143270Y-150783781D01*
X171143269Y-150783784D01*
X171077962Y-150984782D01*
X171056883Y-151117867D01*
X171044900Y-151193527D01*
X167029100Y-151193527D01*
X167029100Y-128372182D01*
X167017606Y-128344433D01*
X166996367Y-128323194D01*
X166968618Y-128311700D01*
X166968617Y-128311700D01*
X158156306Y-128311700D01*
X158150897Y-128311582D01*
X157729808Y-128293197D01*
X157719032Y-128292254D01*
X157303842Y-128237593D01*
X157293189Y-128235715D01*
X156997006Y-128170053D01*
X156884329Y-128145073D01*
X156873886Y-128142275D01*
X156474480Y-128016342D01*
X156464317Y-128012643D01*
X156077414Y-127852383D01*
X156067610Y-127847811D01*
X155696157Y-127654444D01*
X155686789Y-127649036D01*
X155333585Y-127424020D01*
X155324724Y-127417815D01*
X154992484Y-127162879D01*
X154984197Y-127155925D01*
X154675444Y-126873004D01*
X154667795Y-126865355D01*
X154384874Y-126556602D01*
X154377920Y-126548315D01*
X154122984Y-126216075D01*
X154116779Y-126207214D01*
X153891763Y-125854010D01*
X153886355Y-125844642D01*
X153838780Y-125753251D01*
X153692985Y-125473182D01*
X153688416Y-125463385D01*
X153528150Y-125076467D01*
X153524461Y-125066332D01*
X153398519Y-124666898D01*
X153395730Y-124656486D01*
X153305081Y-124247597D01*
X153303208Y-124236971D01*
X153248543Y-123821747D01*
X153247603Y-123811010D01*
X153229218Y-123389901D01*
X153229100Y-123384493D01*
X153229100Y-112254178D01*
X153229208Y-112249010D01*
X153232527Y-112169448D01*
X153245992Y-111846637D01*
X153246850Y-111836364D01*
X153296763Y-111439355D01*
X153298478Y-111429167D01*
X153311949Y-111365480D01*
X153381283Y-111037680D01*
X153383830Y-111027708D01*
X153498960Y-110644446D01*
X153502326Y-110634729D01*
X153648970Y-110262397D01*
X153653141Y-110252981D01*
X153830281Y-109894159D01*
X153835222Y-109885121D01*
X154041618Y-109542317D01*
X154047299Y-109533712D01*
X154281545Y-109209265D01*
X154287911Y-109201180D01*
X154548359Y-108897370D01*
X154555386Y-108889834D01*
X154840217Y-108608784D01*
X154847844Y-108601861D01*
X155155105Y-108345497D01*
X155163284Y-108339231D01*
X155490824Y-108109349D01*
X155499491Y-108103790D01*
X155845049Y-107901978D01*
X155854140Y-107897165D01*
X156215302Y-107724833D01*
X156224771Y-107720790D01*
X156600965Y-107578402D01*
X156606786Y-107576364D01*
X158792581Y-106872048D01*
X158794514Y-106871443D01*
X160993856Y-106203450D01*
X160995823Y-106202871D01*
X163206083Y-105572036D01*
X163207978Y-105571512D01*
X164658916Y-105183713D01*
X194895500Y-105183713D01*
X194895500Y-105396286D01*
X194923250Y-105571497D01*
X194928754Y-105606243D01*
X194969919Y-105732936D01*
X194994444Y-105808414D01*
X195090951Y-105997820D01*
X195215890Y-106169786D01*
X195366213Y-106320109D01*
X195538179Y-106445048D01*
X195538181Y-106445049D01*
X195538184Y-106445051D01*
X195727588Y-106541557D01*
X195929757Y-106607246D01*
X196139713Y-106640500D01*
X196139714Y-106640500D01*
X196352286Y-106640500D01*
X196352287Y-106640500D01*
X196562243Y-106607246D01*
X196764412Y-106541557D01*
X196953816Y-106445051D01*
X197038273Y-106383690D01*
X197125786Y-106320109D01*
X197125788Y-106320106D01*
X197125792Y-106320104D01*
X197276104Y-106169792D01*
X197276106Y-106169788D01*
X197276109Y-106169786D01*
X197401048Y-105997820D01*
X197401047Y-105997820D01*
X197401051Y-105997816D01*
X197497557Y-105808412D01*
X197563246Y-105606243D01*
X197596500Y-105396287D01*
X197596500Y-105183713D01*
X202769500Y-105183713D01*
X202769500Y-105396286D01*
X202797250Y-105571497D01*
X202802754Y-105606243D01*
X202843919Y-105732936D01*
X202868444Y-105808414D01*
X202964951Y-105997820D01*
X203089890Y-106169786D01*
X203240213Y-106320109D01*
X203412179Y-106445048D01*
X203412181Y-106445049D01*
X203412184Y-106445051D01*
X203601588Y-106541557D01*
X203803757Y-106607246D01*
X204013713Y-106640500D01*
X204013714Y-106640500D01*
X204226286Y-106640500D01*
X204226287Y-106640500D01*
X204436243Y-106607246D01*
X204638412Y-106541557D01*
X204827816Y-106445051D01*
X204912273Y-106383690D01*
X204999786Y-106320109D01*
X204999788Y-106320106D01*
X204999792Y-106320104D01*
X205150104Y-106169792D01*
X205150106Y-106169788D01*
X205150109Y-106169786D01*
X205275048Y-105997820D01*
X205275047Y-105997820D01*
X205275051Y-105997816D01*
X205371557Y-105808412D01*
X205437246Y-105606243D01*
X205470500Y-105396287D01*
X205470500Y-105183713D01*
X205437246Y-104973757D01*
X205371557Y-104771588D01*
X205275051Y-104582184D01*
X205275049Y-104582181D01*
X205275048Y-104582179D01*
X205150109Y-104410213D01*
X204999786Y-104259890D01*
X204827820Y-104134951D01*
X204638414Y-104038444D01*
X204638413Y-104038443D01*
X204638412Y-104038443D01*
X204436243Y-103972754D01*
X204436241Y-103972753D01*
X204436240Y-103972753D01*
X204274957Y-103947208D01*
X204226287Y-103939500D01*
X204013713Y-103939500D01*
X203965042Y-103947208D01*
X203803760Y-103972753D01*
X203601585Y-104038444D01*
X203412179Y-104134951D01*
X203240213Y-104259890D01*
X203089890Y-104410213D01*
X202964951Y-104582179D01*
X202868444Y-104771585D01*
X202802753Y-104973760D01*
X202769500Y-105183713D01*
X197596500Y-105183713D01*
X197563246Y-104973757D01*
X197497557Y-104771588D01*
X197401051Y-104582184D01*
X197401049Y-104582181D01*
X197401048Y-104582179D01*
X197276109Y-104410213D01*
X197125786Y-104259890D01*
X196953820Y-104134951D01*
X196764414Y-104038444D01*
X196764413Y-104038443D01*
X196764412Y-104038443D01*
X196562243Y-103972754D01*
X196562241Y-103972753D01*
X196562240Y-103972753D01*
X196400957Y-103947208D01*
X196352287Y-103939500D01*
X196139713Y-103939500D01*
X196091042Y-103947208D01*
X195929760Y-103972753D01*
X195727585Y-104038444D01*
X195538179Y-104134951D01*
X195366213Y-104259890D01*
X195215890Y-104410213D01*
X195090951Y-104582179D01*
X194994444Y-104771585D01*
X194928753Y-104973760D01*
X194895500Y-105183713D01*
X164658916Y-105183713D01*
X165428705Y-104977968D01*
X165430565Y-104977488D01*
X167660917Y-104421459D01*
X167662721Y-104421025D01*
X169902269Y-103902621D01*
X169904079Y-103902218D01*
X172151939Y-103421643D01*
X172153904Y-103421241D01*
X174409503Y-102978617D01*
X174411338Y-102978273D01*
X176674115Y-102573709D01*
X176675973Y-102573392D01*
X178945249Y-102207009D01*
X178947284Y-102206699D01*
X181222248Y-101878627D01*
X181224221Y-101878359D01*
X183504506Y-101588650D01*
X183506432Y-101588421D01*
X185791324Y-101337168D01*
X185793190Y-101336978D01*
X188081990Y-101124258D01*
X188083913Y-101124095D01*
X190375933Y-100949973D01*
X190377989Y-100949834D01*
X192672432Y-100814365D01*
X192674507Y-100814260D01*
X194971007Y-100717463D01*
X194973087Y-100717394D01*
X197270843Y-100659307D01*
X197272788Y-100659274D01*
X199571400Y-100639908D01*
X199573300Y-100639908D01*
X201871909Y-100659274D01*
G37*
G04 #@! TD.AperFunction*
G04 #@! TA.AperFunction,Conductor*
G36*
X232058639Y-128370185D02*
G01*
X232104394Y-128422989D01*
X232115600Y-128474500D01*
X232115600Y-156402218D01*
X232127094Y-156429967D01*
X232148333Y-156451206D01*
X232176082Y-156462700D01*
X232206118Y-156462700D01*
X240966569Y-156462700D01*
X240988394Y-156462700D01*
X240993802Y-156462818D01*
X241007321Y-156463408D01*
X241414910Y-156481203D01*
X241425647Y-156482143D01*
X241840871Y-156536808D01*
X241851497Y-156538681D01*
X242260386Y-156629330D01*
X242270798Y-156632119D01*
X242670232Y-156758061D01*
X242680367Y-156761750D01*
X243067291Y-156922019D01*
X243077082Y-156926585D01*
X243306092Y-157045800D01*
X243448542Y-157119955D01*
X243457910Y-157125363D01*
X243811114Y-157350379D01*
X243819975Y-157356584D01*
X244152215Y-157611520D01*
X244160502Y-157618474D01*
X244469255Y-157901395D01*
X244476904Y-157909044D01*
X244759825Y-158217797D01*
X244766779Y-158226084D01*
X245021715Y-158558324D01*
X245027920Y-158567185D01*
X245252936Y-158920389D01*
X245258344Y-158929757D01*
X245451711Y-159301210D01*
X245456283Y-159311014D01*
X245616543Y-159697917D01*
X245620242Y-159708080D01*
X245716241Y-160012549D01*
X245746174Y-160107482D01*
X245748974Y-160117932D01*
X245839615Y-160526789D01*
X245841493Y-160537442D01*
X245896154Y-160952632D01*
X245897097Y-160963408D01*
X245915249Y-161379172D01*
X245915482Y-161384497D01*
X245915600Y-161389906D01*
X245915600Y-184884493D01*
X245915482Y-184889902D01*
X245897097Y-185310991D01*
X245896154Y-185321767D01*
X245841493Y-185736957D01*
X245839615Y-185747610D01*
X245748974Y-186156467D01*
X245746174Y-186166917D01*
X245620243Y-186566317D01*
X245616543Y-186576482D01*
X245456283Y-186963385D01*
X245451711Y-186973189D01*
X245258344Y-187344642D01*
X245252936Y-187354010D01*
X245027920Y-187707214D01*
X245021715Y-187716075D01*
X244766779Y-188048315D01*
X244759825Y-188056602D01*
X244476904Y-188365355D01*
X244469255Y-188373004D01*
X244160502Y-188655925D01*
X244152215Y-188662879D01*
X243819975Y-188917815D01*
X243811114Y-188924020D01*
X243457910Y-189149036D01*
X243448542Y-189154444D01*
X243077089Y-189347811D01*
X243067285Y-189352383D01*
X242680382Y-189512643D01*
X242670217Y-189516343D01*
X242270817Y-189642274D01*
X242260367Y-189645074D01*
X241851510Y-189735715D01*
X241840857Y-189737593D01*
X241425667Y-189792254D01*
X241414891Y-189793197D01*
X240993803Y-189811582D01*
X240988394Y-189811700D01*
X227637918Y-189811700D01*
X227627106Y-189808525D01*
X227615905Y-189809730D01*
X227594182Y-189798857D01*
X227570879Y-189792015D01*
X227563502Y-189783501D01*
X227553425Y-189778458D01*
X227541027Y-189757565D01*
X227525124Y-189739211D01*
X227523520Y-189728059D01*
X227517771Y-189718370D01*
X227518636Y-189694095D01*
X227515180Y-189670053D01*
X227519860Y-189659804D01*
X227520262Y-189648545D01*
X227534114Y-189628592D01*
X227544205Y-189606497D01*
X227554718Y-189598915D01*
X227560109Y-189591151D01*
X227590451Y-189573147D01*
X227590459Y-189573141D01*
X227623207Y-189559577D01*
X227707836Y-189524523D01*
X227863514Y-189420502D01*
X230550254Y-186733762D01*
X233268295Y-184015722D01*
X233268296Y-184015719D01*
X233268301Y-184015715D01*
X233314541Y-183946513D01*
X233372322Y-183860037D01*
X233443973Y-183687057D01*
X233480500Y-183503422D01*
X233480500Y-176920943D01*
X238649500Y-176920943D01*
X238649500Y-177079057D01*
X238677417Y-177183242D01*
X238690423Y-177231783D01*
X238690426Y-177231790D01*
X238769475Y-177368709D01*
X238769481Y-177368717D01*
X238887031Y-177486267D01*
X238886130Y-177487167D01*
X238922470Y-177536935D01*
X238925552Y-177546780D01*
X238932686Y-177573404D01*
X238946682Y-177625640D01*
X238957380Y-177644169D01*
X238989535Y-177699862D01*
X238989536Y-177699863D01*
X238989537Y-177699864D01*
X242294756Y-181005082D01*
X242328241Y-181066405D01*
X242326851Y-181124853D01*
X242319406Y-181152638D01*
X242314502Y-181170943D01*
X242314502Y-181329057D01*
X242355410Y-181481726D01*
X242355425Y-181481783D01*
X242355428Y-181481790D01*
X242434477Y-181618709D01*
X242434481Y-181618714D01*
X242434482Y-181618716D01*
X242546286Y-181730520D01*
X242546288Y-181730521D01*
X242546292Y-181730524D01*
X242655086Y-181793335D01*
X242683218Y-181809577D01*
X242835945Y-181850500D01*
X242835947Y-181850500D01*
X242994057Y-181850500D01*
X242994059Y-181850500D01*
X243146786Y-181809577D01*
X243283718Y-181730520D01*
X243395522Y-181618716D01*
X243474579Y-181481784D01*
X243515502Y-181329057D01*
X243515502Y-181170943D01*
X243474579Y-181018216D01*
X243432861Y-180945957D01*
X243395526Y-180881290D01*
X243395520Y-180881282D01*
X243283719Y-180769481D01*
X243283711Y-180769475D01*
X243146792Y-180690426D01*
X243146788Y-180690424D01*
X243146786Y-180690423D01*
X242994059Y-180649500D01*
X242994058Y-180649500D01*
X242911188Y-180649500D01*
X242844149Y-180629815D01*
X242823507Y-180613181D01*
X239741647Y-177531320D01*
X239708162Y-177469997D01*
X239713146Y-177400305D01*
X239726673Y-177375879D01*
X239726457Y-177375755D01*
X239789018Y-177267393D01*
X239809577Y-177231784D01*
X239850500Y-177079057D01*
X239850500Y-176920943D01*
X239809577Y-176768216D01*
X239767859Y-176695957D01*
X239730524Y-176631290D01*
X239730518Y-176631282D01*
X239618717Y-176519481D01*
X239618709Y-176519475D01*
X239481790Y-176440426D01*
X239481786Y-176440424D01*
X239481784Y-176440423D01*
X239329057Y-176399500D01*
X239170943Y-176399500D01*
X239018216Y-176440423D01*
X239018209Y-176440426D01*
X238881290Y-176519475D01*
X238881282Y-176519481D01*
X238769481Y-176631282D01*
X238769475Y-176631290D01*
X238690426Y-176768209D01*
X238690423Y-176768216D01*
X238649500Y-176920943D01*
X233480500Y-176920943D01*
X233480500Y-158522384D01*
X233443973Y-158338749D01*
X233372322Y-158165769D01*
X233372321Y-158165768D01*
X233372318Y-158165762D01*
X233268303Y-158010093D01*
X233214328Y-157956118D01*
X233135908Y-157877698D01*
X231618819Y-156360609D01*
X231585334Y-156299286D01*
X231582500Y-156272928D01*
X231582500Y-147480383D01*
X231582499Y-147480379D01*
X231545973Y-147296749D01*
X231474322Y-147123769D01*
X231474321Y-147123768D01*
X231474318Y-147123762D01*
X231370302Y-146968092D01*
X231370299Y-146968088D01*
X231237911Y-146835700D01*
X231237907Y-146835697D01*
X231082237Y-146731681D01*
X231082228Y-146731676D01*
X230909251Y-146660027D01*
X230909243Y-146660025D01*
X230725620Y-146623500D01*
X230725616Y-146623500D01*
X230538384Y-146623500D01*
X230538379Y-146623500D01*
X230354756Y-146660025D01*
X230354748Y-146660027D01*
X230181771Y-146731676D01*
X230181762Y-146731681D01*
X230026092Y-146835697D01*
X230026088Y-146835700D01*
X229893700Y-146968088D01*
X229893697Y-146968092D01*
X229789681Y-147123762D01*
X229789676Y-147123771D01*
X229718027Y-147296748D01*
X229718025Y-147296756D01*
X229681500Y-147480379D01*
X229681500Y-156811620D01*
X229718025Y-156995243D01*
X229718028Y-156995255D01*
X229723942Y-157009532D01*
X229789673Y-157168223D01*
X229789680Y-157168236D01*
X229893697Y-157323907D01*
X229893700Y-157323911D01*
X231543181Y-158973391D01*
X231576666Y-159034714D01*
X231579500Y-159061072D01*
X231579500Y-182964734D01*
X231559815Y-183031773D01*
X231543181Y-183052415D01*
X226900215Y-187695381D01*
X226838892Y-187728866D01*
X226812534Y-187731700D01*
X224454764Y-187731700D01*
X224387725Y-187712015D01*
X224341970Y-187659211D01*
X224332026Y-187590053D01*
X224361051Y-187526497D01*
X224367083Y-187520019D01*
X224732827Y-187154275D01*
X225360489Y-186526614D01*
X225419798Y-186423887D01*
X225419799Y-186423886D01*
X225450500Y-186309309D01*
X225450500Y-184440691D01*
X225419799Y-184326114D01*
X225360489Y-184223387D01*
X225276613Y-184139511D01*
X225173886Y-184080201D01*
X225072102Y-184052927D01*
X225016517Y-184020835D01*
X224636819Y-183641137D01*
X224622115Y-183614209D01*
X224605523Y-183588391D01*
X224604631Y-183582190D01*
X224603334Y-183579814D01*
X224600500Y-183553456D01*
X224600500Y-183497141D01*
X224617112Y-183435142D01*
X224632525Y-183408447D01*
X224660500Y-183304043D01*
X224660500Y-183195957D01*
X224632525Y-183091553D01*
X224614063Y-183059576D01*
X224578486Y-182997953D01*
X224578480Y-182997945D01*
X224502054Y-182921519D01*
X224502046Y-182921513D01*
X224408453Y-182867478D01*
X224408450Y-182867476D01*
X224408447Y-182867475D01*
X224304043Y-182839500D01*
X224195957Y-182839500D01*
X224091553Y-182867475D01*
X224091551Y-182867475D01*
X224091551Y-182867476D01*
X224091546Y-182867478D01*
X223997953Y-182921513D01*
X223997945Y-182921519D01*
X223921519Y-182997945D01*
X223921513Y-182997953D01*
X223867478Y-183091546D01*
X223867475Y-183091551D01*
X223867475Y-183091553D01*
X223839500Y-183195957D01*
X223839500Y-183304043D01*
X223867475Y-183408447D01*
X223882887Y-183435142D01*
X223899500Y-183497141D01*
X223899500Y-183796145D01*
X223915904Y-183857367D01*
X223923385Y-183885285D01*
X223923387Y-183885290D01*
X223969527Y-183965208D01*
X223969531Y-183965213D01*
X224513181Y-184508863D01*
X224546666Y-184570186D01*
X224549500Y-184596544D01*
X224549500Y-186012035D01*
X224529815Y-186079074D01*
X224513181Y-186099716D01*
X223904487Y-186708409D01*
X223843164Y-186741894D01*
X223773472Y-186736910D01*
X223717539Y-186695038D01*
X223693122Y-186629574D01*
X223695189Y-186596536D01*
X223701200Y-186566317D01*
X223708500Y-186529617D01*
X223708500Y-186342384D01*
X223701605Y-186307722D01*
X223671975Y-186158757D01*
X223671972Y-186158748D01*
X223600326Y-185985776D01*
X223600319Y-185985763D01*
X223496302Y-185830092D01*
X223496299Y-185830088D01*
X223025976Y-185359765D01*
X222992491Y-185298442D01*
X222989657Y-185272084D01*
X222989657Y-183234228D01*
X223009342Y-183167189D01*
X223025971Y-183146552D01*
X224564878Y-181607644D01*
X224608686Y-181581395D01*
X224608055Y-181579872D01*
X224786656Y-181505893D01*
X224786656Y-181505892D01*
X224786663Y-181505890D01*
X224942340Y-181401870D01*
X225074734Y-181269476D01*
X225178754Y-181113799D01*
X225250405Y-180940819D01*
X225286932Y-180757184D01*
X225286932Y-180569952D01*
X225250405Y-180386317D01*
X225178754Y-180213337D01*
X225178753Y-180213336D01*
X225178750Y-180213330D01*
X225074734Y-180057660D01*
X225074731Y-180057656D01*
X224942343Y-179925268D01*
X224942339Y-179925265D01*
X224786669Y-179821249D01*
X224786660Y-179821244D01*
X224613683Y-179749595D01*
X224613675Y-179749593D01*
X224430052Y-179713068D01*
X224430048Y-179713068D01*
X224258363Y-179713068D01*
X224100094Y-179713068D01*
X224033055Y-179693383D01*
X223987300Y-179640579D01*
X223977356Y-179571421D01*
X224006381Y-179507865D01*
X224012413Y-179501387D01*
X224853301Y-178660500D01*
X226030469Y-177483332D01*
X226076614Y-177403408D01*
X226077661Y-177399499D01*
X226100500Y-177314264D01*
X226100500Y-167195957D01*
X227839500Y-167195957D01*
X227839500Y-167304043D01*
X227867475Y-167408447D01*
X227867476Y-167408448D01*
X227867478Y-167408453D01*
X227921513Y-167502046D01*
X227921517Y-167502051D01*
X227921518Y-167502053D01*
X227997947Y-167578482D01*
X227997949Y-167578483D01*
X227997953Y-167578486D01*
X228091546Y-167632521D01*
X228091553Y-167632525D01*
X228121327Y-167640503D01*
X228176914Y-167672596D01*
X229613181Y-169108863D01*
X229646666Y-169170186D01*
X229649500Y-169196544D01*
X229649500Y-170002857D01*
X229632888Y-170064855D01*
X229617477Y-170091548D01*
X229617475Y-170091551D01*
X229617475Y-170091553D01*
X229589500Y-170195957D01*
X229589500Y-170304043D01*
X229617475Y-170408447D01*
X229617476Y-170408448D01*
X229617478Y-170408453D01*
X229671513Y-170502046D01*
X229671517Y-170502051D01*
X229671518Y-170502053D01*
X229747947Y-170578482D01*
X229747949Y-170578483D01*
X229747953Y-170578486D01*
X229784384Y-170599519D01*
X229841553Y-170632525D01*
X229945957Y-170660500D01*
X229945959Y-170660500D01*
X230054040Y-170660500D01*
X230054043Y-170660500D01*
X230158447Y-170632525D01*
X230252053Y-170578482D01*
X230328482Y-170502053D01*
X230382525Y-170408447D01*
X230410500Y-170304043D01*
X230410500Y-170195957D01*
X230382525Y-170091553D01*
X230380608Y-170088234D01*
X230367112Y-170064855D01*
X230350500Y-170002857D01*
X230350500Y-168953858D01*
X230350500Y-168953856D01*
X230326614Y-168864712D01*
X230323027Y-168858499D01*
X230315301Y-168845117D01*
X230315299Y-168845115D01*
X230297803Y-168814811D01*
X230280470Y-168784788D01*
X228672596Y-167176914D01*
X228640503Y-167121327D01*
X228632525Y-167091553D01*
X228614851Y-167060940D01*
X228578486Y-166997953D01*
X228578480Y-166997945D01*
X228502054Y-166921519D01*
X228502046Y-166921513D01*
X228408453Y-166867478D01*
X228408450Y-166867476D01*
X228408447Y-166867475D01*
X228304043Y-166839500D01*
X228195957Y-166839500D01*
X228091553Y-166867475D01*
X228091551Y-166867475D01*
X228091551Y-166867476D01*
X228091546Y-166867478D01*
X227997953Y-166921513D01*
X227997945Y-166921519D01*
X227921519Y-166997945D01*
X227921513Y-166997953D01*
X227867478Y-167091546D01*
X227867475Y-167091551D01*
X227867475Y-167091553D01*
X227839500Y-167195957D01*
X226100500Y-167195957D01*
X226100500Y-163319808D01*
X226120185Y-163252769D01*
X226162498Y-163212422D01*
X226298716Y-163133778D01*
X226410520Y-163021974D01*
X226489577Y-162885042D01*
X226530500Y-162732315D01*
X226530500Y-162574201D01*
X226489577Y-162421474D01*
X226424515Y-162308782D01*
X226410524Y-162284548D01*
X226410518Y-162284540D01*
X226298717Y-162172739D01*
X226298709Y-162172733D01*
X226161790Y-162093684D01*
X226161786Y-162093682D01*
X226161784Y-162093681D01*
X226009057Y-162052758D01*
X225850943Y-162052758D01*
X225804722Y-162065143D01*
X225756593Y-162078039D01*
X225686743Y-162076376D01*
X225628881Y-162037213D01*
X225601377Y-161972985D01*
X225600500Y-161958264D01*
X225600500Y-156041550D01*
X225620185Y-155974511D01*
X225662498Y-155934164D01*
X225798716Y-155855520D01*
X225910520Y-155743716D01*
X225989577Y-155606784D01*
X226030500Y-155454057D01*
X226030500Y-155295943D01*
X225989577Y-155143216D01*
X225943350Y-155063147D01*
X225910524Y-155006290D01*
X225910521Y-155006286D01*
X225910520Y-155006284D01*
X225798716Y-154894480D01*
X225798714Y-154894479D01*
X225798709Y-154894475D01*
X225661790Y-154815426D01*
X225661786Y-154815424D01*
X225661784Y-154815423D01*
X225509057Y-154774500D01*
X225350943Y-154774500D01*
X225329417Y-154780268D01*
X225256593Y-154799781D01*
X225186743Y-154798118D01*
X225128881Y-154758955D01*
X225101377Y-154694727D01*
X225100500Y-154680006D01*
X225100500Y-151360554D01*
X225109144Y-151331113D01*
X225115668Y-151301127D01*
X225119422Y-151296111D01*
X225120185Y-151293515D01*
X225136815Y-151272877D01*
X225170720Y-151238972D01*
X225232042Y-151205488D01*
X225301734Y-151210472D01*
X225357667Y-151252344D01*
X225382084Y-151317808D01*
X225382400Y-151326654D01*
X225382400Y-151404873D01*
X225386079Y-151428100D01*
X225415462Y-151613617D01*
X225480769Y-151814615D01*
X225480770Y-151814618D01*
X225576720Y-152002928D01*
X225700946Y-152173910D01*
X225850390Y-152323354D01*
X226021372Y-152447580D01*
X226113732Y-152494639D01*
X226209681Y-152543529D01*
X226209684Y-152543530D01*
X226287936Y-152568955D01*
X226410684Y-152608838D01*
X226619427Y-152641900D01*
X226619428Y-152641900D01*
X226830772Y-152641900D01*
X226830773Y-152641900D01*
X227039516Y-152608838D01*
X227240518Y-152543529D01*
X227428828Y-152447580D01*
X227599810Y-152323354D01*
X227749254Y-152173910D01*
X227873480Y-152002928D01*
X227969429Y-151814618D01*
X228034738Y-151613616D01*
X228067800Y-151404873D01*
X228067800Y-151193527D01*
X228034738Y-150984784D01*
X227969429Y-150783782D01*
X227969429Y-150783781D01*
X227873479Y-150595471D01*
X227749254Y-150424490D01*
X227599810Y-150275046D01*
X227428828Y-150150820D01*
X227240518Y-150054870D01*
X227240515Y-150054869D01*
X227039517Y-149989562D01*
X226935144Y-149973031D01*
X226830773Y-149956500D01*
X226752554Y-149956500D01*
X226685515Y-149936815D01*
X226639760Y-149884011D01*
X226629816Y-149814853D01*
X226658841Y-149751297D01*
X226664873Y-149744819D01*
X229009580Y-147400112D01*
X231674470Y-144735223D01*
X231720614Y-144655299D01*
X231744500Y-144566155D01*
X231744500Y-128474500D01*
X231747050Y-128465814D01*
X231745762Y-128456853D01*
X231756740Y-128432812D01*
X231764185Y-128407461D01*
X231771025Y-128401533D01*
X231774787Y-128393297D01*
X231797021Y-128379007D01*
X231816989Y-128361706D01*
X231827503Y-128359418D01*
X231833565Y-128355523D01*
X231868500Y-128350500D01*
X231991600Y-128350500D01*
X232058639Y-128370185D01*
G37*
G04 #@! TD.AperFunction*
G04 #@! TA.AperFunction,Conductor*
G36*
X198426485Y-165888258D02*
G01*
X198438446Y-165898773D01*
X201758181Y-169218508D01*
X201791666Y-169279831D01*
X201794500Y-169306189D01*
X201794500Y-174950254D01*
X201816682Y-175033042D01*
X201838108Y-175070152D01*
X201859535Y-175107264D01*
X201859537Y-175107266D01*
X209506882Y-182754611D01*
X209540367Y-182815934D01*
X209543201Y-182842292D01*
X209543201Y-183661553D01*
X209565383Y-183744341D01*
X209571796Y-183755448D01*
X209608236Y-183818563D01*
X209608238Y-183818565D01*
X209814462Y-184024789D01*
X209846556Y-184080376D01*
X209867475Y-184158448D01*
X209867478Y-184158453D01*
X209921513Y-184252046D01*
X209921519Y-184252054D01*
X210003694Y-184334229D01*
X210002348Y-184335574D01*
X210037383Y-184383559D01*
X210041533Y-184453305D01*
X210007317Y-184514224D01*
X209945598Y-184546973D01*
X209920691Y-184549500D01*
X204972372Y-184549500D01*
X204905333Y-184529815D01*
X204884691Y-184513181D01*
X202702424Y-182330913D01*
X202668939Y-182269590D01*
X202673923Y-182199898D01*
X202715795Y-182143965D01*
X202781259Y-182119548D01*
X202828418Y-182125300D01*
X202937534Y-182160754D01*
X202968881Y-182170940D01*
X203155514Y-182200500D01*
X203155519Y-182200500D01*
X203344486Y-182200500D01*
X203531118Y-182170940D01*
X203596204Y-182149792D01*
X203710832Y-182112547D01*
X203879199Y-182026760D01*
X204032073Y-181915690D01*
X204165690Y-181782073D01*
X204276760Y-181629199D01*
X204362547Y-181460832D01*
X204420940Y-181281118D01*
X204425543Y-181252054D01*
X204450500Y-181094486D01*
X204450500Y-180005964D01*
X204420940Y-179819332D01*
X204374502Y-179676412D01*
X204362547Y-179639619D01*
X204362545Y-179639616D01*
X204362545Y-179639614D01*
X204295415Y-179507865D01*
X204276760Y-179471252D01*
X204270634Y-179462820D01*
X204258384Y-179445959D01*
X204258382Y-179445958D01*
X204258382Y-179445957D01*
X204165690Y-179318377D01*
X193076569Y-168229256D01*
X193043084Y-168167933D01*
X193048068Y-168098241D01*
X193089940Y-168042308D01*
X193155404Y-168017891D01*
X193164250Y-168017575D01*
X197411561Y-168017575D01*
X197598193Y-167988015D01*
X197777907Y-167929622D01*
X197946274Y-167843835D01*
X198099148Y-167732765D01*
X198232765Y-167599148D01*
X198343835Y-167446274D01*
X198429622Y-167277907D01*
X198488015Y-167098193D01*
X198503071Y-167003134D01*
X198517575Y-166911561D01*
X198517575Y-166722588D01*
X198488015Y-166535956D01*
X198429620Y-166356238D01*
X198343834Y-166187875D01*
X198250446Y-166059338D01*
X198226967Y-165993534D01*
X198242792Y-165925480D01*
X198292898Y-165876785D01*
X198361376Y-165862909D01*
X198426485Y-165888258D01*
G37*
G04 #@! TD.AperFunction*
G04 #@! TA.AperFunction,Conductor*
G36*
X203030703Y-168999013D02*
G01*
X203037181Y-169005045D01*
X208661487Y-174629351D01*
X208694972Y-174690674D01*
X208689988Y-174760366D01*
X208648116Y-174816299D01*
X208582652Y-174840716D01*
X208557620Y-174839971D01*
X208554043Y-174839500D01*
X208445957Y-174839500D01*
X208341553Y-174867475D01*
X208341551Y-174867475D01*
X208341551Y-174867476D01*
X208341546Y-174867478D01*
X208247953Y-174921513D01*
X208247945Y-174921519D01*
X208171519Y-174997945D01*
X208171513Y-174997953D01*
X208117478Y-175091546D01*
X208117475Y-175091551D01*
X208117475Y-175091553D01*
X208089500Y-175195957D01*
X208089500Y-175304043D01*
X208117475Y-175408447D01*
X208132887Y-175435142D01*
X208149500Y-175497141D01*
X208149500Y-179639811D01*
X208129815Y-179706850D01*
X208077011Y-179752605D01*
X208007853Y-179762549D01*
X207944297Y-179733524D01*
X207937819Y-179727492D01*
X202861819Y-174651492D01*
X202828334Y-174590169D01*
X202825500Y-174563811D01*
X202825500Y-169092726D01*
X202845185Y-169025687D01*
X202897989Y-168979932D01*
X202967147Y-168969988D01*
X203030703Y-168999013D01*
G37*
G04 #@! TD.AperFunction*
G04 #@! TA.AperFunction,Conductor*
G36*
X200466920Y-153805394D02*
G01*
X200414259Y-153896606D01*
X200387000Y-153998339D01*
X200387000Y-154103661D01*
X200414259Y-154205394D01*
X200466920Y-154296606D01*
X200471314Y-154301000D01*
X198562686Y-154301000D01*
X198567080Y-154296606D01*
X198619741Y-154205394D01*
X198647000Y-154103661D01*
X198647000Y-153998339D01*
X198619741Y-153896606D01*
X198567080Y-153805394D01*
X198562686Y-153801000D01*
X200471314Y-153801000D01*
X200466920Y-153805394D01*
G37*
G04 #@! TD.AperFunction*
G04 #@! TA.AperFunction,Conductor*
G36*
X173485361Y-117397385D02*
G01*
X173506003Y-117414019D01*
X173974454Y-117882470D01*
X173974455Y-117882471D01*
X173974457Y-117882472D01*
X174014416Y-117905542D01*
X174054378Y-117928614D01*
X174143522Y-117952500D01*
X187114436Y-117952500D01*
X187181475Y-117972185D01*
X187202117Y-117988819D01*
X191151117Y-121937819D01*
X191184602Y-121999142D01*
X191179618Y-122068834D01*
X191137746Y-122124767D01*
X191072282Y-122149184D01*
X191063436Y-122149500D01*
X176300098Y-122149500D01*
X176233059Y-122129815D01*
X176212417Y-122113181D01*
X176118717Y-122019481D01*
X176118709Y-122019475D01*
X175981790Y-121940426D01*
X175981786Y-121940424D01*
X175981784Y-121940423D01*
X175829057Y-121899500D01*
X175670943Y-121899500D01*
X175518216Y-121940423D01*
X175518209Y-121940426D01*
X175381290Y-122019475D01*
X175381282Y-122019481D01*
X175269481Y-122131282D01*
X175269475Y-122131290D01*
X175190426Y-122268209D01*
X175190423Y-122268216D01*
X175149500Y-122420943D01*
X175149500Y-122579056D01*
X175190423Y-122731783D01*
X175190426Y-122731790D01*
X175269475Y-122868709D01*
X175269479Y-122868714D01*
X175269480Y-122868716D01*
X175381284Y-122980520D01*
X175381286Y-122980521D01*
X175381290Y-122980524D01*
X175490208Y-123043407D01*
X175518216Y-123059577D01*
X175670943Y-123100500D01*
X175670945Y-123100500D01*
X175829055Y-123100500D01*
X175829057Y-123100500D01*
X175981784Y-123059577D01*
X176118716Y-122980520D01*
X176212417Y-122886819D01*
X176273740Y-122853334D01*
X176300098Y-122850500D01*
X191053456Y-122850500D01*
X191120495Y-122870185D01*
X191141137Y-122886819D01*
X220078952Y-151824634D01*
X220112437Y-151885957D01*
X220115271Y-151912315D01*
X220115271Y-152047513D01*
X220149140Y-152173912D01*
X220156194Y-152200239D01*
X220156197Y-152200246D01*
X220235246Y-152337165D01*
X220235250Y-152337170D01*
X220235251Y-152337172D01*
X220347055Y-152448976D01*
X220347057Y-152448977D01*
X220347061Y-152448980D01*
X220483980Y-152528029D01*
X220483987Y-152528033D01*
X220636714Y-152568956D01*
X220636716Y-152568956D01*
X220794825Y-152568956D01*
X220794828Y-152568956D01*
X220889181Y-152543674D01*
X220959027Y-152545337D01*
X221016889Y-152584499D01*
X221044394Y-152648727D01*
X221045271Y-152663449D01*
X221045271Y-155853210D01*
X221025586Y-155920249D01*
X220983271Y-155960597D01*
X220881287Y-156019477D01*
X220881282Y-156019481D01*
X220769481Y-156131282D01*
X220769475Y-156131290D01*
X220690426Y-156268209D01*
X220690423Y-156268216D01*
X220649500Y-156420943D01*
X220649500Y-156579055D01*
X220650561Y-156587113D01*
X220648319Y-156587408D01*
X220646928Y-156645548D01*
X220607758Y-156703406D01*
X220543527Y-156730902D01*
X220474626Y-156719307D01*
X220441140Y-156695458D01*
X189636819Y-125891137D01*
X189603334Y-125829814D01*
X189600500Y-125803456D01*
X189600500Y-124300098D01*
X189620185Y-124233059D01*
X189636819Y-124212417D01*
X189730520Y-124118716D01*
X189809577Y-123981784D01*
X189850500Y-123829057D01*
X189850500Y-123670943D01*
X189809577Y-123518216D01*
X189732373Y-123384493D01*
X189730524Y-123381290D01*
X189730518Y-123381282D01*
X189618717Y-123269481D01*
X189618709Y-123269475D01*
X189481790Y-123190426D01*
X189481786Y-123190424D01*
X189481784Y-123190423D01*
X189329057Y-123149500D01*
X189170943Y-123149500D01*
X189018216Y-123190423D01*
X189018209Y-123190426D01*
X188881290Y-123269475D01*
X188881282Y-123269481D01*
X188769481Y-123381282D01*
X188769475Y-123381290D01*
X188690426Y-123518209D01*
X188690423Y-123518216D01*
X188649500Y-123670943D01*
X188649500Y-123829056D01*
X188690423Y-123981783D01*
X188690426Y-123981790D01*
X188769475Y-124118709D01*
X188769481Y-124118717D01*
X188863181Y-124212417D01*
X188896666Y-124273740D01*
X188899500Y-124300098D01*
X188899500Y-126046144D01*
X188922313Y-126131284D01*
X188923386Y-126135288D01*
X188967547Y-126211777D01*
X188969529Y-126215210D01*
X188969531Y-126215213D01*
X220363181Y-157608863D01*
X220396666Y-157670186D01*
X220399500Y-157696544D01*
X220399500Y-157829057D01*
X220420933Y-157909044D01*
X220440423Y-157981783D01*
X220440426Y-157981790D01*
X220519475Y-158118709D01*
X220519479Y-158118714D01*
X220519480Y-158118716D01*
X220631284Y-158230520D01*
X220631286Y-158230521D01*
X220631290Y-158230524D01*
X220663462Y-158249098D01*
X220768216Y-158309577D01*
X220920943Y-158350500D01*
X220920945Y-158350500D01*
X221079055Y-158350500D01*
X221079057Y-158350500D01*
X221231784Y-158309577D01*
X221368716Y-158230520D01*
X221437819Y-158161417D01*
X221499142Y-158127932D01*
X221568834Y-158132916D01*
X221624767Y-158174788D01*
X221649184Y-158240252D01*
X221649500Y-158249098D01*
X221649500Y-159463034D01*
X221629815Y-159530073D01*
X221577011Y-159575828D01*
X221507853Y-159585772D01*
X221444297Y-159556747D01*
X221437819Y-159550715D01*
X213386700Y-151499596D01*
X213353215Y-151438273D01*
X213351442Y-151428100D01*
X213350500Y-151420944D01*
X213322865Y-151317808D01*
X213309577Y-151268216D01*
X213297370Y-151247072D01*
X213230524Y-151131290D01*
X213230518Y-151131282D01*
X213118717Y-151019481D01*
X213118709Y-151019475D01*
X212981790Y-150940426D01*
X212981786Y-150940424D01*
X212981784Y-150940423D01*
X212829057Y-150899500D01*
X212670943Y-150899500D01*
X212518216Y-150940423D01*
X212518209Y-150940426D01*
X212381290Y-151019475D01*
X212381282Y-151019481D01*
X212269481Y-151131282D01*
X212269475Y-151131290D01*
X212190426Y-151268209D01*
X212190423Y-151268214D01*
X212190423Y-151268216D01*
X212149500Y-151420943D01*
X212149500Y-151579057D01*
X212158761Y-151613617D01*
X212190423Y-151731783D01*
X212190426Y-151731790D01*
X212269475Y-151868709D01*
X212269479Y-151868714D01*
X212269480Y-151868716D01*
X212381284Y-151980520D01*
X212381286Y-151980521D01*
X212381290Y-151980524D01*
X212497320Y-152047513D01*
X212518216Y-152059577D01*
X212670943Y-152100500D01*
X212670945Y-152100500D01*
X212678099Y-152101442D01*
X212741996Y-152129707D01*
X212749597Y-152136700D01*
X214126716Y-153513819D01*
X214160201Y-153575142D01*
X214155217Y-153644834D01*
X214113345Y-153700767D01*
X214047881Y-153725184D01*
X214039035Y-153725500D01*
X209437961Y-153725500D01*
X209370922Y-153705815D01*
X209325167Y-153653011D01*
X209323400Y-153648952D01*
X209293635Y-153577092D01*
X209293628Y-153577079D01*
X209184139Y-153413218D01*
X209184136Y-153413214D01*
X209044785Y-153273863D01*
X209044781Y-153273860D01*
X208880920Y-153164371D01*
X208880907Y-153164364D01*
X208698839Y-153088950D01*
X208698829Y-153088947D01*
X208505543Y-153050500D01*
X208505541Y-153050500D01*
X208308459Y-153050500D01*
X208308457Y-153050500D01*
X208115170Y-153088947D01*
X208115160Y-153088950D01*
X207933092Y-153164364D01*
X207933079Y-153164371D01*
X207769218Y-153273860D01*
X207769214Y-153273863D01*
X207629863Y-153413214D01*
X207629860Y-153413218D01*
X207520371Y-153577079D01*
X207520364Y-153577092D01*
X207444950Y-153759160D01*
X207444947Y-153759170D01*
X207406500Y-153952456D01*
X207406500Y-153952459D01*
X207406500Y-154149541D01*
X207406500Y-154149543D01*
X207406499Y-154149543D01*
X207444947Y-154342829D01*
X207444950Y-154342839D01*
X207520364Y-154524907D01*
X207520371Y-154524920D01*
X207562259Y-154587609D01*
X207583137Y-154654286D01*
X207564653Y-154721667D01*
X207512674Y-154768357D01*
X207459157Y-154780500D01*
X207108189Y-154780500D01*
X207041150Y-154760815D01*
X207020508Y-154744181D01*
X206826162Y-154549835D01*
X206792677Y-154488512D01*
X206797661Y-154418820D01*
X206799251Y-154414776D01*
X206829051Y-154342835D01*
X206865034Y-154161938D01*
X206867500Y-154149543D01*
X206867500Y-153952456D01*
X206829052Y-153759170D01*
X206829051Y-153759169D01*
X206829051Y-153759165D01*
X206759049Y-153590163D01*
X206753635Y-153577092D01*
X206753628Y-153577079D01*
X206644139Y-153413218D01*
X206644136Y-153413214D01*
X206504785Y-153273863D01*
X206504781Y-153273860D01*
X206340920Y-153164371D01*
X206340907Y-153164364D01*
X206158839Y-153088950D01*
X206158829Y-153088947D01*
X205965543Y-153050500D01*
X205965541Y-153050500D01*
X205768459Y-153050500D01*
X205768457Y-153050500D01*
X205575170Y-153088947D01*
X205575160Y-153088950D01*
X205393092Y-153164364D01*
X205393079Y-153164371D01*
X205229218Y-153273860D01*
X205229214Y-153273863D01*
X205089863Y-153413214D01*
X205089860Y-153413218D01*
X204980371Y-153577079D01*
X204980364Y-153577092D01*
X204904950Y-153759160D01*
X204904947Y-153759170D01*
X204866500Y-153952456D01*
X204866500Y-153952459D01*
X204866500Y-154149541D01*
X204866500Y-154149543D01*
X204866499Y-154149543D01*
X204904947Y-154342829D01*
X204904950Y-154342839D01*
X204980364Y-154524907D01*
X204980371Y-154524920D01*
X205089860Y-154688781D01*
X205089863Y-154688785D01*
X205229214Y-154828136D01*
X205229218Y-154828139D01*
X205393079Y-154937628D01*
X205393092Y-154937635D01*
X205568190Y-155010162D01*
X205575165Y-155013051D01*
X205575169Y-155013051D01*
X205575170Y-155013052D01*
X205768456Y-155051500D01*
X205768459Y-155051500D01*
X205965543Y-155051500D01*
X206095582Y-155025632D01*
X206158835Y-155013051D01*
X206230705Y-154983281D01*
X206300169Y-154975813D01*
X206362649Y-155007087D01*
X206365835Y-155010162D01*
X206661534Y-155305861D01*
X206661535Y-155305862D01*
X206722138Y-155366465D01*
X206722140Y-155366466D01*
X206722144Y-155366469D01*
X206796355Y-155409314D01*
X206796362Y-155409318D01*
X206879147Y-155431500D01*
X206964853Y-155431500D01*
X214669811Y-155431500D01*
X214736850Y-155451185D01*
X214757492Y-155467819D01*
X215613181Y-156323508D01*
X215646666Y-156384831D01*
X215649500Y-156411189D01*
X215649500Y-159889811D01*
X215629815Y-159956850D01*
X215577011Y-160002605D01*
X215507853Y-160012549D01*
X215444297Y-159983524D01*
X215437819Y-159977492D01*
X214935537Y-159475210D01*
X214903444Y-159419623D01*
X214882525Y-159341553D01*
X214882521Y-159341546D01*
X214828486Y-159247953D01*
X214828480Y-159247945D01*
X214752054Y-159171519D01*
X214752046Y-159171513D01*
X214658453Y-159117478D01*
X214658450Y-159117476D01*
X214658447Y-159117475D01*
X214554043Y-159089500D01*
X214445957Y-159089500D01*
X214440686Y-159090194D01*
X214371651Y-159079429D01*
X214319395Y-159033049D01*
X214300500Y-158967255D01*
X214300500Y-158932149D01*
X214300500Y-158932147D01*
X214278318Y-158849362D01*
X214265205Y-158826649D01*
X214235469Y-158775144D01*
X214235463Y-158775136D01*
X213935537Y-158475210D01*
X213903444Y-158419623D01*
X213882525Y-158341553D01*
X213864063Y-158309576D01*
X213828486Y-158247953D01*
X213828480Y-158247945D01*
X213752054Y-158171519D01*
X213752046Y-158171513D01*
X213658453Y-158117478D01*
X213658450Y-158117476D01*
X213658447Y-158117475D01*
X213554043Y-158089500D01*
X213445957Y-158089500D01*
X213341553Y-158117475D01*
X213341551Y-158117475D01*
X213341551Y-158117476D01*
X213341546Y-158117478D01*
X213247953Y-158171513D01*
X213247945Y-158171519D01*
X213171519Y-158247945D01*
X213171513Y-158247953D01*
X213117478Y-158341546D01*
X213117475Y-158341551D01*
X213117475Y-158341553D01*
X213089500Y-158445957D01*
X213089500Y-158554043D01*
X213117475Y-158658447D01*
X213117476Y-158658448D01*
X213117478Y-158658453D01*
X213171513Y-158752046D01*
X213171517Y-158752051D01*
X213171518Y-158752053D01*
X213247947Y-158828482D01*
X213247949Y-158828483D01*
X213247953Y-158828486D01*
X213329385Y-158875500D01*
X213341553Y-158882525D01*
X213419623Y-158903444D01*
X213433509Y-158911460D01*
X213446956Y-158914386D01*
X213475210Y-158935537D01*
X213613181Y-159073508D01*
X213646666Y-159134831D01*
X213649500Y-159161189D01*
X213649500Y-168517852D01*
X213671682Y-168600640D01*
X213691023Y-168634138D01*
X213714535Y-168674862D01*
X213714537Y-168674864D01*
X214439462Y-169399789D01*
X214471556Y-169455376D01*
X214492475Y-169533448D01*
X214492478Y-169533453D01*
X214546513Y-169627046D01*
X214546517Y-169627051D01*
X214546518Y-169627053D01*
X214622947Y-169703482D01*
X214622949Y-169703483D01*
X214622953Y-169703486D01*
X214703639Y-169750069D01*
X214716553Y-169757525D01*
X214758598Y-169768791D01*
X214818257Y-169805155D01*
X214848787Y-169868001D01*
X214846279Y-169920657D01*
X214839500Y-169945957D01*
X214839500Y-170054043D01*
X214867475Y-170158447D01*
X214867476Y-170158448D01*
X214867478Y-170158453D01*
X214921513Y-170252046D01*
X214921517Y-170252051D01*
X214921518Y-170252053D01*
X214997947Y-170328482D01*
X214997949Y-170328483D01*
X214997953Y-170328486D01*
X215036499Y-170350740D01*
X215091553Y-170382525D01*
X215195957Y-170410500D01*
X215195959Y-170410500D01*
X215304040Y-170410500D01*
X215304043Y-170410500D01*
X215408447Y-170382525D01*
X215463501Y-170350739D01*
X215531400Y-170334267D01*
X215597427Y-170357119D01*
X215640618Y-170412041D01*
X215649500Y-170458127D01*
X215649500Y-173276327D01*
X215629815Y-173343366D01*
X215577011Y-173389121D01*
X215507853Y-173399065D01*
X215444297Y-173370040D01*
X215437819Y-173364008D01*
X206228819Y-164155008D01*
X206195334Y-164093685D01*
X206192500Y-164067327D01*
X206192500Y-162701960D01*
X206212185Y-162634921D01*
X206264989Y-162589166D01*
X206269005Y-162587417D01*
X206340914Y-162557632D01*
X206504782Y-162448139D01*
X206644139Y-162308782D01*
X206753632Y-162144914D01*
X206829051Y-161962835D01*
X206841632Y-161899582D01*
X206867500Y-161769543D01*
X207406499Y-161769543D01*
X207444947Y-161962829D01*
X207444950Y-161962839D01*
X207520364Y-162144907D01*
X207520371Y-162144920D01*
X207629860Y-162308781D01*
X207629863Y-162308785D01*
X207769214Y-162448136D01*
X207769218Y-162448139D01*
X207933079Y-162557628D01*
X207933092Y-162557635D01*
X208108190Y-162630162D01*
X208115165Y-162633051D01*
X208115169Y-162633051D01*
X208115170Y-162633052D01*
X208308456Y-162671500D01*
X208308459Y-162671500D01*
X208505543Y-162671500D01*
X208635582Y-162645632D01*
X208698835Y-162633051D01*
X208880914Y-162557632D01*
X209044782Y-162448139D01*
X209184139Y-162308782D01*
X209293632Y-162144914D01*
X209369051Y-161962835D01*
X209381632Y-161899582D01*
X209407500Y-161769543D01*
X209407500Y-161572456D01*
X209369052Y-161379170D01*
X209369051Y-161379169D01*
X209369051Y-161379165D01*
X209357352Y-161350920D01*
X209293635Y-161197092D01*
X209293628Y-161197079D01*
X209184139Y-161033218D01*
X209184136Y-161033214D01*
X209044785Y-160893863D01*
X209044781Y-160893860D01*
X208880920Y-160784371D01*
X208880907Y-160784364D01*
X208698839Y-160708950D01*
X208698829Y-160708947D01*
X208505543Y-160670500D01*
X208505541Y-160670500D01*
X208308459Y-160670500D01*
X208308457Y-160670500D01*
X208115170Y-160708947D01*
X208115160Y-160708950D01*
X207933092Y-160784364D01*
X207933079Y-160784371D01*
X207769218Y-160893860D01*
X207769214Y-160893863D01*
X207629863Y-161033214D01*
X207629860Y-161033218D01*
X207520371Y-161197079D01*
X207520364Y-161197092D01*
X207444950Y-161379160D01*
X207444947Y-161379170D01*
X207406500Y-161572456D01*
X207406500Y-161572459D01*
X207406500Y-161769541D01*
X207406500Y-161769543D01*
X207406499Y-161769543D01*
X206867500Y-161769543D01*
X206867500Y-161572456D01*
X206829052Y-161379170D01*
X206829051Y-161379169D01*
X206829051Y-161379165D01*
X206817352Y-161350920D01*
X206753635Y-161197092D01*
X206753628Y-161197079D01*
X206644139Y-161033218D01*
X206644136Y-161033214D01*
X206504785Y-160893863D01*
X206504781Y-160893860D01*
X206340920Y-160784371D01*
X206340907Y-160784364D01*
X206158839Y-160708950D01*
X206158829Y-160708947D01*
X205965543Y-160670500D01*
X205965541Y-160670500D01*
X205768459Y-160670500D01*
X205768457Y-160670500D01*
X205575170Y-160708947D01*
X205575160Y-160708950D01*
X205393092Y-160784364D01*
X205393079Y-160784371D01*
X205229218Y-160893860D01*
X205229214Y-160893863D01*
X205089863Y-161033214D01*
X205089860Y-161033218D01*
X204980371Y-161197079D01*
X204980364Y-161197092D01*
X204904950Y-161379160D01*
X204904947Y-161379170D01*
X204866500Y-161572456D01*
X204866500Y-161572459D01*
X204866500Y-161769541D01*
X204866500Y-161769543D01*
X204866499Y-161769543D01*
X204904947Y-161962829D01*
X204904950Y-161962839D01*
X204980364Y-162144907D01*
X204980371Y-162144920D01*
X205089860Y-162308781D01*
X205089863Y-162308785D01*
X205229217Y-162448139D01*
X205333615Y-162517895D01*
X205393086Y-162557632D01*
X205464953Y-162587399D01*
X205519355Y-162631239D01*
X205541421Y-162697533D01*
X205541500Y-162701960D01*
X205541500Y-164210663D01*
X205541500Y-164296369D01*
X205545038Y-164309573D01*
X205563682Y-164379156D01*
X205581625Y-164410233D01*
X205606535Y-164453378D01*
X205606537Y-164453380D01*
X213740976Y-172587819D01*
X213774461Y-172649142D01*
X213769477Y-172718834D01*
X213727605Y-172774767D01*
X213662141Y-172799184D01*
X213653295Y-172799500D01*
X212841519Y-172799500D01*
X212774480Y-172779815D01*
X212753838Y-172763181D01*
X211600296Y-171609638D01*
X211600295Y-171609637D01*
X211485557Y-171532972D01*
X211358082Y-171480171D01*
X211358072Y-171480168D01*
X211222746Y-171453250D01*
X211222744Y-171453250D01*
X211084756Y-171453250D01*
X211084754Y-171453250D01*
X210949427Y-171480168D01*
X210949417Y-171480171D01*
X210821942Y-171532972D01*
X210707204Y-171609637D01*
X210609637Y-171707204D01*
X210532972Y-171821942D01*
X210480171Y-171949417D01*
X210480168Y-171949427D01*
X210453250Y-172084753D01*
X210453250Y-172084756D01*
X210453250Y-172222744D01*
X210453250Y-172222746D01*
X210453249Y-172222746D01*
X210480168Y-172358072D01*
X210480171Y-172358082D01*
X210532972Y-172485557D01*
X210609637Y-172600295D01*
X212053454Y-174044112D01*
X212168192Y-174120777D01*
X212295667Y-174173578D01*
X212295672Y-174173580D01*
X212295676Y-174173580D01*
X212295677Y-174173581D01*
X212431003Y-174200500D01*
X212431006Y-174200500D01*
X213818995Y-174200500D01*
X213910041Y-174182389D01*
X213954328Y-174173580D01*
X214081811Y-174120775D01*
X214196542Y-174044114D01*
X214294114Y-173946542D01*
X214370775Y-173831811D01*
X214423580Y-173704328D01*
X214450311Y-173569941D01*
X214482695Y-173508031D01*
X214543411Y-173473457D01*
X214613180Y-173477196D01*
X214659609Y-173506452D01*
X216834234Y-175681077D01*
X216867719Y-175742400D01*
X216862735Y-175812092D01*
X216820863Y-175868025D01*
X216755399Y-175892442D01*
X216746553Y-175892758D01*
X213983680Y-175892758D01*
X213916641Y-175873073D01*
X213876293Y-175830758D01*
X213828484Y-175747950D01*
X213828480Y-175747945D01*
X213752054Y-175671519D01*
X213752046Y-175671513D01*
X213658453Y-175617478D01*
X213658450Y-175617476D01*
X213658447Y-175617475D01*
X213554043Y-175589500D01*
X213445957Y-175589500D01*
X213341553Y-175617475D01*
X213341551Y-175617475D01*
X213341551Y-175617476D01*
X213341546Y-175617478D01*
X213247953Y-175671513D01*
X213247945Y-175671519D01*
X213171519Y-175747945D01*
X213166568Y-175754398D01*
X213164324Y-175752676D01*
X213123653Y-175791426D01*
X213055041Y-175804622D01*
X212990186Y-175778628D01*
X212979196Y-175768869D01*
X200354132Y-163143805D01*
X200320647Y-163082482D01*
X200325631Y-163012790D01*
X200367503Y-162956857D01*
X200432967Y-162932440D01*
X200477822Y-162937913D01*
X200477837Y-162937851D01*
X200478379Y-162937981D01*
X200480140Y-162938196D01*
X200482578Y-162938988D01*
X200537000Y-162947607D01*
X200537000Y-161986686D01*
X200541394Y-161991080D01*
X200632606Y-162043741D01*
X200734339Y-162071000D01*
X200839661Y-162071000D01*
X200941394Y-162043741D01*
X201032606Y-161991080D01*
X201037000Y-161986686D01*
X201037000Y-162947606D01*
X201091421Y-162938988D01*
X201286031Y-162875754D01*
X201468349Y-162782859D01*
X201633894Y-162662582D01*
X201633895Y-162662582D01*
X201778582Y-162517895D01*
X201778582Y-162517894D01*
X201898859Y-162352349D01*
X201991755Y-162170031D01*
X202054990Y-161975417D01*
X202084875Y-161786731D01*
X202114804Y-161723596D01*
X202174116Y-161686665D01*
X202243978Y-161687663D01*
X202302211Y-161726273D01*
X202328965Y-161781937D01*
X202364947Y-161962829D01*
X202364950Y-161962839D01*
X202440364Y-162144907D01*
X202440371Y-162144920D01*
X202549860Y-162308781D01*
X202549863Y-162308785D01*
X202689214Y-162448136D01*
X202689218Y-162448139D01*
X202853079Y-162557628D01*
X202853092Y-162557635D01*
X203028190Y-162630162D01*
X203035165Y-162633051D01*
X203035169Y-162633051D01*
X203035170Y-162633052D01*
X203228456Y-162671500D01*
X203228459Y-162671500D01*
X203425543Y-162671500D01*
X203555582Y-162645632D01*
X203618835Y-162633051D01*
X203800914Y-162557632D01*
X203964782Y-162448139D01*
X204104139Y-162308782D01*
X204213632Y-162144914D01*
X204289051Y-161962835D01*
X204301632Y-161899582D01*
X204327500Y-161769543D01*
X204327500Y-161572456D01*
X204289052Y-161379170D01*
X204289051Y-161379169D01*
X204289051Y-161379165D01*
X204277352Y-161350920D01*
X204213635Y-161197092D01*
X204213628Y-161197079D01*
X204104139Y-161033218D01*
X204104136Y-161033214D01*
X203964785Y-160893863D01*
X203964781Y-160893860D01*
X203800920Y-160784371D01*
X203800907Y-160784364D01*
X203618839Y-160708950D01*
X203618829Y-160708947D01*
X203425543Y-160670500D01*
X203425541Y-160670500D01*
X203228459Y-160670500D01*
X203228457Y-160670500D01*
X203035170Y-160708947D01*
X203035160Y-160708950D01*
X202853092Y-160784364D01*
X202853079Y-160784371D01*
X202689218Y-160893860D01*
X202689214Y-160893863D01*
X202549863Y-161033214D01*
X202549860Y-161033218D01*
X202440371Y-161197079D01*
X202440364Y-161197092D01*
X202364950Y-161379160D01*
X202364947Y-161379170D01*
X202328965Y-161560062D01*
X202296580Y-161621973D01*
X202235864Y-161656547D01*
X202166094Y-161652806D01*
X202109423Y-161611940D01*
X202084875Y-161555268D01*
X202054990Y-161366582D01*
X201991755Y-161171968D01*
X201898859Y-160989650D01*
X201778582Y-160824105D01*
X201778582Y-160824104D01*
X201633895Y-160679417D01*
X201468349Y-160559140D01*
X201286029Y-160466244D01*
X201091413Y-160403009D01*
X201037000Y-160394390D01*
X201037000Y-161355314D01*
X201032606Y-161350920D01*
X200941394Y-161298259D01*
X200839661Y-161271000D01*
X200734339Y-161271000D01*
X200632606Y-161298259D01*
X200541394Y-161350920D01*
X200537000Y-161355314D01*
X200537000Y-160394390D01*
X200482586Y-160403009D01*
X200287970Y-160466244D01*
X200105650Y-160559140D01*
X199940105Y-160679417D01*
X199940104Y-160679417D01*
X199795417Y-160824104D01*
X199795417Y-160824105D01*
X199675140Y-160989650D01*
X199627485Y-161083179D01*
X199579510Y-161133975D01*
X199511689Y-161150770D01*
X199445554Y-161128232D01*
X199406515Y-161083179D01*
X199358859Y-160989650D01*
X199238582Y-160824105D01*
X199238582Y-160824104D01*
X199093895Y-160679417D01*
X198928349Y-160559140D01*
X198746029Y-160466244D01*
X198551413Y-160403009D01*
X198497000Y-160394390D01*
X198497000Y-161355314D01*
X198492606Y-161350920D01*
X198401394Y-161298259D01*
X198299661Y-161271000D01*
X198194339Y-161271000D01*
X198092606Y-161298259D01*
X198001394Y-161350920D01*
X197997000Y-161355314D01*
X197997000Y-160394390D01*
X197942586Y-160403009D01*
X197747970Y-160466244D01*
X197565650Y-160559140D01*
X197400105Y-160679417D01*
X197400104Y-160679417D01*
X197255417Y-160824104D01*
X197255417Y-160824105D01*
X197135140Y-160989650D01*
X197042244Y-161171968D01*
X196979010Y-161366581D01*
X196949124Y-161555269D01*
X196919194Y-161618403D01*
X196859883Y-161655334D01*
X196790020Y-161654336D01*
X196731788Y-161615726D01*
X196705034Y-161560061D01*
X196685846Y-161463598D01*
X196669051Y-161379165D01*
X196657352Y-161350920D01*
X196593635Y-161197092D01*
X196593628Y-161197079D01*
X196484139Y-161033218D01*
X196484136Y-161033214D01*
X196344785Y-160893863D01*
X196344781Y-160893860D01*
X196180920Y-160784371D01*
X196180907Y-160784364D01*
X195998839Y-160708950D01*
X195998829Y-160708947D01*
X195805543Y-160670500D01*
X195805541Y-160670500D01*
X195608459Y-160670500D01*
X195608457Y-160670500D01*
X195415170Y-160708947D01*
X195415160Y-160708950D01*
X195233092Y-160784364D01*
X195233079Y-160784371D01*
X195069218Y-160893860D01*
X195069214Y-160893863D01*
X194929863Y-161033214D01*
X194929860Y-161033218D01*
X194820371Y-161197079D01*
X194820364Y-161197092D01*
X194744950Y-161379160D01*
X194744947Y-161379170D01*
X194706500Y-161572456D01*
X194706500Y-161572459D01*
X194706500Y-161769541D01*
X194706500Y-161769543D01*
X194706499Y-161769543D01*
X194744947Y-161962829D01*
X194744950Y-161962839D01*
X194820364Y-162144907D01*
X194820371Y-162144920D01*
X194862259Y-162207609D01*
X194883137Y-162274286D01*
X194864653Y-162341667D01*
X194812674Y-162388357D01*
X194759157Y-162400500D01*
X194408189Y-162400500D01*
X194341150Y-162380815D01*
X194320508Y-162364181D01*
X194126162Y-162169835D01*
X194092677Y-162108512D01*
X194097661Y-162038820D01*
X194099251Y-162034776D01*
X194129051Y-161962835D01*
X194141632Y-161899582D01*
X194167500Y-161769543D01*
X194167500Y-161572456D01*
X194129052Y-161379170D01*
X194129051Y-161379169D01*
X194129051Y-161379165D01*
X194117352Y-161350920D01*
X194053635Y-161197092D01*
X194053628Y-161197079D01*
X193944139Y-161033218D01*
X193944136Y-161033214D01*
X193804785Y-160893863D01*
X193804781Y-160893860D01*
X193640920Y-160784371D01*
X193640907Y-160784364D01*
X193458839Y-160708950D01*
X193458829Y-160708947D01*
X193265543Y-160670500D01*
X193265541Y-160670500D01*
X193068459Y-160670500D01*
X193068457Y-160670500D01*
X192875170Y-160708947D01*
X192875160Y-160708950D01*
X192693092Y-160784364D01*
X192693081Y-160784370D01*
X192630390Y-160826259D01*
X192563712Y-160847136D01*
X192496332Y-160828651D01*
X192449643Y-160776672D01*
X192437500Y-160723156D01*
X192437500Y-155292188D01*
X192457185Y-155225149D01*
X192473815Y-155204511D01*
X192668165Y-155010160D01*
X192729486Y-154976677D01*
X192799177Y-154981661D01*
X192803270Y-154983271D01*
X192875165Y-155013051D01*
X192875169Y-155013051D01*
X192875170Y-155013052D01*
X193068456Y-155051500D01*
X193068459Y-155051500D01*
X193265543Y-155051500D01*
X193395582Y-155025632D01*
X193458835Y-155013051D01*
X193640914Y-154937632D01*
X193804782Y-154828139D01*
X193944139Y-154688782D01*
X194053632Y-154524914D01*
X194129051Y-154342835D01*
X194165034Y-154161938D01*
X194167500Y-154149543D01*
X194706499Y-154149543D01*
X194744947Y-154342829D01*
X194744950Y-154342839D01*
X194820364Y-154524907D01*
X194820371Y-154524920D01*
X194929860Y-154688781D01*
X194929863Y-154688785D01*
X195069214Y-154828136D01*
X195069218Y-154828139D01*
X195233079Y-154937628D01*
X195233092Y-154937635D01*
X195408190Y-155010162D01*
X195415165Y-155013051D01*
X195415169Y-155013051D01*
X195415170Y-155013052D01*
X195608456Y-155051500D01*
X195608459Y-155051500D01*
X195805543Y-155051500D01*
X195935582Y-155025632D01*
X195998835Y-155013051D01*
X196180914Y-154937632D01*
X196344782Y-154828139D01*
X196484139Y-154688782D01*
X196593632Y-154524914D01*
X196669051Y-154342835D01*
X196705034Y-154161937D01*
X196737419Y-154100027D01*
X196798134Y-154065453D01*
X196867904Y-154069192D01*
X196924576Y-154110059D01*
X196949124Y-154166731D01*
X196979009Y-154355417D01*
X197042244Y-154550031D01*
X197135140Y-154732349D01*
X197255417Y-154897894D01*
X197255417Y-154897895D01*
X197400104Y-155042582D01*
X197565650Y-155162859D01*
X197747968Y-155255754D01*
X197942578Y-155318988D01*
X197997000Y-155327607D01*
X197997000Y-154366686D01*
X198001394Y-154371080D01*
X198092606Y-154423741D01*
X198194339Y-154451000D01*
X198299661Y-154451000D01*
X198401394Y-154423741D01*
X198492606Y-154371080D01*
X198497000Y-154366686D01*
X198497000Y-155327606D01*
X198551421Y-155318988D01*
X198746031Y-155255754D01*
X198928349Y-155162859D01*
X199093894Y-155042582D01*
X199093895Y-155042582D01*
X199238582Y-154897895D01*
X199238582Y-154897894D01*
X199358859Y-154732349D01*
X199406515Y-154638820D01*
X199454489Y-154588024D01*
X199522310Y-154571229D01*
X199588445Y-154593766D01*
X199627485Y-154638820D01*
X199675140Y-154732349D01*
X199795417Y-154897894D01*
X199795417Y-154897895D01*
X199940104Y-155042582D01*
X200105650Y-155162859D01*
X200287968Y-155255754D01*
X200482578Y-155318988D01*
X200537000Y-155327607D01*
X200537000Y-154366686D01*
X200541394Y-154371080D01*
X200632606Y-154423741D01*
X200734339Y-154451000D01*
X200839661Y-154451000D01*
X200941394Y-154423741D01*
X201032606Y-154371080D01*
X201037000Y-154366686D01*
X201037000Y-155327606D01*
X201091421Y-155318988D01*
X201286031Y-155255754D01*
X201468349Y-155162859D01*
X201633894Y-155042582D01*
X201633895Y-155042582D01*
X201778582Y-154897895D01*
X201778582Y-154897894D01*
X201898859Y-154732349D01*
X201991755Y-154550031D01*
X202054990Y-154355417D01*
X202084875Y-154166731D01*
X202114804Y-154103596D01*
X202174116Y-154066665D01*
X202243978Y-154067663D01*
X202302211Y-154106273D01*
X202328965Y-154161937D01*
X202364947Y-154342829D01*
X202364950Y-154342839D01*
X202440364Y-154524907D01*
X202440371Y-154524920D01*
X202549860Y-154688781D01*
X202549863Y-154688785D01*
X202689214Y-154828136D01*
X202689218Y-154828139D01*
X202853079Y-154937628D01*
X202853092Y-154937635D01*
X203028190Y-155010162D01*
X203035165Y-155013051D01*
X203035169Y-155013051D01*
X203035170Y-155013052D01*
X203228456Y-155051500D01*
X203228459Y-155051500D01*
X203425543Y-155051500D01*
X203555582Y-155025632D01*
X203618835Y-155013051D01*
X203800914Y-154937632D01*
X203964782Y-154828139D01*
X204104139Y-154688782D01*
X204213632Y-154524914D01*
X204289051Y-154342835D01*
X204325034Y-154161938D01*
X204327500Y-154149543D01*
X204327500Y-153952456D01*
X204289052Y-153759170D01*
X204289051Y-153759169D01*
X204289051Y-153759165D01*
X204219049Y-153590163D01*
X204213635Y-153577092D01*
X204213628Y-153577079D01*
X204104139Y-153413218D01*
X204104136Y-153413214D01*
X203964785Y-153273863D01*
X203964781Y-153273860D01*
X203800920Y-153164371D01*
X203800907Y-153164364D01*
X203618839Y-153088950D01*
X203618829Y-153088947D01*
X203425543Y-153050500D01*
X203425541Y-153050500D01*
X203228459Y-153050500D01*
X203228457Y-153050500D01*
X203035170Y-153088947D01*
X203035160Y-153088950D01*
X202853092Y-153164364D01*
X202853079Y-153164371D01*
X202689218Y-153273860D01*
X202689214Y-153273863D01*
X202549863Y-153413214D01*
X202549860Y-153413218D01*
X202440371Y-153577079D01*
X202440364Y-153577092D01*
X202364950Y-153759160D01*
X202364947Y-153759170D01*
X202328965Y-153940062D01*
X202296580Y-154001973D01*
X202235864Y-154036547D01*
X202166094Y-154032806D01*
X202109423Y-153991940D01*
X202084875Y-153935268D01*
X202054990Y-153746582D01*
X201991755Y-153551968D01*
X201898859Y-153369650D01*
X201778582Y-153204105D01*
X201778582Y-153204104D01*
X201633895Y-153059417D01*
X201468349Y-152939140D01*
X201286029Y-152846244D01*
X201091413Y-152783009D01*
X201037000Y-152774390D01*
X201037000Y-153735314D01*
X201032606Y-153730920D01*
X200941394Y-153678259D01*
X200839661Y-153651000D01*
X200734339Y-153651000D01*
X200632606Y-153678259D01*
X200541394Y-153730920D01*
X200537000Y-153735314D01*
X200537000Y-152774390D01*
X200482586Y-152783009D01*
X200287970Y-152846244D01*
X200105650Y-152939140D01*
X199940105Y-153059417D01*
X199940104Y-153059417D01*
X199795417Y-153204104D01*
X199795417Y-153204105D01*
X199675140Y-153369650D01*
X199627485Y-153463179D01*
X199579510Y-153513975D01*
X199511689Y-153530770D01*
X199445554Y-153508232D01*
X199406515Y-153463179D01*
X199358859Y-153369650D01*
X199238582Y-153204105D01*
X199238582Y-153204104D01*
X199093895Y-153059417D01*
X198928349Y-152939140D01*
X198746029Y-152846244D01*
X198551413Y-152783009D01*
X198497000Y-152774390D01*
X198497000Y-153735314D01*
X198492606Y-153730920D01*
X198401394Y-153678259D01*
X198299661Y-153651000D01*
X198194339Y-153651000D01*
X198092606Y-153678259D01*
X198001394Y-153730920D01*
X197997000Y-153735314D01*
X197997000Y-152774390D01*
X197942586Y-152783009D01*
X197747970Y-152846244D01*
X197565650Y-152939140D01*
X197400105Y-153059417D01*
X197400104Y-153059417D01*
X197255417Y-153204104D01*
X197255417Y-153204105D01*
X197135140Y-153369650D01*
X197042244Y-153551968D01*
X196979010Y-153746581D01*
X196949124Y-153935269D01*
X196919194Y-153998403D01*
X196859883Y-154035334D01*
X196790020Y-154034336D01*
X196731788Y-153995726D01*
X196705034Y-153940061D01*
X196689376Y-153861343D01*
X196669051Y-153759165D01*
X196599049Y-153590163D01*
X196593635Y-153577092D01*
X196593628Y-153577079D01*
X196484139Y-153413218D01*
X196484136Y-153413214D01*
X196344785Y-153273863D01*
X196344781Y-153273860D01*
X196180920Y-153164371D01*
X196180907Y-153164364D01*
X195998839Y-153088950D01*
X195998829Y-153088947D01*
X195805543Y-153050500D01*
X195805541Y-153050500D01*
X195608459Y-153050500D01*
X195608457Y-153050500D01*
X195415170Y-153088947D01*
X195415160Y-153088950D01*
X195233092Y-153164364D01*
X195233079Y-153164371D01*
X195069218Y-153273860D01*
X195069214Y-153273863D01*
X194929863Y-153413214D01*
X194929860Y-153413218D01*
X194820371Y-153577079D01*
X194820364Y-153577092D01*
X194744950Y-153759160D01*
X194744947Y-153759170D01*
X194706500Y-153952456D01*
X194706500Y-153952459D01*
X194706500Y-154149541D01*
X194706500Y-154149543D01*
X194706499Y-154149543D01*
X194167500Y-154149543D01*
X194167500Y-153952456D01*
X194129052Y-153759170D01*
X194129051Y-153759169D01*
X194129051Y-153759165D01*
X194059049Y-153590163D01*
X194053635Y-153577092D01*
X194053628Y-153577079D01*
X193944139Y-153413218D01*
X193944136Y-153413214D01*
X193804785Y-153273863D01*
X193804781Y-153273860D01*
X193640920Y-153164371D01*
X193640907Y-153164364D01*
X193458839Y-153088950D01*
X193458829Y-153088947D01*
X193265543Y-153050500D01*
X193265541Y-153050500D01*
X193068459Y-153050500D01*
X193068457Y-153050500D01*
X192875170Y-153088947D01*
X192875160Y-153088950D01*
X192693092Y-153164364D01*
X192693079Y-153164371D01*
X192529218Y-153273860D01*
X192529214Y-153273863D01*
X192389863Y-153413214D01*
X192389860Y-153413218D01*
X192280371Y-153577079D01*
X192280364Y-153577092D01*
X192204950Y-153759160D01*
X192204947Y-153759170D01*
X192166500Y-153952456D01*
X192166500Y-153952459D01*
X192166500Y-154149541D01*
X192166500Y-154149543D01*
X192166499Y-154149543D01*
X192204947Y-154342828D01*
X192204948Y-154342831D01*
X192204949Y-154342835D01*
X192218926Y-154376579D01*
X192234717Y-154414703D01*
X192242184Y-154484173D01*
X192210909Y-154546651D01*
X192207836Y-154549835D01*
X191851537Y-154906135D01*
X191851535Y-154906138D01*
X191808683Y-154980358D01*
X191808682Y-154980360D01*
X191808682Y-154980361D01*
X191801736Y-155006284D01*
X191801735Y-155006285D01*
X191786500Y-155063145D01*
X191786500Y-160642033D01*
X191766815Y-160709072D01*
X191714011Y-160754827D01*
X191644853Y-160764771D01*
X191581297Y-160735746D01*
X191574819Y-160729714D01*
X191571553Y-160726448D01*
X191505230Y-160682132D01*
X191505229Y-160682131D01*
X191446752Y-160670500D01*
X191446748Y-160670500D01*
X190021500Y-160670500D01*
X189954461Y-160650815D01*
X189908706Y-160598011D01*
X189897500Y-160546500D01*
X189897500Y-156529626D01*
X189917185Y-156462587D01*
X189933819Y-156441945D01*
X190675883Y-155699881D01*
X191542690Y-154833074D01*
X191653760Y-154680199D01*
X191739547Y-154511832D01*
X191797940Y-154332118D01*
X191824894Y-154161937D01*
X191827500Y-154145487D01*
X191827500Y-153956513D01*
X191797940Y-153769881D01*
X191739545Y-153590163D01*
X191653759Y-153421800D01*
X191647521Y-153413214D01*
X191542690Y-153268927D01*
X191409073Y-153135310D01*
X191256199Y-153024240D01*
X191163754Y-152977137D01*
X191087829Y-152938451D01*
X191084107Y-152936910D01*
X191029700Y-152893073D01*
X191007631Y-152826780D01*
X191024906Y-152759080D01*
X191075258Y-152711861D01*
X191167697Y-152664761D01*
X191167696Y-152664761D01*
X191167699Y-152664760D01*
X191320573Y-152553690D01*
X191454190Y-152420073D01*
X191565260Y-152267199D01*
X191651047Y-152098832D01*
X191709440Y-151919118D01*
X191739000Y-151732486D01*
X191739000Y-148043242D01*
X191709440Y-147856610D01*
X191651045Y-147676892D01*
X191565259Y-147508529D01*
X191486491Y-147400114D01*
X191486490Y-147400112D01*
X191454197Y-147355663D01*
X191454191Y-147355656D01*
X174139847Y-130041312D01*
X174139845Y-130041310D01*
X173986970Y-129930240D01*
X173818607Y-129844454D01*
X173638889Y-129786059D01*
X173452257Y-129756500D01*
X173452252Y-129756500D01*
X172452026Y-129756500D01*
X172384987Y-129736815D01*
X172364345Y-129720181D01*
X170876319Y-128232155D01*
X181950000Y-128232155D01*
X181950000Y-128880000D01*
X182866988Y-128880000D01*
X182834075Y-128937007D01*
X182800000Y-129064174D01*
X182800000Y-129195826D01*
X182834075Y-129322993D01*
X182866988Y-129380000D01*
X181950000Y-129380000D01*
X181950000Y-130027844D01*
X181956401Y-130087372D01*
X181956403Y-130087379D01*
X182006645Y-130222086D01*
X182006649Y-130222093D01*
X182092809Y-130337187D01*
X182092812Y-130337190D01*
X182207906Y-130423350D01*
X182207913Y-130423354D01*
X182342620Y-130473596D01*
X182342627Y-130473598D01*
X182402155Y-130479999D01*
X182402172Y-130480000D01*
X183050000Y-130480000D01*
X183050000Y-129563012D01*
X183107007Y-129595925D01*
X183234174Y-129630000D01*
X183365826Y-129630000D01*
X183492993Y-129595925D01*
X183550000Y-129563012D01*
X183550000Y-130480000D01*
X184197828Y-130480000D01*
X184197844Y-130479999D01*
X184257372Y-130473598D01*
X184257379Y-130473596D01*
X184392086Y-130423354D01*
X184392093Y-130423350D01*
X184507187Y-130337190D01*
X184507190Y-130337187D01*
X184593350Y-130222093D01*
X184593354Y-130222086D01*
X184643596Y-130087379D01*
X184643598Y-130087372D01*
X184649999Y-130027844D01*
X184650000Y-130027827D01*
X184650000Y-129380000D01*
X183733012Y-129380000D01*
X183765925Y-129322993D01*
X183800000Y-129195826D01*
X183800000Y-129064174D01*
X183765925Y-128937007D01*
X183733012Y-128880000D01*
X184650000Y-128880000D01*
X184650000Y-128232172D01*
X184649999Y-128232155D01*
X184643598Y-128172627D01*
X184643596Y-128172620D01*
X184593354Y-128037913D01*
X184593350Y-128037906D01*
X184507190Y-127922812D01*
X184507187Y-127922809D01*
X184392093Y-127836649D01*
X184392086Y-127836645D01*
X184257379Y-127786403D01*
X184257372Y-127786401D01*
X184197844Y-127780000D01*
X183550000Y-127780000D01*
X183550000Y-128696988D01*
X183492993Y-128664075D01*
X183365826Y-128630000D01*
X183234174Y-128630000D01*
X183107007Y-128664075D01*
X183050000Y-128696988D01*
X183050000Y-127780000D01*
X182402155Y-127780000D01*
X182342627Y-127786401D01*
X182342620Y-127786403D01*
X182207913Y-127836645D01*
X182207906Y-127836649D01*
X182092812Y-127922809D01*
X182092809Y-127922812D01*
X182006649Y-128037906D01*
X182006645Y-128037913D01*
X181956403Y-128172620D01*
X181956401Y-128172627D01*
X181950000Y-128232155D01*
X170876319Y-128232155D01*
X162255993Y-119611829D01*
X162222508Y-119550506D01*
X162227492Y-119480814D01*
X162269364Y-119424881D01*
X162334828Y-119400464D01*
X162367865Y-119402530D01*
X162382553Y-119405452D01*
X162393851Y-119407700D01*
X162393852Y-119407700D01*
X164233350Y-119407700D01*
X164233351Y-119407699D01*
X164248168Y-119404752D01*
X164291829Y-119396068D01*
X164291829Y-119396067D01*
X164291831Y-119396067D01*
X164358152Y-119351752D01*
X164402467Y-119285431D01*
X164402467Y-119285429D01*
X164402468Y-119285429D01*
X164414099Y-119226952D01*
X164414100Y-119226950D01*
X164414100Y-117501700D01*
X164433785Y-117434661D01*
X164486589Y-117388906D01*
X164538100Y-117377700D01*
X173418322Y-117377700D01*
X173485361Y-117397385D01*
G37*
G04 #@! TD.AperFunction*
G04 #@! TA.AperFunction,Conductor*
G36*
X200466920Y-161425394D02*
G01*
X200414259Y-161516606D01*
X200387000Y-161618339D01*
X200387000Y-161723661D01*
X200414259Y-161825394D01*
X200466920Y-161916606D01*
X200471314Y-161921000D01*
X198562686Y-161921000D01*
X198567080Y-161916606D01*
X198619741Y-161825394D01*
X198647000Y-161723661D01*
X198647000Y-161618339D01*
X198619741Y-161516606D01*
X198567080Y-161425394D01*
X198562686Y-161421000D01*
X200471314Y-161421000D01*
X200466920Y-161425394D01*
G37*
G04 #@! TD.AperFunction*
G04 #@! TA.AperFunction,Conductor*
G36*
X231335495Y-127620185D02*
G01*
X231381250Y-127672989D01*
X231391194Y-127742147D01*
X231362169Y-127805703D01*
X231356137Y-127812181D01*
X231113531Y-128054786D01*
X231113529Y-128054788D01*
X231094979Y-128086918D01*
X231087417Y-128100019D01*
X231087140Y-128100498D01*
X231087138Y-128100500D01*
X231067388Y-128134706D01*
X231067387Y-128134709D01*
X231067386Y-128134711D01*
X231067386Y-128134712D01*
X231057229Y-128172620D01*
X231043500Y-128223856D01*
X231043500Y-144323467D01*
X231023815Y-144390506D01*
X231007181Y-144411148D01*
X224469531Y-150948797D01*
X224469527Y-150948802D01*
X224423387Y-151028720D01*
X224423386Y-151028723D01*
X224399500Y-151117867D01*
X224399500Y-156324314D01*
X224379815Y-156391353D01*
X224327011Y-156437108D01*
X224257853Y-156447052D01*
X224239752Y-156442087D01*
X224239635Y-156442527D01*
X224231785Y-156440423D01*
X224231784Y-156440423D01*
X224079057Y-156399500D01*
X223920943Y-156399500D01*
X223768216Y-156440423D01*
X223768214Y-156440423D01*
X223760365Y-156442527D01*
X223759953Y-156440990D01*
X223699789Y-156447454D01*
X223637312Y-156416174D01*
X223601664Y-156356083D01*
X223597815Y-156325426D01*
X223597815Y-155050098D01*
X223617500Y-154983059D01*
X223634134Y-154962417D01*
X223658923Y-154937628D01*
X223727835Y-154868716D01*
X223806892Y-154731784D01*
X223847815Y-154579057D01*
X223847815Y-154420943D01*
X223806892Y-154268216D01*
X223770622Y-154205394D01*
X223727839Y-154131290D01*
X223727833Y-154131282D01*
X223616032Y-154019481D01*
X223616024Y-154019475D01*
X223479105Y-153940426D01*
X223479101Y-153940424D01*
X223479099Y-153940423D01*
X223326372Y-153899500D01*
X223168258Y-153899500D01*
X223015531Y-153940423D01*
X223015530Y-153940423D01*
X222966499Y-153968731D01*
X222898598Y-153985202D01*
X222832572Y-153962349D01*
X222789382Y-153907428D01*
X222780500Y-153861343D01*
X222780500Y-133193527D01*
X225382400Y-133193527D01*
X225382400Y-133404872D01*
X225415462Y-133613617D01*
X225480769Y-133814615D01*
X225480770Y-133814618D01*
X225576720Y-134002928D01*
X225700946Y-134173910D01*
X225850390Y-134323354D01*
X226021372Y-134447580D01*
X226113732Y-134494639D01*
X226209681Y-134543529D01*
X226209684Y-134543530D01*
X226310183Y-134576183D01*
X226410684Y-134608838D01*
X226619427Y-134641900D01*
X226619428Y-134641900D01*
X226830772Y-134641900D01*
X226830773Y-134641900D01*
X227039516Y-134608838D01*
X227240518Y-134543529D01*
X227428828Y-134447580D01*
X227599810Y-134323354D01*
X227749254Y-134173910D01*
X227873480Y-134002928D01*
X227969429Y-133814618D01*
X228034738Y-133613616D01*
X228067800Y-133404873D01*
X228067800Y-133193527D01*
X228034738Y-132984784D01*
X227969429Y-132783782D01*
X227969429Y-132783781D01*
X227873479Y-132595471D01*
X227749254Y-132424490D01*
X227599810Y-132275046D01*
X227428828Y-132150820D01*
X227240518Y-132054870D01*
X227240515Y-132054869D01*
X227039517Y-131989562D01*
X226935144Y-131973031D01*
X226830773Y-131956500D01*
X226619427Y-131956500D01*
X226549846Y-131967520D01*
X226410682Y-131989562D01*
X226209684Y-132054869D01*
X226209681Y-132054870D01*
X226021371Y-132150820D01*
X225923820Y-132221695D01*
X225850390Y-132275046D01*
X225850388Y-132275048D01*
X225850387Y-132275048D01*
X225700948Y-132424487D01*
X225700948Y-132424488D01*
X225700946Y-132424490D01*
X225647595Y-132497920D01*
X225576720Y-132595471D01*
X225480770Y-132783781D01*
X225480769Y-132783784D01*
X225415462Y-132984782D01*
X225382400Y-133193527D01*
X222780500Y-133193527D01*
X222780500Y-131016544D01*
X222800185Y-130949505D01*
X222816819Y-130928863D01*
X226108863Y-127636819D01*
X226170186Y-127603334D01*
X226196544Y-127600500D01*
X231268456Y-127600500D01*
X231335495Y-127620185D01*
G37*
G04 #@! TD.AperFunction*
G04 #@! TA.AperFunction,Conductor*
G36*
X210415257Y-108156879D02*
G01*
X210471190Y-108198751D01*
X210495607Y-108264215D01*
X210490726Y-108304283D01*
X210491684Y-108304513D01*
X210490546Y-108309250D01*
X210463449Y-108480338D01*
X210463449Y-108653559D01*
X210482861Y-108776127D01*
X210490547Y-108824650D01*
X210544076Y-108989394D01*
X210622717Y-109143737D01*
X210724535Y-109283877D01*
X210847021Y-109406363D01*
X210987161Y-109508181D01*
X211141504Y-109586822D01*
X211306248Y-109640351D01*
X211477338Y-109667449D01*
X211477339Y-109667449D01*
X211650559Y-109667449D01*
X211650560Y-109667449D01*
X211821650Y-109640351D01*
X211986394Y-109586822D01*
X212140737Y-109508181D01*
X212280877Y-109406363D01*
X212403363Y-109283877D01*
X212505181Y-109143737D01*
X212583822Y-108989394D01*
X212637351Y-108824650D01*
X212648146Y-108756492D01*
X212678075Y-108693358D01*
X212737386Y-108656426D01*
X212807249Y-108657424D01*
X212858300Y-108688209D01*
X213080693Y-108910602D01*
X213114178Y-108971925D01*
X213109194Y-109041617D01*
X213080693Y-109085964D01*
X211931473Y-110235183D01*
X211931470Y-110235187D01*
X211898340Y-110284768D01*
X211898340Y-110284769D01*
X211882780Y-110362997D01*
X211882780Y-110363002D01*
X211898340Y-110441230D01*
X211898340Y-110441231D01*
X211931470Y-110490812D01*
X211931473Y-110490816D01*
X213232183Y-111791526D01*
X213232186Y-111791528D01*
X213232189Y-111791531D01*
X213262566Y-111811828D01*
X213281769Y-111824659D01*
X213359998Y-111840220D01*
X213360000Y-111840220D01*
X213360002Y-111840220D01*
X213412154Y-111829846D01*
X213438231Y-111824659D01*
X213487811Y-111791531D01*
X213995102Y-111284239D01*
X214056424Y-111250755D01*
X214126115Y-111255739D01*
X214182049Y-111297610D01*
X214206466Y-111363075D01*
X214191614Y-111431348D01*
X214183101Y-111444806D01*
X214138604Y-111506050D01*
X214059965Y-111660390D01*
X214006434Y-111825140D01*
X213979337Y-111996227D01*
X213979337Y-112169449D01*
X214006435Y-112340539D01*
X214059964Y-112505283D01*
X214138605Y-112659626D01*
X214240423Y-112799766D01*
X214362909Y-112922252D01*
X214468014Y-112998615D01*
X214503050Y-113024071D01*
X214661631Y-113104871D01*
X214712428Y-113152845D01*
X214729337Y-113215356D01*
X214729337Y-128029739D01*
X214709652Y-128096778D01*
X214693018Y-128117420D01*
X214599318Y-128211119D01*
X214599312Y-128211127D01*
X214520263Y-128348046D01*
X214520260Y-128348053D01*
X214479337Y-128500780D01*
X214479337Y-128658894D01*
X214498364Y-128729901D01*
X214520260Y-128811620D01*
X214520263Y-128811627D01*
X214599312Y-128948546D01*
X214599316Y-128948551D01*
X214599317Y-128948553D01*
X214711121Y-129060357D01*
X214711123Y-129060358D01*
X214711127Y-129060361D01*
X214848046Y-129139410D01*
X214848053Y-129139414D01*
X215000780Y-129180337D01*
X215000782Y-129180337D01*
X215158892Y-129180337D01*
X215158894Y-129180337D01*
X215311621Y-129139414D01*
X215448553Y-129060357D01*
X215560357Y-128948553D01*
X215639414Y-128811621D01*
X215680337Y-128658894D01*
X215680337Y-128500780D01*
X215639414Y-128348053D01*
X215607061Y-128292015D01*
X215560361Y-128211127D01*
X215560355Y-128211119D01*
X215466656Y-128117420D01*
X215433171Y-128056097D01*
X215430337Y-128029739D01*
X215430337Y-114289042D01*
X215436575Y-114267796D01*
X215438155Y-114245708D01*
X215446227Y-114234924D01*
X215450022Y-114222003D01*
X215466755Y-114207503D01*
X215480027Y-114189775D01*
X215492647Y-114185067D01*
X215502826Y-114176248D01*
X215524743Y-114173096D01*
X215545491Y-114165358D01*
X215558651Y-114168220D01*
X215571984Y-114166304D01*
X215592127Y-114175503D01*
X215613764Y-114180210D01*
X215631489Y-114193478D01*
X215635540Y-114195329D01*
X215642018Y-114201361D01*
X215734089Y-114293432D01*
X215760058Y-114335796D01*
X215761472Y-114335211D01*
X215763337Y-114339713D01*
X215849126Y-114508086D01*
X215877181Y-114546700D01*
X215960198Y-114660963D01*
X216093814Y-114794579D01*
X216246689Y-114905649D01*
X216330872Y-114948542D01*
X216415057Y-114991437D01*
X216419549Y-114993297D01*
X216418960Y-114994717D01*
X216461343Y-115020686D01*
X216748071Y-115307415D01*
X216748075Y-115307418D01*
X216748077Y-115307420D01*
X216797657Y-115340548D01*
X216875886Y-115356109D01*
X216875888Y-115356109D01*
X216875890Y-115356109D01*
X216928042Y-115345735D01*
X216954119Y-115340548D01*
X217003699Y-115307420D01*
X217290434Y-115020683D01*
X217332808Y-114994732D01*
X217332216Y-114993302D01*
X217336709Y-114991439D01*
X217336720Y-114991436D01*
X217505087Y-114905649D01*
X217657962Y-114794579D01*
X218427974Y-114024566D01*
X218539044Y-113871692D01*
X218624831Y-113703325D01*
X218683224Y-113523611D01*
X218712784Y-113336979D01*
X218712784Y-111811828D01*
X218732469Y-111744789D01*
X218785273Y-111699034D01*
X218854431Y-111689090D01*
X218917987Y-111718115D01*
X218924465Y-111724147D01*
X224863181Y-117662863D01*
X224896666Y-117724186D01*
X224899500Y-117750544D01*
X224899500Y-125949902D01*
X224879815Y-126016941D01*
X224863181Y-126037583D01*
X224769481Y-126131282D01*
X224769475Y-126131290D01*
X224690426Y-126268209D01*
X224690423Y-126268216D01*
X224649500Y-126420943D01*
X224649500Y-126579057D01*
X224679341Y-126690423D01*
X224690423Y-126731783D01*
X224690426Y-126731790D01*
X224769475Y-126868709D01*
X224769479Y-126868714D01*
X224769480Y-126868716D01*
X224881284Y-126980520D01*
X224881286Y-126980521D01*
X224881290Y-126980524D01*
X225018209Y-127059573D01*
X225018216Y-127059577D01*
X225170943Y-127100500D01*
X225170945Y-127100500D01*
X225329055Y-127100500D01*
X225329057Y-127100500D01*
X225329058Y-127100499D01*
X225330992Y-127100244D01*
X225331419Y-127100012D01*
X225332288Y-127100074D01*
X225337113Y-127099439D01*
X225337243Y-127100428D01*
X225363437Y-127102301D01*
X225395524Y-127103063D01*
X225398057Y-127104777D01*
X225401110Y-127104996D01*
X225426812Y-127124236D01*
X225453389Y-127142221D01*
X225454593Y-127145032D01*
X225457044Y-127146867D01*
X225468262Y-127176946D01*
X225480899Y-127206447D01*
X225480391Y-127209465D01*
X225481461Y-127212332D01*
X225474638Y-127243692D01*
X225469318Y-127275350D01*
X225467063Y-127278516D01*
X225466609Y-127280605D01*
X225445459Y-127308859D01*
X225284788Y-127469530D01*
X225284787Y-127469530D01*
X225284786Y-127469531D01*
X222149531Y-130604786D01*
X222149525Y-130604794D01*
X222108484Y-130675881D01*
X222108484Y-130675882D01*
X222103387Y-130684709D01*
X222103386Y-130684712D01*
X222079500Y-130773856D01*
X222079500Y-137319456D01*
X222059815Y-137386495D01*
X222007011Y-137432250D01*
X221937853Y-137442194D01*
X221874297Y-137413169D01*
X221867819Y-137407137D01*
X213886819Y-129426137D01*
X213853334Y-129364814D01*
X213850500Y-129338456D01*
X213850500Y-125770098D01*
X213870185Y-125703059D01*
X213886819Y-125682417D01*
X213980520Y-125588716D01*
X214059577Y-125451784D01*
X214100500Y-125299057D01*
X214100500Y-125140943D01*
X214059577Y-124988216D01*
X214059573Y-124988209D01*
X213980524Y-124851290D01*
X213980518Y-124851282D01*
X213868717Y-124739481D01*
X213868709Y-124739475D01*
X213731790Y-124660426D01*
X213731786Y-124660424D01*
X213731784Y-124660423D01*
X213579057Y-124619500D01*
X213420943Y-124619500D01*
X213268216Y-124660423D01*
X213268209Y-124660426D01*
X213131290Y-124739475D01*
X213131282Y-124739481D01*
X213019481Y-124851282D01*
X213019475Y-124851290D01*
X212940426Y-124988209D01*
X212940423Y-124988216D01*
X212899500Y-125140943D01*
X212899500Y-125299056D01*
X212940423Y-125451783D01*
X212940426Y-125451790D01*
X213019475Y-125588709D01*
X213019481Y-125588717D01*
X213113181Y-125682417D01*
X213146666Y-125743740D01*
X213149500Y-125770098D01*
X213149500Y-129581143D01*
X213173386Y-129670287D01*
X213173387Y-129670290D01*
X213219527Y-129750208D01*
X213219531Y-129750213D01*
X221613181Y-138143862D01*
X221646666Y-138205185D01*
X221649500Y-138231543D01*
X221649500Y-151145476D01*
X221629815Y-151212515D01*
X221577011Y-151258270D01*
X221507853Y-151268214D01*
X221444297Y-151239189D01*
X221437819Y-151233157D01*
X187526193Y-117321531D01*
X187526188Y-117321527D01*
X187446270Y-117275387D01*
X187446265Y-117275385D01*
X187439345Y-117273530D01*
X187439345Y-117273531D01*
X187357124Y-117251500D01*
X187357123Y-117251500D01*
X184089480Y-117251500D01*
X184022441Y-117231815D01*
X183976686Y-117179011D01*
X183966742Y-117109853D01*
X183995767Y-117046297D01*
X184001799Y-117039819D01*
X184577886Y-116463732D01*
X185735086Y-115306532D01*
X185846156Y-115153657D01*
X185931943Y-114985290D01*
X185990336Y-114805576D01*
X186003820Y-114720440D01*
X186019896Y-114618945D01*
X186019896Y-114100500D01*
X186039581Y-114033461D01*
X186092385Y-113987706D01*
X186143896Y-113976500D01*
X204090346Y-113976500D01*
X204276978Y-113946940D01*
X204456692Y-113888547D01*
X204625059Y-113802760D01*
X204777934Y-113691690D01*
X210284244Y-108185378D01*
X210345565Y-108151895D01*
X210415257Y-108156879D01*
G37*
G04 #@! TD.AperFunction*
M02*
