G04 #@! TF.GenerationSoftware,KiCad,Pcbnew,9.0.2-2.fc42*
G04 #@! TF.CreationDate,2025-07-20T15:46:28-07:00*
G04 #@! TF.ProjectId,rezq_rev3,72657a71-5f72-4657-9633-2e6b69636164,rev?*
G04 #@! TF.SameCoordinates,Original*
G04 #@! TF.FileFunction,Soldermask,Bot*
G04 #@! TF.FilePolarity,Negative*
%FSLAX46Y46*%
G04 Gerber Fmt 4.6, Leading zero omitted, Abs format (unit mm)*
G04 Created by KiCad (PCBNEW 9.0.2-2.fc42) date 2025-07-20 15:46:28*
%MOMM*%
%LPD*%
G01*
G04 APERTURE LIST*
G04 Aperture macros list*
%AMRotRect*
0 Rectangle, with rotation*
0 The origin of the aperture is its center*
0 $1 length*
0 $2 width*
0 $3 Rotation angle, in degrees counterclockwise*
0 Add horizontal line*
21,1,$1,$2,0,0,$3*%
G04 Aperture macros list end*
%ADD10R,1.700000X1.700000*%
%ADD11C,2.200000*%
%ADD12C,2.184400*%
%ADD13C,3.000000*%
%ADD14O,1.700000X1.700000*%
%ADD15RotRect,1.800000X1.800000X135.000000*%
%ADD16C,1.800000*%
%ADD17RotRect,1.800000X1.800000X225.000000*%
%ADD18R,1.800000X1.800000*%
%ADD19R,1.600000X1.600000*%
%ADD20C,1.600000*%
%ADD21O,1.600000X1.600000*%
G04 APERTURE END LIST*
D10*
X195700000Y-186420000D03*
D11*
X195635300Y-192100000D03*
D12*
X172387600Y-133299200D03*
X172387600Y-151299200D03*
D13*
X161438000Y-185554000D03*
X161438000Y-180728000D03*
X161438000Y-175902000D03*
D10*
X155088000Y-184750000D03*
D14*
X155088000Y-182210000D03*
D15*
X213360000Y-110363000D03*
D16*
X211563949Y-108566949D03*
D17*
X184183000Y-112290000D03*
D16*
X182386949Y-114086051D03*
D11*
X204120000Y-105290000D03*
D10*
X155140000Y-177850000D03*
X191860000Y-186420000D03*
D18*
X158233600Y-118307200D03*
D16*
X155693600Y-118307200D03*
D10*
X179000000Y-164000000D03*
D19*
X186203000Y-183736621D03*
D20*
X186203000Y-186236621D03*
D11*
X196246000Y-105290000D03*
X203509300Y-192100000D03*
D19*
X190627000Y-161671000D03*
D21*
X193167000Y-161671000D03*
X195707000Y-161671000D03*
X198247000Y-161671000D03*
X200787000Y-161671000D03*
X203327000Y-161671000D03*
X205867000Y-161671000D03*
X208407000Y-161671000D03*
X208407000Y-154051000D03*
X205867000Y-154051000D03*
X203327000Y-154051000D03*
X200787000Y-154051000D03*
X198247000Y-154051000D03*
X195707000Y-154051000D03*
X193167000Y-154051000D03*
X190627000Y-154051000D03*
D19*
X169998000Y-172194000D03*
D20*
X169998000Y-169694000D03*
D18*
X243323600Y-118307200D03*
D16*
X240783600Y-118307200D03*
D17*
X187775102Y-108697897D03*
D16*
X185979051Y-110493948D03*
D10*
X155803600Y-172186600D03*
D14*
X155803600Y-169646600D03*
X155803600Y-167106600D03*
X155803600Y-164566600D03*
X155803600Y-162026600D03*
D12*
X226725100Y-151299200D03*
X226725100Y-133299200D03*
D10*
X183300000Y-129130000D03*
D18*
X238243600Y-118307200D03*
D16*
X235703600Y-118307200D03*
D15*
X216875888Y-113878889D03*
D16*
X215079837Y-112082838D03*
D18*
X163313600Y-118307200D03*
D16*
X160773600Y-118307200D03*
D10*
X160430000Y-160120000D03*
M02*
