G04 #@! TF.GenerationSoftware,KiCad,Pcbnew,9.0.2-2.fc42*
G04 #@! TF.CreationDate,2025-07-20T15:46:28-07:00*
G04 #@! TF.ProjectId,rezq_rev3,72657a71-5f72-4657-9633-2e6b69636164,rev?*
G04 #@! TF.SameCoordinates,Original*
G04 #@! TF.FileFunction,Legend,Bot*
G04 #@! TF.FilePolarity,Positive*
%FSLAX46Y46*%
G04 Gerber Fmt 4.6, Leading zero omitted, Abs format (unit mm)*
G04 Created by KiCad (PCBNEW 9.0.2-2.fc42) date 2025-07-20 15:46:28*
%MOMM*%
%LPD*%
G01*
G04 APERTURE LIST*
G04 Aperture macros list*
%AMRotRect*
0 Rectangle, with rotation*
0 The origin of the aperture is its center*
0 $1 length*
0 $2 width*
0 $3 Rotation angle, in degrees counterclockwise*
0 Add horizontal line*
21,1,$1,$2,0,0,$3*%
G04 Aperture macros list end*
%ADD10C,0.800000*%
%ADD11R,1.700000X1.700000*%
%ADD12C,2.200000*%
%ADD13C,2.184400*%
%ADD14C,3.000000*%
%ADD15O,1.700000X1.700000*%
%ADD16RotRect,1.800000X1.800000X135.000000*%
%ADD17C,1.800000*%
%ADD18RotRect,1.800000X1.800000X225.000000*%
%ADD19R,1.800000X1.800000*%
%ADD20R,1.600000X1.600000*%
%ADD21C,1.600000*%
%ADD22O,1.600000X1.600000*%
G04 APERTURE END LIST*
D10*
X190021318Y-149914948D02*
X189963701Y-150301405D01*
X190871616Y-145863453D02*
X190629549Y-146892675D01*
X207879219Y-133022830D02*
X207781227Y-133496828D01*
X192156724Y-131109732D02*
X191592491Y-131567658D01*
X190137248Y-135343031D02*
X190190216Y-135765035D01*
X192015352Y-131669208D02*
X191990540Y-131850221D01*
X202593446Y-137352341D02*
X202049731Y-137618357D01*
X192204926Y-132545579D02*
X192483262Y-133063491D01*
X202319027Y-137654705D02*
X200952169Y-138221949D01*
X190207006Y-133934982D02*
X190112835Y-134370962D01*
X208366337Y-139057631D02*
X208189864Y-138814611D01*
X200536383Y-139748224D02*
X200303852Y-140113929D01*
X208229687Y-132853917D02*
X208160917Y-132541085D01*
X200249056Y-138033208D02*
X200499642Y-138226570D01*
X199956625Y-140442607D02*
X199531348Y-140713151D01*
X198420903Y-141238058D02*
X198824662Y-141254797D01*
X207750729Y-132138277D02*
X207410941Y-132065513D01*
X195990102Y-143709754D02*
X196138933Y-142981559D01*
X193632080Y-130988318D02*
X193132688Y-130854498D01*
X199253601Y-137844174D02*
X199707464Y-137907538D01*
X203779216Y-142529761D02*
X204604054Y-142603386D01*
X192239076Y-131422358D02*
X192102372Y-131529170D01*
X190754042Y-144722599D02*
X190434680Y-145906718D01*
X206493183Y-145718889D02*
X206735859Y-146662115D01*
X205800615Y-143695038D02*
X205192833Y-142808802D01*
X189815505Y-137418530D02*
X189574773Y-137714233D01*
X208160917Y-132541085D02*
X208009232Y-132294856D01*
X189615707Y-150861190D02*
X189558195Y-151305472D01*
X195670220Y-140486084D02*
X196267991Y-140402620D01*
X208067310Y-142135144D02*
X208619505Y-141719682D01*
X192601507Y-131271126D02*
X192239076Y-131422358D01*
X191247009Y-140339903D02*
X191905701Y-140549191D01*
X189235242Y-139169340D02*
X189474843Y-139517409D01*
X194906946Y-135679993D02*
X195619909Y-136190313D01*
X195221288Y-140820770D02*
X194621768Y-140822258D01*
X189916776Y-150647204D02*
X190571701Y-150148753D01*
X206083623Y-144752890D02*
X206493183Y-145718889D01*
X190434680Y-145906718D02*
X190220708Y-146925237D01*
X196983940Y-140472887D02*
X196375549Y-140642326D01*
X195741452Y-140768081D02*
X195221288Y-140820770D01*
X209227468Y-140249282D02*
X208952859Y-139780115D01*
X197115916Y-141716378D02*
X197646154Y-140975742D01*
X207142056Y-132314686D02*
X207347000Y-132311107D01*
X207781227Y-133496828D02*
X207481593Y-134039336D01*
X194834456Y-131736078D02*
X194165544Y-131263922D01*
X196461074Y-142246531D02*
X196930598Y-141518834D01*
X200914762Y-136432269D02*
X200542231Y-137086902D01*
X206280798Y-151855003D02*
X204177286Y-148527277D01*
X190211295Y-148857860D02*
X190100318Y-149447174D01*
X197879894Y-140114200D02*
X198030094Y-139742361D01*
X207410941Y-132065513D02*
X207024043Y-132065682D01*
X200811008Y-151810970D02*
X204173665Y-149019746D01*
X202759959Y-134761272D02*
X203404762Y-134161938D01*
X192654745Y-133833515D02*
X192284529Y-133235896D01*
X208206872Y-137754333D02*
X208285228Y-137130657D01*
X203404762Y-134161938D02*
X204107670Y-133604364D01*
X198558622Y-137827016D02*
X198635148Y-137816538D01*
X197468243Y-140272970D02*
X196983940Y-140472887D01*
X190399776Y-134537139D02*
X190401206Y-135098332D01*
X203726380Y-133567103D02*
X202868458Y-134225796D01*
X195251278Y-132446109D02*
X194831541Y-132088131D01*
X207200239Y-142184746D02*
X207938828Y-141780080D01*
X196235537Y-145618175D02*
X196177134Y-144888343D01*
X196039005Y-133307369D02*
X195652654Y-132855144D01*
X190514043Y-139735317D02*
X191058326Y-139957984D01*
X201043660Y-136800737D02*
X201499731Y-136184318D01*
X200678226Y-139372966D02*
X200536383Y-139748224D01*
X207938828Y-141780080D02*
X208524027Y-141317899D01*
X193100816Y-141323385D02*
X192545554Y-141889147D01*
X201491989Y-143456557D02*
X201195988Y-142760716D01*
X192742632Y-140382114D02*
X193866468Y-140477177D01*
X194714903Y-135889228D02*
X193920962Y-135273179D01*
X200590223Y-137928274D02*
X200550195Y-137843638D01*
X198619457Y-138184758D02*
X198755262Y-138004123D01*
X201315428Y-151028018D02*
X201657436Y-150056291D01*
X192483262Y-133063491D02*
X192822244Y-133587309D01*
X192023537Y-132067850D02*
X192204926Y-132545579D01*
X196304262Y-147379633D02*
X196292736Y-146437057D01*
X195300371Y-150429444D02*
X195602193Y-149658628D01*
X189611712Y-138194444D02*
X189444464Y-138500634D01*
X201873637Y-135713647D02*
X202243099Y-135294020D01*
X206364527Y-142449883D02*
X207200239Y-142184746D01*
X198076801Y-140966715D02*
X197827786Y-140876315D01*
X193066032Y-134399815D02*
X192654745Y-133833515D01*
X206343084Y-144624775D02*
X205800615Y-143695038D01*
X200240777Y-140625105D02*
X200827121Y-141147892D01*
X201708690Y-146554332D02*
X201631619Y-147857274D01*
X193300069Y-141439710D02*
X192896230Y-141902186D01*
X207961413Y-138605243D02*
X207948463Y-137956235D01*
X200970343Y-141604122D02*
X201589926Y-142027453D01*
X190155893Y-139934126D02*
X190618262Y-140115396D01*
X206900059Y-149314212D02*
X206782713Y-150244020D01*
X194547236Y-152382401D02*
X195023557Y-151633198D01*
X193893842Y-131450759D02*
X193448919Y-131261513D01*
X198689535Y-137762278D02*
X198722824Y-137549007D01*
X190020538Y-136993231D02*
X189815505Y-137418530D01*
X196027008Y-146543673D02*
X196008381Y-145652144D01*
X201057745Y-137976272D02*
X200839955Y-138001707D01*
X204290953Y-142818541D02*
X204824691Y-142817443D01*
X200998008Y-139142412D02*
X200883440Y-139592363D01*
X189802079Y-139355650D02*
X190118571Y-139545452D01*
X195836653Y-148907766D02*
X195963457Y-148223423D01*
X191993800Y-132694609D02*
X191812246Y-132283008D01*
X196942348Y-134490357D02*
X196465719Y-133851001D01*
X190412411Y-133395076D02*
X190207006Y-133934982D01*
X199090550Y-140907167D02*
X198695555Y-141006973D01*
X200435777Y-141938678D02*
X200982536Y-142948391D01*
X206934849Y-148382144D02*
X206900059Y-149314212D01*
X189889431Y-148898272D02*
X189771706Y-149713928D01*
X189474843Y-139517409D02*
X189773306Y-139744265D01*
X199707464Y-137907538D02*
X200249056Y-138033208D01*
X201891866Y-149110547D02*
X202026277Y-148132886D01*
X193920962Y-135273179D02*
X193489101Y-134874072D01*
X208952859Y-139780115D02*
X208611279Y-139331206D01*
X208677562Y-139842817D02*
X208408583Y-139558411D01*
X201002922Y-138684262D02*
X200998008Y-139142412D01*
X197747368Y-139810058D02*
X198333412Y-137976272D01*
X200978860Y-142197074D02*
X200728144Y-141665543D01*
X194985510Y-151134753D02*
X195300371Y-150429444D01*
X193202884Y-140781331D02*
X193673208Y-140758805D01*
X208324628Y-136393134D02*
X208328523Y-135399726D01*
X197549607Y-134784827D02*
X196829316Y-133787737D01*
X197474076Y-140794901D02*
X197468243Y-140272970D01*
X192896230Y-141902186D02*
X192458410Y-142453964D01*
X207785424Y-132606993D02*
X207879219Y-133022830D01*
X201433575Y-135708633D02*
X200914762Y-136432269D01*
X206497594Y-132449422D02*
X207142056Y-132314686D01*
X195975275Y-144994584D02*
X195956002Y-144385408D01*
X197243102Y-137491105D02*
X196293868Y-136986588D01*
X192646080Y-130889414D02*
X192156724Y-131109732D01*
X206570907Y-135281068D02*
X205742508Y-135891612D01*
X199531348Y-140713151D02*
X199090550Y-140907167D01*
X209020828Y-140634304D02*
X209003009Y-140435092D01*
X190571701Y-150148753D02*
X191199279Y-149671943D01*
X198755262Y-138004123D02*
X198958293Y-137881659D01*
X191126325Y-143780091D02*
X190754042Y-144722599D01*
X201499731Y-136184318D02*
X201873637Y-135713647D01*
X200827121Y-141147892D02*
X201445575Y-141630729D01*
X190708232Y-132784312D02*
X190412411Y-133395076D01*
X207201969Y-147831737D02*
X207043683Y-146709794D01*
X189558195Y-151305472D02*
X192986786Y-148690072D01*
X202868458Y-134225796D02*
X202092969Y-134954535D01*
X190402076Y-147927997D02*
X190211295Y-148857860D01*
X190118571Y-139545452D02*
X190514043Y-139735317D01*
X191701317Y-131962548D02*
X191184220Y-132720363D01*
X200584343Y-137601751D02*
X200700287Y-137345976D01*
X201893296Y-145022745D02*
X201740726Y-144228090D01*
X192263009Y-148869811D02*
X192659439Y-148576868D01*
X206714614Y-142628146D02*
X207422701Y-142439998D01*
X192044691Y-143007072D02*
X191775226Y-143383833D01*
X193973705Y-140794901D02*
X193650778Y-141088466D01*
X203662419Y-142743493D02*
X204290953Y-142818541D01*
X207302618Y-134654642D02*
X206570907Y-135281068D01*
X202049731Y-137618357D02*
X201522635Y-137839337D01*
X197076101Y-137082003D02*
X197726534Y-137434516D01*
X192024529Y-142457424D02*
X191550426Y-143057614D01*
X191420179Y-143985623D02*
X191273588Y-144382315D01*
X204940315Y-133089828D02*
X205747285Y-132712285D01*
X196660843Y-142486055D02*
X197115916Y-141716378D01*
X190401206Y-135098332D02*
X190411762Y-135734396D01*
X198366824Y-141016815D02*
X198076801Y-140966715D01*
X198413090Y-136701772D02*
X197984526Y-135982864D01*
X206283164Y-152276063D02*
X206711242Y-151177924D01*
X200377070Y-141095783D02*
X200970343Y-141604122D01*
X204107670Y-133604364D02*
X204940315Y-133089828D01*
X205583705Y-135637294D02*
X204682731Y-136179099D01*
X198824662Y-141254797D02*
X199318260Y-141150646D01*
X208119871Y-138541091D02*
X208139973Y-138189248D01*
X207948463Y-137956235D02*
X207988426Y-137334447D01*
X193029323Y-131202344D02*
X192601507Y-131271126D01*
X208300688Y-134321177D02*
X208256988Y-133200057D01*
X198592833Y-136668115D02*
X198138238Y-135756934D01*
X200672812Y-137979983D02*
X200590223Y-137928274D01*
X195602193Y-149658628D02*
X195836653Y-148907766D01*
X197467380Y-140029982D02*
X197747368Y-139810058D01*
X200883440Y-139592363D02*
X200603304Y-140111814D01*
X195956002Y-144385408D02*
X195990102Y-143709754D01*
X196930598Y-141518834D02*
X197474076Y-140794901D01*
X202949537Y-142573242D02*
X203662419Y-142743493D01*
X207022002Y-134561009D02*
X206425236Y-135063890D01*
X191106183Y-144951890D02*
X190871616Y-145863453D01*
X191812246Y-132283008D02*
X191701317Y-131962548D01*
X192986786Y-148690072D02*
X194547236Y-152382401D01*
X198673743Y-137295577D02*
X198568561Y-137017998D01*
X190190216Y-135765035D02*
X190212560Y-136111882D01*
X207215842Y-148956435D02*
X207201969Y-147831737D01*
X193060649Y-148300919D02*
X194671121Y-151790024D01*
X208524027Y-141317899D02*
X208826853Y-141008268D01*
X190112835Y-134370962D02*
X190097286Y-134850737D01*
X201141208Y-150489393D02*
X200811008Y-151810970D01*
X198138238Y-135756934D02*
X197549607Y-134784827D01*
X200839955Y-138001707D02*
X200672812Y-137979983D01*
X190411762Y-135734396D02*
X190405910Y-136320870D01*
X201589926Y-142027453D02*
X202251572Y-142336089D01*
X198030222Y-141129989D02*
X198420903Y-141238058D01*
X194332869Y-131720073D02*
X193893842Y-131450759D01*
X195023557Y-151633198D02*
X195460576Y-150870246D01*
X191273588Y-144382315D02*
X191106183Y-144951890D01*
X190039028Y-147945569D02*
X189889431Y-148898272D01*
X198241541Y-137699341D02*
X198421289Y-137785472D01*
X207049641Y-150073246D02*
X207215842Y-148956435D01*
X195521267Y-132336617D02*
X194834456Y-131736078D01*
X196081104Y-149244229D02*
X196241513Y-148343698D01*
X207024043Y-132065682D02*
X206278934Y-132220529D01*
X189570152Y-139138431D02*
X189802079Y-139355650D01*
X207525163Y-132352307D02*
X207672975Y-132451636D01*
X189683463Y-150352233D02*
X189615707Y-150861190D01*
X191775226Y-143383833D02*
X191575410Y-143685368D01*
X195505203Y-136452300D02*
X194714903Y-135889228D01*
X198030094Y-139742361D02*
X198619457Y-138184758D01*
X191772164Y-149238415D02*
X192263009Y-148869811D01*
X197726534Y-137434516D02*
X198241541Y-137699341D01*
X205964284Y-142738038D02*
X206714614Y-142628146D01*
X196195079Y-133031749D02*
X195521267Y-132336617D01*
X206577892Y-151114748D02*
X206280798Y-151855003D01*
X208139973Y-138189248D02*
X208206872Y-137754333D01*
X207043683Y-146709794D02*
X206761186Y-145634730D01*
X196350683Y-143307404D02*
X196660843Y-142486055D01*
X196948169Y-140237723D02*
X197467380Y-140029982D01*
X201395557Y-144051322D02*
X201635076Y-145264682D01*
X206425236Y-135063890D02*
X205583705Y-135637294D01*
X191058326Y-139957984D02*
X191650947Y-140154042D01*
X198722824Y-137549007D02*
X198673743Y-137295577D01*
X209003009Y-140435092D02*
X208894496Y-140137692D01*
X208611279Y-139331206D02*
X208366337Y-139057631D01*
X192284529Y-133235896D02*
X191993800Y-132694609D01*
X201522635Y-137839337D02*
X201057745Y-137976272D01*
X189963701Y-150301405D02*
X189916776Y-150647204D01*
X205742508Y-135891612D02*
X204785175Y-136482477D01*
X191575410Y-143685368D02*
X191420179Y-143985623D01*
X189773306Y-139744265D02*
X190155893Y-139934126D01*
X198568561Y-137017998D02*
X198413090Y-136701772D01*
X191650947Y-140154042D02*
X192742632Y-140382114D01*
X191199279Y-149671943D02*
X191772164Y-149238415D01*
X200603304Y-140111814D02*
X200240777Y-140625105D01*
X204173665Y-149019746D02*
X206283164Y-152276063D01*
X190097286Y-134850737D02*
X190137248Y-135343031D01*
X201445575Y-141630729D02*
X202127963Y-142034388D01*
X208986073Y-140787665D02*
X209020828Y-140634304D01*
X200550195Y-137843638D02*
X200584343Y-137601751D01*
X193866468Y-140477177D02*
X194571309Y-140494168D01*
X201635076Y-145264682D02*
X201708690Y-146554332D01*
X196293868Y-136986588D02*
X195505203Y-136452300D01*
X195167775Y-140498977D02*
X195670220Y-140486084D01*
X204824691Y-142817443D02*
X205499662Y-143785186D01*
X208009232Y-132294856D02*
X207750729Y-132138277D01*
X192630542Y-140726369D02*
X193202884Y-140781331D01*
X198421289Y-137785472D02*
X198558622Y-137827016D01*
X200700287Y-137345976D02*
X201043660Y-136800737D01*
X206278934Y-132220529D02*
X205476386Y-132543144D01*
X208894496Y-140137692D02*
X208677562Y-139842817D01*
X196197531Y-144134817D02*
X196350683Y-143307404D01*
X190750183Y-133425756D02*
X190481821Y-134026780D01*
X200728144Y-141665543D02*
X200377070Y-141095783D01*
X195963457Y-148223423D02*
X196015159Y-147458378D01*
X206761186Y-145634730D02*
X206343084Y-144624775D01*
X194621768Y-140822258D02*
X193973705Y-140794901D01*
X202127963Y-142034388D02*
X202899578Y-142336159D01*
X192458410Y-142453964D02*
X192044691Y-143007072D01*
X191990540Y-131850221D02*
X192023537Y-132067850D01*
X194831541Y-132088131D02*
X194332869Y-131720073D01*
X208020204Y-136878603D02*
X208033875Y-136553386D01*
X189771706Y-149713928D02*
X189683463Y-150352233D01*
X193650778Y-141088466D02*
X193300069Y-141439710D01*
X191184220Y-132720363D02*
X190750183Y-133425756D01*
X193489101Y-134874072D02*
X193066032Y-134399815D01*
X195619909Y-136190313D02*
X196354098Y-136661221D01*
X198695555Y-141006973D02*
X198366824Y-141016815D01*
X198333412Y-137976272D02*
X197243102Y-137491105D01*
X196465719Y-133851001D02*
X196039005Y-133307369D01*
X209330044Y-140598266D02*
X209227468Y-140249282D01*
X205476386Y-132543144D02*
X204613993Y-132999986D01*
X191905701Y-140549191D02*
X192630542Y-140726369D01*
X196138933Y-142981559D02*
X196461074Y-142246531D01*
X193223771Y-134109849D02*
X193990260Y-134914638D01*
X196354098Y-136661221D02*
X197076101Y-137082003D01*
X207984166Y-134019807D02*
X207302618Y-134654642D01*
X200251143Y-137699341D02*
X198976736Y-137545318D01*
X202251572Y-142336089D02*
X202949537Y-142573242D01*
X189444464Y-138500634D02*
X189418989Y-138824530D01*
X192545554Y-141889147D02*
X192024529Y-142457424D01*
X194571309Y-140494168D02*
X195167775Y-140498977D01*
X205499662Y-143785186D02*
X206083623Y-144752890D01*
X199318260Y-141150646D02*
X199821991Y-140975742D01*
X202101769Y-147073079D02*
X202041912Y-146034653D01*
X194165544Y-131263922D02*
X193632080Y-130988318D01*
X205192833Y-142808802D02*
X205964284Y-142738038D01*
X189832447Y-137893218D02*
X189611712Y-138194444D01*
X195819846Y-150079646D02*
X196081104Y-149244229D01*
X202092969Y-134954535D02*
X201433575Y-135708633D01*
X209261271Y-140917415D02*
X209330044Y-140598266D01*
X204682731Y-136179099D02*
X203604990Y-136800588D01*
X207672975Y-132451636D02*
X207785424Y-132606993D01*
X201657436Y-150056291D02*
X201891866Y-149110547D01*
X208256988Y-133200057D02*
X208229687Y-132853917D01*
X200952169Y-138221949D02*
X201002922Y-138684262D01*
X193990260Y-134914638D02*
X194906946Y-135679993D01*
X201195988Y-142760716D02*
X200978860Y-142197074D01*
X208408583Y-139558411D02*
X208204443Y-139318520D01*
X192822244Y-133587309D02*
X193223771Y-134109849D01*
X197646154Y-140975742D02*
X198030222Y-141129989D01*
X190212560Y-136111882D02*
X190160268Y-136515481D01*
X189418989Y-138824530D02*
X189570152Y-139138431D01*
X189183627Y-138356707D02*
X189135467Y-138766007D01*
X200761675Y-139016460D02*
X200678226Y-139372966D01*
X208285228Y-137130657D02*
X208324628Y-136393134D01*
X190220708Y-146925237D02*
X190039028Y-147945569D01*
X196292736Y-146437057D02*
X196235537Y-145618175D01*
X205747285Y-132712285D02*
X206497594Y-132449422D01*
X189574773Y-137714233D02*
X189346856Y-137994363D01*
X208619505Y-141719682D02*
X209016579Y-141298562D01*
X200303852Y-140113929D02*
X199956625Y-140442607D01*
X192659439Y-148576868D02*
X192909728Y-148399576D01*
X196375549Y-140642326D02*
X195741452Y-140768081D01*
X196267991Y-140402620D02*
X196948169Y-140237723D01*
X209016579Y-141298562D02*
X209261271Y-140917415D01*
X194671121Y-151790024D02*
X194985510Y-151134753D01*
X196241513Y-148343698D02*
X196304262Y-147379633D01*
X202243099Y-135294020D02*
X202759959Y-134761272D01*
X208033875Y-136553386D02*
X207984166Y-134019807D01*
X196008381Y-145652144D02*
X195975275Y-144994584D01*
X208045206Y-139013899D02*
X207961413Y-138605243D01*
X189135467Y-138766007D02*
X189235242Y-139169340D01*
X208826853Y-141008268D02*
X208986073Y-140787665D01*
X202899578Y-142336159D02*
X203779216Y-142529761D01*
X198635148Y-137816538D02*
X198689535Y-137762278D01*
X196177134Y-144888343D02*
X196197531Y-144134817D01*
X193448919Y-131261513D02*
X193029323Y-131202344D01*
X204177286Y-148527277D02*
X201315428Y-151028018D01*
X201428910Y-149170575D02*
X201141208Y-150489393D01*
X208189864Y-138814611D02*
X208119871Y-138541091D01*
X193673208Y-140758805D02*
X193100816Y-141323385D01*
X192102372Y-131529170D02*
X192015352Y-131669208D01*
X190405910Y-136320870D02*
X190331374Y-136889314D01*
X190481821Y-134026780D02*
X190399776Y-134537139D01*
X196015159Y-147458378D02*
X196027008Y-146543673D01*
X207481593Y-134039336D02*
X207022002Y-134561009D01*
X201631619Y-147857274D02*
X201428910Y-149170575D01*
X206735859Y-146662115D02*
X206875560Y-147551007D01*
X193132688Y-130854498D02*
X192646080Y-130889414D01*
X207422701Y-142439998D02*
X208067310Y-142135144D01*
X200982536Y-142948391D02*
X201395557Y-144051322D01*
X197827786Y-140876315D02*
X197707773Y-140733300D01*
X198976736Y-137545318D02*
X198592833Y-136668115D01*
X207347000Y-132311107D02*
X207525163Y-132352307D01*
X207988426Y-137334447D02*
X208020204Y-136878603D01*
X190100318Y-149447174D02*
X190021318Y-149914948D01*
X205482448Y-142583087D02*
X206364527Y-142449883D01*
X199821991Y-140975742D02*
X200435777Y-141938678D01*
X191099988Y-132152768D02*
X190708232Y-132784312D01*
X206782713Y-150244020D02*
X206577892Y-151114748D01*
X206875560Y-147551007D02*
X206934849Y-148382144D01*
X200542231Y-137086902D02*
X200251143Y-137699341D01*
X202026277Y-148132886D02*
X202101769Y-147073079D01*
X203604990Y-136800588D02*
X202593446Y-137352341D01*
X200706500Y-138438156D02*
X200788124Y-138700920D01*
X208204443Y-139318520D02*
X208045206Y-139013899D01*
X206711242Y-151177924D02*
X207049641Y-150073246D01*
X200499642Y-138226570D02*
X200706500Y-138438156D01*
X195460576Y-150870246D02*
X195819846Y-150079646D01*
X189346856Y-137994363D02*
X189183627Y-138356707D01*
X203618902Y-137078014D02*
X202319027Y-137654705D01*
X197468111Y-135220298D02*
X196942348Y-134490357D01*
X197984526Y-135982864D02*
X197468111Y-135220298D01*
X195652654Y-132855144D02*
X195251278Y-132446109D01*
X190125105Y-137425835D02*
X189832447Y-137893218D01*
X204604054Y-142603386D02*
X205482448Y-142583087D01*
X197707773Y-140733300D02*
X197735413Y-140521162D01*
X197735413Y-140521162D02*
X197879894Y-140114200D01*
X204613993Y-132999986D02*
X203726380Y-133567103D01*
X198958293Y-137881659D02*
X199253601Y-137844174D01*
X192909728Y-148399576D02*
X193060649Y-148300919D01*
X202041912Y-146034653D02*
X201893296Y-145022745D01*
X191592491Y-131567658D02*
X191099988Y-132152768D01*
X208328523Y-135399726D02*
X208300688Y-134321177D01*
X196829316Y-133787737D02*
X196195079Y-133031749D01*
X191550426Y-143057614D02*
X191126325Y-143780091D01*
X190160268Y-136515481D02*
X190020538Y-136993231D01*
X190629549Y-146892675D02*
X190402076Y-147927997D01*
X204785175Y-136482477D02*
X203618902Y-137078014D01*
X201740726Y-144228090D02*
X201491989Y-143456557D01*
X190618262Y-140115396D02*
X191247009Y-140339903D01*
X190331374Y-136889314D02*
X190125105Y-137425835D01*
X200788124Y-138700920D02*
X200761675Y-139016460D01*
%LPC*%
D11*
X195700000Y-186420000D03*
D12*
X195635300Y-192100000D03*
D13*
X172387600Y-133299200D03*
X172387600Y-151299200D03*
D14*
X161438000Y-185554000D03*
X161438000Y-180728000D03*
X161438000Y-175902000D03*
D11*
X155088000Y-184750000D03*
D15*
X155088000Y-182210000D03*
D16*
X213360000Y-110363000D03*
D17*
X211563949Y-108566949D03*
D18*
X184183000Y-112290000D03*
D17*
X182386949Y-114086051D03*
D12*
X204120000Y-105290000D03*
D11*
X155140000Y-177850000D03*
X191860000Y-186420000D03*
D19*
X158233600Y-118307200D03*
D17*
X155693600Y-118307200D03*
D11*
X179000000Y-164000000D03*
D20*
X186203000Y-183736621D03*
D21*
X186203000Y-186236621D03*
D12*
X196246000Y-105290000D03*
X203509300Y-192100000D03*
D20*
X190627000Y-161671000D03*
D22*
X193167000Y-161671000D03*
X195707000Y-161671000D03*
X198247000Y-161671000D03*
X200787000Y-161671000D03*
X203327000Y-161671000D03*
X205867000Y-161671000D03*
X208407000Y-161671000D03*
X208407000Y-154051000D03*
X205867000Y-154051000D03*
X203327000Y-154051000D03*
X200787000Y-154051000D03*
X198247000Y-154051000D03*
X195707000Y-154051000D03*
X193167000Y-154051000D03*
X190627000Y-154051000D03*
D20*
X169998000Y-172194000D03*
D21*
X169998000Y-169694000D03*
D19*
X243323600Y-118307200D03*
D17*
X240783600Y-118307200D03*
D18*
X187775102Y-108697897D03*
D17*
X185979051Y-110493948D03*
D11*
X155803600Y-172186600D03*
D15*
X155803600Y-169646600D03*
X155803600Y-167106600D03*
X155803600Y-164566600D03*
X155803600Y-162026600D03*
D13*
X226725100Y-151299200D03*
X226725100Y-133299200D03*
D11*
X183300000Y-129130000D03*
D19*
X238243600Y-118307200D03*
D17*
X235703600Y-118307200D03*
D16*
X216875888Y-113878889D03*
D17*
X215079837Y-112082838D03*
D19*
X163313600Y-118307200D03*
D17*
X160773600Y-118307200D03*
D11*
X160430000Y-160120000D03*
%LPD*%
M02*
