%TF.GenerationSoftware,KiCad,Pcbnew,8.0.6*%
%TF.CreationDate,2025-03-26T21:52:28-07:00*%
%TF.ProjectId,rezq_rev3,72657a71-5f72-4657-9633-2e6b69636164,rev?*%
%TF.SameCoordinates,Original*%
%TF.FileFunction,Drillmap*%
%TF.FilePolarity,Positive*%
%FSLAX45Y45*%
G04 Gerber Fmt 4.5, Leading zero omitted, Abs format (unit mm)*
G04 Created by KiCad (PCBNEW 8.0.6) date 2025-03-26 21:52:28*
%MOMM*%
%LPD*%
G01*
G04 APERTURE LIST*
%ADD10C,0.200000*%
%ADD11C,0.218440*%
%ADD12C,0.220000*%
G04 APERTURE END LIST*
D10*
X24099110Y-15638720D02*
G75*
G02*
X24599110Y-16138720I0J-500000D01*
G01*
X15815360Y-18988720D02*
G75*
G02*
X15315360Y-18488720I0J500000D01*
G01*
X23219110Y-12838720D02*
X24099110Y-12838720D01*
X16695360Y-15638720D02*
X16695360Y-12838720D01*
X20730400Y-19414540D02*
G75*
G02*
X20461159Y-19518719I-269240J295820D01*
G01*
X15815360Y-15638720D02*
X16695360Y-15638720D01*
X24099110Y-15638720D02*
X23219110Y-15638720D01*
X20461159Y-19518720D02*
X19453310Y-19518720D01*
X18830678Y-19092900D02*
X19184582Y-19415006D01*
X15658008Y-10750565D02*
G75*
G02*
X24256462Y-10750565I4299227J-12967076D01*
G01*
X18561440Y-18988720D02*
X15815360Y-18988720D01*
X15315360Y-11225160D02*
G75*
G02*
X15658008Y-10750565I500000J0D01*
G01*
X21354396Y-18988720D02*
X24099110Y-18988720D01*
X16695360Y-12838720D02*
X15815360Y-12838720D01*
X24256462Y-10750565D02*
G75*
G02*
X24599110Y-11225160I-157352J-474595D01*
G01*
X15315360Y-16138720D02*
X15315360Y-18488720D01*
X21083787Y-19092905D02*
G75*
G02*
X21354396Y-18988723I269253J-295835D01*
G01*
X15315360Y-12338720D02*
X15315360Y-11225160D01*
X24599110Y-12338720D02*
G75*
G02*
X24099110Y-12838720I-500000J0D01*
G01*
X15815360Y-12838720D02*
G75*
G02*
X15315360Y-12338720I0J500000D01*
G01*
X24599110Y-12338720D02*
X24599110Y-11225160D01*
X24599110Y-18488720D02*
G75*
G02*
X24099110Y-18988720I-500000J0D01*
G01*
X20730400Y-19414540D02*
X21083787Y-19092905D01*
X15315360Y-16138720D02*
G75*
G02*
X15815360Y-15638720I500000J0D01*
G01*
X18561440Y-18988720D02*
G75*
G02*
X18830677Y-19092900I0J-399990D01*
G01*
X19453310Y-19518720D02*
G75*
G02*
X19184582Y-19415006I0J400000D01*
G01*
X23219110Y-15638720D02*
X23219110Y-12838720D01*
X24599110Y-18488720D02*
X24599110Y-16138720D01*
D11*
X17129540Y-13220700D02*
X17347980Y-13439140D01*
X17347980Y-13220700D02*
X17129540Y-13439140D01*
X17129540Y-15020700D02*
X17347980Y-15239140D01*
X17347980Y-15020700D02*
X17129540Y-15239140D01*
X22563290Y-13220700D02*
X22781730Y-13439140D01*
X22781730Y-13220700D02*
X22563290Y-13439140D01*
X22563290Y-15020700D02*
X22781730Y-15239140D01*
X22781730Y-15020700D02*
X22563290Y-15239140D01*
D12*
X19673530Y-19210000D02*
G75*
G02*
X19453530Y-19210000I-110000J0D01*
G01*
X19453530Y-19210000D02*
G75*
G02*
X19673530Y-19210000I110000J0D01*
G01*
X19734600Y-10529000D02*
G75*
G02*
X19514600Y-10529000I-110000J0D01*
G01*
X19514600Y-10529000D02*
G75*
G02*
X19734600Y-10529000I110000J0D01*
G01*
X20460930Y-19210000D02*
G75*
G02*
X20240930Y-19210000I-110000J0D01*
G01*
X20240930Y-19210000D02*
G75*
G02*
X20460930Y-19210000I110000J0D01*
G01*
X20522000Y-10529000D02*
G75*
G02*
X20302000Y-10529000I-110000J0D01*
G01*
X20302000Y-10529000D02*
G75*
G02*
X20522000Y-10529000I110000J0D01*
G01*
D10*
X15566137Y-19840204D02*
X15566137Y-19640204D01*
X15566137Y-19640204D02*
X15613756Y-19640204D01*
X15613756Y-19640204D02*
X15642327Y-19649728D01*
X15642327Y-19649728D02*
X15661375Y-19668775D01*
X15661375Y-19668775D02*
X15670899Y-19687823D01*
X15670899Y-19687823D02*
X15680422Y-19725918D01*
X15680422Y-19725918D02*
X15680422Y-19754490D01*
X15680422Y-19754490D02*
X15670899Y-19792585D01*
X15670899Y-19792585D02*
X15661375Y-19811632D01*
X15661375Y-19811632D02*
X15642327Y-19830680D01*
X15642327Y-19830680D02*
X15613756Y-19840204D01*
X15613756Y-19840204D02*
X15566137Y-19840204D01*
X15766137Y-19840204D02*
X15766137Y-19706870D01*
X15766137Y-19744966D02*
X15775661Y-19725918D01*
X15775661Y-19725918D02*
X15785184Y-19716394D01*
X15785184Y-19716394D02*
X15804232Y-19706870D01*
X15804232Y-19706870D02*
X15823280Y-19706870D01*
X15889946Y-19840204D02*
X15889946Y-19706870D01*
X15889946Y-19640204D02*
X15880422Y-19649728D01*
X15880422Y-19649728D02*
X15889946Y-19659251D01*
X15889946Y-19659251D02*
X15899470Y-19649728D01*
X15899470Y-19649728D02*
X15889946Y-19640204D01*
X15889946Y-19640204D02*
X15889946Y-19659251D01*
X16013756Y-19840204D02*
X15994708Y-19830680D01*
X15994708Y-19830680D02*
X15985184Y-19811632D01*
X15985184Y-19811632D02*
X15985184Y-19640204D01*
X16118518Y-19840204D02*
X16099470Y-19830680D01*
X16099470Y-19830680D02*
X16089946Y-19811632D01*
X16089946Y-19811632D02*
X16089946Y-19640204D01*
X16347089Y-19840204D02*
X16347089Y-19640204D01*
X16347089Y-19640204D02*
X16413756Y-19783061D01*
X16413756Y-19783061D02*
X16480422Y-19640204D01*
X16480422Y-19640204D02*
X16480422Y-19840204D01*
X16661375Y-19840204D02*
X16661375Y-19735442D01*
X16661375Y-19735442D02*
X16651851Y-19716394D01*
X16651851Y-19716394D02*
X16632803Y-19706870D01*
X16632803Y-19706870D02*
X16594708Y-19706870D01*
X16594708Y-19706870D02*
X16575661Y-19716394D01*
X16661375Y-19830680D02*
X16642327Y-19840204D01*
X16642327Y-19840204D02*
X16594708Y-19840204D01*
X16594708Y-19840204D02*
X16575661Y-19830680D01*
X16575661Y-19830680D02*
X16566137Y-19811632D01*
X16566137Y-19811632D02*
X16566137Y-19792585D01*
X16566137Y-19792585D02*
X16575661Y-19773537D01*
X16575661Y-19773537D02*
X16594708Y-19764013D01*
X16594708Y-19764013D02*
X16642327Y-19764013D01*
X16642327Y-19764013D02*
X16661375Y-19754490D01*
X16756613Y-19706870D02*
X16756613Y-19906870D01*
X16756613Y-19716394D02*
X16775661Y-19706870D01*
X16775661Y-19706870D02*
X16813756Y-19706870D01*
X16813756Y-19706870D02*
X16832804Y-19716394D01*
X16832804Y-19716394D02*
X16842327Y-19725918D01*
X16842327Y-19725918D02*
X16851851Y-19744966D01*
X16851851Y-19744966D02*
X16851851Y-19802109D01*
X16851851Y-19802109D02*
X16842327Y-19821156D01*
X16842327Y-19821156D02*
X16832804Y-19830680D01*
X16832804Y-19830680D02*
X16813756Y-19840204D01*
X16813756Y-19840204D02*
X16775661Y-19840204D01*
X16775661Y-19840204D02*
X16756613Y-19830680D01*
X16937565Y-19821156D02*
X16947089Y-19830680D01*
X16947089Y-19830680D02*
X16937565Y-19840204D01*
X16937565Y-19840204D02*
X16928042Y-19830680D01*
X16928042Y-19830680D02*
X16937565Y-19821156D01*
X16937565Y-19821156D02*
X16937565Y-19840204D01*
X16937565Y-19716394D02*
X16947089Y-19725918D01*
X16947089Y-19725918D02*
X16937565Y-19735442D01*
X16937565Y-19735442D02*
X16928042Y-19725918D01*
X16928042Y-19725918D02*
X16937565Y-19716394D01*
X16937565Y-19716394D02*
X16937565Y-19735442D01*
X15105360Y-20068720D02*
X15305360Y-20268720D01*
X15305360Y-20068720D02*
X15105360Y-20268720D01*
X15556613Y-20079251D02*
X15566137Y-20069728D01*
X15566137Y-20069728D02*
X15585184Y-20060204D01*
X15585184Y-20060204D02*
X15632803Y-20060204D01*
X15632803Y-20060204D02*
X15651851Y-20069728D01*
X15651851Y-20069728D02*
X15661375Y-20079251D01*
X15661375Y-20079251D02*
X15670899Y-20098299D01*
X15670899Y-20098299D02*
X15670899Y-20117347D01*
X15670899Y-20117347D02*
X15661375Y-20145918D01*
X15661375Y-20145918D02*
X15547089Y-20260204D01*
X15547089Y-20260204D02*
X15670899Y-20260204D01*
X15756613Y-20241156D02*
X15766137Y-20250680D01*
X15766137Y-20250680D02*
X15756613Y-20260204D01*
X15756613Y-20260204D02*
X15747089Y-20250680D01*
X15747089Y-20250680D02*
X15756613Y-20241156D01*
X15756613Y-20241156D02*
X15756613Y-20260204D01*
X15956613Y-20260204D02*
X15842327Y-20260204D01*
X15899470Y-20260204D02*
X15899470Y-20060204D01*
X15899470Y-20060204D02*
X15880422Y-20088775D01*
X15880422Y-20088775D02*
X15861375Y-20107823D01*
X15861375Y-20107823D02*
X15842327Y-20117347D01*
X16070899Y-20145918D02*
X16051851Y-20136394D01*
X16051851Y-20136394D02*
X16042327Y-20126870D01*
X16042327Y-20126870D02*
X16032803Y-20107823D01*
X16032803Y-20107823D02*
X16032803Y-20098299D01*
X16032803Y-20098299D02*
X16042327Y-20079251D01*
X16042327Y-20079251D02*
X16051851Y-20069728D01*
X16051851Y-20069728D02*
X16070899Y-20060204D01*
X16070899Y-20060204D02*
X16108994Y-20060204D01*
X16108994Y-20060204D02*
X16128042Y-20069728D01*
X16128042Y-20069728D02*
X16137565Y-20079251D01*
X16137565Y-20079251D02*
X16147089Y-20098299D01*
X16147089Y-20098299D02*
X16147089Y-20107823D01*
X16147089Y-20107823D02*
X16137565Y-20126870D01*
X16137565Y-20126870D02*
X16128042Y-20136394D01*
X16128042Y-20136394D02*
X16108994Y-20145918D01*
X16108994Y-20145918D02*
X16070899Y-20145918D01*
X16070899Y-20145918D02*
X16051851Y-20155442D01*
X16051851Y-20155442D02*
X16042327Y-20164966D01*
X16042327Y-20164966D02*
X16032803Y-20184013D01*
X16032803Y-20184013D02*
X16032803Y-20222109D01*
X16032803Y-20222109D02*
X16042327Y-20241156D01*
X16042327Y-20241156D02*
X16051851Y-20250680D01*
X16051851Y-20250680D02*
X16070899Y-20260204D01*
X16070899Y-20260204D02*
X16108994Y-20260204D01*
X16108994Y-20260204D02*
X16128042Y-20250680D01*
X16128042Y-20250680D02*
X16137565Y-20241156D01*
X16137565Y-20241156D02*
X16147089Y-20222109D01*
X16147089Y-20222109D02*
X16147089Y-20184013D01*
X16147089Y-20184013D02*
X16137565Y-20164966D01*
X16137565Y-20164966D02*
X16128042Y-20155442D01*
X16128042Y-20155442D02*
X16108994Y-20145918D01*
X16318518Y-20126870D02*
X16318518Y-20260204D01*
X16270899Y-20050680D02*
X16223280Y-20193537D01*
X16223280Y-20193537D02*
X16347089Y-20193537D01*
X16423280Y-20260204D02*
X16423280Y-20126870D01*
X16423280Y-20145918D02*
X16432803Y-20136394D01*
X16432803Y-20136394D02*
X16451851Y-20126870D01*
X16451851Y-20126870D02*
X16480423Y-20126870D01*
X16480423Y-20126870D02*
X16499470Y-20136394D01*
X16499470Y-20136394D02*
X16508994Y-20155442D01*
X16508994Y-20155442D02*
X16508994Y-20260204D01*
X16508994Y-20155442D02*
X16518518Y-20136394D01*
X16518518Y-20136394D02*
X16537565Y-20126870D01*
X16537565Y-20126870D02*
X16566137Y-20126870D01*
X16566137Y-20126870D02*
X16585184Y-20136394D01*
X16585184Y-20136394D02*
X16594708Y-20155442D01*
X16594708Y-20155442D02*
X16594708Y-20260204D01*
X16689946Y-20260204D02*
X16689946Y-20126870D01*
X16689946Y-20145918D02*
X16699470Y-20136394D01*
X16699470Y-20136394D02*
X16718518Y-20126870D01*
X16718518Y-20126870D02*
X16747089Y-20126870D01*
X16747089Y-20126870D02*
X16766137Y-20136394D01*
X16766137Y-20136394D02*
X16775661Y-20155442D01*
X16775661Y-20155442D02*
X16775661Y-20260204D01*
X16775661Y-20155442D02*
X16785185Y-20136394D01*
X16785185Y-20136394D02*
X16804232Y-20126870D01*
X16804232Y-20126870D02*
X16832804Y-20126870D01*
X16832804Y-20126870D02*
X16851851Y-20136394D01*
X16851851Y-20136394D02*
X16861375Y-20155442D01*
X16861375Y-20155442D02*
X16861375Y-20260204D01*
X17251851Y-20050680D02*
X17080423Y-20307823D01*
X17508994Y-20060204D02*
X17528042Y-20060204D01*
X17528042Y-20060204D02*
X17547089Y-20069728D01*
X17547089Y-20069728D02*
X17556613Y-20079251D01*
X17556613Y-20079251D02*
X17566137Y-20098299D01*
X17566137Y-20098299D02*
X17575661Y-20136394D01*
X17575661Y-20136394D02*
X17575661Y-20184013D01*
X17575661Y-20184013D02*
X17566137Y-20222109D01*
X17566137Y-20222109D02*
X17556613Y-20241156D01*
X17556613Y-20241156D02*
X17547089Y-20250680D01*
X17547089Y-20250680D02*
X17528042Y-20260204D01*
X17528042Y-20260204D02*
X17508994Y-20260204D01*
X17508994Y-20260204D02*
X17489947Y-20250680D01*
X17489947Y-20250680D02*
X17480423Y-20241156D01*
X17480423Y-20241156D02*
X17470899Y-20222109D01*
X17470899Y-20222109D02*
X17461375Y-20184013D01*
X17461375Y-20184013D02*
X17461375Y-20136394D01*
X17461375Y-20136394D02*
X17470899Y-20098299D01*
X17470899Y-20098299D02*
X17480423Y-20079251D01*
X17480423Y-20079251D02*
X17489947Y-20069728D01*
X17489947Y-20069728D02*
X17508994Y-20060204D01*
X17661375Y-20241156D02*
X17670899Y-20250680D01*
X17670899Y-20250680D02*
X17661375Y-20260204D01*
X17661375Y-20260204D02*
X17651851Y-20250680D01*
X17651851Y-20250680D02*
X17661375Y-20241156D01*
X17661375Y-20241156D02*
X17661375Y-20260204D01*
X17794708Y-20060204D02*
X17813756Y-20060204D01*
X17813756Y-20060204D02*
X17832804Y-20069728D01*
X17832804Y-20069728D02*
X17842328Y-20079251D01*
X17842328Y-20079251D02*
X17851851Y-20098299D01*
X17851851Y-20098299D02*
X17861375Y-20136394D01*
X17861375Y-20136394D02*
X17861375Y-20184013D01*
X17861375Y-20184013D02*
X17851851Y-20222109D01*
X17851851Y-20222109D02*
X17842328Y-20241156D01*
X17842328Y-20241156D02*
X17832804Y-20250680D01*
X17832804Y-20250680D02*
X17813756Y-20260204D01*
X17813756Y-20260204D02*
X17794708Y-20260204D01*
X17794708Y-20260204D02*
X17775661Y-20250680D01*
X17775661Y-20250680D02*
X17766137Y-20241156D01*
X17766137Y-20241156D02*
X17756613Y-20222109D01*
X17756613Y-20222109D02*
X17747089Y-20184013D01*
X17747089Y-20184013D02*
X17747089Y-20136394D01*
X17747089Y-20136394D02*
X17756613Y-20098299D01*
X17756613Y-20098299D02*
X17766137Y-20079251D01*
X17766137Y-20079251D02*
X17775661Y-20069728D01*
X17775661Y-20069728D02*
X17794708Y-20060204D01*
X17975661Y-20145918D02*
X17956613Y-20136394D01*
X17956613Y-20136394D02*
X17947089Y-20126870D01*
X17947089Y-20126870D02*
X17937566Y-20107823D01*
X17937566Y-20107823D02*
X17937566Y-20098299D01*
X17937566Y-20098299D02*
X17947089Y-20079251D01*
X17947089Y-20079251D02*
X17956613Y-20069728D01*
X17956613Y-20069728D02*
X17975661Y-20060204D01*
X17975661Y-20060204D02*
X18013756Y-20060204D01*
X18013756Y-20060204D02*
X18032804Y-20069728D01*
X18032804Y-20069728D02*
X18042328Y-20079251D01*
X18042328Y-20079251D02*
X18051851Y-20098299D01*
X18051851Y-20098299D02*
X18051851Y-20107823D01*
X18051851Y-20107823D02*
X18042328Y-20126870D01*
X18042328Y-20126870D02*
X18032804Y-20136394D01*
X18032804Y-20136394D02*
X18013756Y-20145918D01*
X18013756Y-20145918D02*
X17975661Y-20145918D01*
X17975661Y-20145918D02*
X17956613Y-20155442D01*
X17956613Y-20155442D02*
X17947089Y-20164966D01*
X17947089Y-20164966D02*
X17937566Y-20184013D01*
X17937566Y-20184013D02*
X17937566Y-20222109D01*
X17937566Y-20222109D02*
X17947089Y-20241156D01*
X17947089Y-20241156D02*
X17956613Y-20250680D01*
X17956613Y-20250680D02*
X17975661Y-20260204D01*
X17975661Y-20260204D02*
X18013756Y-20260204D01*
X18013756Y-20260204D02*
X18032804Y-20250680D01*
X18032804Y-20250680D02*
X18042328Y-20241156D01*
X18042328Y-20241156D02*
X18051851Y-20222109D01*
X18051851Y-20222109D02*
X18051851Y-20184013D01*
X18051851Y-20184013D02*
X18042328Y-20164966D01*
X18042328Y-20164966D02*
X18032804Y-20155442D01*
X18032804Y-20155442D02*
X18013756Y-20145918D01*
X18223280Y-20060204D02*
X18185185Y-20060204D01*
X18185185Y-20060204D02*
X18166137Y-20069728D01*
X18166137Y-20069728D02*
X18156613Y-20079251D01*
X18156613Y-20079251D02*
X18137566Y-20107823D01*
X18137566Y-20107823D02*
X18128042Y-20145918D01*
X18128042Y-20145918D02*
X18128042Y-20222109D01*
X18128042Y-20222109D02*
X18137566Y-20241156D01*
X18137566Y-20241156D02*
X18147089Y-20250680D01*
X18147089Y-20250680D02*
X18166137Y-20260204D01*
X18166137Y-20260204D02*
X18204232Y-20260204D01*
X18204232Y-20260204D02*
X18223280Y-20250680D01*
X18223280Y-20250680D02*
X18232804Y-20241156D01*
X18232804Y-20241156D02*
X18242328Y-20222109D01*
X18242328Y-20222109D02*
X18242328Y-20174490D01*
X18242328Y-20174490D02*
X18232804Y-20155442D01*
X18232804Y-20155442D02*
X18223280Y-20145918D01*
X18223280Y-20145918D02*
X18204232Y-20136394D01*
X18204232Y-20136394D02*
X18166137Y-20136394D01*
X18166137Y-20136394D02*
X18147089Y-20145918D01*
X18147089Y-20145918D02*
X18137566Y-20155442D01*
X18137566Y-20155442D02*
X18128042Y-20174490D01*
X18366137Y-20060204D02*
X18385185Y-20060204D01*
X18385185Y-20060204D02*
X18404232Y-20069728D01*
X18404232Y-20069728D02*
X18413756Y-20079251D01*
X18413756Y-20079251D02*
X18423280Y-20098299D01*
X18423280Y-20098299D02*
X18432804Y-20136394D01*
X18432804Y-20136394D02*
X18432804Y-20184013D01*
X18432804Y-20184013D02*
X18423280Y-20222109D01*
X18423280Y-20222109D02*
X18413756Y-20241156D01*
X18413756Y-20241156D02*
X18404232Y-20250680D01*
X18404232Y-20250680D02*
X18385185Y-20260204D01*
X18385185Y-20260204D02*
X18366137Y-20260204D01*
X18366137Y-20260204D02*
X18347089Y-20250680D01*
X18347089Y-20250680D02*
X18337566Y-20241156D01*
X18337566Y-20241156D02*
X18328042Y-20222109D01*
X18328042Y-20222109D02*
X18318518Y-20184013D01*
X18318518Y-20184013D02*
X18318518Y-20136394D01*
X18318518Y-20136394D02*
X18328042Y-20098299D01*
X18328042Y-20098299D02*
X18337566Y-20079251D01*
X18337566Y-20079251D02*
X18347089Y-20069728D01*
X18347089Y-20069728D02*
X18366137Y-20060204D01*
X18508994Y-20060204D02*
X18508994Y-20098299D01*
X18585185Y-20060204D02*
X18585185Y-20098299D01*
X18880423Y-20336394D02*
X18870899Y-20326870D01*
X18870899Y-20326870D02*
X18851851Y-20298299D01*
X18851851Y-20298299D02*
X18842328Y-20279251D01*
X18842328Y-20279251D02*
X18832804Y-20250680D01*
X18832804Y-20250680D02*
X18823280Y-20203061D01*
X18823280Y-20203061D02*
X18823280Y-20164966D01*
X18823280Y-20164966D02*
X18832804Y-20117347D01*
X18832804Y-20117347D02*
X18842328Y-20088775D01*
X18842328Y-20088775D02*
X18851851Y-20069728D01*
X18851851Y-20069728D02*
X18870899Y-20041156D01*
X18870899Y-20041156D02*
X18880423Y-20031632D01*
X19042328Y-20126870D02*
X19042328Y-20260204D01*
X18994709Y-20050680D02*
X18947090Y-20193537D01*
X18947090Y-20193537D02*
X19070899Y-20193537D01*
X19299471Y-20260204D02*
X19299471Y-20060204D01*
X19385185Y-20260204D02*
X19385185Y-20155442D01*
X19385185Y-20155442D02*
X19375661Y-20136394D01*
X19375661Y-20136394D02*
X19356613Y-20126870D01*
X19356613Y-20126870D02*
X19328042Y-20126870D01*
X19328042Y-20126870D02*
X19308994Y-20136394D01*
X19308994Y-20136394D02*
X19299471Y-20145918D01*
X19508994Y-20260204D02*
X19489947Y-20250680D01*
X19489947Y-20250680D02*
X19480423Y-20241156D01*
X19480423Y-20241156D02*
X19470899Y-20222109D01*
X19470899Y-20222109D02*
X19470899Y-20164966D01*
X19470899Y-20164966D02*
X19480423Y-20145918D01*
X19480423Y-20145918D02*
X19489947Y-20136394D01*
X19489947Y-20136394D02*
X19508994Y-20126870D01*
X19508994Y-20126870D02*
X19537566Y-20126870D01*
X19537566Y-20126870D02*
X19556613Y-20136394D01*
X19556613Y-20136394D02*
X19566137Y-20145918D01*
X19566137Y-20145918D02*
X19575661Y-20164966D01*
X19575661Y-20164966D02*
X19575661Y-20222109D01*
X19575661Y-20222109D02*
X19566137Y-20241156D01*
X19566137Y-20241156D02*
X19556613Y-20250680D01*
X19556613Y-20250680D02*
X19537566Y-20260204D01*
X19537566Y-20260204D02*
X19508994Y-20260204D01*
X19689947Y-20260204D02*
X19670899Y-20250680D01*
X19670899Y-20250680D02*
X19661375Y-20231632D01*
X19661375Y-20231632D02*
X19661375Y-20060204D01*
X19842328Y-20250680D02*
X19823280Y-20260204D01*
X19823280Y-20260204D02*
X19785185Y-20260204D01*
X19785185Y-20260204D02*
X19766137Y-20250680D01*
X19766137Y-20250680D02*
X19756613Y-20231632D01*
X19756613Y-20231632D02*
X19756613Y-20155442D01*
X19756613Y-20155442D02*
X19766137Y-20136394D01*
X19766137Y-20136394D02*
X19785185Y-20126870D01*
X19785185Y-20126870D02*
X19823280Y-20126870D01*
X19823280Y-20126870D02*
X19842328Y-20136394D01*
X19842328Y-20136394D02*
X19851852Y-20155442D01*
X19851852Y-20155442D02*
X19851852Y-20174490D01*
X19851852Y-20174490D02*
X19756613Y-20193537D01*
X19928042Y-20250680D02*
X19947090Y-20260204D01*
X19947090Y-20260204D02*
X19985185Y-20260204D01*
X19985185Y-20260204D02*
X20004233Y-20250680D01*
X20004233Y-20250680D02*
X20013756Y-20231632D01*
X20013756Y-20231632D02*
X20013756Y-20222109D01*
X20013756Y-20222109D02*
X20004233Y-20203061D01*
X20004233Y-20203061D02*
X19985185Y-20193537D01*
X19985185Y-20193537D02*
X19956613Y-20193537D01*
X19956613Y-20193537D02*
X19937566Y-20184013D01*
X19937566Y-20184013D02*
X19928042Y-20164966D01*
X19928042Y-20164966D02*
X19928042Y-20155442D01*
X19928042Y-20155442D02*
X19937566Y-20136394D01*
X19937566Y-20136394D02*
X19956613Y-20126870D01*
X19956613Y-20126870D02*
X19985185Y-20126870D01*
X19985185Y-20126870D02*
X20004233Y-20136394D01*
X20080423Y-20336394D02*
X20089947Y-20326870D01*
X20089947Y-20326870D02*
X20108994Y-20298299D01*
X20108994Y-20298299D02*
X20118518Y-20279251D01*
X20118518Y-20279251D02*
X20128042Y-20250680D01*
X20128042Y-20250680D02*
X20137566Y-20203061D01*
X20137566Y-20203061D02*
X20137566Y-20164966D01*
X20137566Y-20164966D02*
X20128042Y-20117347D01*
X20128042Y-20117347D02*
X20118518Y-20088775D01*
X20118518Y-20088775D02*
X20108994Y-20069728D01*
X20108994Y-20069728D02*
X20089947Y-20041156D01*
X20089947Y-20041156D02*
X20080423Y-20031632D01*
X20442328Y-20336394D02*
X20432804Y-20326870D01*
X20432804Y-20326870D02*
X20413756Y-20298299D01*
X20413756Y-20298299D02*
X20404233Y-20279251D01*
X20404233Y-20279251D02*
X20394709Y-20250680D01*
X20394709Y-20250680D02*
X20385185Y-20203061D01*
X20385185Y-20203061D02*
X20385185Y-20164966D01*
X20385185Y-20164966D02*
X20394709Y-20117347D01*
X20394709Y-20117347D02*
X20404233Y-20088775D01*
X20404233Y-20088775D02*
X20413756Y-20069728D01*
X20413756Y-20069728D02*
X20432804Y-20041156D01*
X20432804Y-20041156D02*
X20442328Y-20031632D01*
X20518518Y-20126870D02*
X20518518Y-20260204D01*
X20518518Y-20145918D02*
X20528042Y-20136394D01*
X20528042Y-20136394D02*
X20547090Y-20126870D01*
X20547090Y-20126870D02*
X20575661Y-20126870D01*
X20575661Y-20126870D02*
X20594709Y-20136394D01*
X20594709Y-20136394D02*
X20604233Y-20155442D01*
X20604233Y-20155442D02*
X20604233Y-20260204D01*
X20728042Y-20260204D02*
X20708994Y-20250680D01*
X20708994Y-20250680D02*
X20699471Y-20241156D01*
X20699471Y-20241156D02*
X20689947Y-20222109D01*
X20689947Y-20222109D02*
X20689947Y-20164966D01*
X20689947Y-20164966D02*
X20699471Y-20145918D01*
X20699471Y-20145918D02*
X20708994Y-20136394D01*
X20708994Y-20136394D02*
X20728042Y-20126870D01*
X20728042Y-20126870D02*
X20756614Y-20126870D01*
X20756614Y-20126870D02*
X20775661Y-20136394D01*
X20775661Y-20136394D02*
X20785185Y-20145918D01*
X20785185Y-20145918D02*
X20794709Y-20164966D01*
X20794709Y-20164966D02*
X20794709Y-20222109D01*
X20794709Y-20222109D02*
X20785185Y-20241156D01*
X20785185Y-20241156D02*
X20775661Y-20250680D01*
X20775661Y-20250680D02*
X20756614Y-20260204D01*
X20756614Y-20260204D02*
X20728042Y-20260204D01*
X20851852Y-20126870D02*
X20928042Y-20126870D01*
X20880423Y-20060204D02*
X20880423Y-20231632D01*
X20880423Y-20231632D02*
X20889947Y-20250680D01*
X20889947Y-20250680D02*
X20908994Y-20260204D01*
X20908994Y-20260204D02*
X20928042Y-20260204D01*
X21147090Y-20126870D02*
X21147090Y-20326870D01*
X21147090Y-20136394D02*
X21166137Y-20126870D01*
X21166137Y-20126870D02*
X21204233Y-20126870D01*
X21204233Y-20126870D02*
X21223280Y-20136394D01*
X21223280Y-20136394D02*
X21232804Y-20145918D01*
X21232804Y-20145918D02*
X21242328Y-20164966D01*
X21242328Y-20164966D02*
X21242328Y-20222109D01*
X21242328Y-20222109D02*
X21232804Y-20241156D01*
X21232804Y-20241156D02*
X21223280Y-20250680D01*
X21223280Y-20250680D02*
X21204233Y-20260204D01*
X21204233Y-20260204D02*
X21166137Y-20260204D01*
X21166137Y-20260204D02*
X21147090Y-20250680D01*
X21356614Y-20260204D02*
X21337566Y-20250680D01*
X21337566Y-20250680D02*
X21328042Y-20231632D01*
X21328042Y-20231632D02*
X21328042Y-20060204D01*
X21518518Y-20260204D02*
X21518518Y-20155442D01*
X21518518Y-20155442D02*
X21508995Y-20136394D01*
X21508995Y-20136394D02*
X21489947Y-20126870D01*
X21489947Y-20126870D02*
X21451852Y-20126870D01*
X21451852Y-20126870D02*
X21432804Y-20136394D01*
X21518518Y-20250680D02*
X21499471Y-20260204D01*
X21499471Y-20260204D02*
X21451852Y-20260204D01*
X21451852Y-20260204D02*
X21432804Y-20250680D01*
X21432804Y-20250680D02*
X21423280Y-20231632D01*
X21423280Y-20231632D02*
X21423280Y-20212585D01*
X21423280Y-20212585D02*
X21432804Y-20193537D01*
X21432804Y-20193537D02*
X21451852Y-20184013D01*
X21451852Y-20184013D02*
X21499471Y-20184013D01*
X21499471Y-20184013D02*
X21518518Y-20174490D01*
X21585185Y-20126870D02*
X21661375Y-20126870D01*
X21613756Y-20060204D02*
X21613756Y-20231632D01*
X21613756Y-20231632D02*
X21623280Y-20250680D01*
X21623280Y-20250680D02*
X21642328Y-20260204D01*
X21642328Y-20260204D02*
X21661375Y-20260204D01*
X21804233Y-20250680D02*
X21785185Y-20260204D01*
X21785185Y-20260204D02*
X21747090Y-20260204D01*
X21747090Y-20260204D02*
X21728042Y-20250680D01*
X21728042Y-20250680D02*
X21718518Y-20231632D01*
X21718518Y-20231632D02*
X21718518Y-20155442D01*
X21718518Y-20155442D02*
X21728042Y-20136394D01*
X21728042Y-20136394D02*
X21747090Y-20126870D01*
X21747090Y-20126870D02*
X21785185Y-20126870D01*
X21785185Y-20126870D02*
X21804233Y-20136394D01*
X21804233Y-20136394D02*
X21813756Y-20155442D01*
X21813756Y-20155442D02*
X21813756Y-20174490D01*
X21813756Y-20174490D02*
X21718518Y-20193537D01*
X21985185Y-20260204D02*
X21985185Y-20060204D01*
X21985185Y-20250680D02*
X21966137Y-20260204D01*
X21966137Y-20260204D02*
X21928042Y-20260204D01*
X21928042Y-20260204D02*
X21908995Y-20250680D01*
X21908995Y-20250680D02*
X21899471Y-20241156D01*
X21899471Y-20241156D02*
X21889947Y-20222109D01*
X21889947Y-20222109D02*
X21889947Y-20164966D01*
X21889947Y-20164966D02*
X21899471Y-20145918D01*
X21899471Y-20145918D02*
X21908995Y-20136394D01*
X21908995Y-20136394D02*
X21928042Y-20126870D01*
X21928042Y-20126870D02*
X21966137Y-20126870D01*
X21966137Y-20126870D02*
X21985185Y-20136394D01*
X22061376Y-20336394D02*
X22070899Y-20326870D01*
X22070899Y-20326870D02*
X22089947Y-20298299D01*
X22089947Y-20298299D02*
X22099471Y-20279251D01*
X22099471Y-20279251D02*
X22108995Y-20250680D01*
X22108995Y-20250680D02*
X22118518Y-20203061D01*
X22118518Y-20203061D02*
X22118518Y-20164966D01*
X22118518Y-20164966D02*
X22108995Y-20117347D01*
X22108995Y-20117347D02*
X22099471Y-20088775D01*
X22099471Y-20088775D02*
X22089947Y-20069728D01*
X22089947Y-20069728D02*
X22070899Y-20041156D01*
X22070899Y-20041156D02*
X22061376Y-20031632D01*
X15305360Y-20488720D02*
G75*
G02*
X15105360Y-20488720I-100000J0D01*
G01*
X15105360Y-20488720D02*
G75*
G02*
X15305360Y-20488720I100000J0D01*
G01*
X15556613Y-20399251D02*
X15566137Y-20389728D01*
X15566137Y-20389728D02*
X15585184Y-20380204D01*
X15585184Y-20380204D02*
X15632803Y-20380204D01*
X15632803Y-20380204D02*
X15651851Y-20389728D01*
X15651851Y-20389728D02*
X15661375Y-20399251D01*
X15661375Y-20399251D02*
X15670899Y-20418299D01*
X15670899Y-20418299D02*
X15670899Y-20437347D01*
X15670899Y-20437347D02*
X15661375Y-20465918D01*
X15661375Y-20465918D02*
X15547089Y-20580204D01*
X15547089Y-20580204D02*
X15670899Y-20580204D01*
X15756613Y-20561156D02*
X15766137Y-20570680D01*
X15766137Y-20570680D02*
X15756613Y-20580204D01*
X15756613Y-20580204D02*
X15747089Y-20570680D01*
X15747089Y-20570680D02*
X15756613Y-20561156D01*
X15756613Y-20561156D02*
X15756613Y-20580204D01*
X15842327Y-20399251D02*
X15851851Y-20389728D01*
X15851851Y-20389728D02*
X15870899Y-20380204D01*
X15870899Y-20380204D02*
X15918518Y-20380204D01*
X15918518Y-20380204D02*
X15937565Y-20389728D01*
X15937565Y-20389728D02*
X15947089Y-20399251D01*
X15947089Y-20399251D02*
X15956613Y-20418299D01*
X15956613Y-20418299D02*
X15956613Y-20437347D01*
X15956613Y-20437347D02*
X15947089Y-20465918D01*
X15947089Y-20465918D02*
X15832803Y-20580204D01*
X15832803Y-20580204D02*
X15956613Y-20580204D01*
X16080422Y-20380204D02*
X16099470Y-20380204D01*
X16099470Y-20380204D02*
X16118518Y-20389728D01*
X16118518Y-20389728D02*
X16128042Y-20399251D01*
X16128042Y-20399251D02*
X16137565Y-20418299D01*
X16137565Y-20418299D02*
X16147089Y-20456394D01*
X16147089Y-20456394D02*
X16147089Y-20504013D01*
X16147089Y-20504013D02*
X16137565Y-20542109D01*
X16137565Y-20542109D02*
X16128042Y-20561156D01*
X16128042Y-20561156D02*
X16118518Y-20570680D01*
X16118518Y-20570680D02*
X16099470Y-20580204D01*
X16099470Y-20580204D02*
X16080422Y-20580204D01*
X16080422Y-20580204D02*
X16061375Y-20570680D01*
X16061375Y-20570680D02*
X16051851Y-20561156D01*
X16051851Y-20561156D02*
X16042327Y-20542109D01*
X16042327Y-20542109D02*
X16032803Y-20504013D01*
X16032803Y-20504013D02*
X16032803Y-20456394D01*
X16032803Y-20456394D02*
X16042327Y-20418299D01*
X16042327Y-20418299D02*
X16051851Y-20399251D01*
X16051851Y-20399251D02*
X16061375Y-20389728D01*
X16061375Y-20389728D02*
X16080422Y-20380204D01*
X16270899Y-20380204D02*
X16289946Y-20380204D01*
X16289946Y-20380204D02*
X16308994Y-20389728D01*
X16308994Y-20389728D02*
X16318518Y-20399251D01*
X16318518Y-20399251D02*
X16328042Y-20418299D01*
X16328042Y-20418299D02*
X16337565Y-20456394D01*
X16337565Y-20456394D02*
X16337565Y-20504013D01*
X16337565Y-20504013D02*
X16328042Y-20542109D01*
X16328042Y-20542109D02*
X16318518Y-20561156D01*
X16318518Y-20561156D02*
X16308994Y-20570680D01*
X16308994Y-20570680D02*
X16289946Y-20580204D01*
X16289946Y-20580204D02*
X16270899Y-20580204D01*
X16270899Y-20580204D02*
X16251851Y-20570680D01*
X16251851Y-20570680D02*
X16242327Y-20561156D01*
X16242327Y-20561156D02*
X16232803Y-20542109D01*
X16232803Y-20542109D02*
X16223280Y-20504013D01*
X16223280Y-20504013D02*
X16223280Y-20456394D01*
X16223280Y-20456394D02*
X16232803Y-20418299D01*
X16232803Y-20418299D02*
X16242327Y-20399251D01*
X16242327Y-20399251D02*
X16251851Y-20389728D01*
X16251851Y-20389728D02*
X16270899Y-20380204D01*
X16423280Y-20580204D02*
X16423280Y-20446870D01*
X16423280Y-20465918D02*
X16432803Y-20456394D01*
X16432803Y-20456394D02*
X16451851Y-20446870D01*
X16451851Y-20446870D02*
X16480423Y-20446870D01*
X16480423Y-20446870D02*
X16499470Y-20456394D01*
X16499470Y-20456394D02*
X16508994Y-20475442D01*
X16508994Y-20475442D02*
X16508994Y-20580204D01*
X16508994Y-20475442D02*
X16518518Y-20456394D01*
X16518518Y-20456394D02*
X16537565Y-20446870D01*
X16537565Y-20446870D02*
X16566137Y-20446870D01*
X16566137Y-20446870D02*
X16585184Y-20456394D01*
X16585184Y-20456394D02*
X16594708Y-20475442D01*
X16594708Y-20475442D02*
X16594708Y-20580204D01*
X16689946Y-20580204D02*
X16689946Y-20446870D01*
X16689946Y-20465918D02*
X16699470Y-20456394D01*
X16699470Y-20456394D02*
X16718518Y-20446870D01*
X16718518Y-20446870D02*
X16747089Y-20446870D01*
X16747089Y-20446870D02*
X16766137Y-20456394D01*
X16766137Y-20456394D02*
X16775661Y-20475442D01*
X16775661Y-20475442D02*
X16775661Y-20580204D01*
X16775661Y-20475442D02*
X16785185Y-20456394D01*
X16785185Y-20456394D02*
X16804232Y-20446870D01*
X16804232Y-20446870D02*
X16832804Y-20446870D01*
X16832804Y-20446870D02*
X16851851Y-20456394D01*
X16851851Y-20456394D02*
X16861375Y-20475442D01*
X16861375Y-20475442D02*
X16861375Y-20580204D01*
X17251851Y-20370680D02*
X17080423Y-20627823D01*
X17508994Y-20380204D02*
X17528042Y-20380204D01*
X17528042Y-20380204D02*
X17547089Y-20389728D01*
X17547089Y-20389728D02*
X17556613Y-20399251D01*
X17556613Y-20399251D02*
X17566137Y-20418299D01*
X17566137Y-20418299D02*
X17575661Y-20456394D01*
X17575661Y-20456394D02*
X17575661Y-20504013D01*
X17575661Y-20504013D02*
X17566137Y-20542109D01*
X17566137Y-20542109D02*
X17556613Y-20561156D01*
X17556613Y-20561156D02*
X17547089Y-20570680D01*
X17547089Y-20570680D02*
X17528042Y-20580204D01*
X17528042Y-20580204D02*
X17508994Y-20580204D01*
X17508994Y-20580204D02*
X17489947Y-20570680D01*
X17489947Y-20570680D02*
X17480423Y-20561156D01*
X17480423Y-20561156D02*
X17470899Y-20542109D01*
X17470899Y-20542109D02*
X17461375Y-20504013D01*
X17461375Y-20504013D02*
X17461375Y-20456394D01*
X17461375Y-20456394D02*
X17470899Y-20418299D01*
X17470899Y-20418299D02*
X17480423Y-20399251D01*
X17480423Y-20399251D02*
X17489947Y-20389728D01*
X17489947Y-20389728D02*
X17508994Y-20380204D01*
X17661375Y-20561156D02*
X17670899Y-20570680D01*
X17670899Y-20570680D02*
X17661375Y-20580204D01*
X17661375Y-20580204D02*
X17651851Y-20570680D01*
X17651851Y-20570680D02*
X17661375Y-20561156D01*
X17661375Y-20561156D02*
X17661375Y-20580204D01*
X17794708Y-20380204D02*
X17813756Y-20380204D01*
X17813756Y-20380204D02*
X17832804Y-20389728D01*
X17832804Y-20389728D02*
X17842328Y-20399251D01*
X17842328Y-20399251D02*
X17851851Y-20418299D01*
X17851851Y-20418299D02*
X17861375Y-20456394D01*
X17861375Y-20456394D02*
X17861375Y-20504013D01*
X17861375Y-20504013D02*
X17851851Y-20542109D01*
X17851851Y-20542109D02*
X17842328Y-20561156D01*
X17842328Y-20561156D02*
X17832804Y-20570680D01*
X17832804Y-20570680D02*
X17813756Y-20580204D01*
X17813756Y-20580204D02*
X17794708Y-20580204D01*
X17794708Y-20580204D02*
X17775661Y-20570680D01*
X17775661Y-20570680D02*
X17766137Y-20561156D01*
X17766137Y-20561156D02*
X17756613Y-20542109D01*
X17756613Y-20542109D02*
X17747089Y-20504013D01*
X17747089Y-20504013D02*
X17747089Y-20456394D01*
X17747089Y-20456394D02*
X17756613Y-20418299D01*
X17756613Y-20418299D02*
X17766137Y-20399251D01*
X17766137Y-20399251D02*
X17775661Y-20389728D01*
X17775661Y-20389728D02*
X17794708Y-20380204D01*
X17975661Y-20465918D02*
X17956613Y-20456394D01*
X17956613Y-20456394D02*
X17947089Y-20446870D01*
X17947089Y-20446870D02*
X17937566Y-20427823D01*
X17937566Y-20427823D02*
X17937566Y-20418299D01*
X17937566Y-20418299D02*
X17947089Y-20399251D01*
X17947089Y-20399251D02*
X17956613Y-20389728D01*
X17956613Y-20389728D02*
X17975661Y-20380204D01*
X17975661Y-20380204D02*
X18013756Y-20380204D01*
X18013756Y-20380204D02*
X18032804Y-20389728D01*
X18032804Y-20389728D02*
X18042328Y-20399251D01*
X18042328Y-20399251D02*
X18051851Y-20418299D01*
X18051851Y-20418299D02*
X18051851Y-20427823D01*
X18051851Y-20427823D02*
X18042328Y-20446870D01*
X18042328Y-20446870D02*
X18032804Y-20456394D01*
X18032804Y-20456394D02*
X18013756Y-20465918D01*
X18013756Y-20465918D02*
X17975661Y-20465918D01*
X17975661Y-20465918D02*
X17956613Y-20475442D01*
X17956613Y-20475442D02*
X17947089Y-20484966D01*
X17947089Y-20484966D02*
X17937566Y-20504013D01*
X17937566Y-20504013D02*
X17937566Y-20542109D01*
X17937566Y-20542109D02*
X17947089Y-20561156D01*
X17947089Y-20561156D02*
X17956613Y-20570680D01*
X17956613Y-20570680D02*
X17975661Y-20580204D01*
X17975661Y-20580204D02*
X18013756Y-20580204D01*
X18013756Y-20580204D02*
X18032804Y-20570680D01*
X18032804Y-20570680D02*
X18042328Y-20561156D01*
X18042328Y-20561156D02*
X18051851Y-20542109D01*
X18051851Y-20542109D02*
X18051851Y-20504013D01*
X18051851Y-20504013D02*
X18042328Y-20484966D01*
X18042328Y-20484966D02*
X18032804Y-20475442D01*
X18032804Y-20475442D02*
X18013756Y-20465918D01*
X18223280Y-20380204D02*
X18185185Y-20380204D01*
X18185185Y-20380204D02*
X18166137Y-20389728D01*
X18166137Y-20389728D02*
X18156613Y-20399251D01*
X18156613Y-20399251D02*
X18137566Y-20427823D01*
X18137566Y-20427823D02*
X18128042Y-20465918D01*
X18128042Y-20465918D02*
X18128042Y-20542109D01*
X18128042Y-20542109D02*
X18137566Y-20561156D01*
X18137566Y-20561156D02*
X18147089Y-20570680D01*
X18147089Y-20570680D02*
X18166137Y-20580204D01*
X18166137Y-20580204D02*
X18204232Y-20580204D01*
X18204232Y-20580204D02*
X18223280Y-20570680D01*
X18223280Y-20570680D02*
X18232804Y-20561156D01*
X18232804Y-20561156D02*
X18242328Y-20542109D01*
X18242328Y-20542109D02*
X18242328Y-20494490D01*
X18242328Y-20494490D02*
X18232804Y-20475442D01*
X18232804Y-20475442D02*
X18223280Y-20465918D01*
X18223280Y-20465918D02*
X18204232Y-20456394D01*
X18204232Y-20456394D02*
X18166137Y-20456394D01*
X18166137Y-20456394D02*
X18147089Y-20465918D01*
X18147089Y-20465918D02*
X18137566Y-20475442D01*
X18137566Y-20475442D02*
X18128042Y-20494490D01*
X18413756Y-20380204D02*
X18375661Y-20380204D01*
X18375661Y-20380204D02*
X18356613Y-20389728D01*
X18356613Y-20389728D02*
X18347089Y-20399251D01*
X18347089Y-20399251D02*
X18328042Y-20427823D01*
X18328042Y-20427823D02*
X18318518Y-20465918D01*
X18318518Y-20465918D02*
X18318518Y-20542109D01*
X18318518Y-20542109D02*
X18328042Y-20561156D01*
X18328042Y-20561156D02*
X18337566Y-20570680D01*
X18337566Y-20570680D02*
X18356613Y-20580204D01*
X18356613Y-20580204D02*
X18394709Y-20580204D01*
X18394709Y-20580204D02*
X18413756Y-20570680D01*
X18413756Y-20570680D02*
X18423280Y-20561156D01*
X18423280Y-20561156D02*
X18432804Y-20542109D01*
X18432804Y-20542109D02*
X18432804Y-20494490D01*
X18432804Y-20494490D02*
X18423280Y-20475442D01*
X18423280Y-20475442D02*
X18413756Y-20465918D01*
X18413756Y-20465918D02*
X18394709Y-20456394D01*
X18394709Y-20456394D02*
X18356613Y-20456394D01*
X18356613Y-20456394D02*
X18337566Y-20465918D01*
X18337566Y-20465918D02*
X18328042Y-20475442D01*
X18328042Y-20475442D02*
X18318518Y-20494490D01*
X18508994Y-20380204D02*
X18508994Y-20418299D01*
X18585185Y-20380204D02*
X18585185Y-20418299D01*
X18880423Y-20656394D02*
X18870899Y-20646870D01*
X18870899Y-20646870D02*
X18851851Y-20618299D01*
X18851851Y-20618299D02*
X18842328Y-20599251D01*
X18842328Y-20599251D02*
X18832804Y-20570680D01*
X18832804Y-20570680D02*
X18823280Y-20523061D01*
X18823280Y-20523061D02*
X18823280Y-20484966D01*
X18823280Y-20484966D02*
X18832804Y-20437347D01*
X18832804Y-20437347D02*
X18842328Y-20408775D01*
X18842328Y-20408775D02*
X18851851Y-20389728D01*
X18851851Y-20389728D02*
X18870899Y-20361156D01*
X18870899Y-20361156D02*
X18880423Y-20351632D01*
X19042328Y-20446870D02*
X19042328Y-20580204D01*
X18994709Y-20370680D02*
X18947090Y-20513537D01*
X18947090Y-20513537D02*
X19070899Y-20513537D01*
X19299471Y-20580204D02*
X19299471Y-20380204D01*
X19385185Y-20580204D02*
X19385185Y-20475442D01*
X19385185Y-20475442D02*
X19375661Y-20456394D01*
X19375661Y-20456394D02*
X19356613Y-20446870D01*
X19356613Y-20446870D02*
X19328042Y-20446870D01*
X19328042Y-20446870D02*
X19308994Y-20456394D01*
X19308994Y-20456394D02*
X19299471Y-20465918D01*
X19508994Y-20580204D02*
X19489947Y-20570680D01*
X19489947Y-20570680D02*
X19480423Y-20561156D01*
X19480423Y-20561156D02*
X19470899Y-20542109D01*
X19470899Y-20542109D02*
X19470899Y-20484966D01*
X19470899Y-20484966D02*
X19480423Y-20465918D01*
X19480423Y-20465918D02*
X19489947Y-20456394D01*
X19489947Y-20456394D02*
X19508994Y-20446870D01*
X19508994Y-20446870D02*
X19537566Y-20446870D01*
X19537566Y-20446870D02*
X19556613Y-20456394D01*
X19556613Y-20456394D02*
X19566137Y-20465918D01*
X19566137Y-20465918D02*
X19575661Y-20484966D01*
X19575661Y-20484966D02*
X19575661Y-20542109D01*
X19575661Y-20542109D02*
X19566137Y-20561156D01*
X19566137Y-20561156D02*
X19556613Y-20570680D01*
X19556613Y-20570680D02*
X19537566Y-20580204D01*
X19537566Y-20580204D02*
X19508994Y-20580204D01*
X19689947Y-20580204D02*
X19670899Y-20570680D01*
X19670899Y-20570680D02*
X19661375Y-20551632D01*
X19661375Y-20551632D02*
X19661375Y-20380204D01*
X19842328Y-20570680D02*
X19823280Y-20580204D01*
X19823280Y-20580204D02*
X19785185Y-20580204D01*
X19785185Y-20580204D02*
X19766137Y-20570680D01*
X19766137Y-20570680D02*
X19756613Y-20551632D01*
X19756613Y-20551632D02*
X19756613Y-20475442D01*
X19756613Y-20475442D02*
X19766137Y-20456394D01*
X19766137Y-20456394D02*
X19785185Y-20446870D01*
X19785185Y-20446870D02*
X19823280Y-20446870D01*
X19823280Y-20446870D02*
X19842328Y-20456394D01*
X19842328Y-20456394D02*
X19851852Y-20475442D01*
X19851852Y-20475442D02*
X19851852Y-20494490D01*
X19851852Y-20494490D02*
X19756613Y-20513537D01*
X19928042Y-20570680D02*
X19947090Y-20580204D01*
X19947090Y-20580204D02*
X19985185Y-20580204D01*
X19985185Y-20580204D02*
X20004233Y-20570680D01*
X20004233Y-20570680D02*
X20013756Y-20551632D01*
X20013756Y-20551632D02*
X20013756Y-20542109D01*
X20013756Y-20542109D02*
X20004233Y-20523061D01*
X20004233Y-20523061D02*
X19985185Y-20513537D01*
X19985185Y-20513537D02*
X19956613Y-20513537D01*
X19956613Y-20513537D02*
X19937566Y-20504013D01*
X19937566Y-20504013D02*
X19928042Y-20484966D01*
X19928042Y-20484966D02*
X19928042Y-20475442D01*
X19928042Y-20475442D02*
X19937566Y-20456394D01*
X19937566Y-20456394D02*
X19956613Y-20446870D01*
X19956613Y-20446870D02*
X19985185Y-20446870D01*
X19985185Y-20446870D02*
X20004233Y-20456394D01*
X20080423Y-20656394D02*
X20089947Y-20646870D01*
X20089947Y-20646870D02*
X20108994Y-20618299D01*
X20108994Y-20618299D02*
X20118518Y-20599251D01*
X20118518Y-20599251D02*
X20128042Y-20570680D01*
X20128042Y-20570680D02*
X20137566Y-20523061D01*
X20137566Y-20523061D02*
X20137566Y-20484966D01*
X20137566Y-20484966D02*
X20128042Y-20437347D01*
X20128042Y-20437347D02*
X20118518Y-20408775D01*
X20118518Y-20408775D02*
X20108994Y-20389728D01*
X20108994Y-20389728D02*
X20089947Y-20361156D01*
X20089947Y-20361156D02*
X20080423Y-20351632D01*
X20442328Y-20656394D02*
X20432804Y-20646870D01*
X20432804Y-20646870D02*
X20413756Y-20618299D01*
X20413756Y-20618299D02*
X20404233Y-20599251D01*
X20404233Y-20599251D02*
X20394709Y-20570680D01*
X20394709Y-20570680D02*
X20385185Y-20523061D01*
X20385185Y-20523061D02*
X20385185Y-20484966D01*
X20385185Y-20484966D02*
X20394709Y-20437347D01*
X20394709Y-20437347D02*
X20404233Y-20408775D01*
X20404233Y-20408775D02*
X20413756Y-20389728D01*
X20413756Y-20389728D02*
X20432804Y-20361156D01*
X20432804Y-20361156D02*
X20442328Y-20351632D01*
X20518518Y-20446870D02*
X20518518Y-20580204D01*
X20518518Y-20465918D02*
X20528042Y-20456394D01*
X20528042Y-20456394D02*
X20547090Y-20446870D01*
X20547090Y-20446870D02*
X20575661Y-20446870D01*
X20575661Y-20446870D02*
X20594709Y-20456394D01*
X20594709Y-20456394D02*
X20604233Y-20475442D01*
X20604233Y-20475442D02*
X20604233Y-20580204D01*
X20728042Y-20580204D02*
X20708994Y-20570680D01*
X20708994Y-20570680D02*
X20699471Y-20561156D01*
X20699471Y-20561156D02*
X20689947Y-20542109D01*
X20689947Y-20542109D02*
X20689947Y-20484966D01*
X20689947Y-20484966D02*
X20699471Y-20465918D01*
X20699471Y-20465918D02*
X20708994Y-20456394D01*
X20708994Y-20456394D02*
X20728042Y-20446870D01*
X20728042Y-20446870D02*
X20756614Y-20446870D01*
X20756614Y-20446870D02*
X20775661Y-20456394D01*
X20775661Y-20456394D02*
X20785185Y-20465918D01*
X20785185Y-20465918D02*
X20794709Y-20484966D01*
X20794709Y-20484966D02*
X20794709Y-20542109D01*
X20794709Y-20542109D02*
X20785185Y-20561156D01*
X20785185Y-20561156D02*
X20775661Y-20570680D01*
X20775661Y-20570680D02*
X20756614Y-20580204D01*
X20756614Y-20580204D02*
X20728042Y-20580204D01*
X20851852Y-20446870D02*
X20928042Y-20446870D01*
X20880423Y-20380204D02*
X20880423Y-20551632D01*
X20880423Y-20551632D02*
X20889947Y-20570680D01*
X20889947Y-20570680D02*
X20908994Y-20580204D01*
X20908994Y-20580204D02*
X20928042Y-20580204D01*
X21147090Y-20446870D02*
X21147090Y-20646870D01*
X21147090Y-20456394D02*
X21166137Y-20446870D01*
X21166137Y-20446870D02*
X21204233Y-20446870D01*
X21204233Y-20446870D02*
X21223280Y-20456394D01*
X21223280Y-20456394D02*
X21232804Y-20465918D01*
X21232804Y-20465918D02*
X21242328Y-20484966D01*
X21242328Y-20484966D02*
X21242328Y-20542109D01*
X21242328Y-20542109D02*
X21232804Y-20561156D01*
X21232804Y-20561156D02*
X21223280Y-20570680D01*
X21223280Y-20570680D02*
X21204233Y-20580204D01*
X21204233Y-20580204D02*
X21166137Y-20580204D01*
X21166137Y-20580204D02*
X21147090Y-20570680D01*
X21356614Y-20580204D02*
X21337566Y-20570680D01*
X21337566Y-20570680D02*
X21328042Y-20551632D01*
X21328042Y-20551632D02*
X21328042Y-20380204D01*
X21518518Y-20580204D02*
X21518518Y-20475442D01*
X21518518Y-20475442D02*
X21508995Y-20456394D01*
X21508995Y-20456394D02*
X21489947Y-20446870D01*
X21489947Y-20446870D02*
X21451852Y-20446870D01*
X21451852Y-20446870D02*
X21432804Y-20456394D01*
X21518518Y-20570680D02*
X21499471Y-20580204D01*
X21499471Y-20580204D02*
X21451852Y-20580204D01*
X21451852Y-20580204D02*
X21432804Y-20570680D01*
X21432804Y-20570680D02*
X21423280Y-20551632D01*
X21423280Y-20551632D02*
X21423280Y-20532585D01*
X21423280Y-20532585D02*
X21432804Y-20513537D01*
X21432804Y-20513537D02*
X21451852Y-20504013D01*
X21451852Y-20504013D02*
X21499471Y-20504013D01*
X21499471Y-20504013D02*
X21518518Y-20494490D01*
X21585185Y-20446870D02*
X21661375Y-20446870D01*
X21613756Y-20380204D02*
X21613756Y-20551632D01*
X21613756Y-20551632D02*
X21623280Y-20570680D01*
X21623280Y-20570680D02*
X21642328Y-20580204D01*
X21642328Y-20580204D02*
X21661375Y-20580204D01*
X21804233Y-20570680D02*
X21785185Y-20580204D01*
X21785185Y-20580204D02*
X21747090Y-20580204D01*
X21747090Y-20580204D02*
X21728042Y-20570680D01*
X21728042Y-20570680D02*
X21718518Y-20551632D01*
X21718518Y-20551632D02*
X21718518Y-20475442D01*
X21718518Y-20475442D02*
X21728042Y-20456394D01*
X21728042Y-20456394D02*
X21747090Y-20446870D01*
X21747090Y-20446870D02*
X21785185Y-20446870D01*
X21785185Y-20446870D02*
X21804233Y-20456394D01*
X21804233Y-20456394D02*
X21813756Y-20475442D01*
X21813756Y-20475442D02*
X21813756Y-20494490D01*
X21813756Y-20494490D02*
X21718518Y-20513537D01*
X21985185Y-20580204D02*
X21985185Y-20380204D01*
X21985185Y-20570680D02*
X21966137Y-20580204D01*
X21966137Y-20580204D02*
X21928042Y-20580204D01*
X21928042Y-20580204D02*
X21908995Y-20570680D01*
X21908995Y-20570680D02*
X21899471Y-20561156D01*
X21899471Y-20561156D02*
X21889947Y-20542109D01*
X21889947Y-20542109D02*
X21889947Y-20484966D01*
X21889947Y-20484966D02*
X21899471Y-20465918D01*
X21899471Y-20465918D02*
X21908995Y-20456394D01*
X21908995Y-20456394D02*
X21928042Y-20446870D01*
X21928042Y-20446870D02*
X21966137Y-20446870D01*
X21966137Y-20446870D02*
X21985185Y-20456394D01*
X22061376Y-20656394D02*
X22070899Y-20646870D01*
X22070899Y-20646870D02*
X22089947Y-20618299D01*
X22089947Y-20618299D02*
X22099471Y-20599251D01*
X22099471Y-20599251D02*
X22108995Y-20570680D01*
X22108995Y-20570680D02*
X22118518Y-20523061D01*
X22118518Y-20523061D02*
X22118518Y-20484966D01*
X22118518Y-20484966D02*
X22108995Y-20437347D01*
X22108995Y-20437347D02*
X22099471Y-20408775D01*
X22099471Y-20408775D02*
X22089947Y-20389728D01*
X22089947Y-20389728D02*
X22070899Y-20361156D01*
X22070899Y-20361156D02*
X22061376Y-20351632D01*
M02*
