G04 #@! TF.GenerationSoftware,KiCad,Pcbnew,8.0.6*
G04 #@! TF.CreationDate,2025-01-13T14:26:02-08:00*
G04 #@! TF.ProjectId,rezq_rev2,72657a71-5f72-4657-9632-2e6b69636164,rev?*
G04 #@! TF.SameCoordinates,Original*
G04 #@! TF.FileFunction,Profile,NP*
%FSLAX46Y46*%
G04 Gerber Fmt 4.6, Leading zero omitted, Abs format (unit mm)*
G04 Created by KiCad (PCBNEW 8.0.6) date 2025-01-13 14:26:02*
%MOMM*%
%LPD*%
G01*
G04 APERTURE LIST*
G04 #@! TA.AperFunction,Profile*
%ADD10C,0.200000*%
G04 #@! TD*
G04 APERTURE END LIST*
D10*
X240991100Y-156387200D02*
G75*
G02*
X245991100Y-161387200I0J-5000000D01*
G01*
X158153600Y-189887200D02*
G75*
G02*
X153153600Y-184887200I0J5000000D01*
G01*
X232191100Y-128387200D02*
X240991100Y-128387200D01*
X166953600Y-156387200D02*
X166953600Y-128387200D01*
X207304001Y-194145396D02*
G75*
G02*
X204611591Y-195187193I-2692401J2958196D01*
G01*
X158153600Y-156387200D02*
X166953600Y-156387200D01*
X240991100Y-156387200D02*
X232191100Y-156387200D01*
X204611591Y-195187200D02*
X194533100Y-195187200D01*
X188306777Y-190928999D02*
X191845823Y-194150059D01*
X156580083Y-107505649D02*
G75*
G02*
X242564617Y-107505649I42992267J-129670761D01*
G01*
X185614400Y-189887200D02*
X158153600Y-189887200D01*
X153153600Y-112251600D02*
G75*
G02*
X156580083Y-107505650I5000000J0D01*
G01*
X213543964Y-189887200D02*
X240991100Y-189887200D01*
X166953600Y-128387200D02*
X158153600Y-128387200D01*
X242564617Y-107505649D02*
G75*
G02*
X245991101Y-112251600I-1573517J-4745951D01*
G01*
X153153600Y-161387200D02*
X153153600Y-184887200D01*
X210837868Y-190929049D02*
G75*
G02*
X213543964Y-189887227I2692532J-2958351D01*
G01*
X153153600Y-123387200D02*
X153153600Y-112251600D01*
X245991100Y-123387200D02*
G75*
G02*
X240991100Y-128387200I-5000000J0D01*
G01*
X158153600Y-128387200D02*
G75*
G02*
X153153600Y-123387200I0J5000000D01*
G01*
X245991100Y-123387200D02*
X245991100Y-112251600D01*
X245991100Y-184887200D02*
G75*
G02*
X240991100Y-189887200I-5000000J0D01*
G01*
X207304001Y-194145396D02*
X210837868Y-190929049D01*
X153153600Y-161387200D02*
G75*
G02*
X158153600Y-156387200I5000000J0D01*
G01*
X185614400Y-189887200D02*
G75*
G02*
X188306772Y-190929004I0J-3999900D01*
G01*
X194533100Y-195187200D02*
G75*
G02*
X191845822Y-194150060I0J4000000D01*
G01*
X232191100Y-156387200D02*
X232191100Y-128387200D01*
X245991100Y-184887200D02*
X245991100Y-161387200D01*
M02*
