M48
; DRILL file {KiCad 8.0.6} date 2025-01-13T14:25:41-0800
; FORMAT={-:-/ absolute / metric / decimal}
; #@! TF.CreationDate,2025-01-13T14:25:41-08:00
; #@! TF.GenerationSoftware,Kicad,Pcbnew,8.0.6
; #@! TF.FileFunction,MixedPlating,1,2
FMAT,2
METRIC
; #@! TA.AperFunction,Plated,PTH,ViaDrill
T1C0.400
; #@! TA.AperFunction,Plated,PTH,ViaDrill
T2C0.800
; #@! TA.AperFunction,Plated,PTH,ComponentDrill
T3C0.800
; #@! TA.AperFunction,Plated,PTH,ComponentDrill
T4C0.900
; #@! TA.AperFunction,Plated,PTH,ComponentDrill
T5C1.000
; #@! TA.AperFunction,Plated,PTH,ComponentDrill
T6C1.850
; #@! TA.AperFunction,NonPlated,NPTH,ComponentDrill
T7C2.184
; #@! TA.AperFunction,NonPlated,NPTH,ComponentDrill
T8C2.200
%
G90
G05
T1
X154.24Y-110.41
X157.531Y-174.981
X163.754Y-182.474
X164.36Y-109.59
X166.497Y-174.117
X173.609Y-117.983
X173.863Y-127.152
X175.971Y-177.165
X178.41Y-127.152
X178.63Y-107.01
X179.248Y-142.215
X179.248Y-151.105
X180.71Y-133.38
X182.57Y-126.57
X182.651Y-175.26
X183.05Y-123.9
X183.286Y-151.105
X183.515Y-142.215
X184.17Y-133.33
X188.163Y-143.408
X188.239Y-150.952
X188.33Y-133.46
X189.382Y-181.661
X190.05Y-106.26
X190.703Y-182.829
X191.05Y-125.14
X192.63Y-125.14
X194.64Y-178.13
X198.069Y-169.367
X200.183Y-106.162
X202.717Y-131.496
X205.359Y-120.523
X206.299Y-131.42
X206.299Y-134.645
X206.38Y-120.38
X207.66Y-119.26
X208.8Y-106.33
X209.35Y-174.55
X209.35Y-175.55
X209.35Y-176.55
X209.55Y-131.42
X209.601Y-134.645
X209.601Y-137.897
X210.845Y-180.848
X211.074Y-177.013
X212.725Y-117.983
X213.868Y-187.167
X215.49Y-120.0
X215.697Y-167.818
X217.11Y-174.93
X217.13Y-118.51
X217.881Y-155.524
X217.932Y-128.93
X217.932Y-132.385
X218.008Y-138.227
X218.362Y-168.25
X219.69Y-163.55
X219.7Y-161.987
X220.675Y-185.522
X220.675Y-187.122
X220.75Y-106.47
X221.818Y-170.688
X223.241Y-128.041
X223.317Y-143.205
X223.53Y-169.53
X224.384Y-165.75
X224.423Y-164.323
X225.73Y-143.256
X225.776Y-161.356
X225.845Y-162.283
X226.289Y-128.041
X226.325Y-187.175
X226.517Y-163.52
X226.527Y-164.491
X227.155Y-157.82
X227.55Y-170.6
X227.559Y-156.96
X227.9Y-169.55
X228.2Y-161.1
X228.22Y-178.99
X228.346Y-143.205
X228.473Y-128.118
X228.65Y-187.2
X228.655Y-157.82
X228.85Y-169.55
X228.9Y-155.76
X229.698Y-157.377
X230.531Y-156.965
X231.267Y-176.92
X231.57Y-152.27
X231.6Y-155.19
X232.53Y-184.81
X233.172Y-173.203
X233.77Y-162.81
X233.97Y-164.93
X234.087Y-168.25
X234.61Y-108.44
X234.675Y-177.55
X234.675Y-178.55
X235.25Y-120.95
X236.08Y-187.75
X236.474Y-162.165
X236.66Y-161.02
X236.93Y-125.89
X237.01Y-166.96
X237.13Y-168.51
X237.23Y-123.58
X239.33Y-177.68
X240.9Y-187.175
X242.283Y-159.659
X242.325Y-163.621
X242.334Y-167.482
X242.47Y-127.51
X242.697Y-185.191
X242.82Y-165.59
X242.85Y-171.475
X243.04Y-161.61
X245.01Y-114.69
X245.46Y-123.01
T2
X158.25Y-123.812
X161.45Y-165.975
X181.0Y-170.694
X183.033Y-120.027
X185.987Y-175.037
X192.786Y-175.5
X194.25Y-132.75
X194.25Y-160.75
X194.334Y-118.848
X201.195Y-180.65
X210.406Y-171.569
X211.963Y-116.078
X214.97Y-146.606
X216.05Y-169.85
X217.1Y-161.987
X218.564Y-120.105
X220.747Y-152.659
X220.75Y-123.08
X221.487Y-168.25
X230.962Y-168.25
X232.325Y-159.75
T3
X169.998Y-169.694
X169.998Y-172.194
X186.203Y-183.737
X186.203Y-186.237
X213.325Y-173.23
X213.325Y-180.85
X215.865Y-173.23
X215.865Y-180.85
X218.405Y-173.23
X218.405Y-180.85
X220.945Y-173.23
X220.945Y-180.85
X223.485Y-173.23
X223.485Y-180.85
X226.025Y-173.23
X226.025Y-180.85
X228.565Y-173.23
X228.565Y-180.85
X231.105Y-173.23
X231.105Y-180.85
T4
X155.694Y-118.307
X158.234Y-118.307
X160.774Y-118.307
X163.314Y-118.307
X182.387Y-114.086
X184.183Y-112.29
X185.979Y-110.494
X187.775Y-108.698
X196.4Y-158.9
X196.4Y-162.9
X211.564Y-108.567
X213.36Y-110.363
X215.08Y-112.083
X216.876Y-113.879
X235.704Y-118.307
X238.244Y-118.307
X240.784Y-118.307
X243.324Y-118.307
T5
X155.088Y-182.664
X155.088Y-185.204
X155.14Y-177.85
X155.804Y-162.027
X155.804Y-164.567
X155.804Y-167.107
X155.804Y-169.647
X155.804Y-172.187
X160.43Y-160.12
X183.3Y-129.13
X191.86Y-186.42
X195.7Y-186.42
X211.36Y-157.59
T6
X161.438Y-175.902
X161.438Y-180.728
X161.438Y-185.554
T7
X172.388Y-133.299
X172.388Y-151.299
X226.725Y-133.299
X226.725Y-151.299
T8
X195.635Y-192.1
X196.246Y-105.29
X203.509Y-192.1
X204.12Y-105.29
M30
