G04 #@! TF.GenerationSoftware,KiCad,Pcbnew,8.0.6*
G04 #@! TF.CreationDate,2025-01-13T14:26:01-08:00*
G04 #@! TF.ProjectId,rezq_rev2,72657a71-5f72-4657-9632-2e6b69636164,rev?*
G04 #@! TF.SameCoordinates,Original*
G04 #@! TF.FileFunction,Legend,Bot*
G04 #@! TF.FilePolarity,Positive*
%FSLAX46Y46*%
G04 Gerber Fmt 4.6, Leading zero omitted, Abs format (unit mm)*
G04 Created by KiCad (PCBNEW 8.0.6) date 2025-01-13 14:26:01*
%MOMM*%
%LPD*%
G01*
G04 APERTURE LIST*
G04 Aperture macros list*
%AMRoundRect*
0 Rectangle with rounded corners*
0 $1 Rounding radius*
0 $2 $3 $4 $5 $6 $7 $8 $9 X,Y pos of 4 corners*
0 Add a 4 corners polygon primitive as box body*
4,1,4,$2,$3,$4,$5,$6,$7,$8,$9,$2,$3,0*
0 Add four circle primitives for the rounded corners*
1,1,$1+$1,$2,$3*
1,1,$1+$1,$4,$5*
1,1,$1+$1,$6,$7*
1,1,$1+$1,$8,$9*
0 Add four rect primitives between the rounded corners*
20,1,$1+$1,$2,$3,$4,$5,0*
20,1,$1+$1,$4,$5,$6,$7,0*
20,1,$1+$1,$6,$7,$8,$9,0*
20,1,$1+$1,$8,$9,$2,$3,0*%
G04 Aperture macros list end*
%ADD10C,0.150000*%
%ADD11C,0.120000*%
%ADD12RoundRect,0.200000X-0.850000X-0.850000X0.850000X-0.850000X0.850000X0.850000X-0.850000X0.850000X0*%
%ADD13C,2.600000*%
%ADD14C,2.584400*%
%ADD15C,3.400000*%
%ADD16RoundRect,0.200000X0.850000X0.850000X-0.850000X0.850000X-0.850000X-0.850000X0.850000X-0.850000X0*%
%ADD17O,2.100000X2.100000*%
%ADD18RoundRect,0.200000X1.272792X0.000000X0.000000X1.272792X-1.272792X0.000000X0.000000X-1.272792X0*%
%ADD19C,2.200000*%
%ADD20RoundRect,0.200000X0.000000X1.272792X-1.272792X0.000000X0.000000X-1.272792X1.272792X0.000000X0*%
%ADD21RoundRect,0.200000X0.900000X0.900000X-0.900000X0.900000X-0.900000X-0.900000X0.900000X-0.900000X0*%
%ADD22RoundRect,0.200000X-0.800000X0.800000X-0.800000X-0.800000X0.800000X-0.800000X0.800000X0.800000X0*%
%ADD23C,2.000000*%
%ADD24RoundRect,0.200000X0.800000X-0.800000X0.800000X0.800000X-0.800000X0.800000X-0.800000X-0.800000X0*%
%ADD25O,2.000000X2.000000*%
%ADD26RoundRect,0.325471X-0.774529X0.537029X-0.774529X-0.537029X0.774529X-0.537029X0.774529X0.537029X0*%
%ADD27RoundRect,0.326924X0.523076X0.748076X-0.523076X0.748076X-0.523076X-0.748076X0.523076X-0.748076X0*%
%ADD28RoundRect,0.326924X-0.523076X-0.748076X0.523076X-0.748076X0.523076X0.748076X-0.523076X0.748076X0*%
%ADD29RoundRect,0.175000X-0.762500X-0.175000X0.762500X-0.175000X0.762500X0.175000X-0.762500X0.175000X0*%
%ADD30RoundRect,0.175000X-0.175000X-0.762500X0.175000X-0.762500X0.175000X0.762500X-0.175000X0.762500X0*%
%ADD31RoundRect,0.325471X-0.537029X-0.774529X0.537029X-0.774529X0.537029X0.774529X-0.537029X0.774529X0*%
%ADD32RoundRect,0.326924X0.748076X-0.523076X0.748076X0.523076X-0.748076X0.523076X-0.748076X-0.523076X0*%
%ADD33RoundRect,0.325471X0.537029X0.774529X-0.537029X0.774529X-0.537029X-0.774529X0.537029X-0.774529X0*%
%ADD34RoundRect,0.326924X-0.748076X0.523076X-0.748076X-0.523076X0.748076X-0.523076X0.748076X0.523076X0*%
G04 APERTURE END LIST*
D10*
X242791694Y-116984019D02*
X242791694Y-115984019D01*
X242791694Y-115984019D02*
X242553599Y-115984019D01*
X242553599Y-115984019D02*
X242410742Y-116031638D01*
X242410742Y-116031638D02*
X242315504Y-116126876D01*
X242315504Y-116126876D02*
X242267885Y-116222114D01*
X242267885Y-116222114D02*
X242220266Y-116412590D01*
X242220266Y-116412590D02*
X242220266Y-116555447D01*
X242220266Y-116555447D02*
X242267885Y-116745923D01*
X242267885Y-116745923D02*
X242315504Y-116841161D01*
X242315504Y-116841161D02*
X242410742Y-116936400D01*
X242410742Y-116936400D02*
X242553599Y-116984019D01*
X242553599Y-116984019D02*
X242791694Y-116984019D01*
X241601218Y-115984019D02*
X241505980Y-115984019D01*
X241505980Y-115984019D02*
X241410742Y-116031638D01*
X241410742Y-116031638D02*
X241363123Y-116079257D01*
X241363123Y-116079257D02*
X241315504Y-116174495D01*
X241315504Y-116174495D02*
X241267885Y-116364971D01*
X241267885Y-116364971D02*
X241267885Y-116603066D01*
X241267885Y-116603066D02*
X241315504Y-116793542D01*
X241315504Y-116793542D02*
X241363123Y-116888780D01*
X241363123Y-116888780D02*
X241410742Y-116936400D01*
X241410742Y-116936400D02*
X241505980Y-116984019D01*
X241505980Y-116984019D02*
X241601218Y-116984019D01*
X241601218Y-116984019D02*
X241696456Y-116936400D01*
X241696456Y-116936400D02*
X241744075Y-116888780D01*
X241744075Y-116888780D02*
X241791694Y-116793542D01*
X241791694Y-116793542D02*
X241839313Y-116603066D01*
X241839313Y-116603066D02*
X241839313Y-116364971D01*
X241839313Y-116364971D02*
X241791694Y-116174495D01*
X241791694Y-116174495D02*
X241744075Y-116079257D01*
X241744075Y-116079257D02*
X241696456Y-116031638D01*
X241696456Y-116031638D02*
X241601218Y-115984019D01*
X158892857Y-126109580D02*
X158940476Y-126157200D01*
X158940476Y-126157200D02*
X159083333Y-126204819D01*
X159083333Y-126204819D02*
X159178571Y-126204819D01*
X159178571Y-126204819D02*
X159321428Y-126157200D01*
X159321428Y-126157200D02*
X159416666Y-126061961D01*
X159416666Y-126061961D02*
X159464285Y-125966723D01*
X159464285Y-125966723D02*
X159511904Y-125776247D01*
X159511904Y-125776247D02*
X159511904Y-125633390D01*
X159511904Y-125633390D02*
X159464285Y-125442914D01*
X159464285Y-125442914D02*
X159416666Y-125347676D01*
X159416666Y-125347676D02*
X159321428Y-125252438D01*
X159321428Y-125252438D02*
X159178571Y-125204819D01*
X159178571Y-125204819D02*
X159083333Y-125204819D01*
X159083333Y-125204819D02*
X158940476Y-125252438D01*
X158940476Y-125252438D02*
X158892857Y-125300057D01*
X158511904Y-125300057D02*
X158464285Y-125252438D01*
X158464285Y-125252438D02*
X158369047Y-125204819D01*
X158369047Y-125204819D02*
X158130952Y-125204819D01*
X158130952Y-125204819D02*
X158035714Y-125252438D01*
X158035714Y-125252438D02*
X157988095Y-125300057D01*
X157988095Y-125300057D02*
X157940476Y-125395295D01*
X157940476Y-125395295D02*
X157940476Y-125490533D01*
X157940476Y-125490533D02*
X157988095Y-125633390D01*
X157988095Y-125633390D02*
X158559523Y-126204819D01*
X158559523Y-126204819D02*
X157940476Y-126204819D01*
X156988095Y-126204819D02*
X157559523Y-126204819D01*
X157273809Y-126204819D02*
X157273809Y-125204819D01*
X157273809Y-125204819D02*
X157369047Y-125347676D01*
X157369047Y-125347676D02*
X157464285Y-125442914D01*
X157464285Y-125442914D02*
X157559523Y-125490533D01*
X241485657Y-165955619D02*
X241818990Y-165479428D01*
X242057085Y-165955619D02*
X242057085Y-164955619D01*
X242057085Y-164955619D02*
X241676133Y-164955619D01*
X241676133Y-164955619D02*
X241580895Y-165003238D01*
X241580895Y-165003238D02*
X241533276Y-165050857D01*
X241533276Y-165050857D02*
X241485657Y-165146095D01*
X241485657Y-165146095D02*
X241485657Y-165288952D01*
X241485657Y-165288952D02*
X241533276Y-165384190D01*
X241533276Y-165384190D02*
X241580895Y-165431809D01*
X241580895Y-165431809D02*
X241676133Y-165479428D01*
X241676133Y-165479428D02*
X242057085Y-165479428D01*
X240533276Y-165955619D02*
X241104704Y-165955619D01*
X240818990Y-165955619D02*
X240818990Y-164955619D01*
X240818990Y-164955619D02*
X240914228Y-165098476D01*
X240914228Y-165098476D02*
X241009466Y-165193714D01*
X241009466Y-165193714D02*
X241104704Y-165241333D01*
X240057085Y-165955619D02*
X239866609Y-165955619D01*
X239866609Y-165955619D02*
X239771371Y-165908000D01*
X239771371Y-165908000D02*
X239723752Y-165860380D01*
X239723752Y-165860380D02*
X239628514Y-165717523D01*
X239628514Y-165717523D02*
X239580895Y-165527047D01*
X239580895Y-165527047D02*
X239580895Y-165146095D01*
X239580895Y-165146095D02*
X239628514Y-165050857D01*
X239628514Y-165050857D02*
X239676133Y-165003238D01*
X239676133Y-165003238D02*
X239771371Y-164955619D01*
X239771371Y-164955619D02*
X239961847Y-164955619D01*
X239961847Y-164955619D02*
X240057085Y-165003238D01*
X240057085Y-165003238D02*
X240104704Y-165050857D01*
X240104704Y-165050857D02*
X240152323Y-165146095D01*
X240152323Y-165146095D02*
X240152323Y-165384190D01*
X240152323Y-165384190D02*
X240104704Y-165479428D01*
X240104704Y-165479428D02*
X240057085Y-165527047D01*
X240057085Y-165527047D02*
X239961847Y-165574666D01*
X239961847Y-165574666D02*
X239771371Y-165574666D01*
X239771371Y-165574666D02*
X239676133Y-165527047D01*
X239676133Y-165527047D02*
X239628514Y-165479428D01*
X239628514Y-165479428D02*
X239580895Y-165384190D01*
X241393057Y-169867219D02*
X241726390Y-169391028D01*
X241964485Y-169867219D02*
X241964485Y-168867219D01*
X241964485Y-168867219D02*
X241583533Y-168867219D01*
X241583533Y-168867219D02*
X241488295Y-168914838D01*
X241488295Y-168914838D02*
X241440676Y-168962457D01*
X241440676Y-168962457D02*
X241393057Y-169057695D01*
X241393057Y-169057695D02*
X241393057Y-169200552D01*
X241393057Y-169200552D02*
X241440676Y-169295790D01*
X241440676Y-169295790D02*
X241488295Y-169343409D01*
X241488295Y-169343409D02*
X241583533Y-169391028D01*
X241583533Y-169391028D02*
X241964485Y-169391028D01*
X241012104Y-168962457D02*
X240964485Y-168914838D01*
X240964485Y-168914838D02*
X240869247Y-168867219D01*
X240869247Y-168867219D02*
X240631152Y-168867219D01*
X240631152Y-168867219D02*
X240535914Y-168914838D01*
X240535914Y-168914838D02*
X240488295Y-168962457D01*
X240488295Y-168962457D02*
X240440676Y-169057695D01*
X240440676Y-169057695D02*
X240440676Y-169152933D01*
X240440676Y-169152933D02*
X240488295Y-169295790D01*
X240488295Y-169295790D02*
X241059723Y-169867219D01*
X241059723Y-169867219D02*
X240440676Y-169867219D01*
X239821628Y-168867219D02*
X239726390Y-168867219D01*
X239726390Y-168867219D02*
X239631152Y-168914838D01*
X239631152Y-168914838D02*
X239583533Y-168962457D01*
X239583533Y-168962457D02*
X239535914Y-169057695D01*
X239535914Y-169057695D02*
X239488295Y-169248171D01*
X239488295Y-169248171D02*
X239488295Y-169486266D01*
X239488295Y-169486266D02*
X239535914Y-169676742D01*
X239535914Y-169676742D02*
X239583533Y-169771980D01*
X239583533Y-169771980D02*
X239631152Y-169819600D01*
X239631152Y-169819600D02*
X239726390Y-169867219D01*
X239726390Y-169867219D02*
X239821628Y-169867219D01*
X239821628Y-169867219D02*
X239916866Y-169819600D01*
X239916866Y-169819600D02*
X239964485Y-169771980D01*
X239964485Y-169771980D02*
X240012104Y-169676742D01*
X240012104Y-169676742D02*
X240059723Y-169486266D01*
X240059723Y-169486266D02*
X240059723Y-169248171D01*
X240059723Y-169248171D02*
X240012104Y-169057695D01*
X240012104Y-169057695D02*
X239964485Y-168962457D01*
X239964485Y-168962457D02*
X239916866Y-168914838D01*
X239916866Y-168914838D02*
X239821628Y-168867219D01*
X221166666Y-187804819D02*
X221499999Y-187328628D01*
X221738094Y-187804819D02*
X221738094Y-186804819D01*
X221738094Y-186804819D02*
X221357142Y-186804819D01*
X221357142Y-186804819D02*
X221261904Y-186852438D01*
X221261904Y-186852438D02*
X221214285Y-186900057D01*
X221214285Y-186900057D02*
X221166666Y-186995295D01*
X221166666Y-186995295D02*
X221166666Y-187138152D01*
X221166666Y-187138152D02*
X221214285Y-187233390D01*
X221214285Y-187233390D02*
X221261904Y-187281009D01*
X221261904Y-187281009D02*
X221357142Y-187328628D01*
X221357142Y-187328628D02*
X221738094Y-187328628D01*
X220690475Y-187804819D02*
X220499999Y-187804819D01*
X220499999Y-187804819D02*
X220404761Y-187757200D01*
X220404761Y-187757200D02*
X220357142Y-187709580D01*
X220357142Y-187709580D02*
X220261904Y-187566723D01*
X220261904Y-187566723D02*
X220214285Y-187376247D01*
X220214285Y-187376247D02*
X220214285Y-186995295D01*
X220214285Y-186995295D02*
X220261904Y-186900057D01*
X220261904Y-186900057D02*
X220309523Y-186852438D01*
X220309523Y-186852438D02*
X220404761Y-186804819D01*
X220404761Y-186804819D02*
X220595237Y-186804819D01*
X220595237Y-186804819D02*
X220690475Y-186852438D01*
X220690475Y-186852438D02*
X220738094Y-186900057D01*
X220738094Y-186900057D02*
X220785713Y-186995295D01*
X220785713Y-186995295D02*
X220785713Y-187233390D01*
X220785713Y-187233390D02*
X220738094Y-187328628D01*
X220738094Y-187328628D02*
X220690475Y-187376247D01*
X220690475Y-187376247D02*
X220595237Y-187423866D01*
X220595237Y-187423866D02*
X220404761Y-187423866D01*
X220404761Y-187423866D02*
X220309523Y-187376247D01*
X220309523Y-187376247D02*
X220261904Y-187328628D01*
X220261904Y-187328628D02*
X220214285Y-187233390D01*
X226986904Y-168554819D02*
X226986904Y-169364342D01*
X226986904Y-169364342D02*
X226939285Y-169459580D01*
X226939285Y-169459580D02*
X226891666Y-169507200D01*
X226891666Y-169507200D02*
X226796428Y-169554819D01*
X226796428Y-169554819D02*
X226605952Y-169554819D01*
X226605952Y-169554819D02*
X226510714Y-169507200D01*
X226510714Y-169507200D02*
X226463095Y-169459580D01*
X226463095Y-169459580D02*
X226415476Y-169364342D01*
X226415476Y-169364342D02*
X226415476Y-168554819D01*
X226034523Y-168554819D02*
X225367857Y-168554819D01*
X225367857Y-168554819D02*
X225796428Y-169554819D01*
X235642857Y-187804819D02*
X235976190Y-187328628D01*
X236214285Y-187804819D02*
X236214285Y-186804819D01*
X236214285Y-186804819D02*
X235833333Y-186804819D01*
X235833333Y-186804819D02*
X235738095Y-186852438D01*
X235738095Y-186852438D02*
X235690476Y-186900057D01*
X235690476Y-186900057D02*
X235642857Y-186995295D01*
X235642857Y-186995295D02*
X235642857Y-187138152D01*
X235642857Y-187138152D02*
X235690476Y-187233390D01*
X235690476Y-187233390D02*
X235738095Y-187281009D01*
X235738095Y-187281009D02*
X235833333Y-187328628D01*
X235833333Y-187328628D02*
X236214285Y-187328628D01*
X235261904Y-186900057D02*
X235214285Y-186852438D01*
X235214285Y-186852438D02*
X235119047Y-186804819D01*
X235119047Y-186804819D02*
X234880952Y-186804819D01*
X234880952Y-186804819D02*
X234785714Y-186852438D01*
X234785714Y-186852438D02*
X234738095Y-186900057D01*
X234738095Y-186900057D02*
X234690476Y-186995295D01*
X234690476Y-186995295D02*
X234690476Y-187090533D01*
X234690476Y-187090533D02*
X234738095Y-187233390D01*
X234738095Y-187233390D02*
X235309523Y-187804819D01*
X235309523Y-187804819D02*
X234690476Y-187804819D01*
X233833333Y-187138152D02*
X233833333Y-187804819D01*
X234071428Y-186757200D02*
X234309523Y-187471485D01*
X234309523Y-187471485D02*
X233690476Y-187471485D01*
X233167857Y-170459580D02*
X233215476Y-170507200D01*
X233215476Y-170507200D02*
X233358333Y-170554819D01*
X233358333Y-170554819D02*
X233453571Y-170554819D01*
X233453571Y-170554819D02*
X233596428Y-170507200D01*
X233596428Y-170507200D02*
X233691666Y-170411961D01*
X233691666Y-170411961D02*
X233739285Y-170316723D01*
X233739285Y-170316723D02*
X233786904Y-170126247D01*
X233786904Y-170126247D02*
X233786904Y-169983390D01*
X233786904Y-169983390D02*
X233739285Y-169792914D01*
X233739285Y-169792914D02*
X233691666Y-169697676D01*
X233691666Y-169697676D02*
X233596428Y-169602438D01*
X233596428Y-169602438D02*
X233453571Y-169554819D01*
X233453571Y-169554819D02*
X233358333Y-169554819D01*
X233358333Y-169554819D02*
X233215476Y-169602438D01*
X233215476Y-169602438D02*
X233167857Y-169650057D01*
X232786904Y-169650057D02*
X232739285Y-169602438D01*
X232739285Y-169602438D02*
X232644047Y-169554819D01*
X232644047Y-169554819D02*
X232405952Y-169554819D01*
X232405952Y-169554819D02*
X232310714Y-169602438D01*
X232310714Y-169602438D02*
X232263095Y-169650057D01*
X232263095Y-169650057D02*
X232215476Y-169745295D01*
X232215476Y-169745295D02*
X232215476Y-169840533D01*
X232215476Y-169840533D02*
X232263095Y-169983390D01*
X232263095Y-169983390D02*
X232834523Y-170554819D01*
X232834523Y-170554819D02*
X232215476Y-170554819D01*
X231834523Y-169650057D02*
X231786904Y-169602438D01*
X231786904Y-169602438D02*
X231691666Y-169554819D01*
X231691666Y-169554819D02*
X231453571Y-169554819D01*
X231453571Y-169554819D02*
X231358333Y-169602438D01*
X231358333Y-169602438D02*
X231310714Y-169650057D01*
X231310714Y-169650057D02*
X231263095Y-169745295D01*
X231263095Y-169745295D02*
X231263095Y-169840533D01*
X231263095Y-169840533D02*
X231310714Y-169983390D01*
X231310714Y-169983390D02*
X231882142Y-170554819D01*
X231882142Y-170554819D02*
X231263095Y-170554819D01*
X243441457Y-176728619D02*
X243774790Y-176252428D01*
X244012885Y-176728619D02*
X244012885Y-175728619D01*
X244012885Y-175728619D02*
X243631933Y-175728619D01*
X243631933Y-175728619D02*
X243536695Y-175776238D01*
X243536695Y-175776238D02*
X243489076Y-175823857D01*
X243489076Y-175823857D02*
X243441457Y-175919095D01*
X243441457Y-175919095D02*
X243441457Y-176061952D01*
X243441457Y-176061952D02*
X243489076Y-176157190D01*
X243489076Y-176157190D02*
X243536695Y-176204809D01*
X243536695Y-176204809D02*
X243631933Y-176252428D01*
X243631933Y-176252428D02*
X244012885Y-176252428D01*
X242489076Y-176728619D02*
X243060504Y-176728619D01*
X242774790Y-176728619D02*
X242774790Y-175728619D01*
X242774790Y-175728619D02*
X242870028Y-175871476D01*
X242870028Y-175871476D02*
X242965266Y-175966714D01*
X242965266Y-175966714D02*
X243060504Y-176014333D01*
X241536695Y-176728619D02*
X242108123Y-176728619D01*
X241822409Y-176728619D02*
X241822409Y-175728619D01*
X241822409Y-175728619D02*
X241917647Y-175871476D01*
X241917647Y-175871476D02*
X242012885Y-175966714D01*
X242012885Y-175966714D02*
X242108123Y-176014333D01*
X241342257Y-162145619D02*
X241675590Y-161669428D01*
X241913685Y-162145619D02*
X241913685Y-161145619D01*
X241913685Y-161145619D02*
X241532733Y-161145619D01*
X241532733Y-161145619D02*
X241437495Y-161193238D01*
X241437495Y-161193238D02*
X241389876Y-161240857D01*
X241389876Y-161240857D02*
X241342257Y-161336095D01*
X241342257Y-161336095D02*
X241342257Y-161478952D01*
X241342257Y-161478952D02*
X241389876Y-161574190D01*
X241389876Y-161574190D02*
X241437495Y-161621809D01*
X241437495Y-161621809D02*
X241532733Y-161669428D01*
X241532733Y-161669428D02*
X241913685Y-161669428D01*
X240961304Y-161240857D02*
X240913685Y-161193238D01*
X240913685Y-161193238D02*
X240818447Y-161145619D01*
X240818447Y-161145619D02*
X240580352Y-161145619D01*
X240580352Y-161145619D02*
X240485114Y-161193238D01*
X240485114Y-161193238D02*
X240437495Y-161240857D01*
X240437495Y-161240857D02*
X240389876Y-161336095D01*
X240389876Y-161336095D02*
X240389876Y-161431333D01*
X240389876Y-161431333D02*
X240437495Y-161574190D01*
X240437495Y-161574190D02*
X241008923Y-162145619D01*
X241008923Y-162145619D02*
X240389876Y-162145619D01*
X239437495Y-162145619D02*
X240008923Y-162145619D01*
X239723209Y-162145619D02*
X239723209Y-161145619D01*
X239723209Y-161145619D02*
X239818447Y-161288476D01*
X239818447Y-161288476D02*
X239913685Y-161383714D01*
X239913685Y-161383714D02*
X240008923Y-161431333D01*
X234667857Y-162009580D02*
X234715476Y-162057200D01*
X234715476Y-162057200D02*
X234858333Y-162104819D01*
X234858333Y-162104819D02*
X234953571Y-162104819D01*
X234953571Y-162104819D02*
X235096428Y-162057200D01*
X235096428Y-162057200D02*
X235191666Y-161961961D01*
X235191666Y-161961961D02*
X235239285Y-161866723D01*
X235239285Y-161866723D02*
X235286904Y-161676247D01*
X235286904Y-161676247D02*
X235286904Y-161533390D01*
X235286904Y-161533390D02*
X235239285Y-161342914D01*
X235239285Y-161342914D02*
X235191666Y-161247676D01*
X235191666Y-161247676D02*
X235096428Y-161152438D01*
X235096428Y-161152438D02*
X234953571Y-161104819D01*
X234953571Y-161104819D02*
X234858333Y-161104819D01*
X234858333Y-161104819D02*
X234715476Y-161152438D01*
X234715476Y-161152438D02*
X234667857Y-161200057D01*
X234286904Y-161200057D02*
X234239285Y-161152438D01*
X234239285Y-161152438D02*
X234144047Y-161104819D01*
X234144047Y-161104819D02*
X233905952Y-161104819D01*
X233905952Y-161104819D02*
X233810714Y-161152438D01*
X233810714Y-161152438D02*
X233763095Y-161200057D01*
X233763095Y-161200057D02*
X233715476Y-161295295D01*
X233715476Y-161295295D02*
X233715476Y-161390533D01*
X233715476Y-161390533D02*
X233763095Y-161533390D01*
X233763095Y-161533390D02*
X234334523Y-162104819D01*
X234334523Y-162104819D02*
X233715476Y-162104819D01*
X233382142Y-161104819D02*
X232763095Y-161104819D01*
X232763095Y-161104819D02*
X233096428Y-161485771D01*
X233096428Y-161485771D02*
X232953571Y-161485771D01*
X232953571Y-161485771D02*
X232858333Y-161533390D01*
X232858333Y-161533390D02*
X232810714Y-161581009D01*
X232810714Y-161581009D02*
X232763095Y-161676247D01*
X232763095Y-161676247D02*
X232763095Y-161914342D01*
X232763095Y-161914342D02*
X232810714Y-162009580D01*
X232810714Y-162009580D02*
X232858333Y-162057200D01*
X232858333Y-162057200D02*
X232953571Y-162104819D01*
X232953571Y-162104819D02*
X233239285Y-162104819D01*
X233239285Y-162104819D02*
X233334523Y-162057200D01*
X233334523Y-162057200D02*
X233382142Y-162009580D01*
X220091666Y-170509580D02*
X220139285Y-170557200D01*
X220139285Y-170557200D02*
X220282142Y-170604819D01*
X220282142Y-170604819D02*
X220377380Y-170604819D01*
X220377380Y-170604819D02*
X220520237Y-170557200D01*
X220520237Y-170557200D02*
X220615475Y-170461961D01*
X220615475Y-170461961D02*
X220663094Y-170366723D01*
X220663094Y-170366723D02*
X220710713Y-170176247D01*
X220710713Y-170176247D02*
X220710713Y-170033390D01*
X220710713Y-170033390D02*
X220663094Y-169842914D01*
X220663094Y-169842914D02*
X220615475Y-169747676D01*
X220615475Y-169747676D02*
X220520237Y-169652438D01*
X220520237Y-169652438D02*
X220377380Y-169604819D01*
X220377380Y-169604819D02*
X220282142Y-169604819D01*
X220282142Y-169604819D02*
X220139285Y-169652438D01*
X220139285Y-169652438D02*
X220091666Y-169700057D01*
X219186904Y-169604819D02*
X219663094Y-169604819D01*
X219663094Y-169604819D02*
X219710713Y-170081009D01*
X219710713Y-170081009D02*
X219663094Y-170033390D01*
X219663094Y-170033390D02*
X219567856Y-169985771D01*
X219567856Y-169985771D02*
X219329761Y-169985771D01*
X219329761Y-169985771D02*
X219234523Y-170033390D01*
X219234523Y-170033390D02*
X219186904Y-170081009D01*
X219186904Y-170081009D02*
X219139285Y-170176247D01*
X219139285Y-170176247D02*
X219139285Y-170414342D01*
X219139285Y-170414342D02*
X219186904Y-170509580D01*
X219186904Y-170509580D02*
X219234523Y-170557200D01*
X219234523Y-170557200D02*
X219329761Y-170604819D01*
X219329761Y-170604819D02*
X219567856Y-170604819D01*
X219567856Y-170604819D02*
X219663094Y-170557200D01*
X219663094Y-170557200D02*
X219710713Y-170509580D01*
X237116857Y-167428819D02*
X237450190Y-166952628D01*
X237688285Y-167428819D02*
X237688285Y-166428819D01*
X237688285Y-166428819D02*
X237307333Y-166428819D01*
X237307333Y-166428819D02*
X237212095Y-166476438D01*
X237212095Y-166476438D02*
X237164476Y-166524057D01*
X237164476Y-166524057D02*
X237116857Y-166619295D01*
X237116857Y-166619295D02*
X237116857Y-166762152D01*
X237116857Y-166762152D02*
X237164476Y-166857390D01*
X237164476Y-166857390D02*
X237212095Y-166905009D01*
X237212095Y-166905009D02*
X237307333Y-166952628D01*
X237307333Y-166952628D02*
X237688285Y-166952628D01*
X236735904Y-166524057D02*
X236688285Y-166476438D01*
X236688285Y-166476438D02*
X236593047Y-166428819D01*
X236593047Y-166428819D02*
X236354952Y-166428819D01*
X236354952Y-166428819D02*
X236259714Y-166476438D01*
X236259714Y-166476438D02*
X236212095Y-166524057D01*
X236212095Y-166524057D02*
X236164476Y-166619295D01*
X236164476Y-166619295D02*
X236164476Y-166714533D01*
X236164476Y-166714533D02*
X236212095Y-166857390D01*
X236212095Y-166857390D02*
X236783523Y-167428819D01*
X236783523Y-167428819D02*
X236164476Y-167428819D01*
X235307333Y-166428819D02*
X235497809Y-166428819D01*
X235497809Y-166428819D02*
X235593047Y-166476438D01*
X235593047Y-166476438D02*
X235640666Y-166524057D01*
X235640666Y-166524057D02*
X235735904Y-166666914D01*
X235735904Y-166666914D02*
X235783523Y-166857390D01*
X235783523Y-166857390D02*
X235783523Y-167238342D01*
X235783523Y-167238342D02*
X235735904Y-167333580D01*
X235735904Y-167333580D02*
X235688285Y-167381200D01*
X235688285Y-167381200D02*
X235593047Y-167428819D01*
X235593047Y-167428819D02*
X235402571Y-167428819D01*
X235402571Y-167428819D02*
X235307333Y-167381200D01*
X235307333Y-167381200D02*
X235259714Y-167333580D01*
X235259714Y-167333580D02*
X235212095Y-167238342D01*
X235212095Y-167238342D02*
X235212095Y-167000247D01*
X235212095Y-167000247D02*
X235259714Y-166905009D01*
X235259714Y-166905009D02*
X235307333Y-166857390D01*
X235307333Y-166857390D02*
X235402571Y-166809771D01*
X235402571Y-166809771D02*
X235593047Y-166809771D01*
X235593047Y-166809771D02*
X235688285Y-166857390D01*
X235688285Y-166857390D02*
X235735904Y-166905009D01*
X235735904Y-166905009D02*
X235783523Y-167000247D01*
X183675857Y-122418980D02*
X183723476Y-122466600D01*
X183723476Y-122466600D02*
X183866333Y-122514219D01*
X183866333Y-122514219D02*
X183961571Y-122514219D01*
X183961571Y-122514219D02*
X184104428Y-122466600D01*
X184104428Y-122466600D02*
X184199666Y-122371361D01*
X184199666Y-122371361D02*
X184247285Y-122276123D01*
X184247285Y-122276123D02*
X184294904Y-122085647D01*
X184294904Y-122085647D02*
X184294904Y-121942790D01*
X184294904Y-121942790D02*
X184247285Y-121752314D01*
X184247285Y-121752314D02*
X184199666Y-121657076D01*
X184199666Y-121657076D02*
X184104428Y-121561838D01*
X184104428Y-121561838D02*
X183961571Y-121514219D01*
X183961571Y-121514219D02*
X183866333Y-121514219D01*
X183866333Y-121514219D02*
X183723476Y-121561838D01*
X183723476Y-121561838D02*
X183675857Y-121609457D01*
X183294904Y-121609457D02*
X183247285Y-121561838D01*
X183247285Y-121561838D02*
X183152047Y-121514219D01*
X183152047Y-121514219D02*
X182913952Y-121514219D01*
X182913952Y-121514219D02*
X182818714Y-121561838D01*
X182818714Y-121561838D02*
X182771095Y-121609457D01*
X182771095Y-121609457D02*
X182723476Y-121704695D01*
X182723476Y-121704695D02*
X182723476Y-121799933D01*
X182723476Y-121799933D02*
X182771095Y-121942790D01*
X182771095Y-121942790D02*
X183342523Y-122514219D01*
X183342523Y-122514219D02*
X182723476Y-122514219D01*
X182104428Y-121514219D02*
X182009190Y-121514219D01*
X182009190Y-121514219D02*
X181913952Y-121561838D01*
X181913952Y-121561838D02*
X181866333Y-121609457D01*
X181866333Y-121609457D02*
X181818714Y-121704695D01*
X181818714Y-121704695D02*
X181771095Y-121895171D01*
X181771095Y-121895171D02*
X181771095Y-122133266D01*
X181771095Y-122133266D02*
X181818714Y-122323742D01*
X181818714Y-122323742D02*
X181866333Y-122418980D01*
X181866333Y-122418980D02*
X181913952Y-122466600D01*
X181913952Y-122466600D02*
X182009190Y-122514219D01*
X182009190Y-122514219D02*
X182104428Y-122514219D01*
X182104428Y-122514219D02*
X182199666Y-122466600D01*
X182199666Y-122466600D02*
X182247285Y-122418980D01*
X182247285Y-122418980D02*
X182294904Y-122323742D01*
X182294904Y-122323742D02*
X182342523Y-122133266D01*
X182342523Y-122133266D02*
X182342523Y-121895171D01*
X182342523Y-121895171D02*
X182294904Y-121704695D01*
X182294904Y-121704695D02*
X182247285Y-121609457D01*
X182247285Y-121609457D02*
X182199666Y-121561838D01*
X182199666Y-121561838D02*
X182104428Y-121514219D01*
X212986857Y-185621580D02*
X213034476Y-185669200D01*
X213034476Y-185669200D02*
X213177333Y-185716819D01*
X213177333Y-185716819D02*
X213272571Y-185716819D01*
X213272571Y-185716819D02*
X213415428Y-185669200D01*
X213415428Y-185669200D02*
X213510666Y-185573961D01*
X213510666Y-185573961D02*
X213558285Y-185478723D01*
X213558285Y-185478723D02*
X213605904Y-185288247D01*
X213605904Y-185288247D02*
X213605904Y-185145390D01*
X213605904Y-185145390D02*
X213558285Y-184954914D01*
X213558285Y-184954914D02*
X213510666Y-184859676D01*
X213510666Y-184859676D02*
X213415428Y-184764438D01*
X213415428Y-184764438D02*
X213272571Y-184716819D01*
X213272571Y-184716819D02*
X213177333Y-184716819D01*
X213177333Y-184716819D02*
X213034476Y-184764438D01*
X213034476Y-184764438D02*
X212986857Y-184812057D01*
X212034476Y-185716819D02*
X212605904Y-185716819D01*
X212320190Y-185716819D02*
X212320190Y-184716819D01*
X212320190Y-184716819D02*
X212415428Y-184859676D01*
X212415428Y-184859676D02*
X212510666Y-184954914D01*
X212510666Y-184954914D02*
X212605904Y-185002533D01*
X211558285Y-185716819D02*
X211367809Y-185716819D01*
X211367809Y-185716819D02*
X211272571Y-185669200D01*
X211272571Y-185669200D02*
X211224952Y-185621580D01*
X211224952Y-185621580D02*
X211129714Y-185478723D01*
X211129714Y-185478723D02*
X211082095Y-185288247D01*
X211082095Y-185288247D02*
X211082095Y-184907295D01*
X211082095Y-184907295D02*
X211129714Y-184812057D01*
X211129714Y-184812057D02*
X211177333Y-184764438D01*
X211177333Y-184764438D02*
X211272571Y-184716819D01*
X211272571Y-184716819D02*
X211463047Y-184716819D01*
X211463047Y-184716819D02*
X211558285Y-184764438D01*
X211558285Y-184764438D02*
X211605904Y-184812057D01*
X211605904Y-184812057D02*
X211653523Y-184907295D01*
X211653523Y-184907295D02*
X211653523Y-185145390D01*
X211653523Y-185145390D02*
X211605904Y-185240628D01*
X211605904Y-185240628D02*
X211558285Y-185288247D01*
X211558285Y-185288247D02*
X211463047Y-185335866D01*
X211463047Y-185335866D02*
X211272571Y-185335866D01*
X211272571Y-185335866D02*
X211177333Y-185288247D01*
X211177333Y-185288247D02*
X211129714Y-185240628D01*
X211129714Y-185240628D02*
X211082095Y-185145390D01*
X217206966Y-122299419D02*
X217540299Y-121823228D01*
X217778394Y-122299419D02*
X217778394Y-121299419D01*
X217778394Y-121299419D02*
X217397442Y-121299419D01*
X217397442Y-121299419D02*
X217302204Y-121347038D01*
X217302204Y-121347038D02*
X217254585Y-121394657D01*
X217254585Y-121394657D02*
X217206966Y-121489895D01*
X217206966Y-121489895D02*
X217206966Y-121632752D01*
X217206966Y-121632752D02*
X217254585Y-121727990D01*
X217254585Y-121727990D02*
X217302204Y-121775609D01*
X217302204Y-121775609D02*
X217397442Y-121823228D01*
X217397442Y-121823228D02*
X217778394Y-121823228D01*
X216826013Y-121394657D02*
X216778394Y-121347038D01*
X216778394Y-121347038D02*
X216683156Y-121299419D01*
X216683156Y-121299419D02*
X216445061Y-121299419D01*
X216445061Y-121299419D02*
X216349823Y-121347038D01*
X216349823Y-121347038D02*
X216302204Y-121394657D01*
X216302204Y-121394657D02*
X216254585Y-121489895D01*
X216254585Y-121489895D02*
X216254585Y-121585133D01*
X216254585Y-121585133D02*
X216302204Y-121727990D01*
X216302204Y-121727990D02*
X216873632Y-122299419D01*
X216873632Y-122299419D02*
X216254585Y-122299419D01*
X233328857Y-121206780D02*
X233376476Y-121254400D01*
X233376476Y-121254400D02*
X233519333Y-121302019D01*
X233519333Y-121302019D02*
X233614571Y-121302019D01*
X233614571Y-121302019D02*
X233757428Y-121254400D01*
X233757428Y-121254400D02*
X233852666Y-121159161D01*
X233852666Y-121159161D02*
X233900285Y-121063923D01*
X233900285Y-121063923D02*
X233947904Y-120873447D01*
X233947904Y-120873447D02*
X233947904Y-120730590D01*
X233947904Y-120730590D02*
X233900285Y-120540114D01*
X233900285Y-120540114D02*
X233852666Y-120444876D01*
X233852666Y-120444876D02*
X233757428Y-120349638D01*
X233757428Y-120349638D02*
X233614571Y-120302019D01*
X233614571Y-120302019D02*
X233519333Y-120302019D01*
X233519333Y-120302019D02*
X233376476Y-120349638D01*
X233376476Y-120349638D02*
X233328857Y-120397257D01*
X232376476Y-121302019D02*
X232947904Y-121302019D01*
X232662190Y-121302019D02*
X232662190Y-120302019D01*
X232662190Y-120302019D02*
X232757428Y-120444876D01*
X232757428Y-120444876D02*
X232852666Y-120540114D01*
X232852666Y-120540114D02*
X232947904Y-120587733D01*
X231471714Y-120302019D02*
X231947904Y-120302019D01*
X231947904Y-120302019D02*
X231995523Y-120778209D01*
X231995523Y-120778209D02*
X231947904Y-120730590D01*
X231947904Y-120730590D02*
X231852666Y-120682971D01*
X231852666Y-120682971D02*
X231614571Y-120682971D01*
X231614571Y-120682971D02*
X231519333Y-120730590D01*
X231519333Y-120730590D02*
X231471714Y-120778209D01*
X231471714Y-120778209D02*
X231424095Y-120873447D01*
X231424095Y-120873447D02*
X231424095Y-121111542D01*
X231424095Y-121111542D02*
X231471714Y-121206780D01*
X231471714Y-121206780D02*
X231519333Y-121254400D01*
X231519333Y-121254400D02*
X231614571Y-121302019D01*
X231614571Y-121302019D02*
X231852666Y-121302019D01*
X231852666Y-121302019D02*
X231947904Y-121254400D01*
X231947904Y-121254400D02*
X231995523Y-121206780D01*
D11*
X157340000Y-122961252D02*
X157340000Y-121538748D01*
X159160000Y-122961252D02*
X159160000Y-121538748D01*
X239963336Y-162711200D02*
X241417464Y-162711200D01*
X239963336Y-164531200D02*
X241417464Y-164531200D01*
X239972336Y-166572000D02*
X241426464Y-166572000D01*
X239972336Y-168392000D02*
X241426464Y-168392000D01*
X225478264Y-186282400D02*
X224024136Y-186282400D01*
X225478264Y-188102400D02*
X224024136Y-188102400D01*
X222615000Y-159640000D02*
X223065000Y-159640000D01*
X222615000Y-160090000D02*
X222615000Y-159640000D01*
X222615000Y-166410000D02*
X222615000Y-166860000D01*
X222615000Y-166860000D02*
X223065000Y-166860000D01*
X229835000Y-159640000D02*
X229385000Y-159640000D01*
X229835000Y-160090000D02*
X229835000Y-159640000D01*
X229835000Y-166410000D02*
X229835000Y-166860000D01*
X229835000Y-166860000D02*
X229385000Y-166860000D01*
X222365000Y-166880000D02*
X221685000Y-166880000D01*
X222025000Y-166410000D01*
X222365000Y-166880000D01*
G36*
X222365000Y-166880000D02*
G01*
X221685000Y-166880000D01*
X222025000Y-166410000D01*
X222365000Y-166880000D01*
G37*
X240041864Y-186282400D02*
X238587736Y-186282400D01*
X240041864Y-188102400D02*
X238587736Y-188102400D01*
X233236252Y-167340000D02*
X231813748Y-167340000D01*
X233236252Y-169160000D02*
X231813748Y-169160000D01*
X241939400Y-172320936D02*
X241939400Y-173775064D01*
X243759400Y-172320936D02*
X243759400Y-173775064D01*
X239921536Y-158748800D02*
X241375664Y-158748800D01*
X239921536Y-160568800D02*
X241375664Y-160568800D01*
X234736252Y-158840000D02*
X233313748Y-158840000D01*
X234736252Y-160660000D02*
X233313748Y-160660000D01*
X219213748Y-167340000D02*
X220636252Y-167340000D01*
X219213748Y-169160000D02*
X220636252Y-169160000D01*
X235564000Y-164526064D02*
X235564000Y-163071936D01*
X237384000Y-164526064D02*
X237384000Y-163071936D01*
X182123000Y-119214652D02*
X182123001Y-117792148D01*
X183942999Y-119214652D02*
X183943000Y-117792148D01*
X211632748Y-186257000D02*
X213055252Y-186257000D01*
X211632748Y-188077000D02*
X213055252Y-188077000D01*
X216313236Y-119156600D02*
X217767364Y-119156600D01*
X216313236Y-120976600D02*
X217767364Y-120976600D01*
X236038748Y-119937200D02*
X237461252Y-119937200D01*
X236038748Y-121757200D02*
X237461252Y-121757200D01*
%LPC*%
D12*
X195700000Y-186420000D03*
D13*
X195635300Y-192100000D03*
D14*
X172387600Y-133299200D03*
X172387600Y-151299200D03*
D15*
X161438000Y-185554000D03*
X161438000Y-180728000D03*
X161438000Y-175902000D03*
D16*
X155088000Y-185204000D03*
D17*
X155088000Y-182664000D03*
D18*
X213360000Y-110363000D03*
D19*
X211563949Y-108566949D03*
D20*
X184183000Y-112290000D03*
D19*
X182386949Y-114086051D03*
D13*
X204120000Y-105290000D03*
D12*
X155140000Y-177850000D03*
X191860000Y-186420000D03*
D21*
X158233600Y-118307200D03*
D19*
X155693600Y-118307200D03*
D12*
X211360000Y-157590000D03*
D22*
X186203000Y-183736621D03*
D23*
X186203000Y-186236621D03*
D13*
X196246000Y-105290000D03*
X203509300Y-192100000D03*
D24*
X213325000Y-180850000D03*
D25*
X215865000Y-180850000D03*
X218405000Y-180850000D03*
X220945000Y-180850000D03*
X223485000Y-180850000D03*
X226025000Y-180850000D03*
X228565000Y-180850000D03*
X231105000Y-180850000D03*
X231105000Y-173230000D03*
X228565000Y-173230000D03*
X226025000Y-173230000D03*
X223485000Y-173230000D03*
X220945000Y-173230000D03*
X218405000Y-173230000D03*
X215865000Y-173230000D03*
X213325000Y-173230000D03*
D24*
X169998000Y-172194000D03*
D23*
X169998000Y-169694000D03*
D21*
X243323600Y-118307200D03*
D19*
X240783600Y-118307200D03*
D20*
X187775102Y-108697897D03*
D19*
X185979051Y-110493948D03*
D24*
X196400000Y-162900000D03*
D23*
X196400000Y-158900000D03*
D16*
X155803600Y-172186600D03*
D17*
X155803600Y-169646600D03*
X155803600Y-167106600D03*
X155803600Y-164566600D03*
X155803600Y-162026600D03*
D14*
X226725100Y-151299200D03*
X226725100Y-133299200D03*
D12*
X183300000Y-129130000D03*
D21*
X238243600Y-118307200D03*
D19*
X235703600Y-118307200D03*
D18*
X216875888Y-113878889D03*
D19*
X215079837Y-112082838D03*
D21*
X163313600Y-118307200D03*
D19*
X160773600Y-118307200D03*
D12*
X160430000Y-160120000D03*
D26*
X158250000Y-120687500D03*
X158250000Y-123812500D03*
D27*
X242240400Y-163621200D03*
X239140400Y-163621200D03*
X242249400Y-167482000D03*
X239149400Y-167482000D03*
D28*
X223201200Y-187192400D03*
X226301200Y-187192400D03*
D29*
X222062500Y-166000000D03*
X222062500Y-165500000D03*
X222062500Y-165000000D03*
X222062500Y-164500000D03*
X222062500Y-164000000D03*
X222062500Y-163500000D03*
X222062500Y-163000000D03*
X222062500Y-162500000D03*
X222062500Y-162000000D03*
X222062500Y-161500000D03*
X222062500Y-161000000D03*
X222062500Y-160500000D03*
D30*
X223475000Y-159087500D03*
X223975000Y-159087500D03*
X224475000Y-159087500D03*
X224975000Y-159087500D03*
X225475000Y-159087500D03*
X225975000Y-159087500D03*
X226475000Y-159087500D03*
X226975000Y-159087500D03*
X227475000Y-159087500D03*
X227975000Y-159087500D03*
X228475000Y-159087500D03*
X228975000Y-159087500D03*
D29*
X230387500Y-160500000D03*
X230387500Y-161000000D03*
X230387500Y-161500000D03*
X230387500Y-162000000D03*
X230387500Y-162500000D03*
X230387500Y-163000000D03*
X230387500Y-163500000D03*
X230387500Y-164000000D03*
X230387500Y-164500000D03*
X230387500Y-165000000D03*
X230387500Y-165500000D03*
X230387500Y-166000000D03*
D30*
X228975000Y-167412500D03*
X228475000Y-167412500D03*
X227975000Y-167412500D03*
X227475000Y-167412500D03*
X226975000Y-167412500D03*
X226475000Y-167412500D03*
X225975000Y-167412500D03*
X225475000Y-167412500D03*
X224975000Y-167412500D03*
X224475000Y-167412500D03*
X223975000Y-167412500D03*
X223475000Y-167412500D03*
D28*
X237764800Y-187192400D03*
X240864800Y-187192400D03*
D31*
X230962500Y-168250000D03*
X234087500Y-168250000D03*
D32*
X242849400Y-174598000D03*
X242849400Y-171498000D03*
D27*
X242198600Y-159658800D03*
X239098600Y-159658800D03*
D31*
X232462500Y-159750000D03*
X235587500Y-159750000D03*
D33*
X221487500Y-168250000D03*
X218362500Y-168250000D03*
D34*
X236474000Y-162249000D03*
X236474000Y-165349000D03*
D26*
X183033000Y-116940900D03*
X183033000Y-120065900D03*
D33*
X213906500Y-187167000D03*
X210781500Y-187167000D03*
D27*
X218590300Y-120066600D03*
X215490300Y-120066600D03*
D33*
X238312500Y-120847200D03*
X235187500Y-120847200D03*
%LPD*%
M02*
