G04 #@! TF.GenerationSoftware,KiCad,Pcbnew,8.0.6*
G04 #@! TF.CreationDate,2025-03-26T21:52:31-07:00*
G04 #@! TF.ProjectId,rezq_rev3,72657a71-5f72-4657-9633-2e6b69636164,rev?*
G04 #@! TF.SameCoordinates,Original*
G04 #@! TF.FileFunction,Copper,L2,Bot*
G04 #@! TF.FilePolarity,Positive*
%FSLAX46Y46*%
G04 Gerber Fmt 4.6, Leading zero omitted, Abs format (unit mm)*
G04 Created by KiCad (PCBNEW 8.0.6) date 2025-03-26 21:52:31*
%MOMM*%
%LPD*%
G01*
G04 APERTURE LIST*
G04 Aperture macros list*
%AMRotRect*
0 Rectangle, with rotation*
0 The origin of the aperture is its center*
0 $1 length*
0 $2 width*
0 $3 Rotation angle, in degrees counterclockwise*
0 Add horizontal line*
21,1,$1,$2,0,0,$3*%
G04 Aperture macros list end*
G04 #@! TA.AperFunction,ComponentPad*
%ADD10R,1.700000X1.700000*%
G04 #@! TD*
G04 #@! TA.AperFunction,ComponentPad*
%ADD11C,3.000000*%
G04 #@! TD*
G04 #@! TA.AperFunction,ComponentPad*
%ADD12O,1.700000X1.700000*%
G04 #@! TD*
G04 #@! TA.AperFunction,ComponentPad*
%ADD13RotRect,1.800000X1.800000X135.000000*%
G04 #@! TD*
G04 #@! TA.AperFunction,ComponentPad*
%ADD14C,1.800000*%
G04 #@! TD*
G04 #@! TA.AperFunction,ComponentPad*
%ADD15RotRect,1.800000X1.800000X225.000000*%
G04 #@! TD*
G04 #@! TA.AperFunction,ComponentPad*
%ADD16R,1.800000X1.800000*%
G04 #@! TD*
G04 #@! TA.AperFunction,ComponentPad*
%ADD17R,1.600000X1.600000*%
G04 #@! TD*
G04 #@! TA.AperFunction,ComponentPad*
%ADD18C,1.600000*%
G04 #@! TD*
G04 #@! TA.AperFunction,ComponentPad*
%ADD19O,1.600000X1.600000*%
G04 #@! TD*
G04 #@! TA.AperFunction,ViaPad*
%ADD20C,0.800000*%
G04 #@! TD*
G04 #@! TA.AperFunction,ViaPad*
%ADD21C,0.420000*%
G04 #@! TD*
G04 #@! TA.AperFunction,ViaPad*
%ADD22C,1.600000*%
G04 #@! TD*
G04 #@! TA.AperFunction,Conductor*
%ADD23C,2.000000*%
G04 #@! TD*
G04 #@! TA.AperFunction,Conductor*
%ADD24C,1.500000*%
G04 #@! TD*
G04 #@! TA.AperFunction,Conductor*
%ADD25C,1.000000*%
G04 #@! TD*
G04 #@! TA.AperFunction,Conductor*
%ADD26C,0.500000*%
G04 #@! TD*
G04 #@! TA.AperFunction,Conductor*
%ADD27C,0.300000*%
G04 #@! TD*
G04 #@! TA.AperFunction,Conductor*
%ADD28C,0.250000*%
G04 #@! TD*
G04 APERTURE END LIST*
D10*
X195700000Y-186420000D03*
D11*
X161438000Y-185554000D03*
X161438000Y-180728000D03*
X161438000Y-175902000D03*
D10*
X155088000Y-184750000D03*
D12*
X155088000Y-182210000D03*
D13*
X213360000Y-110363000D03*
D14*
X211563949Y-108566949D03*
D15*
X184183000Y-112290000D03*
D14*
X182386949Y-114086051D03*
D10*
X155140000Y-177850000D03*
X191860000Y-186420000D03*
D16*
X158233600Y-118307200D03*
D14*
X155693600Y-118307200D03*
D10*
X179000000Y-164000000D03*
D17*
X186203000Y-183736621D03*
D18*
X186203000Y-186236621D03*
D17*
X190627000Y-161671000D03*
D19*
X193167000Y-161671000D03*
X195707000Y-161671000D03*
X198247000Y-161671000D03*
X200787000Y-161671000D03*
X203327000Y-161671000D03*
X205867000Y-161671000D03*
X208407000Y-161671000D03*
X208407000Y-154051000D03*
X205867000Y-154051000D03*
X203327000Y-154051000D03*
X200787000Y-154051000D03*
X198247000Y-154051000D03*
X195707000Y-154051000D03*
X193167000Y-154051000D03*
X190627000Y-154051000D03*
D17*
X169998000Y-172194000D03*
D18*
X169998000Y-169694000D03*
D16*
X243323600Y-118307200D03*
D14*
X240783600Y-118307200D03*
D15*
X187775102Y-108697897D03*
D14*
X185979051Y-110493948D03*
D10*
X155803600Y-172186600D03*
D12*
X155803600Y-169646600D03*
X155803600Y-167106600D03*
X155803600Y-164566600D03*
X155803600Y-162026600D03*
D10*
X183300000Y-129130000D03*
D16*
X238243600Y-118307200D03*
D14*
X235703600Y-118307200D03*
D13*
X216875888Y-113878889D03*
D14*
X215079837Y-112082838D03*
D16*
X163313600Y-118307200D03*
D14*
X160773600Y-118307200D03*
D10*
X160430000Y-160120000D03*
D20*
X178630000Y-107010000D03*
X230500000Y-111000000D03*
X164360000Y-109590000D03*
X196000000Y-109750000D03*
X202717400Y-131495800D03*
X223774000Y-184912000D03*
X189382400Y-181660800D03*
X182372000Y-143256000D03*
X194056000Y-168402000D03*
X173750000Y-109250000D03*
X184170000Y-133330000D03*
X200250000Y-186944000D03*
X220750000Y-106470000D03*
X200660000Y-169164000D03*
X236750000Y-181000000D03*
X218008200Y-138226800D03*
X191050000Y-125140000D03*
X209600800Y-137896600D03*
X226250000Y-108250000D03*
X209600800Y-134645400D03*
X190703200Y-182829200D03*
X166497000Y-174117000D03*
X231250000Y-169250000D03*
X204250000Y-109750000D03*
X216250000Y-142500000D03*
X170000000Y-109250000D03*
X204216000Y-172466000D03*
X193000000Y-142250000D03*
X191262000Y-179324000D03*
X200183000Y-106161625D03*
X188163200Y-143408400D03*
X163753800Y-182473600D03*
X157530800Y-174980600D03*
X170688000Y-161544000D03*
X206298800Y-131419600D03*
X234610000Y-108440000D03*
X226568000Y-185928000D03*
X180710000Y-133380000D03*
X173609000Y-117983000D03*
X228250000Y-159500000D03*
X209000000Y-142500000D03*
X228250000Y-162500000D03*
X175971200Y-177165000D03*
X194640200Y-178130200D03*
X182570000Y-126570000D03*
X225729800Y-143256000D03*
X154240000Y-110410000D03*
X245010000Y-114690000D03*
X198069200Y-169367200D03*
X202750000Y-142500000D03*
X223240600Y-128041400D03*
X192630000Y-125140000D03*
X236750000Y-176500000D03*
X178409600Y-127152400D03*
X199898000Y-173736000D03*
X209550000Y-131419600D03*
X206298800Y-134645400D03*
X217932000Y-128930400D03*
X228346000Y-143205200D03*
X188330000Y-133460000D03*
X228250000Y-165750000D03*
X179247800Y-142214600D03*
X174244000Y-170688000D03*
X225000000Y-114750000D03*
X200250000Y-184750000D03*
X197317075Y-166817075D03*
X190538500Y-151638000D03*
X185420000Y-170694000D03*
X185420000Y-166370000D03*
X222039157Y-182789157D03*
X211153750Y-172153750D03*
X222758000Y-186436000D03*
X224336432Y-180663568D03*
X213750000Y-173500000D03*
X168175000Y-157675000D03*
X203250000Y-181000000D03*
X224282000Y-188682200D03*
X234000000Y-122437500D03*
X230632000Y-147574000D03*
X231140000Y-125476000D03*
D21*
X224250000Y-183250000D03*
D20*
X200250000Y-189000000D03*
D21*
X220500000Y-176500000D03*
X213500000Y-176000000D03*
X225000000Y-184500000D03*
D22*
X161450000Y-165975000D03*
X192786000Y-175500000D03*
D20*
X217750000Y-161500000D03*
X217970000Y-170500000D03*
X161750000Y-163750000D03*
D21*
X221555500Y-173305500D03*
D20*
X212750000Y-151500000D03*
D21*
X214875000Y-169375000D03*
X213500000Y-158500000D03*
X214500000Y-159500000D03*
X215250000Y-170000000D03*
X191135000Y-163195000D03*
X210393701Y-183106299D03*
X210250000Y-184000000D03*
X192024000Y-164715000D03*
D20*
X215070000Y-182500000D03*
X224000000Y-157000000D03*
X215079837Y-128579837D03*
D21*
X214535000Y-181739292D03*
D20*
X212034997Y-182500000D03*
X225930000Y-162653258D03*
X221250000Y-156500000D03*
X212965000Y-182500000D03*
X225430000Y-155375000D03*
X225250000Y-126500000D03*
X219820000Y-179195894D03*
X235750000Y-127250000D03*
X223110000Y-159179167D03*
X217726876Y-181523124D03*
X189250000Y-123750000D03*
X221000000Y-157750000D03*
X213500000Y-125220000D03*
X222285000Y-166250000D03*
X175750000Y-122500000D03*
X223247315Y-154500000D03*
X220715771Y-151968456D03*
X217756447Y-182452657D03*
D21*
X230000000Y-170250000D03*
X228250000Y-167250000D03*
X210963943Y-182889672D03*
D22*
X181000000Y-170694000D03*
D20*
X239250000Y-177000000D03*
X242915002Y-181250000D03*
D21*
X217750000Y-177315687D03*
X218000000Y-176750000D03*
X212750000Y-178250000D03*
X210837500Y-179500000D03*
X217302973Y-174947027D03*
X217306742Y-175693258D03*
X208500000Y-175250000D03*
X209500000Y-181000000D03*
D23*
X188697000Y-155981000D02*
X190627000Y-154051000D01*
X160773600Y-119827200D02*
X171903400Y-130957000D01*
X197317075Y-166817075D02*
X192978899Y-166817075D01*
X192595824Y-166434000D02*
X191446274Y-166434000D01*
X160773600Y-118307200D02*
X160773600Y-119827200D01*
X171903400Y-130957000D02*
X173357771Y-130957000D01*
X192978899Y-166817075D02*
X192595824Y-166434000D01*
X190538500Y-148137729D02*
X190538500Y-151638000D01*
X191446274Y-166434000D02*
X188697000Y-163684726D01*
X188697000Y-163684726D02*
X188697000Y-155981000D01*
X190538500Y-151341553D02*
X190538500Y-151638000D01*
X173357771Y-130957000D02*
X190538500Y-148137729D01*
X185420000Y-170694000D02*
X185420000Y-166624000D01*
D24*
X224164746Y-180663568D02*
X222039157Y-182789157D01*
X222039157Y-185717157D02*
X222039157Y-182789157D01*
D25*
X211153750Y-172153750D02*
X212500000Y-173500000D01*
D24*
X224336432Y-180663568D02*
X224164746Y-180663568D01*
X222758000Y-186436000D02*
X222039157Y-185717157D01*
D25*
X212500000Y-173500000D02*
X213750000Y-173500000D01*
D23*
X191713549Y-168564000D02*
X203250000Y-180100451D01*
X168175000Y-157675000D02*
X179675000Y-157675000D01*
X203250000Y-180100451D02*
X203250000Y-181000000D01*
X179675000Y-157675000D02*
X190564000Y-168564000D01*
X190564000Y-168564000D02*
X191713549Y-168564000D01*
X216875888Y-113878889D02*
X217512284Y-113242493D01*
X184669000Y-112776000D02*
X184183000Y-112290000D01*
D24*
X227257606Y-188682200D02*
X232530000Y-183409806D01*
X231140000Y-125297500D02*
X234000000Y-122437500D01*
D23*
X174167200Y-115747200D02*
X159712206Y-115747200D01*
X217512284Y-113242493D02*
X217512284Y-111644430D01*
D24*
X232530000Y-158616000D02*
X230632000Y-156718000D01*
D23*
X212404803Y-106536949D02*
X210234911Y-106536949D01*
X210234911Y-106536949D02*
X203995860Y-112776000D01*
X184819396Y-112926396D02*
X184819396Y-114524458D01*
X174742000Y-116322000D02*
X174167200Y-115747200D01*
X217512284Y-111644430D02*
X212404803Y-106536949D01*
X184183000Y-112290000D02*
X184819396Y-112926396D01*
D24*
X230632000Y-156718000D02*
X230632000Y-147574000D01*
D23*
X159712206Y-115747200D02*
X158213600Y-117245806D01*
X203995860Y-112776000D02*
X184669000Y-112776000D01*
D24*
X232530000Y-183409806D02*
X232530000Y-158616000D01*
D23*
X184819396Y-114524458D02*
X183021854Y-116322000D01*
D24*
X224282000Y-188682200D02*
X227257606Y-188682200D01*
X231140000Y-125476000D02*
X231140000Y-125297500D01*
D23*
X183021854Y-116322000D02*
X174742000Y-116322000D01*
X158213600Y-117245806D02*
X158213600Y-118306194D01*
D26*
X200250000Y-189000000D02*
X222250000Y-189000000D01*
X225000000Y-186250000D02*
X225000000Y-184500000D01*
D27*
X220200000Y-176200000D02*
X220500000Y-176500000D01*
X224250000Y-183250000D02*
X224250000Y-183750000D01*
X217577818Y-176200000D02*
X220200000Y-176200000D01*
X213500000Y-176000000D02*
X213743258Y-176243258D01*
X213743258Y-176243258D02*
X217534560Y-176243258D01*
D26*
X222250000Y-189000000D02*
X225000000Y-186250000D01*
D27*
X224250000Y-183750000D02*
X225000000Y-184500000D01*
X217534560Y-176243258D02*
X217577818Y-176200000D01*
D23*
X183163306Y-175895000D02*
X173158306Y-165890000D01*
X192230000Y-175895000D02*
X183163306Y-175895000D01*
X173158306Y-165890000D02*
X161535000Y-165890000D01*
X192625000Y-175500000D02*
X192230000Y-175895000D01*
D28*
X217750000Y-170250000D02*
X217970000Y-170470000D01*
X217750000Y-161500000D02*
X217750000Y-170250000D01*
X217970000Y-170470000D02*
X217970000Y-170500000D01*
D26*
X221555500Y-173305500D02*
X221505000Y-173255000D01*
X221505000Y-160255000D02*
X212750000Y-151500000D01*
X161700200Y-163750000D02*
X155803600Y-169646600D01*
X221505000Y-173255000D02*
X221505000Y-160255000D01*
X161750000Y-163750000D02*
X161700200Y-163750000D01*
D28*
X214875000Y-169375000D02*
X213975000Y-168475000D01*
X213975000Y-158975000D02*
X213500000Y-158500000D01*
X213975000Y-168475000D02*
X213975000Y-158975000D01*
X215250000Y-170000000D02*
X215400000Y-169850000D01*
X215400000Y-169850000D02*
X215400000Y-160400000D01*
X215400000Y-160400000D02*
X214500000Y-159500000D01*
X192000000Y-164060000D02*
X197810000Y-164060000D01*
X202500000Y-174750000D02*
X210393701Y-182643701D01*
X197810000Y-164060000D02*
X202500000Y-168750000D01*
X202500000Y-168750000D02*
X202500000Y-174750000D01*
X210393701Y-182643701D02*
X210393701Y-183106299D01*
X191135000Y-163195000D02*
X192000000Y-164060000D01*
X193190000Y-165250000D02*
X198250000Y-165250000D01*
X198250000Y-165250000D02*
X202120000Y-169120000D01*
X193040000Y-165100000D02*
X192655000Y-164715000D01*
X209868701Y-183618701D02*
X210250000Y-184000000D01*
X202120000Y-174907402D02*
X209868701Y-182656103D01*
X193040000Y-165100000D02*
X193190000Y-165250000D01*
X209868701Y-182656103D02*
X209868701Y-183618701D01*
X192655000Y-164715000D02*
X192024000Y-164715000D01*
X202120000Y-169120000D02*
X202120000Y-174907402D01*
D27*
X236750000Y-127211666D02*
X236750000Y-119353600D01*
X224750000Y-177051896D02*
X224750000Y-166500000D01*
X224750000Y-166500000D02*
X224750000Y-151164011D01*
X231394000Y-144520011D02*
X231394000Y-128270000D01*
X216132657Y-183562657D02*
X218239239Y-183562657D01*
X231664000Y-128000000D02*
X235961666Y-128000000D01*
X218239239Y-183562657D02*
X224750000Y-177051896D01*
X215070000Y-182500000D02*
X216132657Y-183562657D01*
X236750000Y-119353600D02*
X235703600Y-118307200D01*
X224750000Y-151164011D02*
X231394000Y-144520011D01*
X235961666Y-128000000D02*
X236750000Y-127211666D01*
X231394000Y-128270000D02*
X231664000Y-128000000D01*
X215250000Y-128750000D02*
X215079837Y-128579837D01*
X224000000Y-157000000D02*
X224290000Y-157290000D01*
X217474781Y-183132657D02*
X216081416Y-181739292D01*
X224290000Y-157290000D02*
X224290000Y-176903784D01*
X215079837Y-112082838D02*
X215079837Y-128579837D01*
X216081416Y-181739292D02*
X214535000Y-181739292D01*
X224290000Y-176903784D02*
X218061127Y-183132657D01*
X218061127Y-183132657D02*
X217474781Y-183132657D01*
X218595463Y-184422657D02*
X225750000Y-177268120D01*
X159493600Y-117776000D02*
X159493600Y-119407200D01*
X221395771Y-156354229D02*
X221395771Y-151686791D01*
X173614866Y-117027200D02*
X160242400Y-117027200D01*
X160242400Y-117027200D02*
X159493600Y-117776000D01*
X225750000Y-177268120D02*
X225750000Y-162833258D01*
X221395771Y-151686791D02*
X187310980Y-117602000D01*
X159493600Y-119407200D02*
X159266800Y-119634000D01*
X221250000Y-156500000D02*
X221395771Y-156354229D01*
X212034997Y-182500000D02*
X212034997Y-182531663D01*
X225750000Y-162833258D02*
X225930000Y-162653258D01*
X156972000Y-119585600D02*
X155693600Y-118307200D01*
X174189666Y-117602000D02*
X173614866Y-117027200D01*
X159266800Y-119634000D02*
X156972000Y-119634000D01*
X187310980Y-117602000D02*
X174189666Y-117602000D01*
X213925991Y-184422657D02*
X218595463Y-184422657D01*
X212034997Y-182531663D02*
X213925991Y-184422657D01*
X156972000Y-119634000D02*
X156972000Y-119585600D01*
X204471666Y-110490000D02*
X204930000Y-110031666D01*
X225430000Y-155375000D02*
X225250000Y-155555000D01*
X182386949Y-114086051D02*
X182386949Y-112253051D01*
X185420000Y-109220000D02*
X186628433Y-109220000D01*
X212852000Y-105156000D02*
X225250000Y-117554000D01*
X204978000Y-109982000D02*
X204978000Y-109983666D01*
X225250000Y-155555000D02*
X225250000Y-177160008D01*
X187898433Y-110490000D02*
X204471666Y-110490000D01*
X214457657Y-183992657D02*
X212965000Y-182500000D01*
X204930000Y-110031666D02*
X204930000Y-110030000D01*
X182386949Y-112253051D02*
X185420000Y-109220000D01*
X225250000Y-117554000D02*
X225250000Y-126500000D01*
X204930000Y-110030000D02*
X204978000Y-109982000D01*
X204978000Y-109982000D02*
X209804000Y-105156000D01*
X186628433Y-109220000D02*
X187898433Y-110490000D01*
X218417351Y-183992657D02*
X214457657Y-183992657D01*
X209804000Y-105156000D02*
X212852000Y-105156000D01*
X225250000Y-177160008D02*
X218417351Y-183992657D01*
X222715000Y-159785000D02*
X222430000Y-159500000D01*
X225888600Y-127361400D02*
X225500000Y-127750000D01*
X235750000Y-127250000D02*
X226000000Y-127250000D01*
X222965000Y-176357756D02*
X222965000Y-165968334D01*
X222965000Y-165968334D02*
X222715000Y-165718334D01*
X226000000Y-127250000D02*
X225500000Y-127750000D01*
X222430000Y-130820000D02*
X225500000Y-127750000D01*
X222715000Y-165718334D02*
X222715000Y-159785000D01*
X220126862Y-179195894D02*
X222965000Y-176357756D01*
X219820000Y-179195894D02*
X220126862Y-179195894D01*
X222430000Y-159500000D02*
X222430000Y-130820000D01*
X223430000Y-176547560D02*
X218454436Y-181523124D01*
X218454436Y-181523124D02*
X217726876Y-181523124D01*
X189250000Y-123750000D02*
X189250000Y-126000000D01*
X189250000Y-126000000D02*
X221000000Y-157750000D01*
X223430000Y-159499167D02*
X223430000Y-176547560D01*
X223110000Y-159179167D02*
X223430000Y-159499167D01*
X213500000Y-129535000D02*
X213500000Y-128250000D01*
X222000000Y-138035000D02*
X213500000Y-129535000D01*
X222285000Y-160285466D02*
X222285000Y-166250000D01*
X222000000Y-138035000D02*
X222000000Y-160000466D01*
X213500000Y-125220000D02*
X213500000Y-128250000D01*
X222000000Y-160000466D02*
X222285000Y-160285466D01*
X191250000Y-122500000D02*
X220750000Y-152000000D01*
X218133015Y-182452657D02*
X217756447Y-182452657D01*
X223860000Y-158967501D02*
X223860000Y-176725672D01*
X223860000Y-176725672D02*
X218133015Y-182452657D01*
X223247315Y-154500000D02*
X223247315Y-158354816D01*
X223247315Y-158354816D02*
X223860000Y-158967501D01*
X175750000Y-122500000D02*
X191250000Y-122500000D01*
X230000000Y-169000000D02*
X230000000Y-170250000D01*
X228250000Y-167250000D02*
X230000000Y-169000000D01*
D23*
X184071000Y-173765000D02*
X181000000Y-170694000D01*
D27*
X210963943Y-182889672D02*
X210963943Y-185036057D01*
D23*
X198333947Y-179660200D02*
X198333947Y-178196672D01*
X193507275Y-173370000D02*
X191742726Y-173370000D01*
X210250000Y-185750000D02*
X204423747Y-185750000D01*
X191347726Y-173765000D02*
X184071000Y-173765000D01*
X198333947Y-178196672D02*
X193507275Y-173370000D01*
X191742726Y-173370000D02*
X191347726Y-173765000D01*
D27*
X210963943Y-185036057D02*
X210250000Y-185750000D01*
D23*
X204423747Y-185750000D02*
X198333947Y-179660200D01*
D28*
X242915002Y-181250000D02*
X242915002Y-181165002D01*
X242915002Y-181165002D02*
X239250000Y-177500000D01*
X239250000Y-177500000D02*
X239250000Y-177000000D01*
D23*
X161438000Y-175902000D02*
X159490000Y-177850000D01*
X159490000Y-177850000D02*
X155140000Y-177850000D01*
D28*
X198742463Y-163250000D02*
X193254004Y-163250000D01*
X212808150Y-177315687D02*
X198742463Y-163250000D01*
X217750000Y-177315687D02*
X212808150Y-177315687D01*
X192112000Y-162107996D02*
X192112000Y-155106000D01*
X193254004Y-163250000D02*
X192112000Y-162107996D01*
X192112000Y-155106000D02*
X193167000Y-154051000D01*
X194222000Y-162726000D02*
X193167000Y-161671000D01*
X213500000Y-176750000D02*
X199476000Y-162726000D01*
X218000000Y-176750000D02*
X213500000Y-176750000D01*
X199476000Y-162726000D02*
X194222000Y-162726000D01*
X212750000Y-178250000D02*
X213000000Y-178000000D01*
X221025000Y-176282537D02*
X221000000Y-176257537D01*
X220750000Y-178000000D02*
X221025000Y-177725000D01*
X221000000Y-160500000D02*
X214551000Y-154051000D01*
X213000000Y-178000000D02*
X220750000Y-178000000D01*
X221025000Y-177725000D02*
X221025000Y-176282537D01*
X221000000Y-176257537D02*
X221000000Y-160500000D01*
X214551000Y-154051000D02*
X208407000Y-154051000D01*
D27*
X210837500Y-176309682D02*
X198182818Y-163655000D01*
X192611000Y-163655000D02*
X190627000Y-161671000D01*
X210837500Y-179500000D02*
X210837500Y-176309682D01*
X198182818Y-163655000D02*
X192611000Y-163655000D01*
D28*
X215975000Y-156225000D02*
X214856000Y-155106000D01*
X214856000Y-155106000D02*
X206922000Y-155106000D01*
X217302973Y-174947027D02*
X215975000Y-173619054D01*
X206922000Y-155106000D02*
X205867000Y-154051000D01*
X215975000Y-173619054D02*
X215975000Y-156225000D01*
X205867000Y-164253516D02*
X205867000Y-161671000D01*
X217306742Y-175693258D02*
X205867000Y-164253516D01*
D27*
X208500000Y-175250000D02*
X208500000Y-180000000D01*
X208500000Y-180000000D02*
X209500000Y-181000000D01*
G04 #@! TA.AperFunction,Conductor*
G36*
X201871909Y-100659274D02*
G01*
X201873858Y-100659307D01*
X204171608Y-100717394D01*
X204173696Y-100717464D01*
X206470186Y-100814260D01*
X206472273Y-100814366D01*
X208766702Y-100949834D01*
X208768773Y-100949973D01*
X211060777Y-101124094D01*
X211062719Y-101124259D01*
X213351497Y-101336977D01*
X213353387Y-101337169D01*
X215638253Y-101588420D01*
X215640207Y-101588651D01*
X217920462Y-101878357D01*
X217922467Y-101878629D01*
X220072363Y-102188665D01*
X220197399Y-102206697D01*
X220199467Y-102207012D01*
X222468707Y-102573389D01*
X222470605Y-102573712D01*
X224733340Y-102978269D01*
X224735217Y-102978621D01*
X226990771Y-103421236D01*
X226992783Y-103421648D01*
X229240594Y-103902213D01*
X229242455Y-103902627D01*
X231481952Y-104421019D01*
X231483810Y-104421466D01*
X233714104Y-104977481D01*
X233716022Y-104977976D01*
X235936691Y-105571505D01*
X235938647Y-105572045D01*
X236502360Y-105732936D01*
X238148857Y-106202866D01*
X238150861Y-106203456D01*
X240350155Y-106871434D01*
X240352149Y-106872058D01*
X242537901Y-107576360D01*
X242543746Y-107578406D01*
X242919919Y-107720786D01*
X242929406Y-107724837D01*
X243290549Y-107897160D01*
X243299660Y-107901983D01*
X243645197Y-108103783D01*
X243653885Y-108109356D01*
X243930418Y-108303439D01*
X243981402Y-108339222D01*
X243989606Y-108345506D01*
X244165353Y-108492142D01*
X244296842Y-108601850D01*
X244304495Y-108608797D01*
X244589302Y-108889823D01*
X244596351Y-108897383D01*
X244856774Y-109201163D01*
X244863168Y-109209283D01*
X245097392Y-109533702D01*
X245103087Y-109542327D01*
X245309468Y-109885106D01*
X245314426Y-109894175D01*
X245491552Y-110252968D01*
X245495737Y-110262418D01*
X245586926Y-110493949D01*
X245642362Y-110634700D01*
X245645746Y-110644467D01*
X245760863Y-111027687D01*
X245763421Y-111037701D01*
X245846221Y-111429167D01*
X245847936Y-111439359D01*
X245897847Y-111836351D01*
X245898708Y-111846651D01*
X245915492Y-112249010D01*
X245915600Y-112254178D01*
X245915600Y-123384493D01*
X245915482Y-123389902D01*
X245897097Y-123810991D01*
X245896154Y-123821767D01*
X245841493Y-124236957D01*
X245839615Y-124247610D01*
X245748974Y-124656467D01*
X245746174Y-124666917D01*
X245620243Y-125066317D01*
X245616543Y-125076482D01*
X245456283Y-125463385D01*
X245451711Y-125473189D01*
X245258344Y-125844642D01*
X245252936Y-125854010D01*
X245027920Y-126207214D01*
X245021715Y-126216075D01*
X244766779Y-126548315D01*
X244759825Y-126556602D01*
X244476904Y-126865355D01*
X244469255Y-126873004D01*
X244160502Y-127155925D01*
X244152215Y-127162879D01*
X243819975Y-127417815D01*
X243811114Y-127424020D01*
X243457910Y-127649036D01*
X243448542Y-127654444D01*
X243077089Y-127847811D01*
X243067285Y-127852383D01*
X242680382Y-128012643D01*
X242670217Y-128016343D01*
X242270817Y-128142274D01*
X242260367Y-128145074D01*
X241851510Y-128235715D01*
X241840857Y-128237593D01*
X241425667Y-128292254D01*
X241414891Y-128293197D01*
X240993803Y-128311582D01*
X240988394Y-128311700D01*
X236445010Y-128311700D01*
X236377971Y-128292015D01*
X236332216Y-128239211D01*
X236322272Y-128170053D01*
X236351297Y-128106497D01*
X236357329Y-128100019D01*
X236677348Y-127780000D01*
X237030470Y-127426878D01*
X237076614Y-127346954D01*
X237090228Y-127296144D01*
X237100500Y-127257810D01*
X237100500Y-119513355D01*
X237120185Y-119446316D01*
X237172989Y-119400561D01*
X237242147Y-119390617D01*
X237253386Y-119393701D01*
X237253390Y-119393685D01*
X237323847Y-119407699D01*
X237323850Y-119407700D01*
X237323852Y-119407700D01*
X239163350Y-119407700D01*
X239163351Y-119407699D01*
X239178168Y-119404752D01*
X239221829Y-119396068D01*
X239221829Y-119396067D01*
X239221831Y-119396067D01*
X239288152Y-119351752D01*
X239332467Y-119285431D01*
X239332467Y-119285429D01*
X239332468Y-119285429D01*
X239344099Y-119226952D01*
X239344100Y-119226950D01*
X239344100Y-118307199D01*
X239678385Y-118307199D01*
X239678385Y-118307200D01*
X239697202Y-118510282D01*
X239753017Y-118706447D01*
X239753022Y-118706460D01*
X239843927Y-118889021D01*
X239966837Y-119051781D01*
X240117558Y-119189180D01*
X240117560Y-119189182D01*
X240164607Y-119218312D01*
X240290963Y-119296548D01*
X240481144Y-119370224D01*
X240681624Y-119407700D01*
X240681626Y-119407700D01*
X240885574Y-119407700D01*
X240885576Y-119407700D01*
X241086056Y-119370224D01*
X241276237Y-119296548D01*
X241449641Y-119189181D01*
X241600364Y-119051779D01*
X241723273Y-118889021D01*
X241814182Y-118706450D01*
X241869997Y-118510283D01*
X241888815Y-118307200D01*
X241869997Y-118104117D01*
X241814182Y-117907950D01*
X241723273Y-117725379D01*
X241600364Y-117562621D01*
X241600362Y-117562618D01*
X241449641Y-117425219D01*
X241449639Y-117425217D01*
X241388638Y-117387447D01*
X242223100Y-117387447D01*
X242223100Y-119226952D01*
X242234731Y-119285429D01*
X242234732Y-119285430D01*
X242279047Y-119351752D01*
X242345369Y-119396067D01*
X242345370Y-119396068D01*
X242403847Y-119407699D01*
X242403850Y-119407700D01*
X242403852Y-119407700D01*
X244243350Y-119407700D01*
X244243351Y-119407699D01*
X244258168Y-119404752D01*
X244301829Y-119396068D01*
X244301829Y-119396067D01*
X244301831Y-119396067D01*
X244368152Y-119351752D01*
X244412467Y-119285431D01*
X244412467Y-119285429D01*
X244412468Y-119285429D01*
X244424099Y-119226952D01*
X244424100Y-119226950D01*
X244424100Y-117387449D01*
X244424099Y-117387447D01*
X244412468Y-117328970D01*
X244412467Y-117328969D01*
X244368152Y-117262647D01*
X244301830Y-117218332D01*
X244301829Y-117218331D01*
X244243352Y-117206700D01*
X244243348Y-117206700D01*
X242403852Y-117206700D01*
X242403847Y-117206700D01*
X242345370Y-117218331D01*
X242345369Y-117218332D01*
X242279047Y-117262647D01*
X242234732Y-117328969D01*
X242234731Y-117328970D01*
X242223100Y-117387447D01*
X241388638Y-117387447D01*
X241276242Y-117317855D01*
X241276235Y-117317851D01*
X241166616Y-117275385D01*
X241086056Y-117244176D01*
X240885576Y-117206700D01*
X240681624Y-117206700D01*
X240481144Y-117244176D01*
X240481141Y-117244176D01*
X240481141Y-117244177D01*
X240290964Y-117317851D01*
X240290957Y-117317855D01*
X240117560Y-117425217D01*
X240117558Y-117425219D01*
X239966837Y-117562618D01*
X239843927Y-117725378D01*
X239753022Y-117907939D01*
X239753017Y-117907952D01*
X239697202Y-118104117D01*
X239678385Y-118307199D01*
X239344100Y-118307199D01*
X239344100Y-117387449D01*
X239344099Y-117387447D01*
X239332468Y-117328970D01*
X239332467Y-117328969D01*
X239288152Y-117262647D01*
X239221830Y-117218332D01*
X239221829Y-117218331D01*
X239163352Y-117206700D01*
X239163348Y-117206700D01*
X237323852Y-117206700D01*
X237323847Y-117206700D01*
X237265370Y-117218331D01*
X237265369Y-117218332D01*
X237199047Y-117262647D01*
X237154732Y-117328969D01*
X237154731Y-117328970D01*
X237143100Y-117387447D01*
X237143100Y-118951656D01*
X237123415Y-119018695D01*
X237070611Y-119064450D01*
X237001453Y-119074394D01*
X236937897Y-119045369D01*
X236931419Y-119039337D01*
X236752176Y-118860094D01*
X236718691Y-118798771D01*
X236723675Y-118729079D01*
X236728851Y-118717154D01*
X236734182Y-118706450D01*
X236789997Y-118510283D01*
X236808815Y-118307200D01*
X236789997Y-118104117D01*
X236734182Y-117907950D01*
X236643273Y-117725379D01*
X236520364Y-117562621D01*
X236520362Y-117562618D01*
X236369641Y-117425219D01*
X236369639Y-117425217D01*
X236196242Y-117317855D01*
X236196235Y-117317851D01*
X236086616Y-117275385D01*
X236006056Y-117244176D01*
X235805576Y-117206700D01*
X235601624Y-117206700D01*
X235401144Y-117244176D01*
X235401141Y-117244176D01*
X235401141Y-117244177D01*
X235210964Y-117317851D01*
X235210957Y-117317855D01*
X235037560Y-117425217D01*
X235037558Y-117425219D01*
X234886837Y-117562618D01*
X234763927Y-117725378D01*
X234673022Y-117907939D01*
X234673017Y-117907952D01*
X234617202Y-118104117D01*
X234598385Y-118307199D01*
X234598385Y-118307200D01*
X234617202Y-118510282D01*
X234673017Y-118706447D01*
X234673022Y-118706460D01*
X234763927Y-118889021D01*
X234886837Y-119051781D01*
X235037558Y-119189180D01*
X235037560Y-119189182D01*
X235084607Y-119218312D01*
X235210963Y-119296548D01*
X235401144Y-119370224D01*
X235601624Y-119407700D01*
X235601626Y-119407700D01*
X235805574Y-119407700D01*
X235805576Y-119407700D01*
X236006056Y-119370224D01*
X236121637Y-119325447D01*
X236191258Y-119319585D01*
X236252999Y-119352294D01*
X236254111Y-119353393D01*
X236363181Y-119462463D01*
X236396666Y-119523786D01*
X236399500Y-119550144D01*
X236399500Y-126744723D01*
X236379815Y-126811762D01*
X236327011Y-126857517D01*
X236257853Y-126867461D01*
X236194297Y-126838436D01*
X236182833Y-126826269D01*
X236178286Y-126821722D01*
X236178283Y-126821720D01*
X236178282Y-126821718D01*
X236052841Y-126725464D01*
X235906762Y-126664956D01*
X235906760Y-126664955D01*
X235750001Y-126644318D01*
X235749999Y-126644318D01*
X235593239Y-126664955D01*
X235593237Y-126664956D01*
X235447160Y-126725463D01*
X235447159Y-126725464D01*
X235321718Y-126821718D01*
X235299258Y-126850988D01*
X235242832Y-126892189D01*
X235200884Y-126899500D01*
X226046144Y-126899500D01*
X225953856Y-126899500D01*
X225953854Y-126899500D01*
X225953848Y-126899501D01*
X225949982Y-126900537D01*
X225946596Y-126900456D01*
X225945800Y-126900561D01*
X225945783Y-126900436D01*
X225880132Y-126898869D01*
X225822273Y-126859702D01*
X225794774Y-126795471D01*
X225803336Y-126733311D01*
X225835044Y-126656762D01*
X225855682Y-126500000D01*
X225846005Y-126426499D01*
X225835044Y-126343239D01*
X225835044Y-126343238D01*
X225774536Y-126197159D01*
X225678282Y-126071718D01*
X225678279Y-126071716D01*
X225678278Y-126071714D01*
X225649013Y-126049258D01*
X225607811Y-125992830D01*
X225600500Y-125950883D01*
X225600500Y-125203883D01*
X230189500Y-125203883D01*
X230189500Y-125569620D01*
X230226025Y-125753243D01*
X230226027Y-125753251D01*
X230297676Y-125926228D01*
X230297681Y-125926237D01*
X230401697Y-126081907D01*
X230401700Y-126081911D01*
X230534088Y-126214299D01*
X230534092Y-126214302D01*
X230689762Y-126318318D01*
X230689768Y-126318321D01*
X230689769Y-126318322D01*
X230862749Y-126389973D01*
X231046379Y-126426499D01*
X231046383Y-126426500D01*
X231046384Y-126426500D01*
X231233617Y-126426500D01*
X231233618Y-126426499D01*
X231417251Y-126389973D01*
X231590231Y-126318322D01*
X231745908Y-126214302D01*
X231878302Y-126081908D01*
X231982322Y-125926231D01*
X232053973Y-125753251D01*
X232053975Y-125753237D01*
X232055741Y-125747421D01*
X232058270Y-125748188D01*
X232085303Y-125696435D01*
X232086852Y-125694856D01*
X234738302Y-123043408D01*
X234842323Y-122887730D01*
X234913973Y-122714750D01*
X234950500Y-122531117D01*
X234950500Y-122343883D01*
X234950500Y-122343880D01*
X234950499Y-122343878D01*
X234950371Y-122343237D01*
X234921315Y-122197159D01*
X234913975Y-122160257D01*
X234913972Y-122160248D01*
X234909389Y-122149184D01*
X234842323Y-121987269D01*
X234842321Y-121987267D01*
X234842321Y-121987265D01*
X234738302Y-121831591D01*
X234738299Y-121831587D01*
X234605912Y-121699200D01*
X234605908Y-121699197D01*
X234450234Y-121595178D01*
X234450231Y-121595177D01*
X234277251Y-121523527D01*
X234277242Y-121523524D01*
X234093620Y-121487000D01*
X234093617Y-121487000D01*
X233906383Y-121487000D01*
X233906380Y-121487000D01*
X233722757Y-121523524D01*
X233722748Y-121523527D01*
X233549776Y-121595173D01*
X233549763Y-121595180D01*
X233394092Y-121699197D01*
X233394088Y-121699200D01*
X230401700Y-124691588D01*
X230401697Y-124691592D01*
X230297680Y-124847263D01*
X230297673Y-124847276D01*
X230268728Y-124917159D01*
X230232433Y-125004785D01*
X230232431Y-125004791D01*
X230226028Y-125020246D01*
X230226025Y-125020255D01*
X230195612Y-125173157D01*
X230195612Y-125173160D01*
X230189500Y-125203883D01*
X225600500Y-125203883D01*
X225600500Y-117507858D01*
X225600500Y-117507856D01*
X225576614Y-117418712D01*
X225573904Y-117414019D01*
X225558567Y-117387453D01*
X225558565Y-117387451D01*
X225558563Y-117387447D01*
X225530470Y-117338788D01*
X213067212Y-104875530D01*
X213067211Y-104875529D01*
X213067208Y-104875527D01*
X212987290Y-104829387D01*
X212987289Y-104829386D01*
X212987288Y-104829386D01*
X212898144Y-104805500D01*
X209757856Y-104805500D01*
X209668712Y-104829386D01*
X209668709Y-104829387D01*
X209588791Y-104875527D01*
X209588786Y-104875531D01*
X204649526Y-109814791D01*
X204648972Y-109815514D01*
X204638290Y-109827692D01*
X204362801Y-110103182D01*
X204301481Y-110136666D01*
X204275122Y-110139500D01*
X188189203Y-110139500D01*
X188122164Y-110119815D01*
X188076409Y-110067011D01*
X188066465Y-109997853D01*
X188095490Y-109934297D01*
X188101522Y-109927819D01*
X189203628Y-108825713D01*
X189203633Y-108825708D01*
X189236761Y-108776128D01*
X189252322Y-108697897D01*
X189252322Y-108697895D01*
X189252322Y-108697894D01*
X189236761Y-108619666D01*
X189236761Y-108619665D01*
X189220139Y-108594790D01*
X189203633Y-108570086D01*
X189203631Y-108570084D01*
X189203628Y-108570080D01*
X187902918Y-107269370D01*
X187902914Y-107269367D01*
X187853332Y-107236237D01*
X187775104Y-107220677D01*
X187775100Y-107220677D01*
X187696871Y-107236237D01*
X187696870Y-107236237D01*
X187647289Y-107269367D01*
X187647285Y-107269370D01*
X186346575Y-108570080D01*
X186346572Y-108570084D01*
X186313442Y-108619665D01*
X186313442Y-108619666D01*
X186297882Y-108697894D01*
X186297882Y-108697895D01*
X186297882Y-108697897D01*
X186298880Y-108702915D01*
X186302539Y-108721310D01*
X186296310Y-108790902D01*
X186253446Y-108846079D01*
X186187556Y-108869322D01*
X186180921Y-108869500D01*
X185373856Y-108869500D01*
X185284712Y-108893386D01*
X185284709Y-108893387D01*
X185204791Y-108939527D01*
X185204786Y-108939531D01*
X182106480Y-112037837D01*
X182106476Y-112037842D01*
X182060336Y-112117760D01*
X182060335Y-112117763D01*
X182036449Y-112206907D01*
X182036449Y-112956696D01*
X182016764Y-113023735D01*
X181963960Y-113069490D01*
X181957243Y-113072322D01*
X181894323Y-113096697D01*
X181894308Y-113096704D01*
X181720909Y-113204068D01*
X181720907Y-113204070D01*
X181570186Y-113341469D01*
X181447276Y-113504229D01*
X181356371Y-113686790D01*
X181356366Y-113686803D01*
X181300551Y-113882968D01*
X181281734Y-114086050D01*
X181281734Y-114086051D01*
X181300551Y-114289133D01*
X181356366Y-114485298D01*
X181356371Y-114485311D01*
X181447276Y-114667872D01*
X181570186Y-114830632D01*
X181652711Y-114905863D01*
X181688993Y-114965574D01*
X181687232Y-115035422D01*
X181647989Y-115093229D01*
X181583722Y-115120644D01*
X181569173Y-115121500D01*
X175290626Y-115121500D01*
X175223587Y-115101815D01*
X175202945Y-115085181D01*
X174949276Y-114831512D01*
X174949274Y-114831510D01*
X174796399Y-114720440D01*
X174628036Y-114634654D01*
X174448318Y-114576259D01*
X174261686Y-114546700D01*
X174261681Y-114546700D01*
X159806688Y-114546700D01*
X159617725Y-114546700D01*
X159617720Y-114546700D01*
X159431087Y-114576259D01*
X159251369Y-114634654D01*
X159083006Y-114720440D01*
X158995785Y-114783810D01*
X158930133Y-114831510D01*
X158930131Y-114831512D01*
X158930130Y-114831512D01*
X157297908Y-116463733D01*
X157297906Y-116463735D01*
X157256511Y-116520712D01*
X157250292Y-116529273D01*
X157218566Y-116572940D01*
X157186840Y-116616606D01*
X157101054Y-116784969D01*
X157042659Y-116964687D01*
X157013100Y-117151319D01*
X157013100Y-118034463D01*
X156993415Y-118101502D01*
X156940611Y-118147257D01*
X156871453Y-118157201D01*
X156807897Y-118128176D01*
X156770123Y-118069398D01*
X156769834Y-118068398D01*
X156757794Y-118026082D01*
X156724182Y-117907950D01*
X156633273Y-117725379D01*
X156510364Y-117562621D01*
X156510362Y-117562618D01*
X156359641Y-117425219D01*
X156359639Y-117425217D01*
X156186242Y-117317855D01*
X156186235Y-117317851D01*
X156076616Y-117275385D01*
X155996056Y-117244176D01*
X155795576Y-117206700D01*
X155591624Y-117206700D01*
X155391144Y-117244176D01*
X155391141Y-117244176D01*
X155391141Y-117244177D01*
X155200964Y-117317851D01*
X155200957Y-117317855D01*
X155027560Y-117425217D01*
X155027558Y-117425219D01*
X154876837Y-117562618D01*
X154753927Y-117725378D01*
X154663022Y-117907939D01*
X154663017Y-117907952D01*
X154607202Y-118104117D01*
X154588385Y-118307199D01*
X154588385Y-118307200D01*
X154607202Y-118510282D01*
X154663017Y-118706447D01*
X154663022Y-118706460D01*
X154753927Y-118889021D01*
X154876837Y-119051781D01*
X155027558Y-119189180D01*
X155027560Y-119189182D01*
X155074607Y-119218312D01*
X155200963Y-119296548D01*
X155391144Y-119370224D01*
X155591624Y-119407700D01*
X155591626Y-119407700D01*
X155795574Y-119407700D01*
X155795576Y-119407700D01*
X155996056Y-119370224D01*
X156111637Y-119325447D01*
X156181258Y-119319585D01*
X156242999Y-119352294D01*
X156244111Y-119353393D01*
X156617607Y-119726889D01*
X156641259Y-119762286D01*
X156641323Y-119762250D01*
X156641882Y-119763219D01*
X156644487Y-119767117D01*
X156645385Y-119769286D01*
X156645386Y-119769288D01*
X156691531Y-119849212D01*
X156756788Y-119914469D01*
X156756791Y-119914470D01*
X156756794Y-119914473D01*
X156836706Y-119960611D01*
X156836707Y-119960611D01*
X156836712Y-119960614D01*
X156925856Y-119984500D01*
X156925858Y-119984500D01*
X159312942Y-119984500D01*
X159312944Y-119984500D01*
X159402088Y-119960614D01*
X159408172Y-119957101D01*
X159476069Y-119940628D01*
X159542097Y-119963479D01*
X159585288Y-120018399D01*
X159592645Y-120045089D01*
X159602660Y-120108319D01*
X159661054Y-120288036D01*
X159746840Y-120456399D01*
X159857910Y-120609274D01*
X171121326Y-131872690D01*
X171274201Y-131983760D01*
X171356780Y-132025835D01*
X171442567Y-132069547D01*
X171458303Y-132074660D01*
X171515978Y-132114098D01*
X171543175Y-132178457D01*
X171531260Y-132247303D01*
X171507665Y-132280271D01*
X171363445Y-132424491D01*
X171239220Y-132595471D01*
X171143270Y-132783781D01*
X171143269Y-132783784D01*
X171077962Y-132984782D01*
X171044900Y-133193527D01*
X171044900Y-133404872D01*
X171077962Y-133613617D01*
X171143269Y-133814615D01*
X171143270Y-133814618D01*
X171239220Y-134002928D01*
X171363446Y-134173910D01*
X171512890Y-134323354D01*
X171683872Y-134447580D01*
X171776232Y-134494639D01*
X171872181Y-134543529D01*
X171872184Y-134543530D01*
X171972683Y-134576183D01*
X172073184Y-134608838D01*
X172281927Y-134641900D01*
X172281928Y-134641900D01*
X172493272Y-134641900D01*
X172493273Y-134641900D01*
X172702016Y-134608838D01*
X172903018Y-134543529D01*
X173091328Y-134447580D01*
X173262310Y-134323354D01*
X173411754Y-134173910D01*
X173535980Y-134002928D01*
X173631929Y-133814618D01*
X173697238Y-133613616D01*
X173730300Y-133404873D01*
X173730300Y-133326655D01*
X173749985Y-133259616D01*
X173802789Y-133213861D01*
X173871947Y-133203917D01*
X173935503Y-133232942D01*
X173941981Y-133238974D01*
X189301681Y-148598674D01*
X189335166Y-148659997D01*
X189338000Y-148686355D01*
X189338000Y-151732486D01*
X189367559Y-151919118D01*
X189425954Y-152098836D01*
X189511740Y-152267199D01*
X189622810Y-152420073D01*
X189756427Y-152553690D01*
X189909301Y-152664760D01*
X190077668Y-152750547D01*
X190077676Y-152750549D01*
X190081385Y-152752086D01*
X190135794Y-152795920D01*
X190157867Y-152862211D01*
X190140597Y-152929913D01*
X190090243Y-152977137D01*
X189997802Y-153024238D01*
X189844923Y-153135312D01*
X187781304Y-155198931D01*
X187703617Y-155305861D01*
X187703617Y-155305862D01*
X187670240Y-155351800D01*
X187584454Y-155520163D01*
X187526059Y-155699881D01*
X187496500Y-155886513D01*
X187496500Y-163499374D01*
X187476815Y-163566413D01*
X187424011Y-163612168D01*
X187354853Y-163622112D01*
X187291297Y-163593087D01*
X187284819Y-163587055D01*
X180457076Y-156759312D01*
X180457074Y-156759310D01*
X180304199Y-156648240D01*
X180135836Y-156562454D01*
X179956118Y-156504059D01*
X179769486Y-156474500D01*
X179769481Y-156474500D01*
X168080519Y-156474500D01*
X168080514Y-156474500D01*
X167893881Y-156504059D01*
X167714163Y-156562454D01*
X167545800Y-156648240D01*
X167458579Y-156711610D01*
X167392927Y-156759310D01*
X167392925Y-156759312D01*
X167392924Y-156759312D01*
X167259312Y-156892924D01*
X167259312Y-156892925D01*
X167259310Y-156892927D01*
X167238176Y-156922016D01*
X167148240Y-157045800D01*
X167062454Y-157214163D01*
X167004059Y-157393881D01*
X166974500Y-157580513D01*
X166974500Y-157769486D01*
X167004059Y-157956118D01*
X167062454Y-158135836D01*
X167133126Y-158274536D01*
X167148240Y-158304199D01*
X167259310Y-158457073D01*
X167392927Y-158590690D01*
X167545801Y-158701760D01*
X167625347Y-158742290D01*
X167714163Y-158787545D01*
X167714165Y-158787545D01*
X167714168Y-158787547D01*
X167810497Y-158818846D01*
X167893881Y-158845940D01*
X168080514Y-158875500D01*
X168080519Y-158875500D01*
X179126374Y-158875500D01*
X179193413Y-158895185D01*
X179214055Y-158911819D01*
X185514055Y-165211819D01*
X185547540Y-165273142D01*
X185542556Y-165342834D01*
X185500684Y-165398767D01*
X185435220Y-165423184D01*
X185426374Y-165423500D01*
X185325514Y-165423500D01*
X185138881Y-165453059D01*
X184959163Y-165511454D01*
X184790800Y-165597240D01*
X184723503Y-165646135D01*
X184637927Y-165708310D01*
X184637925Y-165708312D01*
X184637924Y-165708312D01*
X184504312Y-165841924D01*
X184504312Y-165841925D01*
X184504310Y-165841927D01*
X184463009Y-165898773D01*
X184393240Y-165994800D01*
X184307454Y-166163163D01*
X184249059Y-166342881D01*
X184219500Y-166529513D01*
X184219500Y-170788486D01*
X184249059Y-170975118D01*
X184307454Y-171154836D01*
X184390006Y-171316852D01*
X184393240Y-171323199D01*
X184504310Y-171476073D01*
X184637927Y-171609690D01*
X184790801Y-171720760D01*
X184870347Y-171761290D01*
X184959163Y-171806545D01*
X184959165Y-171806545D01*
X184959168Y-171806547D01*
X185006549Y-171821942D01*
X185138881Y-171864940D01*
X185325514Y-171894500D01*
X185325519Y-171894500D01*
X185514486Y-171894500D01*
X185701118Y-171864940D01*
X185880832Y-171806547D01*
X186049199Y-171720760D01*
X186202073Y-171609690D01*
X186335690Y-171476073D01*
X186446760Y-171323199D01*
X186532547Y-171154832D01*
X186590940Y-170975118D01*
X186620500Y-170788486D01*
X186620500Y-166617626D01*
X186640185Y-166550587D01*
X186692989Y-166504832D01*
X186762147Y-166494888D01*
X186825703Y-166523913D01*
X186832181Y-166529945D01*
X189781926Y-169479690D01*
X189864393Y-169539606D01*
X189934801Y-169590761D01*
X190051337Y-169650138D01*
X190051339Y-169650139D01*
X190103161Y-169676544D01*
X190103164Y-169676544D01*
X190103168Y-169676547D01*
X190227291Y-169716877D01*
X190282881Y-169734940D01*
X190469514Y-169764500D01*
X190469519Y-169764500D01*
X191164923Y-169764500D01*
X191231962Y-169784185D01*
X191252604Y-169800819D01*
X193409604Y-171957819D01*
X193443089Y-172019142D01*
X193438105Y-172088834D01*
X193396233Y-172144767D01*
X193330769Y-172169184D01*
X193321923Y-172169500D01*
X191648240Y-172169500D01*
X191461607Y-172199059D01*
X191281889Y-172257454D01*
X191113526Y-172343240D01*
X190960649Y-172454312D01*
X190886781Y-172528181D01*
X190825458Y-172561666D01*
X190799100Y-172564500D01*
X184619625Y-172564500D01*
X184552586Y-172544815D01*
X184531944Y-172528181D01*
X183158599Y-171154836D01*
X181782074Y-169778310D01*
X181629199Y-169667240D01*
X181460836Y-169581454D01*
X181281118Y-169523059D01*
X181094486Y-169493500D01*
X181094481Y-169493500D01*
X180905519Y-169493500D01*
X180905514Y-169493500D01*
X180718881Y-169523059D01*
X180539163Y-169581454D01*
X180370800Y-169667240D01*
X180217923Y-169778312D01*
X180084312Y-169911923D01*
X179973240Y-170064800D01*
X179887454Y-170233163D01*
X179829059Y-170412881D01*
X179805587Y-170561081D01*
X179775658Y-170624216D01*
X179716346Y-170661147D01*
X179646483Y-170660149D01*
X179595433Y-170629364D01*
X176819079Y-167853010D01*
X173940380Y-164974310D01*
X173787505Y-164863240D01*
X173619142Y-164777454D01*
X173439424Y-164719059D01*
X173252792Y-164689500D01*
X173252787Y-164689500D01*
X161697164Y-164689500D01*
X161630125Y-164669815D01*
X161584370Y-164617011D01*
X161574426Y-164547853D01*
X161603451Y-164484297D01*
X161609463Y-164477838D01*
X161699072Y-164388229D01*
X161760391Y-164354747D01*
X161770551Y-164352976D01*
X161906762Y-164335044D01*
X162052841Y-164274536D01*
X162178282Y-164178282D01*
X162274536Y-164052841D01*
X162335044Y-163906762D01*
X162355682Y-163750000D01*
X162353641Y-163734500D01*
X162339975Y-163630692D01*
X162335044Y-163593238D01*
X162274536Y-163447159D01*
X162178282Y-163321718D01*
X162052841Y-163225464D01*
X161979299Y-163195002D01*
X161906762Y-163164956D01*
X161906760Y-163164955D01*
X161750001Y-163144318D01*
X161749999Y-163144318D01*
X161593239Y-163164955D01*
X161593237Y-163164956D01*
X161447160Y-163225463D01*
X161321718Y-163321718D01*
X161225463Y-163447160D01*
X161164956Y-163593238D01*
X161162126Y-163614732D01*
X161133858Y-163678629D01*
X161126868Y-163686226D01*
X156209602Y-168603493D01*
X156148279Y-168636978D01*
X156085927Y-168634473D01*
X156009532Y-168611299D01*
X156009533Y-168611299D01*
X155823882Y-168593014D01*
X155803600Y-168591017D01*
X155803599Y-168591017D01*
X155597667Y-168611299D01*
X155399643Y-168671369D01*
X155289498Y-168730243D01*
X155217150Y-168768915D01*
X155217148Y-168768916D01*
X155217147Y-168768917D01*
X155057189Y-168900189D01*
X154925917Y-169060147D01*
X154828369Y-169242643D01*
X154768299Y-169440667D01*
X154748017Y-169646600D01*
X154768299Y-169852532D01*
X154777113Y-169881588D01*
X154828368Y-170050554D01*
X154925915Y-170233050D01*
X154939827Y-170250002D01*
X155057189Y-170393010D01*
X155153809Y-170472302D01*
X155217150Y-170524285D01*
X155399646Y-170621832D01*
X155597666Y-170681900D01*
X155597665Y-170681900D01*
X155616129Y-170683718D01*
X155803600Y-170702183D01*
X156009534Y-170681900D01*
X156207554Y-170621832D01*
X156390050Y-170524285D01*
X156550010Y-170393010D01*
X156681285Y-170233050D01*
X156778832Y-170050554D01*
X156838900Y-169852534D01*
X156854515Y-169693997D01*
X168693034Y-169693997D01*
X168693034Y-169694002D01*
X168712858Y-169920599D01*
X168712860Y-169920610D01*
X168771730Y-170140317D01*
X168771735Y-170140331D01*
X168867863Y-170346478D01*
X168918974Y-170419472D01*
X169598000Y-169740446D01*
X169598000Y-169746661D01*
X169625259Y-169848394D01*
X169677920Y-169939606D01*
X169752394Y-170014080D01*
X169843606Y-170066741D01*
X169945339Y-170094000D01*
X169951553Y-170094000D01*
X169272526Y-170773025D01*
X169345513Y-170824132D01*
X169345521Y-170824136D01*
X169551668Y-170920264D01*
X169551682Y-170920269D01*
X169661613Y-170949725D01*
X169721274Y-170986090D01*
X169751803Y-171048937D01*
X169743508Y-171118312D01*
X169699023Y-171172190D01*
X169632471Y-171193465D01*
X169629520Y-171193500D01*
X169178247Y-171193500D01*
X169119770Y-171205131D01*
X169119769Y-171205132D01*
X169053447Y-171249447D01*
X169009132Y-171315769D01*
X169009131Y-171315770D01*
X168997500Y-171374247D01*
X168997500Y-173013752D01*
X169009131Y-173072229D01*
X169009132Y-173072230D01*
X169053447Y-173138552D01*
X169119769Y-173182867D01*
X169119770Y-173182868D01*
X169178247Y-173194499D01*
X169178250Y-173194500D01*
X169178252Y-173194500D01*
X170817750Y-173194500D01*
X170817751Y-173194499D01*
X170832568Y-173191552D01*
X170876229Y-173182868D01*
X170876229Y-173182867D01*
X170876231Y-173182867D01*
X170942552Y-173138552D01*
X170986867Y-173072231D01*
X170986867Y-173072229D01*
X170986868Y-173072229D01*
X170998499Y-173013752D01*
X170998500Y-173013750D01*
X170998500Y-171374249D01*
X170998499Y-171374247D01*
X170986868Y-171315770D01*
X170986867Y-171315769D01*
X170942552Y-171249447D01*
X170876230Y-171205132D01*
X170876229Y-171205131D01*
X170817752Y-171193500D01*
X170817748Y-171193500D01*
X170366480Y-171193500D01*
X170299441Y-171173815D01*
X170253686Y-171121011D01*
X170243742Y-171051853D01*
X170272767Y-170988297D01*
X170331545Y-170950523D01*
X170334387Y-170949725D01*
X170444317Y-170920269D01*
X170444331Y-170920264D01*
X170650478Y-170824136D01*
X170723471Y-170773024D01*
X170044447Y-170094000D01*
X170050661Y-170094000D01*
X170152394Y-170066741D01*
X170243606Y-170014080D01*
X170318080Y-169939606D01*
X170370741Y-169848394D01*
X170398000Y-169746661D01*
X170398000Y-169740447D01*
X171077024Y-170419471D01*
X171128136Y-170346478D01*
X171224264Y-170140331D01*
X171224269Y-170140317D01*
X171283139Y-169920610D01*
X171283141Y-169920599D01*
X171302966Y-169694002D01*
X171302966Y-169693997D01*
X171283141Y-169467400D01*
X171283139Y-169467389D01*
X171224269Y-169247682D01*
X171224264Y-169247668D01*
X171128136Y-169041521D01*
X171128132Y-169041513D01*
X171077025Y-168968526D01*
X170398000Y-169647551D01*
X170398000Y-169641339D01*
X170370741Y-169539606D01*
X170318080Y-169448394D01*
X170243606Y-169373920D01*
X170152394Y-169321259D01*
X170050661Y-169294000D01*
X170044448Y-169294000D01*
X170723472Y-168614974D01*
X170650478Y-168563863D01*
X170444331Y-168467735D01*
X170444317Y-168467730D01*
X170224610Y-168408860D01*
X170224599Y-168408858D01*
X169998002Y-168389034D01*
X169997998Y-168389034D01*
X169771400Y-168408858D01*
X169771389Y-168408860D01*
X169551682Y-168467730D01*
X169551673Y-168467734D01*
X169345516Y-168563866D01*
X169345512Y-168563868D01*
X169272526Y-168614973D01*
X169272526Y-168614974D01*
X169951553Y-169294000D01*
X169945339Y-169294000D01*
X169843606Y-169321259D01*
X169752394Y-169373920D01*
X169677920Y-169448394D01*
X169625259Y-169539606D01*
X169598000Y-169641339D01*
X169598000Y-169647552D01*
X168918974Y-168968526D01*
X168918973Y-168968526D01*
X168867868Y-169041512D01*
X168867866Y-169041516D01*
X168771734Y-169247673D01*
X168771730Y-169247682D01*
X168712860Y-169467389D01*
X168712858Y-169467400D01*
X168693034Y-169693997D01*
X156854515Y-169693997D01*
X156859183Y-169646600D01*
X156838900Y-169440666D01*
X156815725Y-169364270D01*
X156815103Y-169294404D01*
X156846704Y-169240597D01*
X160130740Y-165956562D01*
X160192061Y-165923079D01*
X160261753Y-165928063D01*
X160317686Y-165969935D01*
X160340892Y-166024846D01*
X160364060Y-166171119D01*
X160422454Y-166350836D01*
X160495853Y-166494888D01*
X160508240Y-166519199D01*
X160619310Y-166672073D01*
X160752927Y-166805690D01*
X160905801Y-166916760D01*
X160969217Y-166949072D01*
X161074163Y-167002545D01*
X161074165Y-167002545D01*
X161074168Y-167002547D01*
X161170497Y-167033846D01*
X161253881Y-167060940D01*
X161440514Y-167090500D01*
X161440519Y-167090500D01*
X172609680Y-167090500D01*
X172676719Y-167110185D01*
X172697361Y-167126819D01*
X177519960Y-171949417D01*
X182247616Y-176677073D01*
X182381233Y-176810690D01*
X182534107Y-176921760D01*
X182610494Y-176960681D01*
X182702469Y-177007545D01*
X182702471Y-177007545D01*
X182702474Y-177007547D01*
X182769127Y-177029204D01*
X182882187Y-177065940D01*
X183068820Y-177095500D01*
X183068825Y-177095500D01*
X192324486Y-177095500D01*
X192511118Y-177065940D01*
X192523619Y-177061878D01*
X192690832Y-177007547D01*
X192859199Y-176921760D01*
X193012074Y-176810690D01*
X193540690Y-176282074D01*
X193651760Y-176129199D01*
X193737547Y-175960832D01*
X193795940Y-175781118D01*
X193815936Y-175654863D01*
X193845865Y-175591728D01*
X193905176Y-175554796D01*
X193975038Y-175555794D01*
X194026090Y-175586579D01*
X197097128Y-178657617D01*
X197130613Y-178718940D01*
X197133447Y-178745298D01*
X197133447Y-179754686D01*
X197163006Y-179941318D01*
X197221401Y-180121036D01*
X197274559Y-180225363D01*
X197307187Y-180289399D01*
X197418257Y-180442274D01*
X203641674Y-186665690D01*
X203794548Y-186776760D01*
X203874094Y-186817290D01*
X203962910Y-186862545D01*
X203962912Y-186862545D01*
X203962915Y-186862547D01*
X204038884Y-186887231D01*
X204142628Y-186920940D01*
X204329261Y-186950500D01*
X204329266Y-186950500D01*
X210344486Y-186950500D01*
X210531118Y-186920940D01*
X210710832Y-186862547D01*
X210879199Y-186776760D01*
X211032073Y-186665690D01*
X211165690Y-186532073D01*
X211276760Y-186379199D01*
X211362547Y-186210832D01*
X211420940Y-186031118D01*
X211426754Y-185994408D01*
X211450500Y-185844484D01*
X211450500Y-185655513D01*
X211420940Y-185468881D01*
X211392428Y-185381131D01*
X211362547Y-185289168D01*
X211362544Y-185289164D01*
X211362544Y-185289161D01*
X211316287Y-185198378D01*
X211303390Y-185129708D01*
X211306995Y-185109996D01*
X211314443Y-185082201D01*
X211314443Y-183135750D01*
X211327957Y-183079457D01*
X211359218Y-183018105D01*
X211368206Y-182961353D01*
X211398134Y-182898222D01*
X211457445Y-182861290D01*
X211527307Y-182862286D01*
X211585541Y-182900895D01*
X211589054Y-182905266D01*
X211606715Y-182928282D01*
X211732156Y-183024536D01*
X211878235Y-183085044D01*
X212034997Y-183105682D01*
X212043592Y-183104550D01*
X212112626Y-183115314D01*
X212147460Y-183139808D01*
X212899140Y-183891487D01*
X213645522Y-184637869D01*
X213710779Y-184703126D01*
X213710782Y-184703127D01*
X213710785Y-184703130D01*
X213790697Y-184749268D01*
X213790698Y-184749268D01*
X213790703Y-184749271D01*
X213879847Y-184773157D01*
X213879849Y-184773157D01*
X218641605Y-184773157D01*
X218641607Y-184773157D01*
X218730751Y-184749271D01*
X218730755Y-184749269D01*
X218732647Y-184748175D01*
X218739371Y-184744294D01*
X218810675Y-184703127D01*
X220876976Y-182636824D01*
X220938299Y-182603340D01*
X221007991Y-182608324D01*
X221063924Y-182650196D01*
X221088341Y-182715660D01*
X221088657Y-182724506D01*
X221088657Y-185623540D01*
X221088657Y-185810774D01*
X221093798Y-185836621D01*
X221095362Y-185844480D01*
X221095362Y-185844482D01*
X221125182Y-185994400D01*
X221125184Y-185994408D01*
X221140390Y-186031118D01*
X221140390Y-186031119D01*
X221196830Y-186167380D01*
X221196837Y-186167393D01*
X221300854Y-186323064D01*
X221300857Y-186323068D01*
X222152088Y-187174299D01*
X222152092Y-187174302D01*
X222307763Y-187278319D01*
X222307776Y-187278326D01*
X222437505Y-187332060D01*
X222480750Y-187349973D01*
X222480752Y-187349973D01*
X222480757Y-187349975D01*
X222664379Y-187386499D01*
X222664383Y-187386500D01*
X222664384Y-187386500D01*
X222851618Y-187386500D01*
X222851618Y-187386499D01*
X222918536Y-187373189D01*
X222988128Y-187379416D01*
X223043305Y-187422279D01*
X223066550Y-187488169D01*
X223050482Y-187556166D01*
X223030409Y-187582487D01*
X222099716Y-188513181D01*
X222038393Y-188546666D01*
X222012035Y-188549500D01*
X200691419Y-188549500D01*
X200624380Y-188529815D01*
X200615933Y-188523876D01*
X200552842Y-188475464D01*
X200406762Y-188414956D01*
X200406760Y-188414955D01*
X200250001Y-188394318D01*
X200249999Y-188394318D01*
X200093239Y-188414955D01*
X200093237Y-188414956D01*
X199947160Y-188475463D01*
X199821718Y-188571718D01*
X199725463Y-188697160D01*
X199664956Y-188843237D01*
X199664955Y-188843239D01*
X199644318Y-188999998D01*
X199644318Y-189000001D01*
X199664955Y-189156760D01*
X199664956Y-189156762D01*
X199719362Y-189288111D01*
X199725464Y-189302841D01*
X199821718Y-189428282D01*
X199947159Y-189524536D01*
X200093238Y-189585044D01*
X200171619Y-189595363D01*
X200249999Y-189605682D01*
X200250000Y-189605682D01*
X200250001Y-189605682D01*
X200322228Y-189596173D01*
X200406762Y-189585044D01*
X200552841Y-189524536D01*
X200615933Y-189476123D01*
X200681102Y-189450930D01*
X200691419Y-189450500D01*
X222309308Y-189450500D01*
X222309309Y-189450500D01*
X222399673Y-189426286D01*
X222423887Y-189419799D01*
X222526614Y-189360489D01*
X223130924Y-188756177D01*
X223192247Y-188722693D01*
X223261938Y-188727677D01*
X223317872Y-188769548D01*
X223340222Y-188819668D01*
X223368025Y-188959443D01*
X223368027Y-188959451D01*
X223439676Y-189132428D01*
X223439681Y-189132437D01*
X223543697Y-189288107D01*
X223543700Y-189288111D01*
X223676088Y-189420499D01*
X223676092Y-189420502D01*
X223831762Y-189524518D01*
X223831766Y-189524520D01*
X223831769Y-189524522D01*
X223831803Y-189524536D01*
X223949140Y-189573139D01*
X224003543Y-189616980D01*
X224025608Y-189683274D01*
X224008329Y-189750974D01*
X223957191Y-189798584D01*
X223901687Y-189811700D01*
X213535956Y-189811700D01*
X213535555Y-189811699D01*
X213355140Y-189811115D01*
X212978459Y-189844855D01*
X212688792Y-189898180D01*
X212606532Y-189913324D01*
X212606529Y-189913324D01*
X212606518Y-189913327D01*
X212242547Y-190015934D01*
X212242539Y-190015937D01*
X211889615Y-190151810D01*
X211889611Y-190151812D01*
X211550784Y-190319777D01*
X211228961Y-190518395D01*
X211228951Y-190518403D01*
X210926917Y-190745953D01*
X210926909Y-190745960D01*
X210802705Y-190858966D01*
X210802670Y-190858994D01*
X207255280Y-194087649D01*
X207250960Y-194091402D01*
X206978837Y-194317022D01*
X206969702Y-194323910D01*
X206680291Y-194521884D01*
X206670573Y-194527893D01*
X206418075Y-194668351D01*
X206364137Y-194698356D01*
X206353893Y-194703450D01*
X206033058Y-194844939D01*
X206022388Y-194849068D01*
X205689867Y-194960387D01*
X205678862Y-194963514D01*
X205337518Y-195043707D01*
X205326284Y-195045805D01*
X205028617Y-195087281D01*
X204978982Y-195094198D01*
X204967590Y-195095252D01*
X204614289Y-195111568D01*
X204608569Y-195111700D01*
X194535964Y-195111700D01*
X194530257Y-195111569D01*
X194177934Y-195095335D01*
X194166568Y-195094285D01*
X193820081Y-195046120D01*
X193808860Y-195044030D01*
X193468262Y-194964207D01*
X193457280Y-194961094D01*
X193125469Y-194850292D01*
X193114821Y-194846182D01*
X192794593Y-194705333D01*
X192784367Y-194700261D01*
X192478465Y-194530572D01*
X192468749Y-194524582D01*
X192332572Y-194431711D01*
X192179723Y-194327470D01*
X192170613Y-194320621D01*
X191898863Y-194096051D01*
X191894388Y-194092170D01*
X189588769Y-191993713D01*
X194284800Y-191993713D01*
X194284800Y-192206286D01*
X194318053Y-192416239D01*
X194383744Y-192618414D01*
X194480251Y-192807820D01*
X194605190Y-192979786D01*
X194755513Y-193130109D01*
X194927479Y-193255048D01*
X194927481Y-193255049D01*
X194927484Y-193255051D01*
X195116888Y-193351557D01*
X195319057Y-193417246D01*
X195529013Y-193450500D01*
X195529014Y-193450500D01*
X195741586Y-193450500D01*
X195741587Y-193450500D01*
X195951543Y-193417246D01*
X196153712Y-193351557D01*
X196343116Y-193255051D01*
X196365089Y-193239086D01*
X196515086Y-193130109D01*
X196515088Y-193130106D01*
X196515092Y-193130104D01*
X196665404Y-192979792D01*
X196665406Y-192979788D01*
X196665409Y-192979786D01*
X196790348Y-192807820D01*
X196790347Y-192807820D01*
X196790351Y-192807816D01*
X196886857Y-192618412D01*
X196952546Y-192416243D01*
X196985800Y-192206287D01*
X196985800Y-191993713D01*
X202158800Y-191993713D01*
X202158800Y-192206286D01*
X202192053Y-192416239D01*
X202257744Y-192618414D01*
X202354251Y-192807820D01*
X202479190Y-192979786D01*
X202629513Y-193130109D01*
X202801479Y-193255048D01*
X202801481Y-193255049D01*
X202801484Y-193255051D01*
X202990888Y-193351557D01*
X203193057Y-193417246D01*
X203403013Y-193450500D01*
X203403014Y-193450500D01*
X203615586Y-193450500D01*
X203615587Y-193450500D01*
X203825543Y-193417246D01*
X204027712Y-193351557D01*
X204217116Y-193255051D01*
X204239089Y-193239086D01*
X204389086Y-193130109D01*
X204389088Y-193130106D01*
X204389092Y-193130104D01*
X204539404Y-192979792D01*
X204539406Y-192979788D01*
X204539409Y-192979786D01*
X204664348Y-192807820D01*
X204664347Y-192807820D01*
X204664351Y-192807816D01*
X204760857Y-192618412D01*
X204826546Y-192416243D01*
X204859800Y-192206287D01*
X204859800Y-191993713D01*
X204826546Y-191783757D01*
X204760857Y-191581588D01*
X204664351Y-191392184D01*
X204664349Y-191392181D01*
X204664348Y-191392179D01*
X204539409Y-191220213D01*
X204389086Y-191069890D01*
X204217120Y-190944951D01*
X204027714Y-190848444D01*
X204027713Y-190848443D01*
X204027712Y-190848443D01*
X203825543Y-190782754D01*
X203825541Y-190782753D01*
X203825540Y-190782753D01*
X203642243Y-190753722D01*
X203615587Y-190749500D01*
X203403013Y-190749500D01*
X203376357Y-190753722D01*
X203193060Y-190782753D01*
X202990885Y-190848444D01*
X202801479Y-190944951D01*
X202629513Y-191069890D01*
X202479190Y-191220213D01*
X202354251Y-191392179D01*
X202257744Y-191581585D01*
X202192053Y-191783760D01*
X202158800Y-191993713D01*
X196985800Y-191993713D01*
X196952546Y-191783757D01*
X196886857Y-191581588D01*
X196790351Y-191392184D01*
X196790349Y-191392181D01*
X196790348Y-191392179D01*
X196665409Y-191220213D01*
X196515086Y-191069890D01*
X196343120Y-190944951D01*
X196153714Y-190848444D01*
X196153713Y-190848443D01*
X196153712Y-190848443D01*
X195951543Y-190782754D01*
X195951541Y-190782753D01*
X195951540Y-190782753D01*
X195768243Y-190753722D01*
X195741587Y-190749500D01*
X195529013Y-190749500D01*
X195502357Y-190753722D01*
X195319060Y-190782753D01*
X195116885Y-190848444D01*
X194927479Y-190944951D01*
X194755513Y-191069890D01*
X194605190Y-191220213D01*
X194480251Y-191392179D01*
X194383744Y-191581585D01*
X194318053Y-191783760D01*
X194284800Y-191993713D01*
X189588769Y-191993713D01*
X188338514Y-190855794D01*
X188338461Y-190855754D01*
X188218414Y-190746479D01*
X188218410Y-190746476D01*
X188217724Y-190745959D01*
X188073280Y-190637037D01*
X187917849Y-190519830D01*
X187735897Y-190407320D01*
X187597684Y-190321856D01*
X187260634Y-190154233D01*
X187260629Y-190154231D01*
X187260621Y-190154227D01*
X186909581Y-190018394D01*
X186909574Y-190018391D01*
X186909570Y-190018390D01*
X186909566Y-190018389D01*
X186909555Y-190018385D01*
X186547495Y-189915486D01*
X186547467Y-189915479D01*
X186282174Y-189865942D01*
X186177444Y-189846386D01*
X186052501Y-189834821D01*
X185802617Y-189811691D01*
X185802615Y-189811691D01*
X185614400Y-189811700D01*
X158156306Y-189811700D01*
X158150897Y-189811582D01*
X157729808Y-189793197D01*
X157719032Y-189792254D01*
X157303842Y-189737593D01*
X157293189Y-189735715D01*
X156997006Y-189670053D01*
X156884329Y-189645073D01*
X156873886Y-189642275D01*
X156474480Y-189516342D01*
X156464317Y-189512643D01*
X156077414Y-189352383D01*
X156067610Y-189347811D01*
X155696157Y-189154444D01*
X155686789Y-189149036D01*
X155333585Y-188924020D01*
X155324724Y-188917815D01*
X154992484Y-188662879D01*
X154984197Y-188655925D01*
X154675444Y-188373004D01*
X154667795Y-188365355D01*
X154384874Y-188056602D01*
X154377920Y-188048315D01*
X154122984Y-187716075D01*
X154116779Y-187707214D01*
X153891763Y-187354010D01*
X153886355Y-187344642D01*
X153851833Y-187278326D01*
X153692985Y-186973182D01*
X153688416Y-186963385D01*
X153687881Y-186962093D01*
X153528150Y-186576467D01*
X153524461Y-186566332D01*
X153398519Y-186166898D01*
X153395730Y-186156486D01*
X153305081Y-185747597D01*
X153303208Y-185736971D01*
X153248543Y-185321747D01*
X153247603Y-185311010D01*
X153229218Y-184889901D01*
X153229100Y-184884493D01*
X153229100Y-181959999D01*
X153757364Y-181959999D01*
X153757364Y-181960000D01*
X154654988Y-181960000D01*
X154622075Y-182017007D01*
X154588000Y-182144174D01*
X154588000Y-182275826D01*
X154622075Y-182402993D01*
X154654988Y-182460000D01*
X153757364Y-182460000D01*
X153814567Y-182673486D01*
X153814570Y-182673492D01*
X153914399Y-182887578D01*
X154049894Y-183081082D01*
X154216917Y-183248105D01*
X154410421Y-183383600D01*
X154580948Y-183463118D01*
X154633387Y-183509290D01*
X154652539Y-183576484D01*
X154632323Y-183643365D01*
X154579158Y-183688700D01*
X154528543Y-183699500D01*
X154218247Y-183699500D01*
X154159770Y-183711131D01*
X154159769Y-183711132D01*
X154093447Y-183755447D01*
X154049132Y-183821769D01*
X154049131Y-183821770D01*
X154037500Y-183880247D01*
X154037500Y-185619752D01*
X154049131Y-185678229D01*
X154049132Y-185678230D01*
X154093447Y-185744552D01*
X154159769Y-185788867D01*
X154159770Y-185788868D01*
X154218247Y-185800499D01*
X154218250Y-185800500D01*
X154218252Y-185800500D01*
X155957750Y-185800500D01*
X155957751Y-185800499D01*
X155972568Y-185797552D01*
X156016229Y-185788868D01*
X156016229Y-185788867D01*
X156016231Y-185788867D01*
X156082552Y-185744552D01*
X156126867Y-185678231D01*
X156126867Y-185678229D01*
X156126868Y-185678229D01*
X156138499Y-185619752D01*
X156138500Y-185619750D01*
X156138500Y-185553995D01*
X159732732Y-185553995D01*
X159732732Y-185554004D01*
X159751777Y-185808154D01*
X159802667Y-186031119D01*
X159808492Y-186056637D01*
X159901607Y-186293888D01*
X160029041Y-186514612D01*
X160187950Y-186713877D01*
X160374783Y-186887232D01*
X160585366Y-187030805D01*
X160585371Y-187030807D01*
X160585372Y-187030808D01*
X160585373Y-187030809D01*
X160707328Y-187089538D01*
X160814992Y-187141387D01*
X160814993Y-187141387D01*
X160814996Y-187141389D01*
X161058542Y-187216513D01*
X161310565Y-187254500D01*
X161565435Y-187254500D01*
X161817458Y-187216513D01*
X162061004Y-187141389D01*
X162290634Y-187030805D01*
X162501217Y-186887232D01*
X162688050Y-186713877D01*
X162846959Y-186514612D01*
X162974393Y-186293888D01*
X162996870Y-186236618D01*
X184898034Y-186236618D01*
X184898034Y-186236623D01*
X184917858Y-186463220D01*
X184917860Y-186463231D01*
X184976730Y-186682938D01*
X184976735Y-186682952D01*
X185072863Y-186889099D01*
X185123974Y-186962093D01*
X185803000Y-186283067D01*
X185803000Y-186289282D01*
X185830259Y-186391015D01*
X185882920Y-186482227D01*
X185957394Y-186556701D01*
X186048606Y-186609362D01*
X186150339Y-186636621D01*
X186156553Y-186636621D01*
X185477526Y-187315646D01*
X185550513Y-187366753D01*
X185550521Y-187366757D01*
X185756668Y-187462885D01*
X185756682Y-187462890D01*
X185976389Y-187521760D01*
X185976400Y-187521762D01*
X186202998Y-187541587D01*
X186203002Y-187541587D01*
X186429599Y-187521762D01*
X186429610Y-187521760D01*
X186649317Y-187462890D01*
X186649331Y-187462885D01*
X186855478Y-187366757D01*
X186928471Y-187315645D01*
X186249447Y-186636621D01*
X186255661Y-186636621D01*
X186357394Y-186609362D01*
X186448606Y-186556701D01*
X186523080Y-186482227D01*
X186575741Y-186391015D01*
X186603000Y-186289282D01*
X186603000Y-186283068D01*
X187282024Y-186962092D01*
X187333136Y-186889099D01*
X187429264Y-186682952D01*
X187429269Y-186682938D01*
X187488139Y-186463231D01*
X187488141Y-186463220D01*
X187507966Y-186236623D01*
X187507966Y-186236618D01*
X187488141Y-186010021D01*
X187488139Y-186010010D01*
X187429269Y-185790303D01*
X187429264Y-185790289D01*
X187333136Y-185584142D01*
X187333132Y-185584134D01*
X187309404Y-185550247D01*
X190809500Y-185550247D01*
X190809500Y-187289752D01*
X190821131Y-187348229D01*
X190821132Y-187348230D01*
X190865447Y-187414552D01*
X190931769Y-187458867D01*
X190931770Y-187458868D01*
X190990247Y-187470499D01*
X190990250Y-187470500D01*
X190990252Y-187470500D01*
X192729750Y-187470500D01*
X192729751Y-187470499D01*
X192744568Y-187467552D01*
X192788229Y-187458868D01*
X192788229Y-187458867D01*
X192788231Y-187458867D01*
X192854552Y-187414552D01*
X192898867Y-187348231D01*
X192898867Y-187348229D01*
X192898868Y-187348229D01*
X192910499Y-187289752D01*
X192910500Y-187289750D01*
X192910500Y-185550249D01*
X192910499Y-185550247D01*
X194649500Y-185550247D01*
X194649500Y-187289752D01*
X194661131Y-187348229D01*
X194661132Y-187348230D01*
X194705447Y-187414552D01*
X194771769Y-187458867D01*
X194771770Y-187458868D01*
X194830247Y-187470499D01*
X194830250Y-187470500D01*
X194830252Y-187470500D01*
X196569750Y-187470500D01*
X196569751Y-187470499D01*
X196584568Y-187467552D01*
X196628229Y-187458868D01*
X196628229Y-187458867D01*
X196628231Y-187458867D01*
X196694552Y-187414552D01*
X196738867Y-187348231D01*
X196738867Y-187348229D01*
X196738868Y-187348229D01*
X196750499Y-187289752D01*
X196750500Y-187289750D01*
X196750500Y-185550249D01*
X196750499Y-185550247D01*
X196738868Y-185491770D01*
X196738867Y-185491769D01*
X196694552Y-185425447D01*
X196628230Y-185381132D01*
X196628229Y-185381131D01*
X196569752Y-185369500D01*
X196569748Y-185369500D01*
X194830252Y-185369500D01*
X194830247Y-185369500D01*
X194771770Y-185381131D01*
X194771769Y-185381132D01*
X194705447Y-185425447D01*
X194661132Y-185491769D01*
X194661131Y-185491770D01*
X194649500Y-185550247D01*
X192910499Y-185550247D01*
X192898868Y-185491770D01*
X192898867Y-185491769D01*
X192854552Y-185425447D01*
X192788230Y-185381132D01*
X192788229Y-185381131D01*
X192729752Y-185369500D01*
X192729748Y-185369500D01*
X190990252Y-185369500D01*
X190990247Y-185369500D01*
X190931770Y-185381131D01*
X190931769Y-185381132D01*
X190865447Y-185425447D01*
X190821132Y-185491769D01*
X190821131Y-185491770D01*
X190809500Y-185550247D01*
X187309404Y-185550247D01*
X187282025Y-185511147D01*
X186603000Y-186190172D01*
X186603000Y-186183960D01*
X186575741Y-186082227D01*
X186523080Y-185991015D01*
X186448606Y-185916541D01*
X186357394Y-185863880D01*
X186255661Y-185836621D01*
X186249448Y-185836621D01*
X186928472Y-185157595D01*
X186855478Y-185106484D01*
X186649331Y-185010356D01*
X186649317Y-185010351D01*
X186539387Y-184980896D01*
X186479726Y-184944531D01*
X186449197Y-184881684D01*
X186457492Y-184812309D01*
X186501977Y-184758431D01*
X186568529Y-184737156D01*
X186571480Y-184737121D01*
X187022750Y-184737121D01*
X187022751Y-184737120D01*
X187037568Y-184734173D01*
X187081229Y-184725489D01*
X187081229Y-184725488D01*
X187081231Y-184725488D01*
X187147552Y-184681173D01*
X187191867Y-184614852D01*
X187191867Y-184614850D01*
X187191868Y-184614850D01*
X187203499Y-184556373D01*
X187203500Y-184556371D01*
X187203500Y-182916870D01*
X187203499Y-182916868D01*
X187191868Y-182858391D01*
X187191867Y-182858390D01*
X187147552Y-182792068D01*
X187081230Y-182747753D01*
X187081229Y-182747752D01*
X187022752Y-182736121D01*
X187022748Y-182736121D01*
X185383252Y-182736121D01*
X185383247Y-182736121D01*
X185324770Y-182747752D01*
X185324769Y-182747753D01*
X185258447Y-182792068D01*
X185214132Y-182858390D01*
X185214131Y-182858391D01*
X185202500Y-182916868D01*
X185202500Y-184556373D01*
X185214131Y-184614850D01*
X185214132Y-184614851D01*
X185258447Y-184681173D01*
X185324769Y-184725488D01*
X185324770Y-184725489D01*
X185383247Y-184737120D01*
X185383250Y-184737121D01*
X185834520Y-184737121D01*
X185901559Y-184756806D01*
X185947314Y-184809610D01*
X185957258Y-184878768D01*
X185928233Y-184942324D01*
X185869455Y-184980098D01*
X185866613Y-184980896D01*
X185756682Y-185010351D01*
X185756673Y-185010355D01*
X185550516Y-185106487D01*
X185550512Y-185106489D01*
X185477526Y-185157594D01*
X185477526Y-185157595D01*
X186156553Y-185836621D01*
X186150339Y-185836621D01*
X186048606Y-185863880D01*
X185957394Y-185916541D01*
X185882920Y-185991015D01*
X185830259Y-186082227D01*
X185803000Y-186183960D01*
X185803000Y-186190173D01*
X185123974Y-185511147D01*
X185123973Y-185511147D01*
X185072868Y-185584133D01*
X185072866Y-185584137D01*
X184976734Y-185790294D01*
X184976730Y-185790303D01*
X184917860Y-186010010D01*
X184917858Y-186010021D01*
X184898034Y-186236618D01*
X162996870Y-186236618D01*
X163067508Y-186056637D01*
X163124222Y-185808157D01*
X163133958Y-185678231D01*
X163143268Y-185554004D01*
X163143268Y-185553995D01*
X163125865Y-185321767D01*
X163124222Y-185299843D01*
X163067508Y-185051363D01*
X162974393Y-184814112D01*
X162846959Y-184593388D01*
X162688050Y-184394123D01*
X162501217Y-184220768D01*
X162290634Y-184077195D01*
X162290630Y-184077193D01*
X162290627Y-184077191D01*
X162290626Y-184077190D01*
X162061006Y-183966612D01*
X162061008Y-183966612D01*
X161817466Y-183891489D01*
X161817462Y-183891488D01*
X161817458Y-183891487D01*
X161696231Y-183873214D01*
X161565440Y-183853500D01*
X161565435Y-183853500D01*
X161310565Y-183853500D01*
X161310559Y-183853500D01*
X161153609Y-183877157D01*
X161058542Y-183891487D01*
X161058539Y-183891488D01*
X161058533Y-183891489D01*
X160814992Y-183966612D01*
X160585373Y-184077190D01*
X160585372Y-184077191D01*
X160374782Y-184220768D01*
X160187952Y-184394121D01*
X160187950Y-184394123D01*
X160029041Y-184593388D01*
X159901608Y-184814109D01*
X159808492Y-185051362D01*
X159808490Y-185051369D01*
X159751777Y-185299845D01*
X159732732Y-185553995D01*
X156138500Y-185553995D01*
X156138500Y-183880249D01*
X156138499Y-183880247D01*
X156126868Y-183821770D01*
X156126867Y-183821769D01*
X156082552Y-183755447D01*
X156016230Y-183711132D01*
X156016229Y-183711131D01*
X155957752Y-183699500D01*
X155957748Y-183699500D01*
X155647457Y-183699500D01*
X155580418Y-183679815D01*
X155534663Y-183627011D01*
X155524719Y-183557853D01*
X155553744Y-183494297D01*
X155595052Y-183463118D01*
X155765578Y-183383600D01*
X155959082Y-183248105D01*
X156126105Y-183081082D01*
X156261600Y-182887578D01*
X156361429Y-182673492D01*
X156361432Y-182673486D01*
X156418636Y-182460000D01*
X155521012Y-182460000D01*
X155553925Y-182402993D01*
X155588000Y-182275826D01*
X155588000Y-182144174D01*
X155553925Y-182017007D01*
X155521012Y-181960000D01*
X156418636Y-181960000D01*
X156418635Y-181959999D01*
X156361432Y-181746513D01*
X156361429Y-181746507D01*
X156261600Y-181532422D01*
X156261599Y-181532420D01*
X156126113Y-181338926D01*
X156126108Y-181338920D01*
X155959082Y-181171894D01*
X155765578Y-181036399D01*
X155551492Y-180936570D01*
X155551486Y-180936567D01*
X155338000Y-180879364D01*
X155338000Y-181776988D01*
X155280993Y-181744075D01*
X155153826Y-181710000D01*
X155022174Y-181710000D01*
X154895007Y-181744075D01*
X154838000Y-181776988D01*
X154838000Y-180879364D01*
X154837999Y-180879364D01*
X154624513Y-180936567D01*
X154624507Y-180936570D01*
X154410422Y-181036399D01*
X154410420Y-181036400D01*
X154216926Y-181171886D01*
X154216920Y-181171891D01*
X154049891Y-181338920D01*
X154049886Y-181338926D01*
X153914400Y-181532420D01*
X153914399Y-181532422D01*
X153814570Y-181746507D01*
X153814567Y-181746513D01*
X153757364Y-181959999D01*
X153229100Y-181959999D01*
X153229100Y-180727995D01*
X159732732Y-180727995D01*
X159732732Y-180728004D01*
X159751777Y-180982154D01*
X159806128Y-181220283D01*
X159808492Y-181230637D01*
X159901607Y-181467888D01*
X160029041Y-181688612D01*
X160187950Y-181887877D01*
X160374783Y-182061232D01*
X160585366Y-182204805D01*
X160585371Y-182204807D01*
X160585372Y-182204808D01*
X160585373Y-182204809D01*
X160702565Y-182261245D01*
X160814992Y-182315387D01*
X160814993Y-182315387D01*
X160814996Y-182315389D01*
X161058542Y-182390513D01*
X161310565Y-182428500D01*
X161565435Y-182428500D01*
X161817458Y-182390513D01*
X162061004Y-182315389D01*
X162251421Y-182223689D01*
X162290626Y-182204809D01*
X162290626Y-182204808D01*
X162290634Y-182204805D01*
X162501217Y-182061232D01*
X162688050Y-181887877D01*
X162846959Y-181688612D01*
X162974393Y-181467888D01*
X163067508Y-181230637D01*
X163124222Y-180982157D01*
X163143268Y-180728000D01*
X163136745Y-180640960D01*
X163124222Y-180473845D01*
X163117016Y-180442274D01*
X163067508Y-180225363D01*
X162974393Y-179988112D01*
X162846959Y-179767388D01*
X162688050Y-179568123D01*
X162501217Y-179394768D01*
X162290634Y-179251195D01*
X162290630Y-179251193D01*
X162290627Y-179251191D01*
X162290626Y-179251190D01*
X162061006Y-179140612D01*
X162061008Y-179140612D01*
X161817466Y-179065489D01*
X161817462Y-179065488D01*
X161817458Y-179065487D01*
X161696231Y-179047214D01*
X161565440Y-179027500D01*
X161565435Y-179027500D01*
X161310565Y-179027500D01*
X161310559Y-179027500D01*
X161153609Y-179051157D01*
X161058542Y-179065487D01*
X161058539Y-179065488D01*
X161058533Y-179065489D01*
X160814992Y-179140612D01*
X160585373Y-179251190D01*
X160585372Y-179251191D01*
X160374782Y-179394768D01*
X160187952Y-179568121D01*
X160187950Y-179568123D01*
X160029041Y-179767388D01*
X159901608Y-179988109D01*
X159808492Y-180225362D01*
X159808490Y-180225369D01*
X159751777Y-180473845D01*
X159732732Y-180727995D01*
X153229100Y-180727995D01*
X153229100Y-177755513D01*
X153939500Y-177755513D01*
X153939500Y-177944486D01*
X153969059Y-178131118D01*
X154027454Y-178310836D01*
X154075985Y-178406081D01*
X154089500Y-178462376D01*
X154089500Y-178719752D01*
X154101131Y-178778229D01*
X154101132Y-178778230D01*
X154145447Y-178844552D01*
X154211769Y-178888867D01*
X154211770Y-178888868D01*
X154270247Y-178900499D01*
X154270250Y-178900500D01*
X154270252Y-178900500D01*
X154527624Y-178900500D01*
X154583919Y-178914015D01*
X154679163Y-178962545D01*
X154679165Y-178962545D01*
X154679168Y-178962547D01*
X154775497Y-178993846D01*
X154858881Y-179020940D01*
X155045514Y-179050500D01*
X155045519Y-179050500D01*
X159584486Y-179050500D01*
X159771118Y-179020940D01*
X159950832Y-178962547D01*
X160119199Y-178876760D01*
X160272074Y-178765690D01*
X161398945Y-177638819D01*
X161460268Y-177605334D01*
X161486626Y-177602500D01*
X161565435Y-177602500D01*
X161817458Y-177564513D01*
X162061004Y-177489389D01*
X162247660Y-177399500D01*
X162290626Y-177378809D01*
X162290626Y-177378808D01*
X162290634Y-177378805D01*
X162501217Y-177235232D01*
X162688050Y-177061877D01*
X162846959Y-176862612D01*
X162974393Y-176641888D01*
X163067508Y-176404637D01*
X163124222Y-176156157D01*
X163141199Y-175929611D01*
X163143268Y-175902004D01*
X163143268Y-175901995D01*
X163124222Y-175647845D01*
X163114380Y-175604725D01*
X163067508Y-175399363D01*
X162974393Y-175162112D01*
X162846959Y-174941388D01*
X162688050Y-174742123D01*
X162501217Y-174568768D01*
X162290634Y-174425195D01*
X162290630Y-174425193D01*
X162290627Y-174425191D01*
X162290626Y-174425190D01*
X162061006Y-174314612D01*
X162061008Y-174314612D01*
X161817466Y-174239489D01*
X161817462Y-174239488D01*
X161817458Y-174239487D01*
X161696231Y-174221214D01*
X161565440Y-174201500D01*
X161565435Y-174201500D01*
X161310565Y-174201500D01*
X161310559Y-174201500D01*
X161153609Y-174225157D01*
X161058542Y-174239487D01*
X161058539Y-174239488D01*
X161058533Y-174239489D01*
X160814992Y-174314612D01*
X160585373Y-174425190D01*
X160585372Y-174425191D01*
X160374782Y-174568768D01*
X160187952Y-174742121D01*
X160187950Y-174742123D01*
X160029041Y-174941388D01*
X159901608Y-175162109D01*
X159808492Y-175399362D01*
X159808490Y-175399369D01*
X159751777Y-175647845D01*
X159735562Y-175864230D01*
X159710923Y-175929611D01*
X159699590Y-175942645D01*
X159029055Y-176613181D01*
X158967732Y-176646666D01*
X158941374Y-176649500D01*
X155045514Y-176649500D01*
X154858881Y-176679059D01*
X154679163Y-176737454D01*
X154583919Y-176785985D01*
X154527624Y-176799500D01*
X154270247Y-176799500D01*
X154211770Y-176811131D01*
X154211769Y-176811132D01*
X154145447Y-176855447D01*
X154101132Y-176921769D01*
X154101131Y-176921770D01*
X154089500Y-176980247D01*
X154089500Y-177237623D01*
X154075985Y-177293918D01*
X154027454Y-177389163D01*
X153969059Y-177568881D01*
X153939500Y-177755513D01*
X153229100Y-177755513D01*
X153229100Y-171316847D01*
X154753100Y-171316847D01*
X154753100Y-173056352D01*
X154764731Y-173114829D01*
X154764732Y-173114830D01*
X154809047Y-173181152D01*
X154875369Y-173225467D01*
X154875370Y-173225468D01*
X154933847Y-173237099D01*
X154933850Y-173237100D01*
X154933852Y-173237100D01*
X156673350Y-173237100D01*
X156673351Y-173237099D01*
X156688168Y-173234152D01*
X156731829Y-173225468D01*
X156731829Y-173225467D01*
X156731831Y-173225467D01*
X156798152Y-173181152D01*
X156842467Y-173114831D01*
X156842467Y-173114829D01*
X156842468Y-173114829D01*
X156854099Y-173056352D01*
X156854100Y-173056350D01*
X156854100Y-171316849D01*
X156854099Y-171316847D01*
X156842468Y-171258370D01*
X156842467Y-171258369D01*
X156798152Y-171192047D01*
X156731830Y-171147732D01*
X156731829Y-171147731D01*
X156673352Y-171136100D01*
X156673348Y-171136100D01*
X154933852Y-171136100D01*
X154933847Y-171136100D01*
X154875370Y-171147731D01*
X154875369Y-171147732D01*
X154809047Y-171192047D01*
X154764732Y-171258369D01*
X154764731Y-171258370D01*
X154753100Y-171316847D01*
X153229100Y-171316847D01*
X153229100Y-164316599D01*
X154472964Y-164316599D01*
X154472964Y-164316600D01*
X155370588Y-164316600D01*
X155337675Y-164373607D01*
X155303600Y-164500774D01*
X155303600Y-164632426D01*
X155337675Y-164759593D01*
X155370588Y-164816600D01*
X154472964Y-164816600D01*
X154530167Y-165030086D01*
X154530170Y-165030092D01*
X154629999Y-165244178D01*
X154765494Y-165437682D01*
X154932517Y-165604705D01*
X155126021Y-165740200D01*
X155340107Y-165840029D01*
X155340116Y-165840033D01*
X155462249Y-165872758D01*
X155521910Y-165909123D01*
X155552439Y-165971969D01*
X155544145Y-166041345D01*
X155499659Y-166095223D01*
X155466152Y-166111193D01*
X155399646Y-166131367D01*
X155293928Y-166187876D01*
X155217150Y-166228915D01*
X155217148Y-166228916D01*
X155217147Y-166228917D01*
X155057189Y-166360189D01*
X154926695Y-166519199D01*
X154925915Y-166520150D01*
X154917466Y-166535957D01*
X154828369Y-166702643D01*
X154768299Y-166900667D01*
X154748017Y-167106600D01*
X154768299Y-167312532D01*
X154768300Y-167312534D01*
X154828368Y-167510554D01*
X154925915Y-167693050D01*
X154925917Y-167693052D01*
X155057189Y-167853010D01*
X155150540Y-167929620D01*
X155217150Y-167984285D01*
X155399646Y-168081832D01*
X155597666Y-168141900D01*
X155597665Y-168141900D01*
X155616129Y-168143718D01*
X155803600Y-168162183D01*
X156009534Y-168141900D01*
X156207554Y-168081832D01*
X156390050Y-167984285D01*
X156550010Y-167853010D01*
X156681285Y-167693050D01*
X156778832Y-167510554D01*
X156838900Y-167312534D01*
X156859183Y-167106600D01*
X156838900Y-166900666D01*
X156778832Y-166702646D01*
X156681285Y-166520150D01*
X156629302Y-166456809D01*
X156550010Y-166360189D01*
X156390052Y-166228917D01*
X156390053Y-166228917D01*
X156390050Y-166228915D01*
X156207554Y-166131368D01*
X156141047Y-166111193D01*
X156082609Y-166072896D01*
X156054153Y-166009084D01*
X156064713Y-165940017D01*
X156110937Y-165887623D01*
X156144950Y-165872758D01*
X156267083Y-165840033D01*
X156267092Y-165840029D01*
X156481178Y-165740200D01*
X156674682Y-165604705D01*
X156841705Y-165437682D01*
X156977200Y-165244178D01*
X157077029Y-165030092D01*
X157077032Y-165030086D01*
X157134236Y-164816600D01*
X156236612Y-164816600D01*
X156269525Y-164759593D01*
X156303600Y-164632426D01*
X156303600Y-164500774D01*
X156269525Y-164373607D01*
X156236612Y-164316600D01*
X157134236Y-164316600D01*
X157134235Y-164316599D01*
X157077032Y-164103113D01*
X157077029Y-164103107D01*
X156977200Y-163889022D01*
X156977199Y-163889020D01*
X156841713Y-163695526D01*
X156841708Y-163695520D01*
X156674682Y-163528494D01*
X156481178Y-163392999D01*
X156267092Y-163293170D01*
X156267086Y-163293167D01*
X156144949Y-163260441D01*
X156085289Y-163224076D01*
X156054760Y-163161229D01*
X156061823Y-163102155D01*
X177650000Y-163102155D01*
X177650000Y-163750000D01*
X178566988Y-163750000D01*
X178534075Y-163807007D01*
X178500000Y-163934174D01*
X178500000Y-164065826D01*
X178534075Y-164192993D01*
X178566988Y-164250000D01*
X177650000Y-164250000D01*
X177650000Y-164897844D01*
X177656401Y-164957372D01*
X177656403Y-164957379D01*
X177706645Y-165092086D01*
X177706649Y-165092093D01*
X177792809Y-165207187D01*
X177792812Y-165207190D01*
X177907906Y-165293350D01*
X177907913Y-165293354D01*
X178042620Y-165343596D01*
X178042627Y-165343598D01*
X178102155Y-165349999D01*
X178102172Y-165350000D01*
X178750000Y-165350000D01*
X178750000Y-164433012D01*
X178807007Y-164465925D01*
X178934174Y-164500000D01*
X179065826Y-164500000D01*
X179192993Y-164465925D01*
X179250000Y-164433012D01*
X179250000Y-165350000D01*
X179897828Y-165350000D01*
X179897844Y-165349999D01*
X179957372Y-165343598D01*
X179957379Y-165343596D01*
X180092086Y-165293354D01*
X180092093Y-165293350D01*
X180207187Y-165207190D01*
X180207190Y-165207187D01*
X180293350Y-165092093D01*
X180293354Y-165092086D01*
X180343596Y-164957379D01*
X180343598Y-164957372D01*
X180349999Y-164897844D01*
X180350000Y-164897827D01*
X180350000Y-164250000D01*
X179433012Y-164250000D01*
X179465925Y-164192993D01*
X179500000Y-164065826D01*
X179500000Y-163934174D01*
X179465925Y-163807007D01*
X179433012Y-163750000D01*
X180350000Y-163750000D01*
X180350000Y-163102172D01*
X180349999Y-163102155D01*
X180343598Y-163042627D01*
X180343596Y-163042620D01*
X180293354Y-162907913D01*
X180293350Y-162907906D01*
X180207190Y-162792812D01*
X180207187Y-162792809D01*
X180092093Y-162706649D01*
X180092086Y-162706645D01*
X179957379Y-162656403D01*
X179957372Y-162656401D01*
X179897844Y-162650000D01*
X179250000Y-162650000D01*
X179250000Y-163566988D01*
X179192993Y-163534075D01*
X179065826Y-163500000D01*
X178934174Y-163500000D01*
X178807007Y-163534075D01*
X178750000Y-163566988D01*
X178750000Y-162650000D01*
X178102155Y-162650000D01*
X178042627Y-162656401D01*
X178042620Y-162656403D01*
X177907913Y-162706645D01*
X177907906Y-162706649D01*
X177792812Y-162792809D01*
X177792809Y-162792812D01*
X177706649Y-162907906D01*
X177706645Y-162907913D01*
X177656403Y-163042620D01*
X177656401Y-163042627D01*
X177650000Y-163102155D01*
X156061823Y-163102155D01*
X156063055Y-163091853D01*
X156107540Y-163037975D01*
X156141044Y-163022007D01*
X156207554Y-163001832D01*
X156390050Y-162904285D01*
X156550010Y-162773010D01*
X156681285Y-162613050D01*
X156778832Y-162430554D01*
X156838900Y-162232534D01*
X156859183Y-162026600D01*
X156838900Y-161820666D01*
X156778832Y-161622646D01*
X156681285Y-161440150D01*
X156588582Y-161327190D01*
X156550010Y-161280189D01*
X156390052Y-161148917D01*
X156390053Y-161148917D01*
X156390050Y-161148915D01*
X156207554Y-161051368D01*
X156009534Y-160991300D01*
X156009532Y-160991299D01*
X156009534Y-160991299D01*
X155803600Y-160971017D01*
X155597667Y-160991299D01*
X155399643Y-161051369D01*
X155350996Y-161077372D01*
X155217150Y-161148915D01*
X155217148Y-161148916D01*
X155217147Y-161148917D01*
X155057189Y-161280189D01*
X154925917Y-161440147D01*
X154828369Y-161622643D01*
X154768299Y-161820667D01*
X154748017Y-162026600D01*
X154768299Y-162232532D01*
X154784655Y-162286450D01*
X154828368Y-162430554D01*
X154925915Y-162613050D01*
X154952462Y-162645398D01*
X155057189Y-162773010D01*
X155102287Y-162810020D01*
X155217150Y-162904285D01*
X155399646Y-163001832D01*
X155466151Y-163022005D01*
X155524589Y-163060302D01*
X155553046Y-163124114D01*
X155542487Y-163193181D01*
X155496263Y-163245575D01*
X155462250Y-163260441D01*
X155340114Y-163293167D01*
X155340107Y-163293170D01*
X155126022Y-163392999D01*
X155126020Y-163393000D01*
X154932526Y-163528486D01*
X154932520Y-163528491D01*
X154765491Y-163695520D01*
X154765486Y-163695526D01*
X154630000Y-163889020D01*
X154629999Y-163889022D01*
X154530170Y-164103107D01*
X154530167Y-164103113D01*
X154472964Y-164316599D01*
X153229100Y-164316599D01*
X153229100Y-161389906D01*
X153229218Y-161384498D01*
X153232983Y-161298259D01*
X153247603Y-160963387D01*
X153248543Y-160952654D01*
X153303209Y-160537424D01*
X153305081Y-160526805D01*
X153395731Y-160117907D01*
X153398518Y-160107507D01*
X153524463Y-159708060D01*
X153528147Y-159697939D01*
X153688422Y-159310999D01*
X153692980Y-159301225D01*
X153734141Y-159222155D01*
X159080000Y-159222155D01*
X159080000Y-159870000D01*
X159996988Y-159870000D01*
X159964075Y-159927007D01*
X159930000Y-160054174D01*
X159930000Y-160185826D01*
X159964075Y-160312993D01*
X159996988Y-160370000D01*
X159080000Y-160370000D01*
X159080000Y-161017844D01*
X159086401Y-161077372D01*
X159086403Y-161077379D01*
X159136645Y-161212086D01*
X159136649Y-161212093D01*
X159222809Y-161327187D01*
X159222812Y-161327190D01*
X159337906Y-161413350D01*
X159337913Y-161413354D01*
X159472620Y-161463596D01*
X159472627Y-161463598D01*
X159532155Y-161469999D01*
X159532172Y-161470000D01*
X160180000Y-161470000D01*
X160180000Y-160553012D01*
X160237007Y-160585925D01*
X160364174Y-160620000D01*
X160495826Y-160620000D01*
X160622993Y-160585925D01*
X160680000Y-160553012D01*
X160680000Y-161470000D01*
X161327828Y-161470000D01*
X161327844Y-161469999D01*
X161387372Y-161463598D01*
X161387379Y-161463596D01*
X161522086Y-161413354D01*
X161522093Y-161413350D01*
X161637187Y-161327190D01*
X161637190Y-161327187D01*
X161723350Y-161212093D01*
X161723354Y-161212086D01*
X161773596Y-161077379D01*
X161773598Y-161077372D01*
X161779999Y-161017844D01*
X161780000Y-161017827D01*
X161780000Y-160370000D01*
X160863012Y-160370000D01*
X160895925Y-160312993D01*
X160930000Y-160185826D01*
X160930000Y-160054174D01*
X160895925Y-159927007D01*
X160863012Y-159870000D01*
X161780000Y-159870000D01*
X161780000Y-159222172D01*
X161779999Y-159222155D01*
X161773598Y-159162627D01*
X161773596Y-159162620D01*
X161723354Y-159027913D01*
X161723350Y-159027906D01*
X161637190Y-158912812D01*
X161637187Y-158912809D01*
X161522093Y-158826649D01*
X161522086Y-158826645D01*
X161387379Y-158776403D01*
X161387372Y-158776401D01*
X161327844Y-158770000D01*
X160680000Y-158770000D01*
X160680000Y-159686988D01*
X160622993Y-159654075D01*
X160495826Y-159620000D01*
X160364174Y-159620000D01*
X160237007Y-159654075D01*
X160180000Y-159686988D01*
X160180000Y-158770000D01*
X159532155Y-158770000D01*
X159472627Y-158776401D01*
X159472620Y-158776403D01*
X159337913Y-158826645D01*
X159337906Y-158826649D01*
X159222812Y-158912809D01*
X159222809Y-158912812D01*
X159136649Y-159027906D01*
X159136645Y-159027913D01*
X159086403Y-159162620D01*
X159086401Y-159162627D01*
X159080000Y-159222155D01*
X153734141Y-159222155D01*
X153886361Y-158929745D01*
X153891756Y-158920400D01*
X154116786Y-158567174D01*
X154122976Y-158558334D01*
X154377927Y-158226075D01*
X154384865Y-158217806D01*
X154667805Y-157909033D01*
X154675433Y-157901405D01*
X154984206Y-157618465D01*
X154992475Y-157611527D01*
X155324734Y-157356576D01*
X155333574Y-157350386D01*
X155686800Y-157125356D01*
X155696145Y-157119961D01*
X156067625Y-156926580D01*
X156077399Y-156922022D01*
X156464339Y-156761747D01*
X156474460Y-156758063D01*
X156873907Y-156632118D01*
X156884307Y-156629331D01*
X157293205Y-156538681D01*
X157303824Y-156536809D01*
X157719054Y-156482143D01*
X157729787Y-156481203D01*
X158137994Y-156463381D01*
X158150898Y-156462818D01*
X158156306Y-156462700D01*
X166968616Y-156462700D01*
X166968618Y-156462700D01*
X166996367Y-156451206D01*
X167017606Y-156429967D01*
X167029100Y-156402218D01*
X167029100Y-151193527D01*
X171044900Y-151193527D01*
X171044900Y-151404872D01*
X171077962Y-151613617D01*
X171143269Y-151814615D01*
X171143270Y-151814618D01*
X171221656Y-151968457D01*
X171239220Y-152002928D01*
X171363446Y-152173910D01*
X171512890Y-152323354D01*
X171683872Y-152447580D01*
X171732849Y-152472535D01*
X171872181Y-152543529D01*
X171872184Y-152543530D01*
X171972683Y-152576183D01*
X172073184Y-152608838D01*
X172281927Y-152641900D01*
X172281928Y-152641900D01*
X172493272Y-152641900D01*
X172493273Y-152641900D01*
X172702016Y-152608838D01*
X172903018Y-152543529D01*
X173091328Y-152447580D01*
X173262310Y-152323354D01*
X173411754Y-152173910D01*
X173535980Y-152002928D01*
X173631929Y-151814618D01*
X173697238Y-151613616D01*
X173730300Y-151404873D01*
X173730300Y-151193527D01*
X173697238Y-150984784D01*
X173631929Y-150783782D01*
X173631929Y-150783781D01*
X173535979Y-150595471D01*
X173411754Y-150424490D01*
X173262310Y-150275046D01*
X173091328Y-150150820D01*
X172903018Y-150054870D01*
X172903015Y-150054869D01*
X172702017Y-149989562D01*
X172597644Y-149973031D01*
X172493273Y-149956500D01*
X172281927Y-149956500D01*
X172212346Y-149967520D01*
X172073182Y-149989562D01*
X171872184Y-150054869D01*
X171872181Y-150054870D01*
X171683871Y-150150820D01*
X171586320Y-150221695D01*
X171512890Y-150275046D01*
X171512888Y-150275048D01*
X171512887Y-150275048D01*
X171363448Y-150424487D01*
X171363448Y-150424488D01*
X171363446Y-150424490D01*
X171310095Y-150497920D01*
X171239220Y-150595471D01*
X171143270Y-150783781D01*
X171143269Y-150783784D01*
X171077962Y-150984782D01*
X171044900Y-151193527D01*
X167029100Y-151193527D01*
X167029100Y-128372182D01*
X167017606Y-128344433D01*
X166996367Y-128323194D01*
X166968618Y-128311700D01*
X166968617Y-128311700D01*
X158156306Y-128311700D01*
X158150897Y-128311582D01*
X157729808Y-128293197D01*
X157719032Y-128292254D01*
X157303842Y-128237593D01*
X157293189Y-128235715D01*
X156913548Y-128151551D01*
X156884329Y-128145073D01*
X156873886Y-128142275D01*
X156474480Y-128016342D01*
X156464317Y-128012643D01*
X156077414Y-127852383D01*
X156067610Y-127847811D01*
X155696157Y-127654444D01*
X155686789Y-127649036D01*
X155333585Y-127424020D01*
X155324724Y-127417815D01*
X154992484Y-127162879D01*
X154984197Y-127155925D01*
X154675444Y-126873004D01*
X154667795Y-126865355D01*
X154384874Y-126556602D01*
X154377920Y-126548315D01*
X154122984Y-126216075D01*
X154116779Y-126207214D01*
X153891763Y-125854010D01*
X153886355Y-125844642D01*
X153838780Y-125753251D01*
X153692985Y-125473182D01*
X153688416Y-125463385D01*
X153652535Y-125376760D01*
X153528150Y-125076467D01*
X153524461Y-125066332D01*
X153398519Y-124666898D01*
X153395730Y-124656486D01*
X153305081Y-124247597D01*
X153303208Y-124236971D01*
X153248543Y-123821747D01*
X153247603Y-123811010D01*
X153229218Y-123389901D01*
X153229100Y-123384493D01*
X153229100Y-112254178D01*
X153229208Y-112249010D01*
X153230964Y-112206907D01*
X153245992Y-111846637D01*
X153246850Y-111836364D01*
X153296763Y-111439355D01*
X153298478Y-111429167D01*
X153313137Y-111359863D01*
X153381283Y-111037680D01*
X153383830Y-111027708D01*
X153498960Y-110644446D01*
X153502326Y-110634729D01*
X153648970Y-110262397D01*
X153653141Y-110252981D01*
X153830281Y-109894159D01*
X153835222Y-109885121D01*
X154041618Y-109542317D01*
X154047299Y-109533712D01*
X154281545Y-109209265D01*
X154287911Y-109201180D01*
X154548359Y-108897370D01*
X154555386Y-108889834D01*
X154840217Y-108608784D01*
X154847844Y-108601861D01*
X155155105Y-108345497D01*
X155163284Y-108339231D01*
X155490824Y-108109349D01*
X155499491Y-108103790D01*
X155845049Y-107901978D01*
X155854140Y-107897165D01*
X156215302Y-107724833D01*
X156224771Y-107720790D01*
X156600965Y-107578402D01*
X156606786Y-107576364D01*
X158792581Y-106872048D01*
X158794514Y-106871443D01*
X160993856Y-106203450D01*
X160995823Y-106202871D01*
X163206083Y-105572036D01*
X163207978Y-105571512D01*
X164658916Y-105183713D01*
X194895500Y-105183713D01*
X194895500Y-105396286D01*
X194923250Y-105571497D01*
X194928754Y-105606243D01*
X194969919Y-105732936D01*
X194994444Y-105808414D01*
X195090951Y-105997820D01*
X195215890Y-106169786D01*
X195366213Y-106320109D01*
X195538179Y-106445048D01*
X195538181Y-106445049D01*
X195538184Y-106445051D01*
X195727588Y-106541557D01*
X195929757Y-106607246D01*
X196139713Y-106640500D01*
X196139714Y-106640500D01*
X196352286Y-106640500D01*
X196352287Y-106640500D01*
X196562243Y-106607246D01*
X196764412Y-106541557D01*
X196953816Y-106445051D01*
X197038273Y-106383690D01*
X197125786Y-106320109D01*
X197125788Y-106320106D01*
X197125792Y-106320104D01*
X197276104Y-106169792D01*
X197276106Y-106169788D01*
X197276109Y-106169786D01*
X197401048Y-105997820D01*
X197401047Y-105997820D01*
X197401051Y-105997816D01*
X197497557Y-105808412D01*
X197563246Y-105606243D01*
X197596500Y-105396287D01*
X197596500Y-105183713D01*
X202769500Y-105183713D01*
X202769500Y-105396286D01*
X202797250Y-105571497D01*
X202802754Y-105606243D01*
X202843919Y-105732936D01*
X202868444Y-105808414D01*
X202964951Y-105997820D01*
X203089890Y-106169786D01*
X203240213Y-106320109D01*
X203412179Y-106445048D01*
X203412181Y-106445049D01*
X203412184Y-106445051D01*
X203601588Y-106541557D01*
X203803757Y-106607246D01*
X204013713Y-106640500D01*
X204013714Y-106640500D01*
X204226286Y-106640500D01*
X204226287Y-106640500D01*
X204436243Y-106607246D01*
X204638412Y-106541557D01*
X204827816Y-106445051D01*
X204912273Y-106383690D01*
X204999786Y-106320109D01*
X204999788Y-106320106D01*
X204999792Y-106320104D01*
X205150104Y-106169792D01*
X205150106Y-106169788D01*
X205150109Y-106169786D01*
X205275048Y-105997820D01*
X205275047Y-105997820D01*
X205275051Y-105997816D01*
X205371557Y-105808412D01*
X205437246Y-105606243D01*
X205470500Y-105396287D01*
X205470500Y-105183713D01*
X205437246Y-104973757D01*
X205371557Y-104771588D01*
X205275051Y-104582184D01*
X205275049Y-104582181D01*
X205275048Y-104582179D01*
X205150109Y-104410213D01*
X204999786Y-104259890D01*
X204827820Y-104134951D01*
X204638414Y-104038444D01*
X204638413Y-104038443D01*
X204638412Y-104038443D01*
X204436243Y-103972754D01*
X204436241Y-103972753D01*
X204436240Y-103972753D01*
X204274957Y-103947208D01*
X204226287Y-103939500D01*
X204013713Y-103939500D01*
X203965042Y-103947208D01*
X203803760Y-103972753D01*
X203601585Y-104038444D01*
X203412179Y-104134951D01*
X203240213Y-104259890D01*
X203089890Y-104410213D01*
X202964951Y-104582179D01*
X202868444Y-104771585D01*
X202802753Y-104973760D01*
X202769500Y-105183713D01*
X197596500Y-105183713D01*
X197563246Y-104973757D01*
X197497557Y-104771588D01*
X197401051Y-104582184D01*
X197401049Y-104582181D01*
X197401048Y-104582179D01*
X197276109Y-104410213D01*
X197125786Y-104259890D01*
X196953820Y-104134951D01*
X196764414Y-104038444D01*
X196764413Y-104038443D01*
X196764412Y-104038443D01*
X196562243Y-103972754D01*
X196562241Y-103972753D01*
X196562240Y-103972753D01*
X196400957Y-103947208D01*
X196352287Y-103939500D01*
X196139713Y-103939500D01*
X196091042Y-103947208D01*
X195929760Y-103972753D01*
X195727585Y-104038444D01*
X195538179Y-104134951D01*
X195366213Y-104259890D01*
X195215890Y-104410213D01*
X195090951Y-104582179D01*
X194994444Y-104771585D01*
X194928753Y-104973760D01*
X194895500Y-105183713D01*
X164658916Y-105183713D01*
X165428705Y-104977968D01*
X165430565Y-104977488D01*
X167660917Y-104421459D01*
X167662721Y-104421025D01*
X169902269Y-103902621D01*
X169904079Y-103902218D01*
X172151939Y-103421643D01*
X172153904Y-103421241D01*
X174409503Y-102978617D01*
X174411338Y-102978273D01*
X176674115Y-102573709D01*
X176675973Y-102573392D01*
X178945249Y-102207009D01*
X178947284Y-102206699D01*
X181222248Y-101878627D01*
X181224221Y-101878359D01*
X183504506Y-101588650D01*
X183506432Y-101588421D01*
X185791324Y-101337168D01*
X185793190Y-101336978D01*
X188081990Y-101124258D01*
X188083913Y-101124095D01*
X190375933Y-100949973D01*
X190377989Y-100949834D01*
X192672432Y-100814365D01*
X192674507Y-100814260D01*
X194971007Y-100717463D01*
X194973087Y-100717394D01*
X197270843Y-100659307D01*
X197272788Y-100659274D01*
X199571400Y-100639908D01*
X199573300Y-100639908D01*
X201871909Y-100659274D01*
G37*
G04 #@! TD.AperFunction*
G04 #@! TA.AperFunction,Conductor*
G36*
X232058639Y-128370185D02*
G01*
X232104394Y-128422989D01*
X232115600Y-128474500D01*
X232115600Y-156402218D01*
X232127094Y-156429967D01*
X232148333Y-156451206D01*
X232176082Y-156462700D01*
X232206118Y-156462700D01*
X240966569Y-156462700D01*
X240988394Y-156462700D01*
X240993802Y-156462818D01*
X241007321Y-156463408D01*
X241414910Y-156481203D01*
X241425647Y-156482143D01*
X241840871Y-156536808D01*
X241851497Y-156538681D01*
X242260386Y-156629330D01*
X242270798Y-156632119D01*
X242670232Y-156758061D01*
X242680367Y-156761750D01*
X243067291Y-156922019D01*
X243077082Y-156926585D01*
X243306092Y-157045800D01*
X243448542Y-157119955D01*
X243457910Y-157125363D01*
X243811114Y-157350379D01*
X243819975Y-157356584D01*
X244152215Y-157611520D01*
X244160502Y-157618474D01*
X244469255Y-157901395D01*
X244476904Y-157909044D01*
X244759825Y-158217797D01*
X244766779Y-158226084D01*
X245021715Y-158558324D01*
X245027920Y-158567185D01*
X245252936Y-158920389D01*
X245258344Y-158929757D01*
X245451711Y-159301210D01*
X245456283Y-159311014D01*
X245616543Y-159697917D01*
X245620242Y-159708080D01*
X245716241Y-160012549D01*
X245746174Y-160107482D01*
X245748974Y-160117932D01*
X245839615Y-160526789D01*
X245841493Y-160537442D01*
X245896154Y-160952632D01*
X245897097Y-160963408D01*
X245915482Y-161384497D01*
X245915600Y-161389906D01*
X245915600Y-184884493D01*
X245915482Y-184889902D01*
X245897097Y-185310991D01*
X245896154Y-185321767D01*
X245841493Y-185736957D01*
X245839615Y-185747610D01*
X245748974Y-186156467D01*
X245746174Y-186166917D01*
X245620243Y-186566317D01*
X245616543Y-186576482D01*
X245456283Y-186963385D01*
X245451711Y-186973189D01*
X245258344Y-187344642D01*
X245252936Y-187354010D01*
X245027920Y-187707214D01*
X245021715Y-187716075D01*
X244766779Y-188048315D01*
X244759825Y-188056602D01*
X244476904Y-188365355D01*
X244469255Y-188373004D01*
X244160502Y-188655925D01*
X244152215Y-188662879D01*
X243819975Y-188917815D01*
X243811114Y-188924020D01*
X243457910Y-189149036D01*
X243448542Y-189154444D01*
X243077089Y-189347811D01*
X243067285Y-189352383D01*
X242680382Y-189512643D01*
X242670217Y-189516343D01*
X242270817Y-189642274D01*
X242260367Y-189645074D01*
X241851510Y-189735715D01*
X241840857Y-189737593D01*
X241425667Y-189792254D01*
X241414891Y-189793197D01*
X240993803Y-189811582D01*
X240988394Y-189811700D01*
X227637919Y-189811700D01*
X227570880Y-189792015D01*
X227525125Y-189739211D01*
X227515181Y-189670053D01*
X227544206Y-189606497D01*
X227590465Y-189573139D01*
X227592019Y-189572495D01*
X227606507Y-189566494D01*
X227707836Y-189524523D01*
X227863514Y-189420502D01*
X233268301Y-184015715D01*
X233278802Y-184000000D01*
X233372322Y-183860037D01*
X233443973Y-183687057D01*
X233475719Y-183527459D01*
X233480500Y-183503423D01*
X233480500Y-183316189D01*
X233480500Y-176999998D01*
X238644318Y-176999998D01*
X238644318Y-177000001D01*
X238664955Y-177156760D01*
X238664956Y-177156762D01*
X238725464Y-177302841D01*
X238802630Y-177403406D01*
X238821719Y-177428283D01*
X238879062Y-177472283D01*
X238920265Y-177528711D01*
X238923351Y-177538565D01*
X238924500Y-177542853D01*
X238946682Y-177625639D01*
X238989535Y-177699862D01*
X240661242Y-179371569D01*
X242292879Y-181003205D01*
X242326364Y-181064528D01*
X242328137Y-181107071D01*
X242309320Y-181249998D01*
X242309320Y-181250001D01*
X242329957Y-181406760D01*
X242329958Y-181406762D01*
X242389806Y-181551249D01*
X242390466Y-181552841D01*
X242486720Y-181678282D01*
X242612161Y-181774536D01*
X242758240Y-181835044D01*
X242836621Y-181845363D01*
X242915001Y-181855682D01*
X242915002Y-181855682D01*
X242915003Y-181855682D01*
X242967256Y-181848802D01*
X243071764Y-181835044D01*
X243217843Y-181774536D01*
X243343284Y-181678282D01*
X243439538Y-181552841D01*
X243500046Y-181406762D01*
X243520684Y-181250000D01*
X243519933Y-181244299D01*
X243500046Y-181093239D01*
X243500046Y-181093238D01*
X243439538Y-180947159D01*
X243343284Y-180821718D01*
X243217843Y-180725464D01*
X243071764Y-180664956D01*
X243071762Y-180664955D01*
X242915004Y-180644318D01*
X242906876Y-180644318D01*
X242906876Y-180640960D01*
X242853222Y-180632576D01*
X242818426Y-180608100D01*
X239737951Y-177527624D01*
X239704466Y-177466301D01*
X239709450Y-177396609D01*
X239727257Y-177364456D01*
X239764680Y-177315686D01*
X239774536Y-177302841D01*
X239835044Y-177156762D01*
X239852071Y-177027432D01*
X239855682Y-177000001D01*
X239855682Y-176999998D01*
X239837594Y-176862611D01*
X239835044Y-176843238D01*
X239774536Y-176697159D01*
X239678282Y-176571718D01*
X239552841Y-176475464D01*
X239503108Y-176454864D01*
X239406762Y-176414956D01*
X239406760Y-176414955D01*
X239250001Y-176394318D01*
X239249999Y-176394318D01*
X239093239Y-176414955D01*
X239093237Y-176414956D01*
X238947160Y-176475463D01*
X238821718Y-176571718D01*
X238725463Y-176697160D01*
X238664956Y-176843237D01*
X238664955Y-176843239D01*
X238644318Y-176999998D01*
X233480500Y-176999998D01*
X233480500Y-158522384D01*
X233443973Y-158338749D01*
X233375125Y-158172535D01*
X233372323Y-158165771D01*
X233372318Y-158165762D01*
X233268303Y-158010093D01*
X233214328Y-157956118D01*
X233135908Y-157877698D01*
X231618819Y-156360609D01*
X231585334Y-156299286D01*
X231582500Y-156272928D01*
X231582500Y-147480383D01*
X231582499Y-147480379D01*
X231575615Y-147445773D01*
X231545973Y-147296749D01*
X231474322Y-147123769D01*
X231474321Y-147123768D01*
X231474318Y-147123762D01*
X231370302Y-146968092D01*
X231370299Y-146968088D01*
X231237911Y-146835700D01*
X231237907Y-146835697D01*
X231082237Y-146731681D01*
X231082228Y-146731676D01*
X230909251Y-146660027D01*
X230909243Y-146660025D01*
X230725620Y-146623500D01*
X230725616Y-146623500D01*
X230538384Y-146623500D01*
X230538379Y-146623500D01*
X230354756Y-146660025D01*
X230354748Y-146660027D01*
X230181771Y-146731676D01*
X230181762Y-146731681D01*
X230026092Y-146835697D01*
X230026088Y-146835700D01*
X229893700Y-146968088D01*
X229893697Y-146968092D01*
X229789681Y-147123762D01*
X229789676Y-147123771D01*
X229718027Y-147296748D01*
X229718025Y-147296756D01*
X229681500Y-147480379D01*
X229681500Y-156811620D01*
X229718025Y-156995243D01*
X229718027Y-156995251D01*
X229738966Y-157045802D01*
X229789677Y-157168230D01*
X229789678Y-157168233D01*
X229893697Y-157323907D01*
X229893700Y-157323911D01*
X231543181Y-158973391D01*
X231576666Y-159034714D01*
X231579500Y-159061072D01*
X231579500Y-182964734D01*
X231559815Y-183031773D01*
X231543181Y-183052415D01*
X226900215Y-187695381D01*
X226838892Y-187728866D01*
X226812534Y-187731700D01*
X224454764Y-187731700D01*
X224387725Y-187712015D01*
X224341970Y-187659211D01*
X224332026Y-187590053D01*
X224361051Y-187526497D01*
X224367083Y-187520019D01*
X224745715Y-187141387D01*
X225360489Y-186526614D01*
X225419798Y-186423887D01*
X225419799Y-186423886D01*
X225450500Y-186309309D01*
X225450500Y-184440691D01*
X225419799Y-184326114D01*
X225360489Y-184223387D01*
X225276613Y-184139511D01*
X225173886Y-184080201D01*
X225072102Y-184052927D01*
X225016517Y-184020835D01*
X224636819Y-183641137D01*
X224603334Y-183579814D01*
X224600500Y-183553456D01*
X224600500Y-183496078D01*
X224614014Y-183439785D01*
X224645275Y-183378433D01*
X224665617Y-183250000D01*
X224659623Y-183212157D01*
X224645276Y-183121571D01*
X224645275Y-183121569D01*
X224645275Y-183121567D01*
X224586241Y-183005706D01*
X224586239Y-183005704D01*
X224586236Y-183005700D01*
X224494299Y-182913763D01*
X224494295Y-182913760D01*
X224494294Y-182913759D01*
X224378433Y-182854725D01*
X224378431Y-182854724D01*
X224378428Y-182854723D01*
X224250002Y-182834383D01*
X224249998Y-182834383D01*
X224121571Y-182854723D01*
X224005704Y-182913760D01*
X224005700Y-182913763D01*
X223913763Y-183005700D01*
X223913760Y-183005704D01*
X223854723Y-183121571D01*
X223834383Y-183249997D01*
X223834383Y-183250002D01*
X223854723Y-183378428D01*
X223854724Y-183378431D01*
X223854725Y-183378433D01*
X223885985Y-183439785D01*
X223899500Y-183496078D01*
X223899500Y-183796145D01*
X223920457Y-183874359D01*
X223923385Y-183885286D01*
X223923387Y-183885291D01*
X223969527Y-183965208D01*
X223969531Y-183965213D01*
X224513181Y-184508863D01*
X224546666Y-184570186D01*
X224549500Y-184596544D01*
X224549500Y-186012035D01*
X224529815Y-186079074D01*
X224513181Y-186099716D01*
X223904487Y-186708409D01*
X223843164Y-186741894D01*
X223773472Y-186736910D01*
X223717539Y-186695038D01*
X223693122Y-186629574D01*
X223695189Y-186596536D01*
X223701200Y-186566317D01*
X223708500Y-186529617D01*
X223708500Y-186342384D01*
X223698854Y-186293888D01*
X223671975Y-186158757D01*
X223671972Y-186158748D01*
X223600326Y-185985776D01*
X223600319Y-185985763D01*
X223496302Y-185830092D01*
X223496299Y-185830088D01*
X223025976Y-185359765D01*
X222992491Y-185298442D01*
X222989657Y-185272084D01*
X222989657Y-183234228D01*
X223009342Y-183167189D01*
X223025971Y-183146552D01*
X224564878Y-181607644D01*
X224608686Y-181581395D01*
X224608055Y-181579872D01*
X224673319Y-181552839D01*
X224745057Y-181523124D01*
X224786656Y-181505893D01*
X224786656Y-181505892D01*
X224786663Y-181505890D01*
X224942340Y-181401870D01*
X225074734Y-181269476D01*
X225178754Y-181113799D01*
X225250405Y-180940819D01*
X225286932Y-180757184D01*
X225286932Y-180569952D01*
X225250405Y-180386317D01*
X225178754Y-180213337D01*
X225178753Y-180213336D01*
X225178750Y-180213330D01*
X225074734Y-180057660D01*
X225074731Y-180057656D01*
X224942343Y-179925268D01*
X224942339Y-179925265D01*
X224786669Y-179821249D01*
X224786660Y-179821244D01*
X224613683Y-179749595D01*
X224613675Y-179749593D01*
X224430052Y-179713068D01*
X224430048Y-179713068D01*
X224258363Y-179713068D01*
X224100094Y-179713068D01*
X224033055Y-179693383D01*
X223987300Y-179640579D01*
X223977356Y-179571421D01*
X224006381Y-179507865D01*
X224012413Y-179501387D01*
X224842443Y-178671358D01*
X226030469Y-177483332D01*
X226076614Y-177403408D01*
X226077661Y-177399499D01*
X226078436Y-177396609D01*
X226087051Y-177364456D01*
X226100500Y-177314264D01*
X226100500Y-167249997D01*
X227834383Y-167249997D01*
X227834383Y-167250002D01*
X227854723Y-167378428D01*
X227854724Y-167378431D01*
X227854725Y-167378433D01*
X227889292Y-167446274D01*
X227913760Y-167494295D01*
X227913763Y-167494299D01*
X228005700Y-167586236D01*
X228005704Y-167586239D01*
X228005706Y-167586241D01*
X228121567Y-167645275D01*
X228121568Y-167645275D01*
X228121570Y-167645276D01*
X228130852Y-167648292D01*
X228129884Y-167651268D01*
X228178205Y-167674173D01*
X228183357Y-167679039D01*
X229613181Y-169108863D01*
X229646666Y-169170186D01*
X229649500Y-169196544D01*
X229649500Y-170003921D01*
X229635985Y-170060215D01*
X229604723Y-170121569D01*
X229584383Y-170249997D01*
X229584383Y-170250002D01*
X229604723Y-170378428D01*
X229604724Y-170378431D01*
X229604725Y-170378433D01*
X229646035Y-170459508D01*
X229663760Y-170494295D01*
X229663763Y-170494299D01*
X229755700Y-170586236D01*
X229755704Y-170586239D01*
X229755706Y-170586241D01*
X229871567Y-170645275D01*
X229871569Y-170645275D01*
X229871571Y-170645276D01*
X229999998Y-170665617D01*
X230000000Y-170665617D01*
X230000002Y-170665617D01*
X230128428Y-170645276D01*
X230128428Y-170645275D01*
X230128433Y-170645275D01*
X230244294Y-170586241D01*
X230336241Y-170494294D01*
X230395275Y-170378433D01*
X230400849Y-170343239D01*
X230415617Y-170250002D01*
X230415617Y-170249997D01*
X230395276Y-170121569D01*
X230364015Y-170060215D01*
X230350500Y-170003921D01*
X230350500Y-168953858D01*
X230350500Y-168953856D01*
X230326614Y-168864712D01*
X230323027Y-168858499D01*
X230315301Y-168845117D01*
X230315299Y-168845115D01*
X230297803Y-168814811D01*
X230280470Y-168784788D01*
X228679039Y-167183357D01*
X228650056Y-167130278D01*
X228648292Y-167130852D01*
X228645276Y-167121570D01*
X228645275Y-167121568D01*
X228645275Y-167121567D01*
X228586241Y-167005706D01*
X228586239Y-167005704D01*
X228586236Y-167005700D01*
X228494299Y-166913763D01*
X228494295Y-166913760D01*
X228494294Y-166913759D01*
X228378433Y-166854725D01*
X228378431Y-166854724D01*
X228378428Y-166854723D01*
X228250002Y-166834383D01*
X228249998Y-166834383D01*
X228121571Y-166854723D01*
X228005704Y-166913760D01*
X228005700Y-166913763D01*
X227913763Y-167005700D01*
X227913760Y-167005704D01*
X227854723Y-167121571D01*
X227834383Y-167249997D01*
X226100500Y-167249997D01*
X226100500Y-163315465D01*
X226120185Y-163248426D01*
X226172989Y-163202671D01*
X226177048Y-163200904D01*
X226209500Y-163187462D01*
X226232841Y-163177794D01*
X226358282Y-163081540D01*
X226454536Y-162956099D01*
X226515044Y-162810020D01*
X226535682Y-162653258D01*
X226515044Y-162496496D01*
X226454536Y-162350417D01*
X226358282Y-162224976D01*
X226232841Y-162128722D01*
X226091841Y-162070318D01*
X226086762Y-162068214D01*
X226086760Y-162068213D01*
X225930001Y-162047576D01*
X225929999Y-162047576D01*
X225773239Y-162068213D01*
X225773234Y-162068215D01*
X225771946Y-162068749D01*
X225770771Y-162068875D01*
X225765387Y-162070318D01*
X225765161Y-162069477D01*
X225702476Y-162076214D01*
X225639999Y-162044935D01*
X225604350Y-161984844D01*
X225600500Y-161954185D01*
X225600500Y-156037207D01*
X225620185Y-155970168D01*
X225672989Y-155924413D01*
X225677048Y-155922646D01*
X225732841Y-155899536D01*
X225858282Y-155803282D01*
X225954536Y-155677841D01*
X226015044Y-155531762D01*
X226035682Y-155375000D01*
X226034558Y-155366465D01*
X226015044Y-155218239D01*
X226015044Y-155218238D01*
X225954536Y-155072159D01*
X225858282Y-154946718D01*
X225732841Y-154850464D01*
X225591841Y-154792060D01*
X225586762Y-154789956D01*
X225586760Y-154789955D01*
X225430001Y-154769318D01*
X225429999Y-154769318D01*
X225273239Y-154789955D01*
X225273234Y-154789957D01*
X225271946Y-154790491D01*
X225270771Y-154790617D01*
X225265387Y-154792060D01*
X225265161Y-154791219D01*
X225202476Y-154797956D01*
X225139999Y-154766677D01*
X225104350Y-154706586D01*
X225100500Y-154675927D01*
X225100500Y-151360554D01*
X225120185Y-151293515D01*
X225136815Y-151272877D01*
X225170720Y-151238972D01*
X225232042Y-151205488D01*
X225301734Y-151210472D01*
X225357667Y-151252344D01*
X225382084Y-151317808D01*
X225382400Y-151326654D01*
X225382400Y-151404872D01*
X225415462Y-151613617D01*
X225480769Y-151814615D01*
X225480770Y-151814618D01*
X225559156Y-151968457D01*
X225576720Y-152002928D01*
X225700946Y-152173910D01*
X225850390Y-152323354D01*
X226021372Y-152447580D01*
X226070349Y-152472535D01*
X226209681Y-152543529D01*
X226209684Y-152543530D01*
X226310183Y-152576183D01*
X226410684Y-152608838D01*
X226619427Y-152641900D01*
X226619428Y-152641900D01*
X226830772Y-152641900D01*
X226830773Y-152641900D01*
X227039516Y-152608838D01*
X227240518Y-152543529D01*
X227428828Y-152447580D01*
X227599810Y-152323354D01*
X227749254Y-152173910D01*
X227873480Y-152002928D01*
X227969429Y-151814618D01*
X228034738Y-151613616D01*
X228067800Y-151404873D01*
X228067800Y-151193527D01*
X228034738Y-150984784D01*
X227969429Y-150783782D01*
X227969429Y-150783781D01*
X227873479Y-150595471D01*
X227749254Y-150424490D01*
X227599810Y-150275046D01*
X227428828Y-150150820D01*
X227240518Y-150054870D01*
X227240515Y-150054869D01*
X227039517Y-149989562D01*
X226935144Y-149973031D01*
X226830773Y-149956500D01*
X226752554Y-149956500D01*
X226685515Y-149936815D01*
X226639760Y-149884011D01*
X226629816Y-149814853D01*
X226658841Y-149751297D01*
X226664873Y-149744819D01*
X228963919Y-147445773D01*
X231674470Y-144735223D01*
X231720614Y-144655299D01*
X231744500Y-144566155D01*
X231744500Y-128474500D01*
X231764185Y-128407461D01*
X231816989Y-128361706D01*
X231868500Y-128350500D01*
X231991600Y-128350500D01*
X232058639Y-128370185D01*
G37*
G04 #@! TD.AperFunction*
G04 #@! TA.AperFunction,Conductor*
G36*
X198426485Y-165888258D02*
G01*
X198438446Y-165898773D01*
X201758181Y-169218508D01*
X201791666Y-169279831D01*
X201794500Y-169306189D01*
X201794500Y-174950254D01*
X201816682Y-175033042D01*
X201836161Y-175066779D01*
X201859535Y-175107264D01*
X201859537Y-175107266D01*
X209506882Y-182754611D01*
X209540367Y-182815934D01*
X209543201Y-182842292D01*
X209543201Y-183661553D01*
X209565383Y-183744341D01*
X209571796Y-183755448D01*
X209608236Y-183818563D01*
X209608238Y-183818565D01*
X209814307Y-184024634D01*
X209847792Y-184085957D01*
X209849099Y-184092917D01*
X209854723Y-184128428D01*
X209854724Y-184128431D01*
X209854725Y-184128433D01*
X209913759Y-184244294D01*
X209913760Y-184244295D01*
X209913763Y-184244299D01*
X210007283Y-184337819D01*
X210040768Y-184399142D01*
X210035784Y-184468834D01*
X209993912Y-184524767D01*
X209928448Y-184549184D01*
X209919602Y-184549500D01*
X204972372Y-184549500D01*
X204905333Y-184529815D01*
X204884691Y-184513181D01*
X202702424Y-182330913D01*
X202668939Y-182269590D01*
X202673923Y-182199898D01*
X202715795Y-182143965D01*
X202781259Y-182119548D01*
X202828418Y-182125300D01*
X202925527Y-182156853D01*
X202968881Y-182170940D01*
X203155514Y-182200500D01*
X203155519Y-182200500D01*
X203344486Y-182200500D01*
X203531118Y-182170940D01*
X203574473Y-182156853D01*
X203710832Y-182112547D01*
X203879199Y-182026760D01*
X204032073Y-181915690D01*
X204165690Y-181782073D01*
X204276760Y-181629199D01*
X204362547Y-181460832D01*
X204420940Y-181281118D01*
X204422784Y-181269475D01*
X204450500Y-181094486D01*
X204450500Y-180005964D01*
X204420940Y-179819332D01*
X204362545Y-179639614D01*
X204295415Y-179507865D01*
X204276760Y-179471252D01*
X204233061Y-179411106D01*
X204233061Y-179411105D01*
X204233059Y-179411104D01*
X204204336Y-179371569D01*
X204165693Y-179318380D01*
X193076569Y-168229256D01*
X193043084Y-168167933D01*
X193048068Y-168098241D01*
X193089940Y-168042308D01*
X193155404Y-168017891D01*
X193164250Y-168017575D01*
X197411561Y-168017575D01*
X197598193Y-167988015D01*
X197609682Y-167984282D01*
X197777907Y-167929622D01*
X197946274Y-167843835D01*
X198099148Y-167732765D01*
X198232765Y-167599148D01*
X198343835Y-167446274D01*
X198429622Y-167277907D01*
X198488015Y-167098193D01*
X198493915Y-167060940D01*
X198517575Y-166911561D01*
X198517575Y-166722588D01*
X198488015Y-166535956D01*
X198429620Y-166356238D01*
X198343834Y-166187875D01*
X198331660Y-166171119D01*
X198250446Y-166059338D01*
X198226967Y-165993534D01*
X198242792Y-165925480D01*
X198292898Y-165876785D01*
X198361376Y-165862909D01*
X198426485Y-165888258D01*
G37*
G04 #@! TD.AperFunction*
G04 #@! TA.AperFunction,Conductor*
G36*
X203030703Y-168999013D02*
G01*
X203037181Y-169005045D01*
X208665639Y-174633503D01*
X208699124Y-174694826D01*
X208694140Y-174764518D01*
X208652268Y-174820451D01*
X208586804Y-174844868D01*
X208558561Y-174843658D01*
X208538503Y-174840481D01*
X208500000Y-174834383D01*
X208499998Y-174834383D01*
X208499997Y-174834383D01*
X208371571Y-174854723D01*
X208255704Y-174913760D01*
X208255700Y-174913763D01*
X208163763Y-175005700D01*
X208163760Y-175005704D01*
X208104723Y-175121571D01*
X208084383Y-175249997D01*
X208084383Y-175250002D01*
X208104723Y-175378428D01*
X208104724Y-175378431D01*
X208104725Y-175378433D01*
X208135985Y-175439785D01*
X208149500Y-175496078D01*
X208149500Y-179639811D01*
X208129815Y-179706850D01*
X208077011Y-179752605D01*
X208007853Y-179762549D01*
X207944297Y-179733524D01*
X207937819Y-179727492D01*
X202861819Y-174651492D01*
X202828334Y-174590169D01*
X202825500Y-174563811D01*
X202825500Y-169092726D01*
X202845185Y-169025687D01*
X202897989Y-168979932D01*
X202967147Y-168969988D01*
X203030703Y-168999013D01*
G37*
G04 #@! TD.AperFunction*
G04 #@! TA.AperFunction,Conductor*
G36*
X200466920Y-153805394D02*
G01*
X200414259Y-153896606D01*
X200387000Y-153998339D01*
X200387000Y-154103661D01*
X200414259Y-154205394D01*
X200466920Y-154296606D01*
X200471314Y-154301000D01*
X198562686Y-154301000D01*
X198567080Y-154296606D01*
X198619741Y-154205394D01*
X198647000Y-154103661D01*
X198647000Y-153998339D01*
X198619741Y-153896606D01*
X198567080Y-153805394D01*
X198562686Y-153801000D01*
X200471314Y-153801000D01*
X200466920Y-153805394D01*
G37*
G04 #@! TD.AperFunction*
G04 #@! TA.AperFunction,Conductor*
G36*
X173485361Y-117397385D02*
G01*
X173506003Y-117414019D01*
X173974454Y-117882470D01*
X174054378Y-117928614D01*
X174143522Y-117952500D01*
X187114436Y-117952500D01*
X187181475Y-117972185D01*
X187202117Y-117988819D01*
X191151117Y-121937819D01*
X191184602Y-121999142D01*
X191179618Y-122068834D01*
X191137746Y-122124767D01*
X191072282Y-122149184D01*
X191063436Y-122149500D01*
X176299116Y-122149500D01*
X176232077Y-122129815D01*
X176200742Y-122100989D01*
X176178282Y-122071718D01*
X176052841Y-121975464D01*
X175906762Y-121914956D01*
X175906760Y-121914955D01*
X175750001Y-121894318D01*
X175749999Y-121894318D01*
X175593239Y-121914955D01*
X175593237Y-121914956D01*
X175447160Y-121975463D01*
X175321718Y-122071718D01*
X175225463Y-122197160D01*
X175164956Y-122343237D01*
X175164955Y-122343239D01*
X175144318Y-122499998D01*
X175144318Y-122500001D01*
X175164955Y-122656760D01*
X175164956Y-122656762D01*
X175225464Y-122802841D01*
X175321718Y-122928282D01*
X175447159Y-123024536D01*
X175593238Y-123085044D01*
X175671619Y-123095363D01*
X175749999Y-123105682D01*
X175750000Y-123105682D01*
X175750001Y-123105682D01*
X175802254Y-123098802D01*
X175906762Y-123085044D01*
X176052841Y-123024536D01*
X176178282Y-122928282D01*
X176200741Y-122899011D01*
X176257168Y-122857811D01*
X176299116Y-122850500D01*
X191053456Y-122850500D01*
X191120495Y-122870185D01*
X191141137Y-122886819D01*
X220079958Y-151825640D01*
X220113443Y-151886963D01*
X220115216Y-151929504D01*
X220110089Y-151968451D01*
X220110089Y-151968457D01*
X220130726Y-152125216D01*
X220130727Y-152125218D01*
X220189537Y-152267199D01*
X220191235Y-152271297D01*
X220287489Y-152396738D01*
X220412930Y-152492992D01*
X220559009Y-152553500D01*
X220637390Y-152563819D01*
X220715770Y-152574138D01*
X220715771Y-152574138D01*
X220715772Y-152574138D01*
X220768025Y-152567258D01*
X220872533Y-152553500D01*
X220873815Y-152552968D01*
X220874982Y-152552843D01*
X220880384Y-152551396D01*
X220880609Y-152552238D01*
X220943283Y-152545497D01*
X221005763Y-152576770D01*
X221041418Y-152636857D01*
X221045271Y-152667528D01*
X221045271Y-155851970D01*
X221025586Y-155919009D01*
X220972782Y-155964764D01*
X220968724Y-155966531D01*
X220947161Y-155975462D01*
X220947158Y-155975464D01*
X220821719Y-156071716D01*
X220725463Y-156197160D01*
X220664956Y-156343237D01*
X220664955Y-156343239D01*
X220644318Y-156499998D01*
X220644318Y-156500001D01*
X220657076Y-156596908D01*
X220646310Y-156665943D01*
X220599930Y-156718199D01*
X220532661Y-156737084D01*
X220465861Y-156716603D01*
X220446456Y-156700774D01*
X189636819Y-125891137D01*
X189603334Y-125829814D01*
X189600500Y-125803456D01*
X189600500Y-124299115D01*
X189620185Y-124232076D01*
X189649011Y-124200742D01*
X189678282Y-124178282D01*
X189774536Y-124052841D01*
X189835044Y-123906762D01*
X189855682Y-123750000D01*
X189835044Y-123593238D01*
X189774536Y-123447159D01*
X189678282Y-123321718D01*
X189552841Y-123225464D01*
X189406762Y-123164956D01*
X189406760Y-123164955D01*
X189250001Y-123144318D01*
X189249999Y-123144318D01*
X189093239Y-123164955D01*
X189093237Y-123164956D01*
X188947160Y-123225463D01*
X188821718Y-123321718D01*
X188725463Y-123447160D01*
X188664956Y-123593237D01*
X188664955Y-123593239D01*
X188644318Y-123749998D01*
X188644318Y-123750001D01*
X188664955Y-123906760D01*
X188664956Y-123906762D01*
X188725464Y-124052841D01*
X188821718Y-124178282D01*
X188850987Y-124200740D01*
X188892189Y-124257165D01*
X188899500Y-124299115D01*
X188899500Y-126046144D01*
X188906352Y-126071714D01*
X188923386Y-126135287D01*
X188923387Y-126135290D01*
X188969527Y-126215208D01*
X188969531Y-126215213D01*
X220363875Y-157609557D01*
X220397360Y-157670880D01*
X220399133Y-157713422D01*
X220394318Y-157749998D01*
X220394318Y-157750001D01*
X220414955Y-157906760D01*
X220414956Y-157906762D01*
X220475464Y-158052841D01*
X220571718Y-158178282D01*
X220697159Y-158274536D01*
X220843238Y-158335044D01*
X220921619Y-158345363D01*
X220999999Y-158355682D01*
X221000000Y-158355682D01*
X221000001Y-158355682D01*
X221076049Y-158345670D01*
X221156762Y-158335044D01*
X221302841Y-158274536D01*
X221428282Y-158178282D01*
X221428286Y-158178277D01*
X221434029Y-158172535D01*
X221435309Y-158173815D01*
X221483543Y-158138590D01*
X221553289Y-158134430D01*
X221614212Y-158168638D01*
X221646969Y-158230352D01*
X221649500Y-158255276D01*
X221649500Y-159463034D01*
X221629815Y-159530073D01*
X221577011Y-159575828D01*
X221507853Y-159585772D01*
X221444297Y-159556747D01*
X221437819Y-159550715D01*
X213380681Y-151493578D01*
X213347196Y-151432255D01*
X213345425Y-151422097D01*
X213335044Y-151343238D01*
X213274536Y-151197159D01*
X213178282Y-151071718D01*
X213052841Y-150975464D01*
X212988473Y-150948802D01*
X212906762Y-150914956D01*
X212906760Y-150914955D01*
X212750001Y-150894318D01*
X212749999Y-150894318D01*
X212593239Y-150914955D01*
X212593237Y-150914956D01*
X212447160Y-150975463D01*
X212321718Y-151071718D01*
X212225463Y-151197160D01*
X212164956Y-151343237D01*
X212164955Y-151343239D01*
X212144318Y-151499998D01*
X212144318Y-151500001D01*
X212164955Y-151656760D01*
X212164956Y-151656762D01*
X212225464Y-151802841D01*
X212321718Y-151928282D01*
X212447159Y-152024536D01*
X212593238Y-152085044D01*
X212672083Y-152095424D01*
X212735978Y-152123689D01*
X212743578Y-152130681D01*
X214126716Y-153513819D01*
X214160201Y-153575142D01*
X214155217Y-153644834D01*
X214113345Y-153700767D01*
X214047881Y-153725184D01*
X214039035Y-153725500D01*
X209441795Y-153725500D01*
X209374756Y-153705815D01*
X209332437Y-153659953D01*
X209242914Y-153492467D01*
X209242909Y-153492460D01*
X209117883Y-153340116D01*
X208965539Y-153215090D01*
X208965532Y-153215086D01*
X208791733Y-153122188D01*
X208791727Y-153122186D01*
X208603132Y-153064976D01*
X208603129Y-153064975D01*
X208407000Y-153045659D01*
X208210870Y-153064975D01*
X208022266Y-153122188D01*
X207848467Y-153215086D01*
X207848460Y-153215090D01*
X207696116Y-153340116D01*
X207571090Y-153492460D01*
X207571086Y-153492467D01*
X207478188Y-153666266D01*
X207420975Y-153854870D01*
X207401659Y-154051000D01*
X207420975Y-154247129D01*
X207420976Y-154247132D01*
X207476105Y-154428868D01*
X207478188Y-154435733D01*
X207564947Y-154598047D01*
X207579189Y-154666450D01*
X207554189Y-154731694D01*
X207497884Y-154773064D01*
X207455589Y-154780500D01*
X207108189Y-154780500D01*
X207041150Y-154760815D01*
X207020508Y-154744181D01*
X206828873Y-154552546D01*
X206795388Y-154491223D01*
X206797894Y-154428869D01*
X206853024Y-154247132D01*
X206872341Y-154051000D01*
X206853024Y-153854868D01*
X206795814Y-153666273D01*
X206795811Y-153666269D01*
X206795811Y-153666266D01*
X206702913Y-153492467D01*
X206702909Y-153492460D01*
X206577883Y-153340116D01*
X206425539Y-153215090D01*
X206425532Y-153215086D01*
X206251733Y-153122188D01*
X206251727Y-153122186D01*
X206063132Y-153064976D01*
X206063129Y-153064975D01*
X205867000Y-153045659D01*
X205670870Y-153064975D01*
X205482266Y-153122188D01*
X205308467Y-153215086D01*
X205308460Y-153215090D01*
X205156116Y-153340116D01*
X205031090Y-153492460D01*
X205031086Y-153492467D01*
X204938188Y-153666266D01*
X204880975Y-153854870D01*
X204861659Y-154051000D01*
X204880975Y-154247129D01*
X204880976Y-154247132D01*
X204936105Y-154428868D01*
X204938188Y-154435733D01*
X205031086Y-154609532D01*
X205031090Y-154609539D01*
X205156116Y-154761883D01*
X205308460Y-154886909D01*
X205308467Y-154886913D01*
X205482266Y-154979811D01*
X205482269Y-154979811D01*
X205482273Y-154979814D01*
X205670868Y-155037024D01*
X205867000Y-155056341D01*
X206063132Y-155037024D01*
X206244870Y-154981893D01*
X206314736Y-154981270D01*
X206368546Y-155012873D01*
X206661534Y-155305861D01*
X206661535Y-155305862D01*
X206722138Y-155366465D01*
X206722140Y-155366466D01*
X206722144Y-155366469D01*
X206796355Y-155409314D01*
X206796362Y-155409318D01*
X206879147Y-155431500D01*
X206964853Y-155431500D01*
X214669811Y-155431500D01*
X214736850Y-155451185D01*
X214757492Y-155467819D01*
X215613181Y-156323508D01*
X215646666Y-156384831D01*
X215649500Y-156411189D01*
X215649500Y-159889811D01*
X215629815Y-159956850D01*
X215577011Y-160002605D01*
X215507853Y-160012549D01*
X215444297Y-159983524D01*
X215437819Y-159977492D01*
X214935692Y-159475365D01*
X214902207Y-159414042D01*
X214900899Y-159407080D01*
X214895275Y-159371567D01*
X214836241Y-159255706D01*
X214836239Y-159255704D01*
X214836236Y-159255700D01*
X214744299Y-159163763D01*
X214744295Y-159163760D01*
X214744294Y-159163759D01*
X214628433Y-159104725D01*
X214628431Y-159104724D01*
X214628428Y-159104723D01*
X214500002Y-159084383D01*
X214499997Y-159084383D01*
X214443897Y-159093268D01*
X214374604Y-159084313D01*
X214321152Y-159039317D01*
X214300513Y-158972565D01*
X214300500Y-158970795D01*
X214300500Y-158932149D01*
X214300500Y-158932147D01*
X214278318Y-158849362D01*
X214270743Y-158836241D01*
X214235469Y-158775144D01*
X214235463Y-158775136D01*
X213935692Y-158475365D01*
X213902207Y-158414042D01*
X213900899Y-158407080D01*
X213899930Y-158400960D01*
X213895275Y-158371567D01*
X213836241Y-158255706D01*
X213836239Y-158255704D01*
X213836236Y-158255700D01*
X213744299Y-158163763D01*
X213744295Y-158163760D01*
X213744294Y-158163759D01*
X213628433Y-158104725D01*
X213628431Y-158104724D01*
X213628428Y-158104723D01*
X213500002Y-158084383D01*
X213499998Y-158084383D01*
X213371571Y-158104723D01*
X213255704Y-158163760D01*
X213255700Y-158163763D01*
X213163763Y-158255700D01*
X213163760Y-158255704D01*
X213104723Y-158371571D01*
X213084383Y-158499997D01*
X213084383Y-158500002D01*
X213104723Y-158628428D01*
X213104724Y-158628431D01*
X213104725Y-158628433D01*
X213163759Y-158744294D01*
X213163760Y-158744295D01*
X213163763Y-158744299D01*
X213255700Y-158836236D01*
X213255704Y-158836239D01*
X213255706Y-158836241D01*
X213371567Y-158895275D01*
X213407081Y-158900899D01*
X213470216Y-158930828D01*
X213475365Y-158935692D01*
X213613181Y-159073508D01*
X213646666Y-159134831D01*
X213649500Y-159161189D01*
X213649500Y-168517852D01*
X213671682Y-168600640D01*
X213679958Y-168614974D01*
X213714535Y-168674862D01*
X213714537Y-168674864D01*
X214439307Y-169399634D01*
X214472792Y-169460957D01*
X214474099Y-169467917D01*
X214479723Y-169503428D01*
X214479724Y-169503431D01*
X214479725Y-169503433D01*
X214524221Y-169590761D01*
X214538760Y-169619295D01*
X214538763Y-169619299D01*
X214630700Y-169711236D01*
X214630704Y-169711239D01*
X214630706Y-169711241D01*
X214746567Y-169770275D01*
X214746570Y-169770275D01*
X214746573Y-169770277D01*
X214755853Y-169773293D01*
X214755345Y-169774853D01*
X214808380Y-169799988D01*
X214845317Y-169859296D01*
X214848330Y-169911937D01*
X214834383Y-169999996D01*
X214834383Y-170000002D01*
X214854723Y-170128428D01*
X214854724Y-170128431D01*
X214854725Y-170128433D01*
X214913759Y-170244294D01*
X214913760Y-170244295D01*
X214913763Y-170244299D01*
X215005700Y-170336236D01*
X215005704Y-170336239D01*
X215005706Y-170336241D01*
X215121567Y-170395275D01*
X215121569Y-170395275D01*
X215121571Y-170395276D01*
X215249998Y-170415617D01*
X215250000Y-170415617D01*
X215250002Y-170415617D01*
X215378428Y-170395276D01*
X215378428Y-170395275D01*
X215378433Y-170395275D01*
X215469209Y-170349022D01*
X215537874Y-170336127D01*
X215602614Y-170362403D01*
X215642872Y-170419509D01*
X215649500Y-170459508D01*
X215649500Y-173276327D01*
X215629815Y-173343366D01*
X215577011Y-173389121D01*
X215507853Y-173399065D01*
X215444297Y-173370040D01*
X215437819Y-173364008D01*
X206228819Y-164155008D01*
X206195334Y-164093685D01*
X206192500Y-164067327D01*
X206192500Y-162705794D01*
X206212185Y-162638755D01*
X206258047Y-162596436D01*
X206317335Y-162564745D01*
X206425538Y-162506910D01*
X206577883Y-162381883D01*
X206702910Y-162229538D01*
X206766638Y-162110311D01*
X206795811Y-162055733D01*
X206795811Y-162055732D01*
X206795814Y-162055727D01*
X206853024Y-161867132D01*
X206872341Y-161671000D01*
X207401659Y-161671000D01*
X207420975Y-161867129D01*
X207420976Y-161867132D01*
X207475713Y-162047576D01*
X207478188Y-162055733D01*
X207571086Y-162229532D01*
X207571090Y-162229539D01*
X207696116Y-162381883D01*
X207848460Y-162506909D01*
X207848467Y-162506913D01*
X208022266Y-162599811D01*
X208022269Y-162599811D01*
X208022273Y-162599814D01*
X208210868Y-162657024D01*
X208407000Y-162676341D01*
X208603132Y-162657024D01*
X208791727Y-162599814D01*
X208846312Y-162570638D01*
X208878632Y-162553362D01*
X208965538Y-162506910D01*
X209117883Y-162381883D01*
X209242910Y-162229538D01*
X209306638Y-162110311D01*
X209335811Y-162055733D01*
X209335811Y-162055732D01*
X209335814Y-162055727D01*
X209393024Y-161867132D01*
X209412341Y-161671000D01*
X209393024Y-161474868D01*
X209335814Y-161286273D01*
X209335811Y-161286269D01*
X209335811Y-161286266D01*
X209242913Y-161112467D01*
X209242909Y-161112460D01*
X209117883Y-160960116D01*
X208965539Y-160835090D01*
X208965532Y-160835086D01*
X208791733Y-160742188D01*
X208791727Y-160742186D01*
X208603132Y-160684976D01*
X208603129Y-160684975D01*
X208407000Y-160665659D01*
X208210870Y-160684975D01*
X208022266Y-160742188D01*
X207848467Y-160835086D01*
X207848460Y-160835090D01*
X207696116Y-160960116D01*
X207571090Y-161112460D01*
X207571086Y-161112467D01*
X207478188Y-161286266D01*
X207420975Y-161474870D01*
X207401659Y-161671000D01*
X206872341Y-161671000D01*
X206853024Y-161474868D01*
X206795814Y-161286273D01*
X206795811Y-161286269D01*
X206795811Y-161286266D01*
X206702913Y-161112467D01*
X206702909Y-161112460D01*
X206577883Y-160960116D01*
X206425539Y-160835090D01*
X206425532Y-160835086D01*
X206251733Y-160742188D01*
X206251727Y-160742186D01*
X206063132Y-160684976D01*
X206063129Y-160684975D01*
X205867000Y-160665659D01*
X205670870Y-160684975D01*
X205482266Y-160742188D01*
X205308467Y-160835086D01*
X205308460Y-160835090D01*
X205156116Y-160960116D01*
X205031090Y-161112460D01*
X205031086Y-161112467D01*
X204938188Y-161286266D01*
X204880975Y-161474870D01*
X204861659Y-161671000D01*
X204880975Y-161867129D01*
X204880976Y-161867132D01*
X204935713Y-162047576D01*
X204938188Y-162055733D01*
X205031086Y-162229532D01*
X205031090Y-162229539D01*
X205156116Y-162381883D01*
X205308460Y-162506909D01*
X205308467Y-162506913D01*
X205475953Y-162596436D01*
X205525797Y-162645398D01*
X205541500Y-162705794D01*
X205541500Y-164210663D01*
X205541500Y-164296369D01*
X205545966Y-164313037D01*
X205563682Y-164379156D01*
X205581625Y-164410233D01*
X205606535Y-164453378D01*
X205606537Y-164453380D01*
X213740976Y-172587819D01*
X213774461Y-172649142D01*
X213769477Y-172718834D01*
X213727605Y-172774767D01*
X213662141Y-172799184D01*
X213653295Y-172799500D01*
X212841519Y-172799500D01*
X212774480Y-172779815D01*
X212753838Y-172763181D01*
X211600296Y-171609638D01*
X211600295Y-171609637D01*
X211485557Y-171532972D01*
X211358082Y-171480171D01*
X211358072Y-171480168D01*
X211222746Y-171453250D01*
X211222744Y-171453250D01*
X211084756Y-171453250D01*
X211084754Y-171453250D01*
X210949427Y-171480168D01*
X210949417Y-171480171D01*
X210821942Y-171532972D01*
X210707204Y-171609637D01*
X210609637Y-171707204D01*
X210532972Y-171821942D01*
X210480171Y-171949417D01*
X210480168Y-171949427D01*
X210453250Y-172084753D01*
X210453250Y-172084756D01*
X210453250Y-172222744D01*
X210453250Y-172222746D01*
X210453249Y-172222746D01*
X210480168Y-172358072D01*
X210480171Y-172358082D01*
X210532972Y-172485557D01*
X210609637Y-172600295D01*
X212053454Y-174044112D01*
X212168192Y-174120777D01*
X212295667Y-174173578D01*
X212295672Y-174173580D01*
X212295676Y-174173580D01*
X212295677Y-174173581D01*
X212431003Y-174200500D01*
X212431006Y-174200500D01*
X213818995Y-174200500D01*
X213910041Y-174182389D01*
X213954328Y-174173580D01*
X214081811Y-174120775D01*
X214196542Y-174044114D01*
X214294114Y-173946542D01*
X214370775Y-173831811D01*
X214423580Y-173704328D01*
X214450311Y-173569941D01*
X214482695Y-173508031D01*
X214543411Y-173473457D01*
X214613180Y-173477196D01*
X214659609Y-173506452D01*
X216834234Y-175681077D01*
X216867719Y-175742400D01*
X216862735Y-175812092D01*
X216820863Y-175868025D01*
X216755399Y-175892442D01*
X216746553Y-175892758D01*
X213982060Y-175892758D01*
X213915021Y-175873073D01*
X213871576Y-175825054D01*
X213849189Y-175781118D01*
X213836241Y-175755706D01*
X213836238Y-175755703D01*
X213836236Y-175755700D01*
X213744299Y-175663763D01*
X213744295Y-175663760D01*
X213744294Y-175663759D01*
X213628433Y-175604725D01*
X213628431Y-175604724D01*
X213628428Y-175604723D01*
X213500002Y-175584383D01*
X213499998Y-175584383D01*
X213371571Y-175604723D01*
X213255704Y-175663760D01*
X213255700Y-175663763D01*
X213156858Y-175762606D01*
X213155239Y-175760987D01*
X213110545Y-175795442D01*
X213040931Y-175801411D01*
X212979140Y-175768796D01*
X212977892Y-175767565D01*
X200349511Y-163139184D01*
X200316026Y-163077861D01*
X200321010Y-163008169D01*
X200362882Y-162952236D01*
X200428346Y-162927819D01*
X200469286Y-162931728D01*
X200536999Y-162949871D01*
X200537000Y-162949871D01*
X200537000Y-161986686D01*
X200541394Y-161991080D01*
X200632606Y-162043741D01*
X200734339Y-162071000D01*
X200839661Y-162071000D01*
X200941394Y-162043741D01*
X201032606Y-161991080D01*
X201037000Y-161986686D01*
X201037000Y-162949872D01*
X201233317Y-162897269D01*
X201233326Y-162897265D01*
X201439482Y-162801134D01*
X201625820Y-162670657D01*
X201786657Y-162509820D01*
X201917134Y-162323482D01*
X202013265Y-162117326D01*
X202013269Y-162117317D01*
X202065872Y-161921000D01*
X201102686Y-161921000D01*
X201107080Y-161916606D01*
X201159741Y-161825394D01*
X201187000Y-161723661D01*
X201187000Y-161671000D01*
X202321659Y-161671000D01*
X202340975Y-161867129D01*
X202340976Y-161867132D01*
X202395713Y-162047576D01*
X202398188Y-162055733D01*
X202491086Y-162229532D01*
X202491090Y-162229539D01*
X202616116Y-162381883D01*
X202768460Y-162506909D01*
X202768467Y-162506913D01*
X202942266Y-162599811D01*
X202942269Y-162599811D01*
X202942273Y-162599814D01*
X203130868Y-162657024D01*
X203327000Y-162676341D01*
X203523132Y-162657024D01*
X203711727Y-162599814D01*
X203766312Y-162570638D01*
X203798632Y-162553362D01*
X203885538Y-162506910D01*
X204037883Y-162381883D01*
X204162910Y-162229538D01*
X204226638Y-162110311D01*
X204255811Y-162055733D01*
X204255811Y-162055732D01*
X204255814Y-162055727D01*
X204313024Y-161867132D01*
X204332341Y-161671000D01*
X204313024Y-161474868D01*
X204255814Y-161286273D01*
X204255811Y-161286269D01*
X204255811Y-161286266D01*
X204162913Y-161112467D01*
X204162909Y-161112460D01*
X204037883Y-160960116D01*
X203885539Y-160835090D01*
X203885532Y-160835086D01*
X203711733Y-160742188D01*
X203711727Y-160742186D01*
X203523132Y-160684976D01*
X203523129Y-160684975D01*
X203327000Y-160665659D01*
X203130870Y-160684975D01*
X202942266Y-160742188D01*
X202768467Y-160835086D01*
X202768460Y-160835090D01*
X202616116Y-160960116D01*
X202491090Y-161112460D01*
X202491086Y-161112467D01*
X202398188Y-161286266D01*
X202340975Y-161474870D01*
X202321659Y-161671000D01*
X201187000Y-161671000D01*
X201187000Y-161618339D01*
X201159741Y-161516606D01*
X201107080Y-161425394D01*
X201102686Y-161421000D01*
X202065872Y-161421000D01*
X202065872Y-161420999D01*
X202013269Y-161224682D01*
X202013265Y-161224673D01*
X201917134Y-161018517D01*
X201786657Y-160832179D01*
X201625820Y-160671342D01*
X201439482Y-160540865D01*
X201233328Y-160444734D01*
X201037000Y-160392127D01*
X201037000Y-161355314D01*
X201032606Y-161350920D01*
X200941394Y-161298259D01*
X200839661Y-161271000D01*
X200734339Y-161271000D01*
X200632606Y-161298259D01*
X200541394Y-161350920D01*
X200537000Y-161355314D01*
X200537000Y-160392127D01*
X200340671Y-160444734D01*
X200134517Y-160540865D01*
X199948179Y-160671342D01*
X199787342Y-160832179D01*
X199656865Y-161018517D01*
X199629382Y-161077457D01*
X199583210Y-161129896D01*
X199516016Y-161149048D01*
X199449135Y-161128832D01*
X199404618Y-161077457D01*
X199377134Y-161018517D01*
X199246657Y-160832179D01*
X199085820Y-160671342D01*
X198899482Y-160540865D01*
X198693328Y-160444734D01*
X198497000Y-160392127D01*
X198497000Y-161355314D01*
X198492606Y-161350920D01*
X198401394Y-161298259D01*
X198299661Y-161271000D01*
X198194339Y-161271000D01*
X198092606Y-161298259D01*
X198001394Y-161350920D01*
X197997000Y-161355314D01*
X197997000Y-160392127D01*
X197800671Y-160444734D01*
X197594517Y-160540865D01*
X197408179Y-160671342D01*
X197247342Y-160832179D01*
X197116865Y-161018517D01*
X197020734Y-161224673D01*
X197020730Y-161224682D01*
X196968127Y-161420999D01*
X196968128Y-161421000D01*
X197931314Y-161421000D01*
X197926920Y-161425394D01*
X197874259Y-161516606D01*
X197847000Y-161618339D01*
X197847000Y-161723661D01*
X197874259Y-161825394D01*
X197926920Y-161916606D01*
X197931314Y-161921000D01*
X196968128Y-161921000D01*
X197020730Y-162117317D01*
X197020734Y-162117326D01*
X197070521Y-162224095D01*
X197081013Y-162293173D01*
X197052493Y-162356957D01*
X196994017Y-162395196D01*
X196958139Y-162400500D01*
X196658411Y-162400500D01*
X196591372Y-162380815D01*
X196545617Y-162328011D01*
X196535673Y-162258853D01*
X196549053Y-162218047D01*
X196635811Y-162055733D01*
X196635811Y-162055732D01*
X196635814Y-162055727D01*
X196693024Y-161867132D01*
X196712341Y-161671000D01*
X196693024Y-161474868D01*
X196635814Y-161286273D01*
X196635811Y-161286269D01*
X196635811Y-161286266D01*
X196542913Y-161112467D01*
X196542909Y-161112460D01*
X196417883Y-160960116D01*
X196265539Y-160835090D01*
X196265532Y-160835086D01*
X196091733Y-160742188D01*
X196091727Y-160742186D01*
X195903132Y-160684976D01*
X195903129Y-160684975D01*
X195707000Y-160665659D01*
X195510870Y-160684975D01*
X195322266Y-160742188D01*
X195148467Y-160835086D01*
X195148460Y-160835090D01*
X194996116Y-160960116D01*
X194871090Y-161112460D01*
X194871086Y-161112467D01*
X194778188Y-161286266D01*
X194720975Y-161474870D01*
X194701659Y-161671000D01*
X194720975Y-161867129D01*
X194720976Y-161867132D01*
X194775713Y-162047576D01*
X194778188Y-162055733D01*
X194864947Y-162218047D01*
X194879189Y-162286450D01*
X194854189Y-162351694D01*
X194797884Y-162393064D01*
X194755589Y-162400500D01*
X194408189Y-162400500D01*
X194341150Y-162380815D01*
X194320508Y-162364181D01*
X194128873Y-162172546D01*
X194095388Y-162111223D01*
X194097894Y-162048869D01*
X194153024Y-161867132D01*
X194172341Y-161671000D01*
X194153024Y-161474868D01*
X194095814Y-161286273D01*
X194095811Y-161286269D01*
X194095811Y-161286266D01*
X194002913Y-161112467D01*
X194002909Y-161112460D01*
X193877883Y-160960116D01*
X193725539Y-160835090D01*
X193725532Y-160835086D01*
X193551733Y-160742188D01*
X193551727Y-160742186D01*
X193363132Y-160684976D01*
X193363129Y-160684975D01*
X193167000Y-160665659D01*
X192970870Y-160684975D01*
X192782266Y-160742188D01*
X192619953Y-160828947D01*
X192551550Y-160843189D01*
X192486306Y-160818189D01*
X192444936Y-160761884D01*
X192437500Y-160719589D01*
X192437500Y-155292188D01*
X192457185Y-155225149D01*
X192473815Y-155204511D01*
X192665454Y-155012871D01*
X192726775Y-154979388D01*
X192789126Y-154981892D01*
X192970868Y-155037024D01*
X193167000Y-155056341D01*
X193363132Y-155037024D01*
X193551727Y-154979814D01*
X193606312Y-154950638D01*
X193638632Y-154933362D01*
X193725538Y-154886910D01*
X193877883Y-154761883D01*
X194002910Y-154609538D01*
X194061460Y-154499998D01*
X194095811Y-154435733D01*
X194095811Y-154435732D01*
X194095814Y-154435727D01*
X194153024Y-154247132D01*
X194172341Y-154051000D01*
X194701659Y-154051000D01*
X194720975Y-154247129D01*
X194720976Y-154247132D01*
X194776105Y-154428868D01*
X194778188Y-154435733D01*
X194871086Y-154609532D01*
X194871090Y-154609539D01*
X194996116Y-154761883D01*
X195148460Y-154886909D01*
X195148467Y-154886913D01*
X195322266Y-154979811D01*
X195322269Y-154979811D01*
X195322273Y-154979814D01*
X195510868Y-155037024D01*
X195707000Y-155056341D01*
X195903132Y-155037024D01*
X196091727Y-154979814D01*
X196146312Y-154950638D01*
X196178632Y-154933362D01*
X196265538Y-154886910D01*
X196417883Y-154761883D01*
X196542910Y-154609538D01*
X196601460Y-154499998D01*
X196635811Y-154435733D01*
X196635811Y-154435732D01*
X196635814Y-154435727D01*
X196693024Y-154247132D01*
X196712341Y-154051000D01*
X196693024Y-153854868D01*
X196676683Y-153800999D01*
X196968127Y-153800999D01*
X196968128Y-153801000D01*
X197931314Y-153801000D01*
X197926920Y-153805394D01*
X197874259Y-153896606D01*
X197847000Y-153998339D01*
X197847000Y-154103661D01*
X197874259Y-154205394D01*
X197926920Y-154296606D01*
X197931314Y-154301000D01*
X196968128Y-154301000D01*
X197020730Y-154497317D01*
X197020734Y-154497326D01*
X197116865Y-154703482D01*
X197247342Y-154889820D01*
X197408179Y-155050657D01*
X197594517Y-155181134D01*
X197800673Y-155277265D01*
X197800682Y-155277269D01*
X197996999Y-155329872D01*
X197997000Y-155329871D01*
X197997000Y-154366686D01*
X198001394Y-154371080D01*
X198092606Y-154423741D01*
X198194339Y-154451000D01*
X198299661Y-154451000D01*
X198401394Y-154423741D01*
X198492606Y-154371080D01*
X198497000Y-154366686D01*
X198497000Y-155329872D01*
X198693317Y-155277269D01*
X198693326Y-155277265D01*
X198899482Y-155181134D01*
X199085820Y-155050657D01*
X199246657Y-154889820D01*
X199377134Y-154703481D01*
X199377135Y-154703479D01*
X199404618Y-154644543D01*
X199450790Y-154592103D01*
X199517983Y-154572951D01*
X199584864Y-154593166D01*
X199629382Y-154644543D01*
X199656864Y-154703479D01*
X199656865Y-154703481D01*
X199787342Y-154889820D01*
X199948179Y-155050657D01*
X200134517Y-155181134D01*
X200340673Y-155277265D01*
X200340682Y-155277269D01*
X200536999Y-155329872D01*
X200537000Y-155329871D01*
X200537000Y-154366686D01*
X200541394Y-154371080D01*
X200632606Y-154423741D01*
X200734339Y-154451000D01*
X200839661Y-154451000D01*
X200941394Y-154423741D01*
X201032606Y-154371080D01*
X201037000Y-154366686D01*
X201037000Y-155329872D01*
X201233317Y-155277269D01*
X201233326Y-155277265D01*
X201439482Y-155181134D01*
X201625820Y-155050657D01*
X201786657Y-154889820D01*
X201917134Y-154703482D01*
X202013265Y-154497326D01*
X202013269Y-154497317D01*
X202065872Y-154301000D01*
X201102686Y-154301000D01*
X201107080Y-154296606D01*
X201159741Y-154205394D01*
X201187000Y-154103661D01*
X201187000Y-154051000D01*
X202321659Y-154051000D01*
X202340975Y-154247129D01*
X202340976Y-154247132D01*
X202396105Y-154428868D01*
X202398188Y-154435733D01*
X202491086Y-154609532D01*
X202491090Y-154609539D01*
X202616116Y-154761883D01*
X202768460Y-154886909D01*
X202768467Y-154886913D01*
X202942266Y-154979811D01*
X202942269Y-154979811D01*
X202942273Y-154979814D01*
X203130868Y-155037024D01*
X203327000Y-155056341D01*
X203523132Y-155037024D01*
X203711727Y-154979814D01*
X203766312Y-154950638D01*
X203798632Y-154933362D01*
X203885538Y-154886910D01*
X204037883Y-154761883D01*
X204162910Y-154609538D01*
X204221460Y-154499998D01*
X204255811Y-154435733D01*
X204255811Y-154435732D01*
X204255814Y-154435727D01*
X204313024Y-154247132D01*
X204332341Y-154051000D01*
X204313024Y-153854868D01*
X204255814Y-153666273D01*
X204255811Y-153666269D01*
X204255811Y-153666266D01*
X204162913Y-153492467D01*
X204162909Y-153492460D01*
X204037883Y-153340116D01*
X203885539Y-153215090D01*
X203885532Y-153215086D01*
X203711733Y-153122188D01*
X203711727Y-153122186D01*
X203523132Y-153064976D01*
X203523129Y-153064975D01*
X203327000Y-153045659D01*
X203130870Y-153064975D01*
X202942266Y-153122188D01*
X202768467Y-153215086D01*
X202768460Y-153215090D01*
X202616116Y-153340116D01*
X202491090Y-153492460D01*
X202491086Y-153492467D01*
X202398188Y-153666266D01*
X202340975Y-153854870D01*
X202321659Y-154051000D01*
X201187000Y-154051000D01*
X201187000Y-153998339D01*
X201159741Y-153896606D01*
X201107080Y-153805394D01*
X201102686Y-153801000D01*
X202065872Y-153801000D01*
X202065872Y-153800999D01*
X202013269Y-153604682D01*
X202013265Y-153604673D01*
X201917134Y-153398517D01*
X201786657Y-153212179D01*
X201625820Y-153051342D01*
X201439482Y-152920865D01*
X201233328Y-152824734D01*
X201037000Y-152772127D01*
X201037000Y-153735314D01*
X201032606Y-153730920D01*
X200941394Y-153678259D01*
X200839661Y-153651000D01*
X200734339Y-153651000D01*
X200632606Y-153678259D01*
X200541394Y-153730920D01*
X200537000Y-153735314D01*
X200537000Y-152772127D01*
X200340671Y-152824734D01*
X200134517Y-152920865D01*
X199948179Y-153051342D01*
X199787342Y-153212179D01*
X199656865Y-153398517D01*
X199629382Y-153457457D01*
X199583210Y-153509896D01*
X199516016Y-153529048D01*
X199449135Y-153508832D01*
X199404618Y-153457457D01*
X199377134Y-153398517D01*
X199246657Y-153212179D01*
X199085820Y-153051342D01*
X198899482Y-152920865D01*
X198693328Y-152824734D01*
X198497000Y-152772127D01*
X198497000Y-153735314D01*
X198492606Y-153730920D01*
X198401394Y-153678259D01*
X198299661Y-153651000D01*
X198194339Y-153651000D01*
X198092606Y-153678259D01*
X198001394Y-153730920D01*
X197997000Y-153735314D01*
X197997000Y-152772127D01*
X197800671Y-152824734D01*
X197594517Y-152920865D01*
X197408179Y-153051342D01*
X197247342Y-153212179D01*
X197116865Y-153398517D01*
X197020734Y-153604673D01*
X197020730Y-153604682D01*
X196968127Y-153800999D01*
X196676683Y-153800999D01*
X196635814Y-153666273D01*
X196635811Y-153666269D01*
X196635811Y-153666266D01*
X196542913Y-153492467D01*
X196542909Y-153492460D01*
X196417883Y-153340116D01*
X196265539Y-153215090D01*
X196265532Y-153215086D01*
X196091733Y-153122188D01*
X196091727Y-153122186D01*
X195903132Y-153064976D01*
X195903129Y-153064975D01*
X195707000Y-153045659D01*
X195510870Y-153064975D01*
X195322266Y-153122188D01*
X195148467Y-153215086D01*
X195148460Y-153215090D01*
X194996116Y-153340116D01*
X194871090Y-153492460D01*
X194871086Y-153492467D01*
X194778188Y-153666266D01*
X194720975Y-153854870D01*
X194701659Y-154051000D01*
X194172341Y-154051000D01*
X194153024Y-153854868D01*
X194095814Y-153666273D01*
X194095811Y-153666269D01*
X194095811Y-153666266D01*
X194002913Y-153492467D01*
X194002909Y-153492460D01*
X193877883Y-153340116D01*
X193725539Y-153215090D01*
X193725532Y-153215086D01*
X193551733Y-153122188D01*
X193551727Y-153122186D01*
X193363132Y-153064976D01*
X193363129Y-153064975D01*
X193167000Y-153045659D01*
X192970870Y-153064975D01*
X192782266Y-153122188D01*
X192608467Y-153215086D01*
X192608460Y-153215090D01*
X192456116Y-153340116D01*
X192331090Y-153492460D01*
X192331086Y-153492467D01*
X192238188Y-153666266D01*
X192180975Y-153854870D01*
X192161659Y-154051000D01*
X192180975Y-154247129D01*
X192180976Y-154247132D01*
X192236106Y-154428869D01*
X192236729Y-154498735D01*
X192205126Y-154552545D01*
X191851537Y-154906135D01*
X191851535Y-154906138D01*
X191809000Y-154979811D01*
X191808682Y-154980361D01*
X191790455Y-155048386D01*
X191790455Y-155048387D01*
X191786500Y-155063146D01*
X191786500Y-160642033D01*
X191766815Y-160709072D01*
X191714011Y-160754827D01*
X191644853Y-160764771D01*
X191581297Y-160735746D01*
X191574819Y-160729714D01*
X191571553Y-160726448D01*
X191505230Y-160682132D01*
X191505229Y-160682131D01*
X191446752Y-160670500D01*
X191446748Y-160670500D01*
X190021500Y-160670500D01*
X189954461Y-160650815D01*
X189908706Y-160598011D01*
X189897500Y-160546500D01*
X189897500Y-156529626D01*
X189917185Y-156462587D01*
X189933819Y-156441945D01*
X190697925Y-155677839D01*
X191542690Y-154833074D01*
X191653760Y-154680199D01*
X191739547Y-154511832D01*
X191797940Y-154332118D01*
X191819315Y-154197160D01*
X191827500Y-154145487D01*
X191827500Y-153956513D01*
X191797940Y-153769881D01*
X191739545Y-153590163D01*
X191689762Y-153492460D01*
X191653760Y-153421801D01*
X191542690Y-153268927D01*
X191409073Y-153135310D01*
X191256199Y-153024240D01*
X191163754Y-152977137D01*
X191087829Y-152938451D01*
X191084107Y-152936910D01*
X191029700Y-152893073D01*
X191007631Y-152826780D01*
X191024906Y-152759080D01*
X191075258Y-152711861D01*
X191167697Y-152664761D01*
X191167696Y-152664761D01*
X191167699Y-152664760D01*
X191320573Y-152553690D01*
X191454190Y-152420073D01*
X191565260Y-152267199D01*
X191651047Y-152098832D01*
X191709440Y-151919118D01*
X191717397Y-151868880D01*
X191739000Y-151732486D01*
X191739000Y-148043242D01*
X191709440Y-147856610D01*
X191651045Y-147676892D01*
X191565259Y-147508529D01*
X191519665Y-147445774D01*
X191503296Y-147423244D01*
X191454193Y-147355658D01*
X174139847Y-130041312D01*
X174139845Y-130041310D01*
X173986970Y-129930240D01*
X173818607Y-129844454D01*
X173638889Y-129786059D01*
X173452257Y-129756500D01*
X173452252Y-129756500D01*
X172452026Y-129756500D01*
X172384987Y-129736815D01*
X172364345Y-129720181D01*
X170876319Y-128232155D01*
X181950000Y-128232155D01*
X181950000Y-128880000D01*
X182866988Y-128880000D01*
X182834075Y-128937007D01*
X182800000Y-129064174D01*
X182800000Y-129195826D01*
X182834075Y-129322993D01*
X182866988Y-129380000D01*
X181950000Y-129380000D01*
X181950000Y-130027844D01*
X181956401Y-130087372D01*
X181956403Y-130087379D01*
X182006645Y-130222086D01*
X182006649Y-130222093D01*
X182092809Y-130337187D01*
X182092812Y-130337190D01*
X182207906Y-130423350D01*
X182207913Y-130423354D01*
X182342620Y-130473596D01*
X182342627Y-130473598D01*
X182402155Y-130479999D01*
X182402172Y-130480000D01*
X183050000Y-130480000D01*
X183050000Y-129563012D01*
X183107007Y-129595925D01*
X183234174Y-129630000D01*
X183365826Y-129630000D01*
X183492993Y-129595925D01*
X183550000Y-129563012D01*
X183550000Y-130480000D01*
X184197828Y-130480000D01*
X184197844Y-130479999D01*
X184257372Y-130473598D01*
X184257379Y-130473596D01*
X184392086Y-130423354D01*
X184392093Y-130423350D01*
X184507187Y-130337190D01*
X184507190Y-130337187D01*
X184593350Y-130222093D01*
X184593354Y-130222086D01*
X184643596Y-130087379D01*
X184643598Y-130087372D01*
X184649999Y-130027844D01*
X184650000Y-130027827D01*
X184650000Y-129380000D01*
X183733012Y-129380000D01*
X183765925Y-129322993D01*
X183800000Y-129195826D01*
X183800000Y-129064174D01*
X183765925Y-128937007D01*
X183733012Y-128880000D01*
X184650000Y-128880000D01*
X184650000Y-128232172D01*
X184649999Y-128232155D01*
X184643598Y-128172627D01*
X184643596Y-128172620D01*
X184593354Y-128037913D01*
X184593350Y-128037906D01*
X184507190Y-127922812D01*
X184507187Y-127922809D01*
X184392093Y-127836649D01*
X184392086Y-127836645D01*
X184257379Y-127786403D01*
X184257372Y-127786401D01*
X184197844Y-127780000D01*
X183550000Y-127780000D01*
X183550000Y-128696988D01*
X183492993Y-128664075D01*
X183365826Y-128630000D01*
X183234174Y-128630000D01*
X183107007Y-128664075D01*
X183050000Y-128696988D01*
X183050000Y-127780000D01*
X182402155Y-127780000D01*
X182342627Y-127786401D01*
X182342620Y-127786403D01*
X182207913Y-127836645D01*
X182207906Y-127836649D01*
X182092812Y-127922809D01*
X182092809Y-127922812D01*
X182006649Y-128037906D01*
X182006645Y-128037913D01*
X181956403Y-128172620D01*
X181956401Y-128172627D01*
X181950000Y-128232155D01*
X170876319Y-128232155D01*
X162255993Y-119611829D01*
X162222508Y-119550506D01*
X162227492Y-119480814D01*
X162269364Y-119424881D01*
X162334828Y-119400464D01*
X162367865Y-119402530D01*
X162382553Y-119405452D01*
X162393851Y-119407700D01*
X162393852Y-119407700D01*
X164233350Y-119407700D01*
X164233351Y-119407699D01*
X164248168Y-119404752D01*
X164291829Y-119396068D01*
X164291829Y-119396067D01*
X164291831Y-119396067D01*
X164358152Y-119351752D01*
X164402467Y-119285431D01*
X164402467Y-119285429D01*
X164402468Y-119285429D01*
X164414099Y-119226952D01*
X164414100Y-119226950D01*
X164414100Y-117501700D01*
X164433785Y-117434661D01*
X164486589Y-117388906D01*
X164538100Y-117377700D01*
X173418322Y-117377700D01*
X173485361Y-117397385D01*
G37*
G04 #@! TD.AperFunction*
G04 #@! TA.AperFunction,Conductor*
G36*
X200466920Y-161425394D02*
G01*
X200414259Y-161516606D01*
X200387000Y-161618339D01*
X200387000Y-161723661D01*
X200414259Y-161825394D01*
X200466920Y-161916606D01*
X200471314Y-161921000D01*
X198562686Y-161921000D01*
X198567080Y-161916606D01*
X198619741Y-161825394D01*
X198647000Y-161723661D01*
X198647000Y-161618339D01*
X198619741Y-161516606D01*
X198567080Y-161425394D01*
X198562686Y-161421000D01*
X200471314Y-161421000D01*
X200466920Y-161425394D01*
G37*
G04 #@! TD.AperFunction*
G04 #@! TA.AperFunction,Conductor*
G36*
X231335495Y-127620185D02*
G01*
X231381250Y-127672989D01*
X231391194Y-127742147D01*
X231362169Y-127805703D01*
X231356137Y-127812181D01*
X231113531Y-128054786D01*
X231113529Y-128054788D01*
X231094979Y-128086918D01*
X231087417Y-128100019D01*
X231087140Y-128100498D01*
X231087138Y-128100500D01*
X231067388Y-128134706D01*
X231067387Y-128134709D01*
X231067386Y-128134711D01*
X231067386Y-128134712D01*
X231057229Y-128172620D01*
X231043500Y-128223856D01*
X231043500Y-144323467D01*
X231023815Y-144390506D01*
X231007181Y-144411148D01*
X224469531Y-150948797D01*
X224469527Y-150948802D01*
X224423387Y-151028720D01*
X224423386Y-151028723D01*
X224399500Y-151117867D01*
X224399500Y-156329922D01*
X224379815Y-156396961D01*
X224327011Y-156442716D01*
X224257853Y-156452660D01*
X224228048Y-156444483D01*
X224156765Y-156414957D01*
X224156760Y-156414955D01*
X224000001Y-156394318D01*
X223999999Y-156394318D01*
X223843239Y-156414955D01*
X223843234Y-156414957D01*
X223769267Y-156445595D01*
X223699798Y-156453064D01*
X223637319Y-156421788D01*
X223601667Y-156361699D01*
X223597815Y-156331034D01*
X223597815Y-155049115D01*
X223617500Y-154982076D01*
X223646326Y-154950742D01*
X223675597Y-154928282D01*
X223771851Y-154802841D01*
X223832359Y-154656762D01*
X223852997Y-154500000D01*
X223852830Y-154498735D01*
X223832359Y-154343239D01*
X223832359Y-154343238D01*
X223771851Y-154197159D01*
X223675597Y-154071718D01*
X223550156Y-153975464D01*
X223504404Y-153956513D01*
X223404077Y-153914956D01*
X223404075Y-153914955D01*
X223247316Y-153894318D01*
X223247314Y-153894318D01*
X223090554Y-153914955D01*
X223090552Y-153914956D01*
X222951953Y-153972366D01*
X222882483Y-153979835D01*
X222820004Y-153948560D01*
X222784352Y-153888471D01*
X222780500Y-153857805D01*
X222780500Y-133193527D01*
X225382400Y-133193527D01*
X225382400Y-133404872D01*
X225415462Y-133613617D01*
X225480769Y-133814615D01*
X225480770Y-133814618D01*
X225576720Y-134002928D01*
X225700946Y-134173910D01*
X225850390Y-134323354D01*
X226021372Y-134447580D01*
X226113732Y-134494639D01*
X226209681Y-134543529D01*
X226209684Y-134543530D01*
X226310183Y-134576183D01*
X226410684Y-134608838D01*
X226619427Y-134641900D01*
X226619428Y-134641900D01*
X226830772Y-134641900D01*
X226830773Y-134641900D01*
X227039516Y-134608838D01*
X227240518Y-134543529D01*
X227428828Y-134447580D01*
X227599810Y-134323354D01*
X227749254Y-134173910D01*
X227873480Y-134002928D01*
X227969429Y-133814618D01*
X228034738Y-133613616D01*
X228067800Y-133404873D01*
X228067800Y-133193527D01*
X228034738Y-132984784D01*
X227969429Y-132783782D01*
X227969429Y-132783781D01*
X227873479Y-132595471D01*
X227749254Y-132424490D01*
X227599810Y-132275046D01*
X227428828Y-132150820D01*
X227240518Y-132054870D01*
X227240515Y-132054869D01*
X227039517Y-131989562D01*
X226935144Y-131973031D01*
X226830773Y-131956500D01*
X226619427Y-131956500D01*
X226549846Y-131967520D01*
X226410682Y-131989562D01*
X226209684Y-132054869D01*
X226209681Y-132054870D01*
X226021371Y-132150820D01*
X225923820Y-132221695D01*
X225850390Y-132275046D01*
X225850388Y-132275048D01*
X225850387Y-132275048D01*
X225700948Y-132424487D01*
X225700948Y-132424488D01*
X225700946Y-132424490D01*
X225647595Y-132497920D01*
X225576720Y-132595471D01*
X225480770Y-132783781D01*
X225480769Y-132783784D01*
X225415462Y-132984782D01*
X225382400Y-133193527D01*
X222780500Y-133193527D01*
X222780500Y-131016544D01*
X222800185Y-130949505D01*
X222816819Y-130928863D01*
X226108863Y-127636819D01*
X226170186Y-127603334D01*
X226196544Y-127600500D01*
X231268456Y-127600500D01*
X231335495Y-127620185D01*
G37*
G04 #@! TD.AperFunction*
G04 #@! TA.AperFunction,Conductor*
G36*
X210418812Y-108153324D02*
G01*
X210474745Y-108195196D01*
X210499162Y-108260660D01*
X210494745Y-108303439D01*
X210477551Y-108363868D01*
X210458734Y-108566948D01*
X210458734Y-108566949D01*
X210477551Y-108770031D01*
X210533366Y-108966196D01*
X210533371Y-108966209D01*
X210624276Y-109148770D01*
X210747186Y-109311530D01*
X210897907Y-109448929D01*
X210897909Y-109448931D01*
X210997090Y-109510341D01*
X211071312Y-109556297D01*
X211261493Y-109629973D01*
X211461973Y-109667449D01*
X211461975Y-109667449D01*
X211665923Y-109667449D01*
X211665925Y-109667449D01*
X211866405Y-109629973D01*
X212056586Y-109556297D01*
X212229990Y-109448930D01*
X212380713Y-109311528D01*
X212503622Y-109148770D01*
X212594531Y-108966199D01*
X212650346Y-108770032D01*
X212650548Y-108767853D01*
X212650936Y-108766875D01*
X212651400Y-108764394D01*
X212651885Y-108764484D01*
X212676331Y-108702915D01*
X212733130Y-108662225D01*
X212802911Y-108658703D01*
X212861698Y-108691608D01*
X212934485Y-108764394D01*
X213080692Y-108910602D01*
X213114177Y-108971925D01*
X213109193Y-109041617D01*
X213080692Y-109085964D01*
X211931473Y-110235183D01*
X211931470Y-110235187D01*
X211898340Y-110284768D01*
X211898340Y-110284769D01*
X211882780Y-110362997D01*
X211882780Y-110363002D01*
X211898340Y-110441230D01*
X211898340Y-110441231D01*
X211931470Y-110490812D01*
X211931473Y-110490816D01*
X213232183Y-111791526D01*
X213232186Y-111791528D01*
X213232189Y-111791531D01*
X213262566Y-111811828D01*
X213281769Y-111824659D01*
X213359998Y-111840220D01*
X213360000Y-111840220D01*
X213360002Y-111840220D01*
X213412154Y-111829846D01*
X213438231Y-111824659D01*
X213487811Y-111791531D01*
X213992996Y-111286345D01*
X214054318Y-111252861D01*
X214124009Y-111257845D01*
X214179943Y-111299716D01*
X214204360Y-111365181D01*
X214189508Y-111433454D01*
X214179631Y-111448753D01*
X214140164Y-111501016D01*
X214049259Y-111683577D01*
X214049254Y-111683590D01*
X213993439Y-111879755D01*
X213974622Y-112082837D01*
X213974622Y-112082838D01*
X213993439Y-112285920D01*
X214049254Y-112482085D01*
X214049259Y-112482098D01*
X214140164Y-112664659D01*
X214263074Y-112827419D01*
X214359977Y-112915757D01*
X214404885Y-112956696D01*
X214413795Y-112964818D01*
X214413797Y-112964820D01*
X214508949Y-113023735D01*
X214587200Y-113072186D01*
X214587205Y-113072187D01*
X214587207Y-113072189D01*
X214617638Y-113083977D01*
X214650129Y-113096564D01*
X214705531Y-113139136D01*
X214729123Y-113204902D01*
X214729337Y-113212191D01*
X214729337Y-128030720D01*
X214709652Y-128097759D01*
X214680824Y-128129095D01*
X214651558Y-128151551D01*
X214555300Y-128276997D01*
X214494793Y-128423074D01*
X214494792Y-128423076D01*
X214474155Y-128579835D01*
X214474155Y-128579838D01*
X214494792Y-128736597D01*
X214494793Y-128736599D01*
X214555301Y-128882678D01*
X214651555Y-129008119D01*
X214776996Y-129104373D01*
X214923075Y-129164881D01*
X215001456Y-129175200D01*
X215079836Y-129185519D01*
X215079837Y-129185519D01*
X215079838Y-129185519D01*
X215132091Y-129178639D01*
X215236599Y-129164881D01*
X215382678Y-129104373D01*
X215508119Y-129008119D01*
X215604373Y-128882678D01*
X215664881Y-128736599D01*
X215685519Y-128579837D01*
X215664881Y-128423075D01*
X215604373Y-128276996D01*
X215508119Y-128151555D01*
X215508116Y-128151553D01*
X215508115Y-128151551D01*
X215478850Y-128129095D01*
X215437648Y-128072667D01*
X215430337Y-128030720D01*
X215430337Y-114289042D01*
X215450022Y-114222003D01*
X215502826Y-114176248D01*
X215571984Y-114166304D01*
X215635540Y-114195329D01*
X215642018Y-114201361D01*
X215734089Y-114293432D01*
X215760058Y-114335796D01*
X215761472Y-114335211D01*
X215763337Y-114339713D01*
X215849126Y-114508086D01*
X215877181Y-114546700D01*
X215960198Y-114660963D01*
X216093814Y-114794579D01*
X216246689Y-114905649D01*
X216330872Y-114948542D01*
X216415057Y-114991437D01*
X216419549Y-114993297D01*
X216418960Y-114994717D01*
X216461343Y-115020686D01*
X216748071Y-115307415D01*
X216748075Y-115307418D01*
X216748077Y-115307420D01*
X216797657Y-115340548D01*
X216875886Y-115356109D01*
X216875888Y-115356109D01*
X216875890Y-115356109D01*
X216928042Y-115345735D01*
X216954119Y-115340548D01*
X217003699Y-115307420D01*
X217290434Y-115020683D01*
X217332808Y-114994732D01*
X217332216Y-114993302D01*
X217336709Y-114991439D01*
X217336720Y-114991436D01*
X217505087Y-114905649D01*
X217657962Y-114794579D01*
X218427974Y-114024566D01*
X218539044Y-113871692D01*
X218624831Y-113703325D01*
X218683224Y-113523611D01*
X218690514Y-113477582D01*
X218712784Y-113336979D01*
X218712784Y-111811828D01*
X218732469Y-111744789D01*
X218785273Y-111699034D01*
X218854431Y-111689090D01*
X218917987Y-111718115D01*
X218924465Y-111724147D01*
X224863181Y-117662863D01*
X224896666Y-117724186D01*
X224899500Y-117750544D01*
X224899500Y-125950883D01*
X224879815Y-126017922D01*
X224850987Y-126049258D01*
X224821721Y-126071714D01*
X224725463Y-126197160D01*
X224664956Y-126343237D01*
X224664955Y-126343239D01*
X224644318Y-126499998D01*
X224644318Y-126500001D01*
X224664955Y-126656760D01*
X224664956Y-126656762D01*
X224725464Y-126802841D01*
X224821718Y-126928282D01*
X224947159Y-127024536D01*
X225093238Y-127085044D01*
X225153085Y-127092923D01*
X225249999Y-127105682D01*
X225250000Y-127105682D01*
X225346910Y-127092923D01*
X225415942Y-127103688D01*
X225468198Y-127150068D01*
X225487084Y-127217336D01*
X225466604Y-127284137D01*
X225450775Y-127303543D01*
X225284788Y-127469530D01*
X222149531Y-130604786D01*
X222149525Y-130604794D01*
X222108484Y-130675881D01*
X222108484Y-130675882D01*
X222103387Y-130684709D01*
X222103386Y-130684712D01*
X222079500Y-130773856D01*
X222079500Y-137319456D01*
X222059815Y-137386495D01*
X222007011Y-137432250D01*
X221937853Y-137442194D01*
X221874297Y-137413169D01*
X221867819Y-137407137D01*
X213886819Y-129426137D01*
X213853334Y-129364814D01*
X213850500Y-129338456D01*
X213850500Y-125769115D01*
X213870185Y-125702076D01*
X213899011Y-125670742D01*
X213928282Y-125648282D01*
X214024536Y-125522841D01*
X214085044Y-125376762D01*
X214105682Y-125220000D01*
X214103560Y-125203884D01*
X214091923Y-125115492D01*
X214085044Y-125063238D01*
X214024536Y-124917159D01*
X213928282Y-124791718D01*
X213802841Y-124695464D01*
X213793493Y-124691592D01*
X213656762Y-124634956D01*
X213656760Y-124634955D01*
X213500001Y-124614318D01*
X213499999Y-124614318D01*
X213343239Y-124634955D01*
X213343237Y-124634956D01*
X213197160Y-124695463D01*
X213071718Y-124791718D01*
X212975463Y-124917160D01*
X212914956Y-125063237D01*
X212914955Y-125063239D01*
X212894318Y-125219998D01*
X212894318Y-125220001D01*
X212914955Y-125376760D01*
X212914956Y-125376762D01*
X212975464Y-125522841D01*
X213071718Y-125648282D01*
X213100987Y-125670740D01*
X213142189Y-125727165D01*
X213149500Y-125769115D01*
X213149500Y-129581143D01*
X213173386Y-129670287D01*
X213173387Y-129670290D01*
X213219527Y-129750208D01*
X213219531Y-129750213D01*
X221613181Y-138143862D01*
X221646666Y-138205185D01*
X221649500Y-138231543D01*
X221649500Y-151145476D01*
X221629815Y-151212515D01*
X221577011Y-151258270D01*
X221507853Y-151268214D01*
X221444297Y-151239189D01*
X221437819Y-151233157D01*
X187526193Y-117321531D01*
X187526188Y-117321527D01*
X187446270Y-117275387D01*
X187446265Y-117275385D01*
X187439345Y-117273530D01*
X187439345Y-117273531D01*
X187357124Y-117251500D01*
X187357123Y-117251500D01*
X184089480Y-117251500D01*
X184022441Y-117231815D01*
X183976686Y-117179011D01*
X183966742Y-117109853D01*
X183995767Y-117046297D01*
X184001799Y-117039819D01*
X184577886Y-116463732D01*
X185735086Y-115306532D01*
X185846156Y-115153657D01*
X185931943Y-114985290D01*
X185990336Y-114805576D01*
X186013240Y-114660965D01*
X186019896Y-114618945D01*
X186019896Y-114100500D01*
X186039581Y-114033461D01*
X186092385Y-113987706D01*
X186143896Y-113976500D01*
X204090346Y-113976500D01*
X204276978Y-113946940D01*
X204456692Y-113888547D01*
X204625059Y-113802760D01*
X204777934Y-113691690D01*
X210287799Y-108181823D01*
X210349120Y-108148340D01*
X210418812Y-108153324D01*
G37*
G04 #@! TD.AperFunction*
M02*
