M48
; DRILL file {KiCad 8.0.6} date 2025-03-26T21:52:28-0700
; FORMAT={-:-/ absolute / metric / decimal}
; #@! TF.CreationDate,2025-03-26T21:52:28-07:00
; #@! TF.GenerationSoftware,Kicad,Pcbnew,8.0.6
; #@! TF.FileFunction,Plated,1,2,PTH
FMAT,2
METRIC
; #@! TA.AperFunction,Plated,PTH,ViaDrill
T1C0.300
; #@! TA.AperFunction,Plated,PTH,ViaDrill
T2C0.400
; #@! TA.AperFunction,Plated,PTH,ViaDrill
T3C0.800
; #@! TA.AperFunction,Plated,PTH,ComponentDrill
T4C0.800
; #@! TA.AperFunction,Plated,PTH,ComponentDrill
T5C0.900
; #@! TA.AperFunction,Plated,PTH,ComponentDrill
T6C1.000
; #@! TA.AperFunction,Plated,PTH,ComponentDrill
T7C1.850
%
G90
G05
T1
X191.135Y-163.195
X192.024Y-164.715
X208.5Y-175.25
X209.5Y-181.0
X210.25Y-184.0
X210.394Y-183.106
X210.837Y-179.5
X210.964Y-182.89
X212.75Y-178.25
X213.5Y-158.5
X213.5Y-176.0
X214.5Y-159.5
X214.535Y-181.739
X214.875Y-169.375
X215.25Y-170.0
X217.303Y-174.947
X217.307Y-175.693
X217.75Y-177.316
X218.0Y-176.75
X220.5Y-176.5
X221.555Y-173.305
X224.25Y-183.25
X225.0Y-184.5
X228.25Y-167.25
X230.0Y-170.25
T2
X154.24Y-110.41
X157.531Y-174.981
X161.75Y-163.75
X163.754Y-182.474
X164.36Y-109.59
X166.497Y-174.117
X168.175Y-157.675
X170.0Y-109.25
X170.688Y-161.544
X173.609Y-117.983
X173.75Y-109.25
X174.244Y-170.688
X175.75Y-122.5
X175.971Y-177.165
X178.41Y-127.152
X178.63Y-107.01
X179.248Y-142.215
X180.71Y-133.38
X182.372Y-143.256
X182.57Y-126.57
X184.17Y-133.33
X185.42Y-166.37
X185.42Y-170.694
X188.163Y-143.408
X188.33Y-133.46
X189.25Y-123.75
X189.382Y-181.661
X190.538Y-151.638
X190.703Y-182.829
X191.05Y-125.14
X191.262Y-179.324
X192.63Y-125.14
X193.0Y-142.25
X194.056Y-168.402
X194.64Y-178.13
X196.0Y-109.75
X197.317Y-166.817
X198.069Y-169.367
X199.898Y-173.736
X200.183Y-106.162
X200.25Y-184.75
X200.25Y-186.944
X200.25Y-189.0
X200.66Y-169.164
X202.717Y-131.496
X202.75Y-142.5
X203.25Y-181.0
X204.216Y-172.466
X204.25Y-109.75
X206.299Y-131.42
X206.299Y-134.645
X209.0Y-142.5
X209.55Y-131.42
X209.601Y-134.645
X209.601Y-137.897
X211.154Y-172.154
X212.035Y-182.5
X212.75Y-151.5
X212.965Y-182.5
X213.5Y-125.22
X213.75Y-173.5
X215.07Y-182.5
X215.08Y-128.58
X216.25Y-142.5
X217.727Y-181.523
X217.75Y-161.5
X217.756Y-182.453
X217.932Y-128.93
X217.97Y-170.5
X218.008Y-138.227
X219.82Y-179.196
X220.716Y-151.968
X220.75Y-106.47
X221.0Y-157.75
X221.25Y-156.5
X222.039Y-182.789
X222.285Y-166.25
X222.758Y-186.436
X223.11Y-159.179
X223.241Y-128.041
X223.247Y-154.5
X223.774Y-184.912
X224.0Y-157.0
X224.282Y-188.682
X224.336Y-180.664
X225.0Y-114.75
X225.25Y-126.5
X225.43Y-155.375
X225.73Y-143.256
X225.93Y-162.653
X226.25Y-108.25
X226.568Y-185.928
X228.25Y-159.5
X228.25Y-162.5
X228.25Y-165.75
X228.346Y-143.205
X230.5Y-111.0
X230.632Y-147.574
X231.14Y-125.476
X231.25Y-169.25
X234.0Y-122.438
X234.61Y-108.44
X235.75Y-127.25
X236.75Y-176.5
X236.75Y-181.0
X239.25Y-177.0
X242.915Y-181.25
X245.01Y-114.69
T3
X161.45Y-165.975
X181.0Y-170.694
X192.786Y-175.5
T4
X169.998Y-169.694
X169.998Y-172.194
X186.203Y-183.737
X186.203Y-186.237
X190.627Y-154.051
X190.627Y-161.671
X193.167Y-154.051
X193.167Y-161.671
X195.707Y-154.051
X195.707Y-161.671
X198.247Y-154.051
X198.247Y-161.671
X200.787Y-154.051
X200.787Y-161.671
X203.327Y-154.051
X203.327Y-161.671
X205.867Y-154.051
X205.867Y-161.671
X208.407Y-154.051
X208.407Y-161.671
T5
X155.694Y-118.307
X158.234Y-118.307
X160.774Y-118.307
X163.314Y-118.307
X182.387Y-114.086
X184.183Y-112.29
X185.979Y-110.494
X187.775Y-108.698
X211.564Y-108.567
X213.36Y-110.363
X215.08Y-112.083
X216.876Y-113.879
X235.704Y-118.307
X238.244Y-118.307
X240.784Y-118.307
X243.324Y-118.307
T6
X155.088Y-182.21
X155.088Y-184.75
X155.14Y-177.85
X155.804Y-162.027
X155.804Y-164.567
X155.804Y-167.107
X155.804Y-169.647
X155.804Y-172.187
X160.43Y-160.12
X179.0Y-164.0
X183.3Y-129.13
X191.86Y-186.42
X195.7Y-186.42
T7
X161.438Y-175.902
X161.438Y-180.728
X161.438Y-185.554
M30
