G04 #@! TF.GenerationSoftware,KiCad,Pcbnew,8.0.6*
G04 #@! TF.CreationDate,2025-01-29T21:13:59-08:00*
G04 #@! TF.ProjectId,rezq_rev2,72657a71-5f72-4657-9632-2e6b69636164,rev?*
G04 #@! TF.SameCoordinates,Original*
G04 #@! TF.FileFunction,Legend,Bot*
G04 #@! TF.FilePolarity,Positive*
%FSLAX46Y46*%
G04 Gerber Fmt 4.6, Leading zero omitted, Abs format (unit mm)*
G04 Created by KiCad (PCBNEW 8.0.6) date 2025-01-29 21:13:59*
%MOMM*%
%LPD*%
G01*
G04 APERTURE LIST*
G04 Aperture macros list*
%AMRoundRect*
0 Rectangle with rounded corners*
0 $1 Rounding radius*
0 $2 $3 $4 $5 $6 $7 $8 $9 X,Y pos of 4 corners*
0 Add a 4 corners polygon primitive as box body*
4,1,4,$2,$3,$4,$5,$6,$7,$8,$9,$2,$3,0*
0 Add four circle primitives for the rounded corners*
1,1,$1+$1,$2,$3*
1,1,$1+$1,$4,$5*
1,1,$1+$1,$6,$7*
1,1,$1+$1,$8,$9*
0 Add four rect primitives between the rounded corners*
20,1,$1+$1,$2,$3,$4,$5,0*
20,1,$1+$1,$4,$5,$6,$7,0*
20,1,$1+$1,$6,$7,$8,$9,0*
20,1,$1+$1,$8,$9,$2,$3,0*%
G04 Aperture macros list end*
%ADD10C,0.800000*%
%ADD11C,0.150000*%
%ADD12C,0.120000*%
%ADD13RoundRect,0.200000X-0.850000X-0.850000X0.850000X-0.850000X0.850000X0.850000X-0.850000X0.850000X0*%
%ADD14C,2.600000*%
%ADD15C,2.584400*%
%ADD16C,3.400000*%
%ADD17RoundRect,0.200000X0.850000X0.850000X-0.850000X0.850000X-0.850000X-0.850000X0.850000X-0.850000X0*%
%ADD18O,2.100000X2.100000*%
%ADD19RoundRect,0.200000X1.272792X0.000000X0.000000X1.272792X-1.272792X0.000000X0.000000X-1.272792X0*%
%ADD20C,2.200000*%
%ADD21RoundRect,0.200000X0.000000X1.272792X-1.272792X0.000000X0.000000X-1.272792X1.272792X0.000000X0*%
%ADD22RoundRect,0.200000X0.900000X0.900000X-0.900000X0.900000X-0.900000X-0.900000X0.900000X-0.900000X0*%
%ADD23RoundRect,0.200000X-0.800000X0.800000X-0.800000X-0.800000X0.800000X-0.800000X0.800000X0.800000X0*%
%ADD24C,2.000000*%
%ADD25RoundRect,0.200000X0.800000X-0.800000X0.800000X0.800000X-0.800000X0.800000X-0.800000X-0.800000X0*%
%ADD26O,2.000000X2.000000*%
%ADD27RoundRect,0.325471X-0.774529X0.537029X-0.774529X-0.537029X0.774529X-0.537029X0.774529X0.537029X0*%
%ADD28RoundRect,0.326924X0.523076X0.748076X-0.523076X0.748076X-0.523076X-0.748076X0.523076X-0.748076X0*%
%ADD29RoundRect,0.326924X-0.523076X-0.748076X0.523076X-0.748076X0.523076X0.748076X-0.523076X0.748076X0*%
%ADD30RoundRect,0.175000X-0.762500X-0.175000X0.762500X-0.175000X0.762500X0.175000X-0.762500X0.175000X0*%
%ADD31RoundRect,0.175000X-0.175000X-0.762500X0.175000X-0.762500X0.175000X0.762500X-0.175000X0.762500X0*%
%ADD32RoundRect,0.325471X-0.537029X-0.774529X0.537029X-0.774529X0.537029X0.774529X-0.537029X0.774529X0*%
%ADD33RoundRect,0.326924X0.748076X-0.523076X0.748076X0.523076X-0.748076X0.523076X-0.748076X-0.523076X0*%
%ADD34RoundRect,0.325471X0.537029X0.774529X-0.537029X0.774529X-0.537029X-0.774529X0.537029X-0.774529X0*%
%ADD35RoundRect,0.326924X-0.748076X0.523076X-0.748076X-0.523076X0.748076X-0.523076X0.748076X0.523076X0*%
G04 APERTURE END LIST*
D10*
X198056306Y-142556293D02*
X198083946Y-142344155D01*
X198176319Y-142699308D02*
X198056306Y-142556293D01*
X198425334Y-142789708D02*
X198176319Y-142699308D01*
X198715357Y-142839808D02*
X198425334Y-142789708D01*
X199044088Y-142829966D02*
X198715357Y-142839808D01*
X199439083Y-142730160D02*
X199044088Y-142829966D01*
X199879881Y-142536144D02*
X199439083Y-142730160D01*
X200305158Y-142265600D02*
X199879881Y-142536144D01*
X200652385Y-141936922D02*
X200305158Y-142265600D01*
X200884916Y-141571217D02*
X200652385Y-141936922D01*
X201026759Y-141195959D02*
X200884916Y-141571217D01*
X201110208Y-140839453D02*
X201026759Y-141195959D01*
X201136657Y-140523913D02*
X201110208Y-140839453D01*
X201055033Y-140261149D02*
X201136657Y-140523913D01*
X200848175Y-140049563D02*
X201055033Y-140261149D01*
X200597589Y-139856201D02*
X200848175Y-140049563D01*
X200055997Y-139730531D02*
X200597589Y-139856201D01*
X199602134Y-139667167D02*
X200055997Y-139730531D01*
X199306826Y-139704652D02*
X199602134Y-139667167D01*
X199103795Y-139827116D02*
X199306826Y-139704652D01*
X198967990Y-140007751D02*
X199103795Y-139827116D01*
X198378627Y-141565354D02*
X198967990Y-140007751D01*
X198228427Y-141937193D02*
X198378627Y-141565354D01*
X198083946Y-142344155D02*
X198228427Y-141937193D01*
X204639486Y-144641534D02*
X205173224Y-144640436D01*
X204010952Y-144566486D02*
X204639486Y-144641534D01*
X203298070Y-144396235D02*
X204010952Y-144566486D01*
X202600105Y-144159082D02*
X203298070Y-144396235D01*
X201938459Y-143850446D02*
X202600105Y-144159082D01*
X201318876Y-143427115D02*
X201938459Y-143850446D01*
X200725603Y-142918776D02*
X201318876Y-143427115D01*
X201076677Y-143488536D02*
X200725603Y-142918776D01*
X201327393Y-144020067D02*
X201076677Y-143488536D01*
X201544521Y-144583709D02*
X201327393Y-144020067D01*
X201840522Y-145279550D02*
X201544521Y-144583709D01*
X202089259Y-146051083D02*
X201840522Y-145279550D01*
X202241829Y-146845738D02*
X202089259Y-146051083D01*
X202390445Y-147857646D02*
X202241829Y-146845738D01*
X202450302Y-148896072D02*
X202390445Y-147857646D01*
X202374810Y-149955879D02*
X202450302Y-148896072D01*
X202240399Y-150933540D02*
X202374810Y-149955879D01*
X202005969Y-151879284D02*
X202240399Y-150933540D01*
X201663961Y-152851011D02*
X202005969Y-151879284D01*
X204525819Y-150350270D02*
X201663961Y-152851011D01*
X206629331Y-153677996D02*
X204525819Y-150350270D01*
X206926425Y-152937741D02*
X206629331Y-153677996D01*
X207131246Y-152067013D02*
X206926425Y-152937741D01*
X207248592Y-151137205D02*
X207131246Y-152067013D01*
X207283382Y-150205137D02*
X207248592Y-151137205D01*
X207224093Y-149374000D02*
X207283382Y-150205137D01*
X207084392Y-148485108D02*
X207224093Y-149374000D01*
X206841716Y-147541882D02*
X207084392Y-148485108D01*
X206432156Y-146575883D02*
X206841716Y-147541882D01*
X205848195Y-145608179D02*
X206432156Y-146575883D01*
X205173224Y-144640436D02*
X205848195Y-145608179D01*
X201159541Y-153633963D02*
X204522198Y-150842739D01*
X201489741Y-152312386D02*
X201159541Y-153633963D01*
X201777443Y-150993568D02*
X201489741Y-152312386D01*
X201980152Y-149680267D02*
X201777443Y-150993568D01*
X202057223Y-148377325D02*
X201980152Y-149680267D01*
X201983609Y-147087675D02*
X202057223Y-148377325D01*
X201744090Y-145874315D02*
X201983609Y-147087675D01*
X201331069Y-144771384D02*
X201744090Y-145874315D01*
X200784310Y-143761671D02*
X201331069Y-144771384D01*
X200170524Y-142798735D02*
X200784310Y-143761671D01*
X199666793Y-142973639D02*
X200170524Y-142798735D01*
X199173195Y-143077790D02*
X199666793Y-142973639D01*
X198769436Y-143061051D02*
X199173195Y-143077790D01*
X198378755Y-142952982D02*
X198769436Y-143061051D01*
X197994687Y-142798735D02*
X198378755Y-142952982D01*
X197464449Y-143539371D02*
X197994687Y-142798735D01*
X197009376Y-144309048D02*
X197464449Y-143539371D01*
X196699216Y-145130397D02*
X197009376Y-144309048D01*
X196546064Y-145957810D02*
X196699216Y-145130397D01*
X196525667Y-146711336D02*
X196546064Y-145957810D01*
X196584070Y-147441168D02*
X196525667Y-146711336D01*
X196641269Y-148260050D02*
X196584070Y-147441168D01*
X196652795Y-149202626D02*
X196641269Y-148260050D01*
X196590046Y-150166691D02*
X196652795Y-149202626D01*
X196429637Y-151067222D02*
X196590046Y-150166691D01*
X196168379Y-151902639D02*
X196429637Y-151067222D01*
X195809109Y-152693239D02*
X196168379Y-151902639D01*
X195372090Y-153456191D02*
X195809109Y-152693239D01*
X194895769Y-154205394D02*
X195372090Y-153456191D01*
X193335319Y-150513065D02*
X194895769Y-154205394D01*
X189906728Y-153128465D02*
X193335319Y-150513065D01*
X189964240Y-152684183D02*
X189906728Y-153128465D01*
X190031996Y-152175226D02*
X189964240Y-152684183D01*
X190120239Y-151536921D02*
X190031996Y-152175226D01*
X190237964Y-150721265D02*
X190120239Y-151536921D01*
X190387561Y-149768562D02*
X190237964Y-150721265D01*
X190569241Y-148748230D02*
X190387561Y-149768562D01*
X190783213Y-147729711D02*
X190569241Y-148748230D01*
X191102575Y-146545592D02*
X190783213Y-147729711D01*
X191474858Y-145603084D02*
X191102575Y-146545592D01*
X191898959Y-144880607D02*
X191474858Y-145603084D01*
X192373062Y-144280417D02*
X191898959Y-144880607D01*
X192894087Y-143712140D02*
X192373062Y-144280417D01*
X193449349Y-143146378D02*
X192894087Y-143712140D01*
X194021741Y-142581798D02*
X193449349Y-143146378D01*
X193551417Y-142604324D02*
X194021741Y-142581798D01*
X192979075Y-142549362D02*
X193551417Y-142604324D01*
X192254234Y-142372184D02*
X192979075Y-142549362D01*
X191595542Y-142162896D02*
X192254234Y-142372184D01*
X190966795Y-141938389D02*
X191595542Y-142162896D01*
X190504426Y-141757119D02*
X190966795Y-141938389D01*
X190121839Y-141567258D02*
X190504426Y-141757119D01*
X189823376Y-141340402D02*
X190121839Y-141567258D01*
X189583775Y-140992333D02*
X189823376Y-141340402D01*
X189484000Y-140589000D02*
X189583775Y-140992333D01*
X189532160Y-140179700D02*
X189484000Y-140589000D01*
X189695389Y-139817356D02*
X189532160Y-140179700D01*
X189923306Y-139537226D02*
X189695389Y-139817356D01*
X190164038Y-139241523D02*
X189923306Y-139537226D01*
X190369071Y-138816224D02*
X190164038Y-139241523D01*
X190508801Y-138338474D02*
X190369071Y-138816224D01*
X190561093Y-137934875D02*
X190508801Y-138338474D01*
X190538749Y-137588028D02*
X190561093Y-137934875D01*
X190485781Y-137166024D02*
X190538749Y-137588028D01*
X190445819Y-136673730D02*
X190485781Y-137166024D01*
X190461368Y-136193955D02*
X190445819Y-136673730D01*
X190555539Y-135757975D02*
X190461368Y-136193955D01*
X190760944Y-135218069D02*
X190555539Y-135757975D01*
X191056765Y-134607305D02*
X190760944Y-135218069D01*
X191448521Y-133975761D02*
X191056765Y-134607305D01*
X191941024Y-133390651D02*
X191448521Y-133975761D01*
X192505257Y-132932725D02*
X191941024Y-133390651D01*
X192994613Y-132712407D02*
X192505257Y-132932725D01*
X193481221Y-132677491D02*
X192994613Y-132712407D01*
X193980613Y-132811311D02*
X193481221Y-132677491D01*
X194514077Y-133086915D02*
X193980613Y-132811311D01*
X195182989Y-133559071D02*
X194514077Y-133086915D01*
X195869800Y-134159610D02*
X195182989Y-133559071D01*
X196543612Y-134854742D02*
X195869800Y-134159610D01*
X197177849Y-135610730D02*
X196543612Y-134854742D01*
X197898140Y-136607820D02*
X197177849Y-135610730D01*
X198486771Y-137579927D02*
X197898140Y-136607820D01*
X198941366Y-138491108D02*
X198486771Y-137579927D01*
X199325269Y-139368311D02*
X198941366Y-138491108D01*
X200599676Y-139522334D02*
X199325269Y-139368311D01*
X200890764Y-138909895D02*
X200599676Y-139522334D01*
X201263295Y-138255262D02*
X200890764Y-138909895D01*
X201782108Y-137531626D02*
X201263295Y-138255262D01*
X202441502Y-136777528D02*
X201782108Y-137531626D01*
X203216991Y-136048789D02*
X202441502Y-136777528D01*
X204074913Y-135390096D02*
X203216991Y-136048789D01*
X204962526Y-134822979D02*
X204074913Y-135390096D01*
X205824919Y-134366137D02*
X204962526Y-134822979D01*
X206627467Y-134043522D02*
X205824919Y-134366137D01*
X207372576Y-133888675D02*
X206627467Y-134043522D01*
X207759474Y-133888506D02*
X207372576Y-133888675D01*
X208099262Y-133961270D02*
X207759474Y-133888506D01*
X208357765Y-134117849D02*
X208099262Y-133961270D01*
X208509450Y-134364078D02*
X208357765Y-134117849D01*
X208578220Y-134676910D02*
X208509450Y-134364078D01*
X208605521Y-135023050D02*
X208578220Y-134676910D01*
X208649221Y-136144170D02*
X208605521Y-135023050D01*
X208677056Y-137222719D02*
X208649221Y-136144170D01*
X208673161Y-138216127D02*
X208677056Y-137222719D01*
X208633761Y-138953650D02*
X208673161Y-138216127D01*
X208555405Y-139577326D02*
X208633761Y-138953650D01*
X208488506Y-140012241D02*
X208555405Y-139577326D01*
X208468404Y-140364084D02*
X208488506Y-140012241D01*
X208538397Y-140637604D02*
X208468404Y-140364084D01*
X208714870Y-140880624D02*
X208538397Y-140637604D01*
X208959812Y-141154199D02*
X208714870Y-140880624D01*
X209301392Y-141603108D02*
X208959812Y-141154199D01*
X209576001Y-142072275D02*
X209301392Y-141603108D01*
X209678577Y-142421259D02*
X209576001Y-142072275D01*
X209609804Y-142740408D02*
X209678577Y-142421259D01*
X209365112Y-143121555D02*
X209609804Y-142740408D01*
X208968038Y-143542675D02*
X209365112Y-143121555D01*
X208415843Y-143958137D02*
X208968038Y-143542675D01*
X207771234Y-144262991D02*
X208415843Y-143958137D01*
X207063147Y-144451139D02*
X207771234Y-144262991D01*
X206312817Y-144561031D02*
X207063147Y-144451139D01*
X205541366Y-144631795D02*
X206312817Y-144561031D01*
X206149148Y-145518031D02*
X205541366Y-144631795D01*
X206691617Y-146447768D02*
X206149148Y-145518031D01*
X207109719Y-147457723D02*
X206691617Y-146447768D01*
X207392216Y-148532787D02*
X207109719Y-147457723D01*
X207550502Y-149654730D02*
X207392216Y-148532787D01*
X207564375Y-150779428D02*
X207550502Y-149654730D01*
X207398174Y-151896239D02*
X207564375Y-150779428D01*
X207059775Y-153000917D02*
X207398174Y-151896239D01*
X206631697Y-154099056D02*
X207059775Y-153000917D01*
X204522198Y-150842739D02*
X206631697Y-154099056D01*
X201871168Y-139662330D02*
X201406278Y-139799265D01*
X202398264Y-139441350D02*
X201871168Y-139662330D01*
X202941979Y-139175334D02*
X202398264Y-139441350D01*
X203953523Y-138623581D02*
X202941979Y-139175334D01*
X205031264Y-138002092D02*
X203953523Y-138623581D01*
X205932238Y-137460287D02*
X205031264Y-138002092D01*
X206773769Y-136886883D02*
X205932238Y-137460287D01*
X207370535Y-136384002D02*
X206773769Y-136886883D01*
X207830126Y-135862329D02*
X207370535Y-136384002D01*
X208129760Y-135319821D02*
X207830126Y-135862329D01*
X208227752Y-134845823D02*
X208129760Y-135319821D01*
X208133957Y-134429986D02*
X208227752Y-134845823D01*
X208021508Y-134274629D02*
X208133957Y-134429986D01*
X207873696Y-134175300D02*
X208021508Y-134274629D01*
X207695533Y-134134100D02*
X207873696Y-134175300D01*
X207490589Y-134137679D02*
X207695533Y-134134100D01*
X206846127Y-134272415D02*
X207490589Y-134137679D01*
X206095818Y-134535278D02*
X206846127Y-134272415D01*
X205288848Y-134912821D02*
X206095818Y-134535278D01*
X204456203Y-135427357D02*
X205288848Y-134912821D01*
X203753295Y-135984931D02*
X204456203Y-135427357D01*
X203108492Y-136584265D02*
X203753295Y-135984931D01*
X202591632Y-137117013D02*
X203108492Y-136584265D01*
X202222170Y-137536640D02*
X202591632Y-137117013D01*
X201848264Y-138007311D02*
X202222170Y-137536640D01*
X201392193Y-138623730D02*
X201848264Y-138007311D01*
X201048820Y-139168969D02*
X201392193Y-138623730D01*
X200932876Y-139424744D02*
X201048820Y-139168969D01*
X200898728Y-139666631D02*
X200932876Y-139424744D01*
X200938756Y-139751267D02*
X200898728Y-139666631D01*
X201021345Y-139802976D02*
X200938756Y-139751267D01*
X201188488Y-139824700D02*
X201021345Y-139802976D01*
X201406278Y-139799265D02*
X201188488Y-139824700D01*
X198075067Y-139257509D02*
X198590074Y-139522334D01*
X197424634Y-138904996D02*
X198075067Y-139257509D01*
X196702631Y-138484214D02*
X197424634Y-138904996D01*
X195968442Y-138013306D02*
X196702631Y-138484214D01*
X195255479Y-137502986D02*
X195968442Y-138013306D01*
X194338793Y-136737631D02*
X195255479Y-137502986D01*
X193572304Y-135932842D02*
X194338793Y-136737631D01*
X193170777Y-135410302D02*
X193572304Y-135932842D01*
X192831795Y-134886484D02*
X193170777Y-135410302D01*
X192553459Y-134368572D02*
X192831795Y-134886484D01*
X192372070Y-133890843D02*
X192553459Y-134368572D01*
X192339073Y-133673214D02*
X192372070Y-133890843D01*
X192363885Y-133492201D02*
X192339073Y-133673214D01*
X192450905Y-133352163D02*
X192363885Y-133492201D01*
X192587609Y-133245351D02*
X192450905Y-133352163D01*
X192950040Y-133094119D02*
X192587609Y-133245351D01*
X193377856Y-133025337D02*
X192950040Y-133094119D01*
X193797452Y-133084506D02*
X193377856Y-133025337D01*
X194242375Y-133273752D02*
X193797452Y-133084506D01*
X194681402Y-133543066D02*
X194242375Y-133273752D01*
X195180074Y-133911124D02*
X194681402Y-133543066D01*
X195599811Y-134269102D02*
X195180074Y-133911124D01*
X196001187Y-134678137D02*
X195599811Y-134269102D01*
X196387538Y-135130362D02*
X196001187Y-134678137D01*
X196814252Y-135673994D02*
X196387538Y-135130362D01*
X197290881Y-136313350D02*
X196814252Y-135673994D01*
X197816644Y-137043291D02*
X197290881Y-136313350D01*
X198333059Y-137805857D02*
X197816644Y-137043291D01*
X198761623Y-138524765D02*
X198333059Y-137805857D01*
X198917094Y-138840991D02*
X198761623Y-138524765D01*
X199022276Y-139118570D02*
X198917094Y-138840991D01*
X199071357Y-139372000D02*
X199022276Y-139118570D01*
X199038068Y-139585271D02*
X199071357Y-139372000D01*
X198983681Y-139639531D02*
X199038068Y-139585271D01*
X198907155Y-139650009D02*
X198983681Y-139639531D01*
X198769822Y-139608465D02*
X198907155Y-139650009D01*
X198590074Y-139522334D02*
X198769822Y-139608465D01*
X200951837Y-141934807D02*
X200589310Y-142448098D01*
X201231973Y-141415356D02*
X200951837Y-141934807D01*
X201346541Y-140965405D02*
X201231973Y-141415356D01*
X201351455Y-140507255D02*
X201346541Y-140965405D01*
X201300702Y-140044942D02*
X201351455Y-140507255D01*
X208368737Y-138701596D02*
X208382408Y-138376379D01*
X208336959Y-139157440D02*
X208368737Y-138701596D01*
X208296996Y-139779228D02*
X208336959Y-139157440D01*
X208309946Y-140428236D02*
X208296996Y-139779228D01*
X208393739Y-140836892D02*
X208309946Y-140428236D01*
X208552976Y-141141513D02*
X208393739Y-140836892D01*
X208757116Y-141381404D02*
X208552976Y-141141513D01*
X209026095Y-141665810D02*
X208757116Y-141381404D01*
X209243029Y-141960685D02*
X209026095Y-141665810D01*
X209351542Y-142258085D02*
X209243029Y-141960685D01*
X209369361Y-142457297D02*
X209351542Y-142258085D01*
X209334606Y-142610658D02*
X209369361Y-142457297D01*
X209175386Y-142831261D02*
X209334606Y-142610658D01*
X208872560Y-143140892D02*
X209175386Y-142831261D01*
X208287361Y-143603073D02*
X208872560Y-143140892D01*
X207548772Y-144007739D02*
X208287361Y-143603073D01*
X206713060Y-144272876D02*
X207548772Y-144007739D01*
X205830981Y-144406080D02*
X206713060Y-144272876D01*
X204952587Y-144426379D02*
X205830981Y-144406080D01*
X204127749Y-144352754D02*
X204952587Y-144426379D01*
X203248111Y-144159152D02*
X204127749Y-144352754D01*
X202476496Y-143857381D02*
X203248111Y-144159152D01*
X201794108Y-143453722D02*
X202476496Y-143857381D01*
X201175654Y-142970885D02*
X201794108Y-143453722D01*
X200589310Y-142448098D02*
X201175654Y-142970885D01*
X208382408Y-138376379D02*
X208332699Y-135842800D01*
X202667560Y-139477698D02*
X201300702Y-140044942D01*
X203967435Y-138901007D02*
X202667560Y-139477698D01*
X205133708Y-138305470D02*
X203967435Y-138901007D01*
X206091041Y-137714605D02*
X205133708Y-138305470D01*
X206919440Y-137104061D02*
X206091041Y-137714605D01*
X207651151Y-136477635D02*
X206919440Y-137104061D01*
X208332699Y-135842800D02*
X207651151Y-136477635D01*
X192160779Y-134106001D02*
X192049850Y-133785541D01*
X192342333Y-134517602D02*
X192160779Y-134106001D01*
X192633062Y-135058889D02*
X192342333Y-134517602D01*
X193003278Y-135656508D02*
X192633062Y-135058889D01*
X193414565Y-136222808D02*
X193003278Y-135656508D01*
X193837634Y-136697065D02*
X193414565Y-136222808D01*
X194269495Y-137096172D02*
X193837634Y-136697065D01*
X195063436Y-137712221D02*
X194269495Y-137096172D01*
X195853736Y-138275293D02*
X195063436Y-137712221D01*
X196642401Y-138809581D02*
X195853736Y-138275293D01*
X197591635Y-139314098D02*
X196642401Y-138809581D01*
X198681945Y-139799265D02*
X197591635Y-139314098D01*
X197815913Y-141852975D02*
X198095901Y-141633051D01*
X197296702Y-142060716D02*
X197815913Y-141852975D01*
X196616524Y-142225613D02*
X197296702Y-142060716D01*
X196018753Y-142309077D02*
X196616524Y-142225613D01*
X195516308Y-142321970D02*
X196018753Y-142309077D01*
X194919842Y-142317161D02*
X195516308Y-142321970D01*
X194215001Y-142300170D02*
X194919842Y-142317161D01*
X193091165Y-142205107D02*
X194215001Y-142300170D01*
X191999480Y-141977035D02*
X193091165Y-142205107D01*
X191406859Y-141780977D02*
X191999480Y-141977035D01*
X190862576Y-141558310D02*
X191406859Y-141780977D01*
X190467104Y-141368445D02*
X190862576Y-141558310D01*
X190150612Y-141178643D02*
X190467104Y-141368445D01*
X189918685Y-140961424D02*
X190150612Y-141178643D01*
X189767522Y-140647523D02*
X189918685Y-140961424D01*
X189792997Y-140323627D02*
X189767522Y-140647523D01*
X189960245Y-140017437D02*
X189792997Y-140323627D01*
X190180980Y-139716211D02*
X189960245Y-140017437D01*
X190473638Y-139248828D02*
X190180980Y-139716211D01*
X190679907Y-138712307D02*
X190473638Y-139248828D01*
X190754443Y-138143863D02*
X190679907Y-138712307D01*
X190760295Y-137557389D02*
X190754443Y-138143863D01*
X190749739Y-136921325D02*
X190760295Y-137557389D01*
X190748309Y-136360132D02*
X190749739Y-136921325D01*
X190830354Y-135849773D02*
X190748309Y-136360132D01*
X191098716Y-135248749D02*
X190830354Y-135849773D01*
X191532753Y-134543356D02*
X191098716Y-135248749D01*
X192049850Y-133785541D02*
X191532753Y-134543356D01*
X198095901Y-141633051D02*
X198681945Y-139799265D01*
X194970301Y-142645251D02*
X194322238Y-142617894D01*
X195569821Y-142643763D02*
X194970301Y-142645251D01*
X196089985Y-142591074D02*
X195569821Y-142643763D01*
X196724082Y-142465319D02*
X196089985Y-142591074D01*
X197332473Y-142295880D02*
X196724082Y-142465319D01*
X197816776Y-142095963D02*
X197332473Y-142295880D01*
X190312234Y-152124398D02*
X190265309Y-152470197D01*
X190369851Y-151737941D02*
X190312234Y-152124398D01*
X190448851Y-151270167D02*
X190369851Y-151737941D01*
X190559828Y-150680853D02*
X190448851Y-151270167D01*
X190750609Y-149750990D02*
X190559828Y-150680853D01*
X190978082Y-148715668D02*
X190750609Y-149750990D01*
X191220149Y-147686446D02*
X190978082Y-148715668D01*
X191454716Y-146774883D02*
X191220149Y-147686446D01*
X191622121Y-146205308D02*
X191454716Y-146774883D01*
X191768712Y-145808616D02*
X191622121Y-146205308D01*
X191923943Y-145508361D02*
X191768712Y-145808616D01*
X192123759Y-145206826D02*
X191923943Y-145508361D01*
X192393224Y-144830065D02*
X192123759Y-145206826D01*
X192806943Y-144276957D02*
X192393224Y-144830065D01*
X193244763Y-143725179D02*
X192806943Y-144276957D01*
X193648602Y-143262703D02*
X193244763Y-143725179D01*
X193999311Y-142911459D02*
X193648602Y-143262703D01*
X194322238Y-142617894D02*
X193999311Y-142911459D01*
X193258261Y-150222569D02*
X193409182Y-150123912D01*
X193007972Y-150399861D02*
X193258261Y-150222569D01*
X192611542Y-150692804D02*
X193007972Y-150399861D01*
X192120697Y-151061408D02*
X192611542Y-150692804D01*
X191547812Y-151494936D02*
X192120697Y-151061408D01*
X190920234Y-151971746D02*
X191547812Y-151494936D01*
X190265309Y-152470197D02*
X190920234Y-151971746D01*
X193409182Y-150123912D02*
X195019654Y-153613017D01*
X197279131Y-143341827D02*
X197822609Y-142617894D01*
X196809607Y-144069524D02*
X197279131Y-143341827D01*
X196487466Y-144804552D02*
X196809607Y-144069524D01*
X196338635Y-145532747D02*
X196487466Y-144804552D01*
X196304535Y-146208401D02*
X196338635Y-145532747D01*
X196323808Y-146817577D02*
X196304535Y-146208401D01*
X196356914Y-147475137D02*
X196323808Y-146817577D01*
X196375541Y-148366666D02*
X196356914Y-147475137D01*
X196363692Y-149281371D02*
X196375541Y-148366666D01*
X196311990Y-150046416D02*
X196363692Y-149281371D01*
X196185186Y-150730759D02*
X196311990Y-150046416D01*
X195950726Y-151481621D02*
X196185186Y-150730759D01*
X195648904Y-152252437D02*
X195950726Y-151481621D01*
X195334043Y-152957746D02*
X195648904Y-152252437D01*
X195019654Y-153613017D02*
X195334043Y-152957746D01*
X197822609Y-142617894D02*
X197816776Y-142095963D01*
D11*
X242791694Y-116984019D02*
X242791694Y-115984019D01*
X242791694Y-115984019D02*
X242553599Y-115984019D01*
X242553599Y-115984019D02*
X242410742Y-116031638D01*
X242410742Y-116031638D02*
X242315504Y-116126876D01*
X242315504Y-116126876D02*
X242267885Y-116222114D01*
X242267885Y-116222114D02*
X242220266Y-116412590D01*
X242220266Y-116412590D02*
X242220266Y-116555447D01*
X242220266Y-116555447D02*
X242267885Y-116745923D01*
X242267885Y-116745923D02*
X242315504Y-116841161D01*
X242315504Y-116841161D02*
X242410742Y-116936400D01*
X242410742Y-116936400D02*
X242553599Y-116984019D01*
X242553599Y-116984019D02*
X242791694Y-116984019D01*
X241601218Y-115984019D02*
X241505980Y-115984019D01*
X241505980Y-115984019D02*
X241410742Y-116031638D01*
X241410742Y-116031638D02*
X241363123Y-116079257D01*
X241363123Y-116079257D02*
X241315504Y-116174495D01*
X241315504Y-116174495D02*
X241267885Y-116364971D01*
X241267885Y-116364971D02*
X241267885Y-116603066D01*
X241267885Y-116603066D02*
X241315504Y-116793542D01*
X241315504Y-116793542D02*
X241363123Y-116888780D01*
X241363123Y-116888780D02*
X241410742Y-116936400D01*
X241410742Y-116936400D02*
X241505980Y-116984019D01*
X241505980Y-116984019D02*
X241601218Y-116984019D01*
X241601218Y-116984019D02*
X241696456Y-116936400D01*
X241696456Y-116936400D02*
X241744075Y-116888780D01*
X241744075Y-116888780D02*
X241791694Y-116793542D01*
X241791694Y-116793542D02*
X241839313Y-116603066D01*
X241839313Y-116603066D02*
X241839313Y-116364971D01*
X241839313Y-116364971D02*
X241791694Y-116174495D01*
X241791694Y-116174495D02*
X241744075Y-116079257D01*
X241744075Y-116079257D02*
X241696456Y-116031638D01*
X241696456Y-116031638D02*
X241601218Y-115984019D01*
X158892857Y-126109580D02*
X158940476Y-126157200D01*
X158940476Y-126157200D02*
X159083333Y-126204819D01*
X159083333Y-126204819D02*
X159178571Y-126204819D01*
X159178571Y-126204819D02*
X159321428Y-126157200D01*
X159321428Y-126157200D02*
X159416666Y-126061961D01*
X159416666Y-126061961D02*
X159464285Y-125966723D01*
X159464285Y-125966723D02*
X159511904Y-125776247D01*
X159511904Y-125776247D02*
X159511904Y-125633390D01*
X159511904Y-125633390D02*
X159464285Y-125442914D01*
X159464285Y-125442914D02*
X159416666Y-125347676D01*
X159416666Y-125347676D02*
X159321428Y-125252438D01*
X159321428Y-125252438D02*
X159178571Y-125204819D01*
X159178571Y-125204819D02*
X159083333Y-125204819D01*
X159083333Y-125204819D02*
X158940476Y-125252438D01*
X158940476Y-125252438D02*
X158892857Y-125300057D01*
X158511904Y-125300057D02*
X158464285Y-125252438D01*
X158464285Y-125252438D02*
X158369047Y-125204819D01*
X158369047Y-125204819D02*
X158130952Y-125204819D01*
X158130952Y-125204819D02*
X158035714Y-125252438D01*
X158035714Y-125252438D02*
X157988095Y-125300057D01*
X157988095Y-125300057D02*
X157940476Y-125395295D01*
X157940476Y-125395295D02*
X157940476Y-125490533D01*
X157940476Y-125490533D02*
X157988095Y-125633390D01*
X157988095Y-125633390D02*
X158559523Y-126204819D01*
X158559523Y-126204819D02*
X157940476Y-126204819D01*
X156988095Y-126204819D02*
X157559523Y-126204819D01*
X157273809Y-126204819D02*
X157273809Y-125204819D01*
X157273809Y-125204819D02*
X157369047Y-125347676D01*
X157369047Y-125347676D02*
X157464285Y-125442914D01*
X157464285Y-125442914D02*
X157559523Y-125490533D01*
X241485657Y-165955619D02*
X241818990Y-165479428D01*
X242057085Y-165955619D02*
X242057085Y-164955619D01*
X242057085Y-164955619D02*
X241676133Y-164955619D01*
X241676133Y-164955619D02*
X241580895Y-165003238D01*
X241580895Y-165003238D02*
X241533276Y-165050857D01*
X241533276Y-165050857D02*
X241485657Y-165146095D01*
X241485657Y-165146095D02*
X241485657Y-165288952D01*
X241485657Y-165288952D02*
X241533276Y-165384190D01*
X241533276Y-165384190D02*
X241580895Y-165431809D01*
X241580895Y-165431809D02*
X241676133Y-165479428D01*
X241676133Y-165479428D02*
X242057085Y-165479428D01*
X240533276Y-165955619D02*
X241104704Y-165955619D01*
X240818990Y-165955619D02*
X240818990Y-164955619D01*
X240818990Y-164955619D02*
X240914228Y-165098476D01*
X240914228Y-165098476D02*
X241009466Y-165193714D01*
X241009466Y-165193714D02*
X241104704Y-165241333D01*
X240057085Y-165955619D02*
X239866609Y-165955619D01*
X239866609Y-165955619D02*
X239771371Y-165908000D01*
X239771371Y-165908000D02*
X239723752Y-165860380D01*
X239723752Y-165860380D02*
X239628514Y-165717523D01*
X239628514Y-165717523D02*
X239580895Y-165527047D01*
X239580895Y-165527047D02*
X239580895Y-165146095D01*
X239580895Y-165146095D02*
X239628514Y-165050857D01*
X239628514Y-165050857D02*
X239676133Y-165003238D01*
X239676133Y-165003238D02*
X239771371Y-164955619D01*
X239771371Y-164955619D02*
X239961847Y-164955619D01*
X239961847Y-164955619D02*
X240057085Y-165003238D01*
X240057085Y-165003238D02*
X240104704Y-165050857D01*
X240104704Y-165050857D02*
X240152323Y-165146095D01*
X240152323Y-165146095D02*
X240152323Y-165384190D01*
X240152323Y-165384190D02*
X240104704Y-165479428D01*
X240104704Y-165479428D02*
X240057085Y-165527047D01*
X240057085Y-165527047D02*
X239961847Y-165574666D01*
X239961847Y-165574666D02*
X239771371Y-165574666D01*
X239771371Y-165574666D02*
X239676133Y-165527047D01*
X239676133Y-165527047D02*
X239628514Y-165479428D01*
X239628514Y-165479428D02*
X239580895Y-165384190D01*
X241393057Y-169867219D02*
X241726390Y-169391028D01*
X241964485Y-169867219D02*
X241964485Y-168867219D01*
X241964485Y-168867219D02*
X241583533Y-168867219D01*
X241583533Y-168867219D02*
X241488295Y-168914838D01*
X241488295Y-168914838D02*
X241440676Y-168962457D01*
X241440676Y-168962457D02*
X241393057Y-169057695D01*
X241393057Y-169057695D02*
X241393057Y-169200552D01*
X241393057Y-169200552D02*
X241440676Y-169295790D01*
X241440676Y-169295790D02*
X241488295Y-169343409D01*
X241488295Y-169343409D02*
X241583533Y-169391028D01*
X241583533Y-169391028D02*
X241964485Y-169391028D01*
X241012104Y-168962457D02*
X240964485Y-168914838D01*
X240964485Y-168914838D02*
X240869247Y-168867219D01*
X240869247Y-168867219D02*
X240631152Y-168867219D01*
X240631152Y-168867219D02*
X240535914Y-168914838D01*
X240535914Y-168914838D02*
X240488295Y-168962457D01*
X240488295Y-168962457D02*
X240440676Y-169057695D01*
X240440676Y-169057695D02*
X240440676Y-169152933D01*
X240440676Y-169152933D02*
X240488295Y-169295790D01*
X240488295Y-169295790D02*
X241059723Y-169867219D01*
X241059723Y-169867219D02*
X240440676Y-169867219D01*
X239821628Y-168867219D02*
X239726390Y-168867219D01*
X239726390Y-168867219D02*
X239631152Y-168914838D01*
X239631152Y-168914838D02*
X239583533Y-168962457D01*
X239583533Y-168962457D02*
X239535914Y-169057695D01*
X239535914Y-169057695D02*
X239488295Y-169248171D01*
X239488295Y-169248171D02*
X239488295Y-169486266D01*
X239488295Y-169486266D02*
X239535914Y-169676742D01*
X239535914Y-169676742D02*
X239583533Y-169771980D01*
X239583533Y-169771980D02*
X239631152Y-169819600D01*
X239631152Y-169819600D02*
X239726390Y-169867219D01*
X239726390Y-169867219D02*
X239821628Y-169867219D01*
X239821628Y-169867219D02*
X239916866Y-169819600D01*
X239916866Y-169819600D02*
X239964485Y-169771980D01*
X239964485Y-169771980D02*
X240012104Y-169676742D01*
X240012104Y-169676742D02*
X240059723Y-169486266D01*
X240059723Y-169486266D02*
X240059723Y-169248171D01*
X240059723Y-169248171D02*
X240012104Y-169057695D01*
X240012104Y-169057695D02*
X239964485Y-168962457D01*
X239964485Y-168962457D02*
X239916866Y-168914838D01*
X239916866Y-168914838D02*
X239821628Y-168867219D01*
X221166666Y-187804819D02*
X221499999Y-187328628D01*
X221738094Y-187804819D02*
X221738094Y-186804819D01*
X221738094Y-186804819D02*
X221357142Y-186804819D01*
X221357142Y-186804819D02*
X221261904Y-186852438D01*
X221261904Y-186852438D02*
X221214285Y-186900057D01*
X221214285Y-186900057D02*
X221166666Y-186995295D01*
X221166666Y-186995295D02*
X221166666Y-187138152D01*
X221166666Y-187138152D02*
X221214285Y-187233390D01*
X221214285Y-187233390D02*
X221261904Y-187281009D01*
X221261904Y-187281009D02*
X221357142Y-187328628D01*
X221357142Y-187328628D02*
X221738094Y-187328628D01*
X220690475Y-187804819D02*
X220499999Y-187804819D01*
X220499999Y-187804819D02*
X220404761Y-187757200D01*
X220404761Y-187757200D02*
X220357142Y-187709580D01*
X220357142Y-187709580D02*
X220261904Y-187566723D01*
X220261904Y-187566723D02*
X220214285Y-187376247D01*
X220214285Y-187376247D02*
X220214285Y-186995295D01*
X220214285Y-186995295D02*
X220261904Y-186900057D01*
X220261904Y-186900057D02*
X220309523Y-186852438D01*
X220309523Y-186852438D02*
X220404761Y-186804819D01*
X220404761Y-186804819D02*
X220595237Y-186804819D01*
X220595237Y-186804819D02*
X220690475Y-186852438D01*
X220690475Y-186852438D02*
X220738094Y-186900057D01*
X220738094Y-186900057D02*
X220785713Y-186995295D01*
X220785713Y-186995295D02*
X220785713Y-187233390D01*
X220785713Y-187233390D02*
X220738094Y-187328628D01*
X220738094Y-187328628D02*
X220690475Y-187376247D01*
X220690475Y-187376247D02*
X220595237Y-187423866D01*
X220595237Y-187423866D02*
X220404761Y-187423866D01*
X220404761Y-187423866D02*
X220309523Y-187376247D01*
X220309523Y-187376247D02*
X220261904Y-187328628D01*
X220261904Y-187328628D02*
X220214285Y-187233390D01*
X226986904Y-168554819D02*
X226986904Y-169364342D01*
X226986904Y-169364342D02*
X226939285Y-169459580D01*
X226939285Y-169459580D02*
X226891666Y-169507200D01*
X226891666Y-169507200D02*
X226796428Y-169554819D01*
X226796428Y-169554819D02*
X226605952Y-169554819D01*
X226605952Y-169554819D02*
X226510714Y-169507200D01*
X226510714Y-169507200D02*
X226463095Y-169459580D01*
X226463095Y-169459580D02*
X226415476Y-169364342D01*
X226415476Y-169364342D02*
X226415476Y-168554819D01*
X226034523Y-168554819D02*
X225367857Y-168554819D01*
X225367857Y-168554819D02*
X225796428Y-169554819D01*
X235642857Y-187804819D02*
X235976190Y-187328628D01*
X236214285Y-187804819D02*
X236214285Y-186804819D01*
X236214285Y-186804819D02*
X235833333Y-186804819D01*
X235833333Y-186804819D02*
X235738095Y-186852438D01*
X235738095Y-186852438D02*
X235690476Y-186900057D01*
X235690476Y-186900057D02*
X235642857Y-186995295D01*
X235642857Y-186995295D02*
X235642857Y-187138152D01*
X235642857Y-187138152D02*
X235690476Y-187233390D01*
X235690476Y-187233390D02*
X235738095Y-187281009D01*
X235738095Y-187281009D02*
X235833333Y-187328628D01*
X235833333Y-187328628D02*
X236214285Y-187328628D01*
X235261904Y-186900057D02*
X235214285Y-186852438D01*
X235214285Y-186852438D02*
X235119047Y-186804819D01*
X235119047Y-186804819D02*
X234880952Y-186804819D01*
X234880952Y-186804819D02*
X234785714Y-186852438D01*
X234785714Y-186852438D02*
X234738095Y-186900057D01*
X234738095Y-186900057D02*
X234690476Y-186995295D01*
X234690476Y-186995295D02*
X234690476Y-187090533D01*
X234690476Y-187090533D02*
X234738095Y-187233390D01*
X234738095Y-187233390D02*
X235309523Y-187804819D01*
X235309523Y-187804819D02*
X234690476Y-187804819D01*
X233833333Y-187138152D02*
X233833333Y-187804819D01*
X234071428Y-186757200D02*
X234309523Y-187471485D01*
X234309523Y-187471485D02*
X233690476Y-187471485D01*
X233167857Y-170459580D02*
X233215476Y-170507200D01*
X233215476Y-170507200D02*
X233358333Y-170554819D01*
X233358333Y-170554819D02*
X233453571Y-170554819D01*
X233453571Y-170554819D02*
X233596428Y-170507200D01*
X233596428Y-170507200D02*
X233691666Y-170411961D01*
X233691666Y-170411961D02*
X233739285Y-170316723D01*
X233739285Y-170316723D02*
X233786904Y-170126247D01*
X233786904Y-170126247D02*
X233786904Y-169983390D01*
X233786904Y-169983390D02*
X233739285Y-169792914D01*
X233739285Y-169792914D02*
X233691666Y-169697676D01*
X233691666Y-169697676D02*
X233596428Y-169602438D01*
X233596428Y-169602438D02*
X233453571Y-169554819D01*
X233453571Y-169554819D02*
X233358333Y-169554819D01*
X233358333Y-169554819D02*
X233215476Y-169602438D01*
X233215476Y-169602438D02*
X233167857Y-169650057D01*
X232786904Y-169650057D02*
X232739285Y-169602438D01*
X232739285Y-169602438D02*
X232644047Y-169554819D01*
X232644047Y-169554819D02*
X232405952Y-169554819D01*
X232405952Y-169554819D02*
X232310714Y-169602438D01*
X232310714Y-169602438D02*
X232263095Y-169650057D01*
X232263095Y-169650057D02*
X232215476Y-169745295D01*
X232215476Y-169745295D02*
X232215476Y-169840533D01*
X232215476Y-169840533D02*
X232263095Y-169983390D01*
X232263095Y-169983390D02*
X232834523Y-170554819D01*
X232834523Y-170554819D02*
X232215476Y-170554819D01*
X231834523Y-169650057D02*
X231786904Y-169602438D01*
X231786904Y-169602438D02*
X231691666Y-169554819D01*
X231691666Y-169554819D02*
X231453571Y-169554819D01*
X231453571Y-169554819D02*
X231358333Y-169602438D01*
X231358333Y-169602438D02*
X231310714Y-169650057D01*
X231310714Y-169650057D02*
X231263095Y-169745295D01*
X231263095Y-169745295D02*
X231263095Y-169840533D01*
X231263095Y-169840533D02*
X231310714Y-169983390D01*
X231310714Y-169983390D02*
X231882142Y-170554819D01*
X231882142Y-170554819D02*
X231263095Y-170554819D01*
X243441457Y-176728619D02*
X243774790Y-176252428D01*
X244012885Y-176728619D02*
X244012885Y-175728619D01*
X244012885Y-175728619D02*
X243631933Y-175728619D01*
X243631933Y-175728619D02*
X243536695Y-175776238D01*
X243536695Y-175776238D02*
X243489076Y-175823857D01*
X243489076Y-175823857D02*
X243441457Y-175919095D01*
X243441457Y-175919095D02*
X243441457Y-176061952D01*
X243441457Y-176061952D02*
X243489076Y-176157190D01*
X243489076Y-176157190D02*
X243536695Y-176204809D01*
X243536695Y-176204809D02*
X243631933Y-176252428D01*
X243631933Y-176252428D02*
X244012885Y-176252428D01*
X242489076Y-176728619D02*
X243060504Y-176728619D01*
X242774790Y-176728619D02*
X242774790Y-175728619D01*
X242774790Y-175728619D02*
X242870028Y-175871476D01*
X242870028Y-175871476D02*
X242965266Y-175966714D01*
X242965266Y-175966714D02*
X243060504Y-176014333D01*
X241536695Y-176728619D02*
X242108123Y-176728619D01*
X241822409Y-176728619D02*
X241822409Y-175728619D01*
X241822409Y-175728619D02*
X241917647Y-175871476D01*
X241917647Y-175871476D02*
X242012885Y-175966714D01*
X242012885Y-175966714D02*
X242108123Y-176014333D01*
X241342257Y-162145619D02*
X241675590Y-161669428D01*
X241913685Y-162145619D02*
X241913685Y-161145619D01*
X241913685Y-161145619D02*
X241532733Y-161145619D01*
X241532733Y-161145619D02*
X241437495Y-161193238D01*
X241437495Y-161193238D02*
X241389876Y-161240857D01*
X241389876Y-161240857D02*
X241342257Y-161336095D01*
X241342257Y-161336095D02*
X241342257Y-161478952D01*
X241342257Y-161478952D02*
X241389876Y-161574190D01*
X241389876Y-161574190D02*
X241437495Y-161621809D01*
X241437495Y-161621809D02*
X241532733Y-161669428D01*
X241532733Y-161669428D02*
X241913685Y-161669428D01*
X240961304Y-161240857D02*
X240913685Y-161193238D01*
X240913685Y-161193238D02*
X240818447Y-161145619D01*
X240818447Y-161145619D02*
X240580352Y-161145619D01*
X240580352Y-161145619D02*
X240485114Y-161193238D01*
X240485114Y-161193238D02*
X240437495Y-161240857D01*
X240437495Y-161240857D02*
X240389876Y-161336095D01*
X240389876Y-161336095D02*
X240389876Y-161431333D01*
X240389876Y-161431333D02*
X240437495Y-161574190D01*
X240437495Y-161574190D02*
X241008923Y-162145619D01*
X241008923Y-162145619D02*
X240389876Y-162145619D01*
X239437495Y-162145619D02*
X240008923Y-162145619D01*
X239723209Y-162145619D02*
X239723209Y-161145619D01*
X239723209Y-161145619D02*
X239818447Y-161288476D01*
X239818447Y-161288476D02*
X239913685Y-161383714D01*
X239913685Y-161383714D02*
X240008923Y-161431333D01*
X234667857Y-162009580D02*
X234715476Y-162057200D01*
X234715476Y-162057200D02*
X234858333Y-162104819D01*
X234858333Y-162104819D02*
X234953571Y-162104819D01*
X234953571Y-162104819D02*
X235096428Y-162057200D01*
X235096428Y-162057200D02*
X235191666Y-161961961D01*
X235191666Y-161961961D02*
X235239285Y-161866723D01*
X235239285Y-161866723D02*
X235286904Y-161676247D01*
X235286904Y-161676247D02*
X235286904Y-161533390D01*
X235286904Y-161533390D02*
X235239285Y-161342914D01*
X235239285Y-161342914D02*
X235191666Y-161247676D01*
X235191666Y-161247676D02*
X235096428Y-161152438D01*
X235096428Y-161152438D02*
X234953571Y-161104819D01*
X234953571Y-161104819D02*
X234858333Y-161104819D01*
X234858333Y-161104819D02*
X234715476Y-161152438D01*
X234715476Y-161152438D02*
X234667857Y-161200057D01*
X234286904Y-161200057D02*
X234239285Y-161152438D01*
X234239285Y-161152438D02*
X234144047Y-161104819D01*
X234144047Y-161104819D02*
X233905952Y-161104819D01*
X233905952Y-161104819D02*
X233810714Y-161152438D01*
X233810714Y-161152438D02*
X233763095Y-161200057D01*
X233763095Y-161200057D02*
X233715476Y-161295295D01*
X233715476Y-161295295D02*
X233715476Y-161390533D01*
X233715476Y-161390533D02*
X233763095Y-161533390D01*
X233763095Y-161533390D02*
X234334523Y-162104819D01*
X234334523Y-162104819D02*
X233715476Y-162104819D01*
X233382142Y-161104819D02*
X232763095Y-161104819D01*
X232763095Y-161104819D02*
X233096428Y-161485771D01*
X233096428Y-161485771D02*
X232953571Y-161485771D01*
X232953571Y-161485771D02*
X232858333Y-161533390D01*
X232858333Y-161533390D02*
X232810714Y-161581009D01*
X232810714Y-161581009D02*
X232763095Y-161676247D01*
X232763095Y-161676247D02*
X232763095Y-161914342D01*
X232763095Y-161914342D02*
X232810714Y-162009580D01*
X232810714Y-162009580D02*
X232858333Y-162057200D01*
X232858333Y-162057200D02*
X232953571Y-162104819D01*
X232953571Y-162104819D02*
X233239285Y-162104819D01*
X233239285Y-162104819D02*
X233334523Y-162057200D01*
X233334523Y-162057200D02*
X233382142Y-162009580D01*
X220091666Y-170509580D02*
X220139285Y-170557200D01*
X220139285Y-170557200D02*
X220282142Y-170604819D01*
X220282142Y-170604819D02*
X220377380Y-170604819D01*
X220377380Y-170604819D02*
X220520237Y-170557200D01*
X220520237Y-170557200D02*
X220615475Y-170461961D01*
X220615475Y-170461961D02*
X220663094Y-170366723D01*
X220663094Y-170366723D02*
X220710713Y-170176247D01*
X220710713Y-170176247D02*
X220710713Y-170033390D01*
X220710713Y-170033390D02*
X220663094Y-169842914D01*
X220663094Y-169842914D02*
X220615475Y-169747676D01*
X220615475Y-169747676D02*
X220520237Y-169652438D01*
X220520237Y-169652438D02*
X220377380Y-169604819D01*
X220377380Y-169604819D02*
X220282142Y-169604819D01*
X220282142Y-169604819D02*
X220139285Y-169652438D01*
X220139285Y-169652438D02*
X220091666Y-169700057D01*
X219186904Y-169604819D02*
X219663094Y-169604819D01*
X219663094Y-169604819D02*
X219710713Y-170081009D01*
X219710713Y-170081009D02*
X219663094Y-170033390D01*
X219663094Y-170033390D02*
X219567856Y-169985771D01*
X219567856Y-169985771D02*
X219329761Y-169985771D01*
X219329761Y-169985771D02*
X219234523Y-170033390D01*
X219234523Y-170033390D02*
X219186904Y-170081009D01*
X219186904Y-170081009D02*
X219139285Y-170176247D01*
X219139285Y-170176247D02*
X219139285Y-170414342D01*
X219139285Y-170414342D02*
X219186904Y-170509580D01*
X219186904Y-170509580D02*
X219234523Y-170557200D01*
X219234523Y-170557200D02*
X219329761Y-170604819D01*
X219329761Y-170604819D02*
X219567856Y-170604819D01*
X219567856Y-170604819D02*
X219663094Y-170557200D01*
X219663094Y-170557200D02*
X219710713Y-170509580D01*
X237116857Y-167428819D02*
X237450190Y-166952628D01*
X237688285Y-167428819D02*
X237688285Y-166428819D01*
X237688285Y-166428819D02*
X237307333Y-166428819D01*
X237307333Y-166428819D02*
X237212095Y-166476438D01*
X237212095Y-166476438D02*
X237164476Y-166524057D01*
X237164476Y-166524057D02*
X237116857Y-166619295D01*
X237116857Y-166619295D02*
X237116857Y-166762152D01*
X237116857Y-166762152D02*
X237164476Y-166857390D01*
X237164476Y-166857390D02*
X237212095Y-166905009D01*
X237212095Y-166905009D02*
X237307333Y-166952628D01*
X237307333Y-166952628D02*
X237688285Y-166952628D01*
X236735904Y-166524057D02*
X236688285Y-166476438D01*
X236688285Y-166476438D02*
X236593047Y-166428819D01*
X236593047Y-166428819D02*
X236354952Y-166428819D01*
X236354952Y-166428819D02*
X236259714Y-166476438D01*
X236259714Y-166476438D02*
X236212095Y-166524057D01*
X236212095Y-166524057D02*
X236164476Y-166619295D01*
X236164476Y-166619295D02*
X236164476Y-166714533D01*
X236164476Y-166714533D02*
X236212095Y-166857390D01*
X236212095Y-166857390D02*
X236783523Y-167428819D01*
X236783523Y-167428819D02*
X236164476Y-167428819D01*
X235307333Y-166428819D02*
X235497809Y-166428819D01*
X235497809Y-166428819D02*
X235593047Y-166476438D01*
X235593047Y-166476438D02*
X235640666Y-166524057D01*
X235640666Y-166524057D02*
X235735904Y-166666914D01*
X235735904Y-166666914D02*
X235783523Y-166857390D01*
X235783523Y-166857390D02*
X235783523Y-167238342D01*
X235783523Y-167238342D02*
X235735904Y-167333580D01*
X235735904Y-167333580D02*
X235688285Y-167381200D01*
X235688285Y-167381200D02*
X235593047Y-167428819D01*
X235593047Y-167428819D02*
X235402571Y-167428819D01*
X235402571Y-167428819D02*
X235307333Y-167381200D01*
X235307333Y-167381200D02*
X235259714Y-167333580D01*
X235259714Y-167333580D02*
X235212095Y-167238342D01*
X235212095Y-167238342D02*
X235212095Y-167000247D01*
X235212095Y-167000247D02*
X235259714Y-166905009D01*
X235259714Y-166905009D02*
X235307333Y-166857390D01*
X235307333Y-166857390D02*
X235402571Y-166809771D01*
X235402571Y-166809771D02*
X235593047Y-166809771D01*
X235593047Y-166809771D02*
X235688285Y-166857390D01*
X235688285Y-166857390D02*
X235735904Y-166905009D01*
X235735904Y-166905009D02*
X235783523Y-167000247D01*
X183675857Y-122418980D02*
X183723476Y-122466600D01*
X183723476Y-122466600D02*
X183866333Y-122514219D01*
X183866333Y-122514219D02*
X183961571Y-122514219D01*
X183961571Y-122514219D02*
X184104428Y-122466600D01*
X184104428Y-122466600D02*
X184199666Y-122371361D01*
X184199666Y-122371361D02*
X184247285Y-122276123D01*
X184247285Y-122276123D02*
X184294904Y-122085647D01*
X184294904Y-122085647D02*
X184294904Y-121942790D01*
X184294904Y-121942790D02*
X184247285Y-121752314D01*
X184247285Y-121752314D02*
X184199666Y-121657076D01*
X184199666Y-121657076D02*
X184104428Y-121561838D01*
X184104428Y-121561838D02*
X183961571Y-121514219D01*
X183961571Y-121514219D02*
X183866333Y-121514219D01*
X183866333Y-121514219D02*
X183723476Y-121561838D01*
X183723476Y-121561838D02*
X183675857Y-121609457D01*
X183294904Y-121609457D02*
X183247285Y-121561838D01*
X183247285Y-121561838D02*
X183152047Y-121514219D01*
X183152047Y-121514219D02*
X182913952Y-121514219D01*
X182913952Y-121514219D02*
X182818714Y-121561838D01*
X182818714Y-121561838D02*
X182771095Y-121609457D01*
X182771095Y-121609457D02*
X182723476Y-121704695D01*
X182723476Y-121704695D02*
X182723476Y-121799933D01*
X182723476Y-121799933D02*
X182771095Y-121942790D01*
X182771095Y-121942790D02*
X183342523Y-122514219D01*
X183342523Y-122514219D02*
X182723476Y-122514219D01*
X182104428Y-121514219D02*
X182009190Y-121514219D01*
X182009190Y-121514219D02*
X181913952Y-121561838D01*
X181913952Y-121561838D02*
X181866333Y-121609457D01*
X181866333Y-121609457D02*
X181818714Y-121704695D01*
X181818714Y-121704695D02*
X181771095Y-121895171D01*
X181771095Y-121895171D02*
X181771095Y-122133266D01*
X181771095Y-122133266D02*
X181818714Y-122323742D01*
X181818714Y-122323742D02*
X181866333Y-122418980D01*
X181866333Y-122418980D02*
X181913952Y-122466600D01*
X181913952Y-122466600D02*
X182009190Y-122514219D01*
X182009190Y-122514219D02*
X182104428Y-122514219D01*
X182104428Y-122514219D02*
X182199666Y-122466600D01*
X182199666Y-122466600D02*
X182247285Y-122418980D01*
X182247285Y-122418980D02*
X182294904Y-122323742D01*
X182294904Y-122323742D02*
X182342523Y-122133266D01*
X182342523Y-122133266D02*
X182342523Y-121895171D01*
X182342523Y-121895171D02*
X182294904Y-121704695D01*
X182294904Y-121704695D02*
X182247285Y-121609457D01*
X182247285Y-121609457D02*
X182199666Y-121561838D01*
X182199666Y-121561838D02*
X182104428Y-121514219D01*
X212986857Y-185621580D02*
X213034476Y-185669200D01*
X213034476Y-185669200D02*
X213177333Y-185716819D01*
X213177333Y-185716819D02*
X213272571Y-185716819D01*
X213272571Y-185716819D02*
X213415428Y-185669200D01*
X213415428Y-185669200D02*
X213510666Y-185573961D01*
X213510666Y-185573961D02*
X213558285Y-185478723D01*
X213558285Y-185478723D02*
X213605904Y-185288247D01*
X213605904Y-185288247D02*
X213605904Y-185145390D01*
X213605904Y-185145390D02*
X213558285Y-184954914D01*
X213558285Y-184954914D02*
X213510666Y-184859676D01*
X213510666Y-184859676D02*
X213415428Y-184764438D01*
X213415428Y-184764438D02*
X213272571Y-184716819D01*
X213272571Y-184716819D02*
X213177333Y-184716819D01*
X213177333Y-184716819D02*
X213034476Y-184764438D01*
X213034476Y-184764438D02*
X212986857Y-184812057D01*
X212034476Y-185716819D02*
X212605904Y-185716819D01*
X212320190Y-185716819D02*
X212320190Y-184716819D01*
X212320190Y-184716819D02*
X212415428Y-184859676D01*
X212415428Y-184859676D02*
X212510666Y-184954914D01*
X212510666Y-184954914D02*
X212605904Y-185002533D01*
X211558285Y-185716819D02*
X211367809Y-185716819D01*
X211367809Y-185716819D02*
X211272571Y-185669200D01*
X211272571Y-185669200D02*
X211224952Y-185621580D01*
X211224952Y-185621580D02*
X211129714Y-185478723D01*
X211129714Y-185478723D02*
X211082095Y-185288247D01*
X211082095Y-185288247D02*
X211082095Y-184907295D01*
X211082095Y-184907295D02*
X211129714Y-184812057D01*
X211129714Y-184812057D02*
X211177333Y-184764438D01*
X211177333Y-184764438D02*
X211272571Y-184716819D01*
X211272571Y-184716819D02*
X211463047Y-184716819D01*
X211463047Y-184716819D02*
X211558285Y-184764438D01*
X211558285Y-184764438D02*
X211605904Y-184812057D01*
X211605904Y-184812057D02*
X211653523Y-184907295D01*
X211653523Y-184907295D02*
X211653523Y-185145390D01*
X211653523Y-185145390D02*
X211605904Y-185240628D01*
X211605904Y-185240628D02*
X211558285Y-185288247D01*
X211558285Y-185288247D02*
X211463047Y-185335866D01*
X211463047Y-185335866D02*
X211272571Y-185335866D01*
X211272571Y-185335866D02*
X211177333Y-185288247D01*
X211177333Y-185288247D02*
X211129714Y-185240628D01*
X211129714Y-185240628D02*
X211082095Y-185145390D01*
X217206966Y-122299419D02*
X217540299Y-121823228D01*
X217778394Y-122299419D02*
X217778394Y-121299419D01*
X217778394Y-121299419D02*
X217397442Y-121299419D01*
X217397442Y-121299419D02*
X217302204Y-121347038D01*
X217302204Y-121347038D02*
X217254585Y-121394657D01*
X217254585Y-121394657D02*
X217206966Y-121489895D01*
X217206966Y-121489895D02*
X217206966Y-121632752D01*
X217206966Y-121632752D02*
X217254585Y-121727990D01*
X217254585Y-121727990D02*
X217302204Y-121775609D01*
X217302204Y-121775609D02*
X217397442Y-121823228D01*
X217397442Y-121823228D02*
X217778394Y-121823228D01*
X216826013Y-121394657D02*
X216778394Y-121347038D01*
X216778394Y-121347038D02*
X216683156Y-121299419D01*
X216683156Y-121299419D02*
X216445061Y-121299419D01*
X216445061Y-121299419D02*
X216349823Y-121347038D01*
X216349823Y-121347038D02*
X216302204Y-121394657D01*
X216302204Y-121394657D02*
X216254585Y-121489895D01*
X216254585Y-121489895D02*
X216254585Y-121585133D01*
X216254585Y-121585133D02*
X216302204Y-121727990D01*
X216302204Y-121727990D02*
X216873632Y-122299419D01*
X216873632Y-122299419D02*
X216254585Y-122299419D01*
X233328857Y-121206780D02*
X233376476Y-121254400D01*
X233376476Y-121254400D02*
X233519333Y-121302019D01*
X233519333Y-121302019D02*
X233614571Y-121302019D01*
X233614571Y-121302019D02*
X233757428Y-121254400D01*
X233757428Y-121254400D02*
X233852666Y-121159161D01*
X233852666Y-121159161D02*
X233900285Y-121063923D01*
X233900285Y-121063923D02*
X233947904Y-120873447D01*
X233947904Y-120873447D02*
X233947904Y-120730590D01*
X233947904Y-120730590D02*
X233900285Y-120540114D01*
X233900285Y-120540114D02*
X233852666Y-120444876D01*
X233852666Y-120444876D02*
X233757428Y-120349638D01*
X233757428Y-120349638D02*
X233614571Y-120302019D01*
X233614571Y-120302019D02*
X233519333Y-120302019D01*
X233519333Y-120302019D02*
X233376476Y-120349638D01*
X233376476Y-120349638D02*
X233328857Y-120397257D01*
X232376476Y-121302019D02*
X232947904Y-121302019D01*
X232662190Y-121302019D02*
X232662190Y-120302019D01*
X232662190Y-120302019D02*
X232757428Y-120444876D01*
X232757428Y-120444876D02*
X232852666Y-120540114D01*
X232852666Y-120540114D02*
X232947904Y-120587733D01*
X231471714Y-120302019D02*
X231947904Y-120302019D01*
X231947904Y-120302019D02*
X231995523Y-120778209D01*
X231995523Y-120778209D02*
X231947904Y-120730590D01*
X231947904Y-120730590D02*
X231852666Y-120682971D01*
X231852666Y-120682971D02*
X231614571Y-120682971D01*
X231614571Y-120682971D02*
X231519333Y-120730590D01*
X231519333Y-120730590D02*
X231471714Y-120778209D01*
X231471714Y-120778209D02*
X231424095Y-120873447D01*
X231424095Y-120873447D02*
X231424095Y-121111542D01*
X231424095Y-121111542D02*
X231471714Y-121206780D01*
X231471714Y-121206780D02*
X231519333Y-121254400D01*
X231519333Y-121254400D02*
X231614571Y-121302019D01*
X231614571Y-121302019D02*
X231852666Y-121302019D01*
X231852666Y-121302019D02*
X231947904Y-121254400D01*
X231947904Y-121254400D02*
X231995523Y-121206780D01*
D12*
X157340000Y-122961252D02*
X157340000Y-121538748D01*
X159160000Y-122961252D02*
X159160000Y-121538748D01*
X239963336Y-162711200D02*
X241417464Y-162711200D01*
X239963336Y-164531200D02*
X241417464Y-164531200D01*
X239972336Y-166572000D02*
X241426464Y-166572000D01*
X239972336Y-168392000D02*
X241426464Y-168392000D01*
X225478264Y-186282400D02*
X224024136Y-186282400D01*
X225478264Y-188102400D02*
X224024136Y-188102400D01*
X222615000Y-159640000D02*
X223065000Y-159640000D01*
X222615000Y-160090000D02*
X222615000Y-159640000D01*
X222615000Y-166410000D02*
X222615000Y-166860000D01*
X222615000Y-166860000D02*
X223065000Y-166860000D01*
X229835000Y-159640000D02*
X229385000Y-159640000D01*
X229835000Y-160090000D02*
X229835000Y-159640000D01*
X229835000Y-166410000D02*
X229835000Y-166860000D01*
X229835000Y-166860000D02*
X229385000Y-166860000D01*
X222365000Y-166880000D02*
X221685000Y-166880000D01*
X222025000Y-166410000D01*
X222365000Y-166880000D01*
G36*
X222365000Y-166880000D02*
G01*
X221685000Y-166880000D01*
X222025000Y-166410000D01*
X222365000Y-166880000D01*
G37*
X240041864Y-186282400D02*
X238587736Y-186282400D01*
X240041864Y-188102400D02*
X238587736Y-188102400D01*
X233236252Y-167340000D02*
X231813748Y-167340000D01*
X233236252Y-169160000D02*
X231813748Y-169160000D01*
X241939400Y-172320936D02*
X241939400Y-173775064D01*
X243759400Y-172320936D02*
X243759400Y-173775064D01*
X239921536Y-158748800D02*
X241375664Y-158748800D01*
X239921536Y-160568800D02*
X241375664Y-160568800D01*
X234736252Y-158840000D02*
X233313748Y-158840000D01*
X234736252Y-160660000D02*
X233313748Y-160660000D01*
X219213748Y-167340000D02*
X220636252Y-167340000D01*
X219213748Y-169160000D02*
X220636252Y-169160000D01*
X235564000Y-164526064D02*
X235564000Y-163071936D01*
X237384000Y-164526064D02*
X237384000Y-163071936D01*
X182123000Y-119214652D02*
X182123001Y-117792148D01*
X183942999Y-119214652D02*
X183943000Y-117792148D01*
X211632748Y-186257000D02*
X213055252Y-186257000D01*
X211632748Y-188077000D02*
X213055252Y-188077000D01*
X216313236Y-119156600D02*
X217767364Y-119156600D01*
X216313236Y-120976600D02*
X217767364Y-120976600D01*
X236038748Y-119937200D02*
X237461252Y-119937200D01*
X236038748Y-121757200D02*
X237461252Y-121757200D01*
%LPC*%
D13*
X195700000Y-186420000D03*
D14*
X195635300Y-192100000D03*
D15*
X172387600Y-133299200D03*
X172387600Y-151299200D03*
D16*
X161438000Y-185554000D03*
X161438000Y-180728000D03*
X161438000Y-175902000D03*
D17*
X155088000Y-185204000D03*
D18*
X155088000Y-182664000D03*
D19*
X213360000Y-110363000D03*
D20*
X211563949Y-108566949D03*
D21*
X184183000Y-112290000D03*
D20*
X182386949Y-114086051D03*
D14*
X204120000Y-105290000D03*
D13*
X155140000Y-177850000D03*
X191860000Y-186420000D03*
D22*
X158233600Y-118307200D03*
D20*
X155693600Y-118307200D03*
D13*
X211360000Y-157590000D03*
D23*
X186203000Y-183736621D03*
D24*
X186203000Y-186236621D03*
D14*
X196246000Y-105290000D03*
X203509300Y-192100000D03*
D25*
X213325000Y-180850000D03*
D26*
X215865000Y-180850000D03*
X218405000Y-180850000D03*
X220945000Y-180850000D03*
X223485000Y-180850000D03*
X226025000Y-180850000D03*
X228565000Y-180850000D03*
X231105000Y-180850000D03*
X231105000Y-173230000D03*
X228565000Y-173230000D03*
X226025000Y-173230000D03*
X223485000Y-173230000D03*
X220945000Y-173230000D03*
X218405000Y-173230000D03*
X215865000Y-173230000D03*
X213325000Y-173230000D03*
D25*
X169998000Y-172194000D03*
D24*
X169998000Y-169694000D03*
D22*
X243323600Y-118307200D03*
D20*
X240783600Y-118307200D03*
D21*
X187775102Y-108697897D03*
D20*
X185979051Y-110493948D03*
D25*
X196400000Y-162900000D03*
D24*
X196400000Y-158900000D03*
D17*
X155803600Y-172186600D03*
D18*
X155803600Y-169646600D03*
X155803600Y-167106600D03*
X155803600Y-164566600D03*
X155803600Y-162026600D03*
D15*
X226725100Y-151299200D03*
X226725100Y-133299200D03*
D13*
X183300000Y-129130000D03*
D22*
X238243600Y-118307200D03*
D20*
X235703600Y-118307200D03*
D19*
X216875888Y-113878889D03*
D20*
X215079837Y-112082838D03*
D22*
X163313600Y-118307200D03*
D20*
X160773600Y-118307200D03*
D13*
X160430000Y-160120000D03*
D27*
X158250000Y-120687500D03*
X158250000Y-123812500D03*
D28*
X242240400Y-163621200D03*
X239140400Y-163621200D03*
X242249400Y-167482000D03*
X239149400Y-167482000D03*
D29*
X223201200Y-187192400D03*
X226301200Y-187192400D03*
D30*
X222062500Y-166000000D03*
X222062500Y-165500000D03*
X222062500Y-165000000D03*
X222062500Y-164500000D03*
X222062500Y-164000000D03*
X222062500Y-163500000D03*
X222062500Y-163000000D03*
X222062500Y-162500000D03*
X222062500Y-162000000D03*
X222062500Y-161500000D03*
X222062500Y-161000000D03*
X222062500Y-160500000D03*
D31*
X223475000Y-159087500D03*
X223975000Y-159087500D03*
X224475000Y-159087500D03*
X224975000Y-159087500D03*
X225475000Y-159087500D03*
X225975000Y-159087500D03*
X226475000Y-159087500D03*
X226975000Y-159087500D03*
X227475000Y-159087500D03*
X227975000Y-159087500D03*
X228475000Y-159087500D03*
X228975000Y-159087500D03*
D30*
X230387500Y-160500000D03*
X230387500Y-161000000D03*
X230387500Y-161500000D03*
X230387500Y-162000000D03*
X230387500Y-162500000D03*
X230387500Y-163000000D03*
X230387500Y-163500000D03*
X230387500Y-164000000D03*
X230387500Y-164500000D03*
X230387500Y-165000000D03*
X230387500Y-165500000D03*
X230387500Y-166000000D03*
D31*
X228975000Y-167412500D03*
X228475000Y-167412500D03*
X227975000Y-167412500D03*
X227475000Y-167412500D03*
X226975000Y-167412500D03*
X226475000Y-167412500D03*
X225975000Y-167412500D03*
X225475000Y-167412500D03*
X224975000Y-167412500D03*
X224475000Y-167412500D03*
X223975000Y-167412500D03*
X223475000Y-167412500D03*
D29*
X237764800Y-187192400D03*
X240864800Y-187192400D03*
D32*
X230962500Y-168250000D03*
X234087500Y-168250000D03*
D33*
X242849400Y-174598000D03*
X242849400Y-171498000D03*
D28*
X242198600Y-159658800D03*
X239098600Y-159658800D03*
D32*
X232462500Y-159750000D03*
X235587500Y-159750000D03*
D34*
X221487500Y-168250000D03*
X218362500Y-168250000D03*
D35*
X236474000Y-162249000D03*
X236474000Y-165349000D03*
D27*
X183033000Y-116940900D03*
X183033000Y-120065900D03*
D34*
X213906500Y-187167000D03*
X210781500Y-187167000D03*
D28*
X218590300Y-120066600D03*
X215490300Y-120066600D03*
D34*
X238312500Y-120847200D03*
X235187500Y-120847200D03*
%LPD*%
M02*
